<svg width="349" height="77" viewBox="0 0 349 77" xmlns="http://www.w3.org/2000/svg"><g fill="#fff" fill-rule="nonzero"><g id="Group"><path d="M140.486 32.654h-3.057l-2.402-7.021h-8.871l-2.133 7.021h-2.51l7.766-24.014h3.391l7.816 24.014zm-6.095-9.273l-3.701-11.541-3.697 11.541h7.398zM162.633 32.654h-2.906l-12.361-20.936.033 1.583c.035.598.049 1.104.049 1.51v17.842h-2.412v-24.013h3.746l11.561 19.567-.037-1.671c-.025-.659-.037-1.238-.037-1.744v-16.152h2.369l-.005 24.014zM177.252 32.654h-2.996v-21.377h-6.846v-2.637h16.701v2.638h-6.859v21.376zM196.047 33.142c-3.064 0-5.459-1.199-7.178-3.594-1.709-2.401-2.572-5.345-2.572-8.832 0-3.637.904-6.639 2.701-9.01 1.797-2.376 4.176-3.558 7.141-3.558 2.957 0 5.318 1.163 7.111 3.498 1.785 2.327 2.682 5.263 2.682 8.804 0 3.406-.871 6.373-2.607 8.902-1.733 2.53-4.157 3.79-7.278 3.79zm.074-2.443c2.09 0 3.723-.957 4.904-2.871 1.178-1.912 1.768-4.375 1.768-7.397 0-3.094-.609-5.507-1.834-7.232-1.219-1.724-2.832-2.589-4.85-2.589-2.047 0-3.668.932-4.877 2.803-1.199 1.864-1.805 4.31-1.805 7.324 0 2.943.609 5.343 1.828 7.189 1.212 1.847 2.835 2.773 4.866 2.773zM214.85 32.654h-2.988v-24.014h14.637v2.638h-11.649v7.58h9.652v2.425h-9.652zM245.953 32.654h-3.057l-2.398-7.021h-8.873l-2.135 7.021h-2.506l7.768-24.014h3.389l7.812 24.014zm-6.094-9.273l-3.705-11.541-3.697 11.541h7.402zM267.273 20.547v12.437h-1.828l-.82-3.004c-1.477 2.106-3.666 3.162-6.566 3.162-3.158 0-5.605-1.188-7.363-3.572-1.758-2.381-2.627-5.273-2.627-8.673 0-3.646.926-6.677 2.785-9.106 1.85-2.43 4.375-3.642 7.561-3.642 4.406 0 7.27 2.32 8.611 6.963l-2.826.688c-.416-1.785-1.186-3.086-2.301-3.887-1.119-.811-2.344-1.219-3.674-1.219-2.363 0-4.104.957-5.225 2.875-1.119 1.908-1.672 4.309-1.672 7.197 0 3.114.619 5.546 1.877 7.299 1.254 1.757 2.961 2.635 5.125 2.635 1.676 0 3.082-.562 4.209-1.683 1.117-1.122 1.688-2.675 1.688-4.649 0-.365-.012-.799-.027-1.305h-5.926v-2.516h8.999zM290.473 32.654h-3.053l-2.408-7.021h-8.863l-2.141 7.021h-2.496l7.762-24.014h3.389l7.81 24.014zm-6.096-9.273l-3.705-11.541-3.691 11.541h7.396zM292.396 26.299l2.693-.615c1.086 3.274 3.438 4.909 7.059 4.909 1.895 0 3.314-.4 4.277-1.21.951-.805 1.434-1.884 1.434-3.236 0-1.024-.357-1.851-1.09-2.474-.734-.622-1.57-1.055-2.531-1.283l-4.779-1.191c-1.238-.318-2.258-.701-3.039-1.152-.789-.451-1.457-1.151-2.006-2.09-.549-.937-.818-2.01-.818-3.225 0-2.004.742-3.606 2.254-4.799 1.508-1.189 3.439-1.785 5.799-1.785 4.342 0 7.193 1.972 8.559 5.928l-2.717.81c-.312-1.408-1.047-2.473-2.215-3.194-1.17-.726-2.412-1.084-3.734-1.084-1.307 0-2.471.35-3.494 1.042-1.018.694-1.521 1.682-1.521 2.949 0 1.785 1.291 2.985 3.875 3.61l4.473 1.053c4.08.988 6.127 3.201 6.127 6.636 0 2.073-.766 3.803-2.303 5.18-1.537 1.376-3.695 2.065-6.49 2.065-4.961-.001-8.229-2.278-9.813-6.844zM323.363 32.654h-2.984v-21.377h-6.852v-2.637h16.705v2.638h-6.869v21.376zM348.932 32.654h-3.057l-2.404-7.021h-8.861l-2.141 7.021h-2.506l7.77-24.014h3.387l7.812 24.014zm-6.092-9.273l-3.707-11.541-3.691 11.541h7.398z" id="Shape"/></g><g id="Group"><path id="Shape" d="M143.615 66.89h-2.656v-20.967l-7.088 20.967h-1.854l-7.164-20.967v20.967h-2.316v-24.015h4.047l6.592 19.206 6.439-19.206h4zM153.77 66.89h-2.74v-24.015h2.74zM177.26 66.89h-2.648l-11.299-20.926.035 1.581c.025.6.051 1.098.051 1.511v17.834h-2.211v-24.015h3.418l10.559 19.575-.031-1.673c-.025-.656-.033-1.237-.033-1.743v-16.159h2.16v24.015h-.001zM198.801 64.251v2.639h-14.123v-24.015h13.822v2.642h-11.08v7.634h8.793v2.453h-8.793v8.651zM220.299 66.89h-2.863l-4.033-10.393h-6.25v10.393h-2.561v-24.015h8.602c2.338 0 4.068.701 5.193 2.103 1.127 1.402 1.689 2.938 1.689 4.601 0 1.279-.312 2.503-.943 3.678-.633 1.17-1.672 2.012-3.121 2.513l4.287 11.12zm-13.147-12.837h5.715c1.5 0 2.619-.44 3.363-1.309.742-.88 1.107-1.947 1.107-3.223 0-1.256-.389-2.246-1.176-2.947-.785-.706-1.773-1.057-2.969-1.057h-6.041v8.536h.001zM241.336 66.89h-2.793l-2.191-7.018h-8.105l-1.955 7.018h-2.283l7.094-24.012h3.096l7.137 24.012zm-5.572-9.266l-3.387-11.54-3.377 11.54h6.764zM259.029 64.251v2.639h-12.885v-24.015h2.791v21.375h10.094zM261.746 60.54l2.469-.613c.992 3.271 3.139 4.904 6.441 4.904 1.73 0 3.035-.403 3.904-1.206.871-.806 1.311-1.887 1.311-3.244 0-1.024-.328-1.845-1-2.465-.662-.627-1.438-1.054-2.311-1.291l-4.365-1.183c-1.131-.314-2.057-.699-2.775-1.157-.723-.45-1.336-1.146-1.834-2.083-.498-.937-.75-2.013-.75-3.224 0-2.011.688-3.607 2.068-4.801 1.377-1.193 3.137-1.784 5.289-1.784 3.975 0 6.58 1.973 7.822 5.919l-2.477.81c-.287-1.406-.975-2.466-2.031-3.194-1.064-.717-2.205-1.076-3.414-1.076-1.191 0-2.254.349-3.184 1.039-.934.695-1.396 1.679-1.396 2.954 0 1.776 1.184 2.977 3.547 3.609l4.082 1.054c3.727.983 5.592 3.194 5.592 6.628 0 2.077-.701 3.802-2.1 5.19-1.404 1.375-3.385 2.064-5.93 2.064-4.522-.006-7.507-2.286-8.958-6.85z"/></g><g><path d="M81.251 39.373l18.014 25.853c2.274 3.279 1.455 7.774-1.82 10.042-3.279 2.275-7.772 1.457-10.043-1.821l-14.954-21.459.211-.297 8.591-12.318zM13.408 47.938c4.545-4.289 12.59 1.261 14.582 4.078l.084.12-14.857 21.313c-2.275 3.275-6.77 4.092-10.045 1.821-3.269-2.269-4.088-6.766-1.82-10.042l11.941-17.129.115-.161zM49.697 21.103l-12.12 17.393-8.793-12.619 3.644-5.228 2.58-2.027c3.417-2.685 6.477-3.228 9.26-2.192 1.951.726 3.576 2.142 4.788 3.752l.431.621.21.302zM62.432 37.623l8.799-12.619-14.954-21.458c-1.365-1.956-3.516-3.03-5.729-3.097l-.242-.007-.232.007c-2.217.066-4.375 1.139-5.727 3.097l-9.957 14.288c8.236-6.471 13.881-.359 15.465 1.744l.453.652 12.124 17.392z"/><path d="M71.84 25.879l-8.799 12.619-12.734 18.27c-5.307 7.232-13.807 5.232-13.807 5.232 4.229 6.076 7.846 11.447 7.846 11.447 2.268 3.278 6.764 4.096 10.043 1.821.754-.525 1.377-1.169 1.865-1.885l15.585-22.264 8.801-12.619-8.8-12.621zM14.673 45.914c1.93-.827 4.245-.707 6.728.22 2.969 1.108 6.062 3.406 7.408 5.308.902 1.288 4.34 5.605 7.191 9.694.381.114 4.79.466 7-.136 2.367-.646 4.717-1.892 6.123-4.182l-12.367-17.748-8.585-12.321-13.497 19.165z"/></g></g></svg>