<svg width="191" height="62" viewBox="0 0 191 62" xmlns="http://www.w3.org/2000/svg"><g transform="translate(-1099 -978) translate(1099 978)" fill="#fff"><path d="M82.85 30.447l-6.8-14.7-6.8 14.7h13.6zm-19 7.6l11-23.5c.2-.6.6-1 1.2-1h.1c.7 0 1 .4 1.3 1l11 23.5v.5c0 .5-.3 1-.8 1s-.8-.4-1-.8l-3-6.6h-15.2l-3 6.6c-.2.5-.5.7-1 .7-.422-.045-.755-.378-.8-.8l.1-.6h.1zm29-1.9c-.252-.189-.4-.485-.4-.8.035-.361.262-.674.595-.82.332-.145.717-.099 1.005.12 2.338 2.225 5.474 3.415 8.7 3.3 3.8 0 6.5-2.1 6.5-5v-.1c0-2.7-1.4-4.3-7.3-5.4-6.2-1.3-8.7-3.3-8.7-7.2 0-3.9 3.5-6.8 8.3-6.8 3.5 0 5.9 1 8.2 2.7.2.1.4.4.4.7-.035.361-.262.674-.595.82-.332.145-.717.099-1.005-.12-1.986-1.584-4.46-2.432-7-2.4-3.9 0-6.4 2.2-6.4 4.9s1.4 4.4 7.5 5.6c6 1.2 8.5 3.3 8.5 7 0 4.2-3.6 7-8.5 7-3.9 0-6.9-1.2-9.8-3.5zm24.6 2.2v-23.6c0-.5.4-.9 1-.9h16.6c.4 0 .9.4.9.9s-.5.8-1 .8h-15.6v10h14c.5 0 .9.5.9 1 0 .4-.4.8-.9.8h-14v10.2h15.9c.4 0 .8.4.8.9s-.4.9-.8.9h-16.9c-.552 0-1-.448-1-1h.1zm23.5-11.7c0-7.3 5.4-13.2 12.9-13.2 4.2 0 7 1.4 9.4 3.5.2.2.4.5.4.8 0 .5-.5 1-1 1-.264-.004-.515-.112-.7-.3-2.1-2-4.6-3.3-8.2-3.3-6.2 0-10.8 5-10.8 11.4 0 6.5 4.7 11.5 10.9 11.5 3.5 0 6-1.2 8.3-3.5.2-.2.4-.3.7-.3.5 0 1 .4 1 .9 0 .3-.2.5-.4.6-2.6 2.4-5.4 4-9.7 4-7.4 0-12.8-5.8-12.8-13v-.1zm28.3-12c0-.5.4-1 1-1 .4 0 .9.5.9 1v11h16.4v-11c0-.5.4-1 1-1 .4 0 .9.5.9 1v23.9c0 .5-.5 1-1 1-.552 0-1-.448-1-1v-11.2h-16.4v11.2c0 .5-.5 1-1 1-.552 0-1-.448-1-1v-23.9h.2zm-102.7 32.5l-1.1-2.2-1 2.2h2.1zm-3 1.2l1.7-3.6c0-.1 0-.2.2-.2.1 0 .2 0 .2.2l1.7 3.6-.1.2-.2-.1-.4-1h-2.4l-.4 1h-.3v-.1zm4.3-.3v-.1c-.055-.055-.055-.145 0-.2.055-.055.145-.055.2 0 .4.4.8.6 1.4.6.5 0 1-.4 1-.8s-.3-.7-1.2-.9c-1-.1-1.3-.5-1.3-1 0-.6.5-1 1.3-1 .5 0 .9 0 1.2.3v.3h-.2c-.3-.3-.6-.4-1-.4-.6 0-1 .3-1 .7 0 .4.2.7 1.1.9 1 .2 1.3.5 1.3 1 0 .7-.5 1.1-1.3 1.1-.6 0-1-.2-1.5-.5zm7.2-1.5c0-1-.7-1.7-1.7-1.7s-1.7.7-1.7 1.7.7 1.8 1.7 1.8 1.7-.8 1.7-1.8zm-3.7 0c0-1 .8-2 2-2s2 1 2 2-.8 2-2 2c-1.105 0-2-.895-2-2zm4.7 0c0-1 .8-2 2-2 .6 0 1 .2 1.4.5v.2l-.1.1h-.1c-.3-.3-.7-.5-1.3-.5-1 0-1.6.7-1.6 1.7s.7 1.8 1.6 1.8c.6 0 1-.2 1.3-.6h.1l.2.1v.1c-.417.429-1.004.649-1.6.6-1.105 0-2-.895-2-2h.1zm4.2-1.8s0-.2.2-.2l.1.2v3.6l-.1.2c-.1 0-.2 0-.2-.2v-3.6zm4.1 2.4l-1-2.2-1.1 2.2h2.1zm-3 1.2l1.7-3.6.2-.2c.1 0 .2 0 .2.2l1.7 3.6-.1.2-.2-.1-.4-1h-2.3l-.5 1h-.3v-.1zm4.2-1.8c0-1 .8-2 2-2 .6 0 1 .2 1.4.5v.3h-.2c-.3-.3-.7-.5-1.2-.5-1 0-1.7.7-1.7 1.7s.7 1.8 1.7 1.8c.5 0 .9-.2 1.3-.6l.2.1v.1c-.393.402-.938.62-1.5.6-1.105 0-2-.895-2-2zm4.3-1.8l.1-.2.1.2v3.6l-.1.2-.1-.2v-3.6zm3.1-.6l.3-.6h.4v.2l-.5.4h-.2zm1.7 2.4c0-1-.7-1.7-1.7-1.7s-1.6.7-1.6 1.7.7 1.8 1.6 1.8c1 0 1.7-.8 1.7-1.8zm-3.6 0c0-1 .8-2 2-2 1.1 0 2 1 2 2s-.9 2-2 2c-1.105 0-2-.895-2-2zm4.8-1.8l.1-.1h.2l2.7 3.4v-3.3l.1-.2.2.2v3.7h-.3l-2.7-3.4v3.3c0 .1 0 .2-.2.2l-.1-.2v-3.6zm7.2 3.4c1 0 1.8-.6 1.8-1.6s-.7-1.7-1.8-1.7h-1v3.4h1v-.1zm-1.3-3.4l.1-.1h1.2c1.2 0 2 .8 2 1.9 0 1.105-.895 2-2 2h-1.2l-.1-.2v-3.6zm4.3 3.6v-3.6l.1-.1h2.6c.055 0 .1.045.1.1 0 .055-.045.1-.1.1h-2.4v1.6h2.1l.1.1-.1.1h-2.1v1.6h2.4l.1.1-.1.2h-2.6l-.1-.2zm5.2 0v-3.6l.1-.1h2.6l.1.1-.1.1h-2.4v1.6h2.1l.1.1v.1h-2.2v1.6h2.4l.1.1-.1.2h-2.6l-.1-.2zm3.6-3.6l.2-.1h.1l1.6 2.3 1.5-2.3h.2l.1.1v3.6l-.1.2s-.2 0-.2-.2v-3.2l-1.4 2-.1.1h-.1l-1.5-2.1v3.2l-.1.2c-.1 0-.2 0-.2-.2v-3.6zm6.2 2c.7 0 1.2-.3 1.2-1 0-.5-.5-.9-1.2-.9h-1.1v2h1l.1-.1zm-1.4-2l.1-.1h1.3c.9 0 1.5.4 1.5 1.2 0 .8-.7 1.2-1.6 1.2h-1v1.3c0 .1 0 .2-.2.2l-.1-.2v-3.6zm5.2 1.9c.7 0 1.2-.3 1.2-.9 0-.5-.4-.9-1.1-.9h-1.4v1.8h1.3zm-1.6-1.9l.2-.1h1.5c.5 0 .8.1 1 .4.3.1.4.4.4.7 0 .6-.5 1-1.2 1.1l1.1 1.4v.3l-.2-.1-1.2-1.6h-1.3v1.5l-.1.2c-.1 0-.2 0-.2-.2v-3.6zm4 3.6v-3.6l.1-.1h2.6v.2h-2.4v1.6h2.1l.1.1-.1.1h-2.1v1.6h2.4l.1.1-.1.2h-2.6l-.1-.2zm3.6-3.6l.2-.1h.2l2.6 3.4v-3.3l.1-.2.2.2v3.7h-.3l-2.7-3.4v3.3c0 .083-.067.15-.15.15-.083 0-.15-.067-.15-.15v-3.6zm5.7 3.4c1 0 1.7-.6 1.7-1.6s-.7-1.7-1.8-1.7h-1v3.4h1l.1-.1zm-1.4-3.4l.2-.1h1.1c1.3 0 2.1.8 2.1 1.9 0 1.105-.895 2-2 2h-1.2l-.2-.2v-3.6zm4.4 3.6v-3.7h2.6l.1.1-.1.1h-2.4v1.6h2.1l.2.1-.2.1h-2v1.6h2.3l.2.1-.2.2h-2.5l-.2-.2h.1zm4.9-.2c1 0 1.8-.6 1.8-1.6s-.7-1.7-1.8-1.7h-1v3.4h1v-.1zm-1.3-3.4l.1-.1h1.2c1.2 0 2 .8 2 1.9 0 1.105-.895 2-2 2h-1.2l-.1-.2v-3.6zm7.7 1.8c0-1-.7-1.7-1.7-1.7s-1.6.7-1.6 1.7.7 1.8 1.6 1.8c1 0 1.7-.8 1.7-1.8zm-3.6 0c0-1 .8-2 2-2 1.1 0 2 1 2 2s-.9 2-2 2c-1.105 0-2-.895-2-2zm6.4.1c.7 0 1.2-.3 1.2-.9 0-.5-.5-.9-1.2-.9h-1.3v1.8h1.3zm-1.6-1.9l.1-.1h1.6c.4 0 .8.1 1 .4.2.1.4.4.4.7 0 .6-.5 1-1.2 1.1l1.1 1.4v.3l-.2-.1-1.2-1.6h-1.3v1.5c0 .1 0 .2-.2.2l-.1-.2v-3.6zm3.9 3.6v-3.6l.2-.1h2.5l.2.1-.2.1h-2.4v1.6h2.2l.1.1-.1.1h-2.2v1.6h2.5v.3h-2.6l-.2-.2zm3.6-.3l-.1-.1c-.055-.055-.055-.145 0-.2.055-.055.145-.055.2 0 .4.4.8.6 1.3.6.6 0 1-.4 1-.8s-.2-.7-1-.9c-1-.1-1.4-.5-1.4-1 0-.6.5-1 1.3-1 .5 0 .9 0 1.2.3v.3h-.2c-.3-.3-.7-.4-1-.4-.6 0-1 .3-1 .7 0 .4.2.7 1.1.9 1 .2 1.3.5 1.3 1 0 .7-.5 1.1-1.3 1.1-.6 0-1-.2-1.5-.5h.1zm6.4.1c1.1 0 1.8-.6 1.8-1.6s-.7-1.7-1.8-1.7h-1v3.4h1v-.1zm-1.3-3.4l.2-.1h1.1c1.3 0 2.1.8 2.1 1.9 0 1.105-.895 2-2 2h-1.2l-.2-.2v-3.6zm4.3 3.6v-3.6l.2-.1h2.5l.1.1-.1.1h-2.4v1.6h2.1l.2.1-.2.1h-2.1v1.6h2.4l.2.1-.2.2h-2.5l-.2-.2zm5.1-1.8c0-1 .8-2 2-2 .6 0 1 .2 1.4.5v.2l-.1.1h-.1c-.4-.3-.7-.5-1.3-.5-1 0-1.6.7-1.6 1.7s.7 1.8 1.6 1.8c.6 0 1-.2 1.3-.6h.1l.1.1v.1c-.393.402-.938.62-1.5.6-1.105 0-2-.895-2-2h.1zm4.2-1.8l.1-.2.1.2v1.7h2.6v-1.7l.1-.2.2.2v3.6l-.2.2-.1-.2v-1.7h-2.6v1.7l-.1.2-.1-.2v-3.6zm4.1 0l.2-.2.1.2v3.6l-.1.2s-.2 0-.2-.2v-3.6zm1.4 0l.2-.2.1.2v3.4h2.2l.2.1-.2.2h-2.3l-.2-.2v-3.6.1zm3.4 3.6v-3.6l.1-.1h2.6l.1.1-.1.1h-2.4v1.6h2.1l.2.1-.2.1h-2v1.6h2.4l.1.1v.2h-2.7l-.1-.2h-.1z"/><path d="M34.355 36.102c.5 3.473 1.507 6.869 3.003 10.078.151.323.328.629.53.916-2.513-.831-5.148-1.259-7.807-1.263-3.638.006-7.23.805-10.527 2.343-6.095 2.966-10.416-6.299-4.227-9.063 4.663-2.174 9.697-3.266 14.724-3.277 1.442 0 2.879.089 4.304.266zM35.279 26.449c3.446-.504 6.814-1.507 9.999-2.992.381-.174.738-.385 1.068-.628-2.098 6.093-1.771 12.801.982 18.702.755 1.619.589 3.518-.436 4.982-1.025 1.463-2.752 2.269-4.532 2.113-1.78-.156-3.341-1.249-4.096-2.868-2.185-4.687-3.277-9.739-3.277-14.791 0-1.509.097-3.018.292-4.517zM25.439 25.522c1.53.204 3.075.307 4.626.306 5.053 0 10.104-1.092 14.791-3.277 1.635-.745 2.745-2.31 2.907-4.099.162-1.79-.648-3.529-2.123-4.555-1.475-1.027-3.387-1.183-5.009-.41-5.878 2.742-12.557 3.078-18.631 1.006.152.237.288.487.407.748 1.526 3.272 2.543 6.738 3.032 10.281zM14.904 38.207c-.581.259-1.093.577-1.535.941 2.21-6.169 1.917-12.997-.88-18.991-.775-1.622-.62-3.536.407-5.012 1.027-1.476 2.767-2.287 4.558-2.124 1.791.163 3.356 1.275 4.1 2.912 2.186 4.687 3.277 9.739 3.277 14.791 0 1.519-.099 3.039-.296 4.548-3.318.521-6.562 1.504-9.63 2.935z" fill-rule="nonzero"/><circle id="Oval" fill-rule="nonzero" cx="30.077" cy="54.577" r="6.5"/><circle id="Oval" fill-rule="nonzero" cx="30.077" cy="7.423" r="6.5"/><circle id="Oval" fill-rule="nonzero" cx="53.653" cy="31" r="6.5"/><circle fill-rule="nonzero" cx="6.5" cy="31" r="6.5"/></g></svg>