<svg width="463" height="83" viewBox="0 0 463 83" xmlns="http://www.w3.org/2000/svg"><g fill="#fff"><path d="M108.91 20c-20.172-16.186-47.028-20.113-68.479-7.729-19.926 11.504-29.995 34.087-28.174 57.729h-11.259c-1.317-24.375 10.319-48.229 32.266-60.9 25.938-14.976 58.204-9.668 79.372 10.9h-3.726z" id="Combined-Shape"/><text font-family="AvantGardeLT-Bold, ITC Avant Garde Gothic LT" font-size="60" font-weight="bold" letter-spacing="-2.5" transform="translate(-2179 -754) translate(2179 754)"><tspan x="27" y="71">Aut</tspan><tspan x="122.88" y="71" letter-spacing="-3">h</tspan><tspan x="157.8" y="71" letter-spacing="-4">o</tspan><tspan x="193.76" y="71" letter-spacing="-3.5">r</tspan><tspan x="213.24" y="71">i</tspan><tspan x="227.9" y="71">ty</tspan></text><path d="M462.887 46.86c-2.335 4.888-5.394 16.614-5.27 20.654l4.416-1.466c-.381 1.305-.375 2.396-.834 2.654-1.706.956-3.5 2.029-5.38 2.341-3.897.644-5.802-1.24-5.141-5.112.614-3.592 1.719-7.101 2.649-10.635.763-2.894 1.712-5.743 2.355-8.66 1.017-4.618-.885-6.373-5.35-5.152-4.505 1.232-7.514 3.668-8.6 8.59-1.496 6.781-3.553 13.437-5.417 20.319h-6.477c.793-3.183 1.455-6.052 2.222-8.891 2.559-9.466 5.187-18.914 7.721-28.387.781-2.919 2.866-5.2-1.781-8.366v-1.404h10.796c-1.905 7.667-3.364 13.524-4.375 17.572 6.679-2.565 12.711-5.858 18.466-.057v6zm-167.431.987l-5.101 18.87c.101 1.217 1.282 1.825 3.543 1.825l-1.746 1.995h-13.802c1.119-1.793 1.954-2.785 2.505-2.977 2.224-.775 2.932-2.37 3.477-4.429 3.103-11.73 6.304-23.434 9.777-36.275l-3.602-1.656c.139-.289.347-.808.624-1.558h14.515c-.708 1.569-1.234 2.394-1.579 2.477-2.988.72-3.654 3.019-4.269 5.531-.979 4-2.095 7.967-3.347 12.676 6.68.263 12.757.073 19.45.123 1.498-5.459 2.975-12.271 4.436-17.593-.295-.386-1.407-.938-3.337-1.656l.598-1.558h14.523c-.826 1.725-1.483 2.658-1.971 2.801-2.066.606-2.823 1.998-3.331 3.915-2.939 11.097-9.184 35.634-9.284 36.359.644 1.217 2.132 1.825 4.465 1.825l-1.579 1.995h-15.163c.915-1.804 1.608-2.778 2.08-2.921 2.481-.757 3.192-2.532 3.731-4.782 1.159-4.838 2.538-9.623 3.976-14.987h-19.589zm96.044 18.228c.439.618.742 1.219.906 1.803-4.389 4.357-7.797 4.466-11.503.614-3.251.938-6.314 2.329-9.48 2.629-6.107.578-10.116-3.106-10.824-9.216-1.32-11.405 9.056-23.866 20.332-24.064 2.853-.05 5.726 1.02 8.513 2.322l4.758-1.949c-1.818 9.958-5.245 18.954-6.921 27.861.915 1.134 2.321 1.134 4.219 0zm-54.026.289c2.886 2.261 6.227 2.212 9.435.747 2.247-1.026 4.591-2.496 6.091-4.111.402.38 1.349 1.181 1.808 1.615-4.804 5.929-13.039 8.204-19.622 5.505-5.845-2.395-8.848-7.768-7.831-14.01 1.789-10.989 11.28-18.924 21.979-18.354 3.505.186 6.603 1.147 7.941 4.845 1.106 3.056-.196 6.83-3.288 9.258-2.928 2.298-6.294 3.709-10.028 4.047-2.958.267-5.928.399-9.339.621-.729 4.11-.197 7.447 2.854 9.837zm75.751-43.019c-.299 2.246-.568 3.822-.807 4.727-2.933 11.075-5.907 22.139-8.877 33.204-.552 2.055-2.041 6.352.119 6.352s2.487-.498 4.056-.812c0 .762.292 1.573 0 1.909-1.918 2.2-5.63 3.056-8.217 2.07-1.945-.742-2.983-2.238-2.897-4.213.092-2.136.395-4.304.931-6.374 2.417-9.322 4.973-18.608 7.426-27.92.692-2.629 2.558-5.448-2.166-7.539v-1.404h10.432zm11.948 43.471c.209.387.041 1.821 0 1.909-1.212 2.583-5.491 3.219-8.851 2.1-2.533-.843-3.715-2.885-2.951-5.988 1.547-6.291 3.324-12.526 4.99-18.789.198-.745.471-1.945.818-3.6h-4.179l1.322-2.449c2.457-.404 3.877-1.104 4.259-2.1.919-2.4 1.419-4.4 1.919-6.9 2.23-.471 3.957-.78 6.496-1.317-.457 2.069-1.123 5.161-1.996 9.276h5.805l-.805 3.489h-6.086c-2.522 8.246-4.299 14.702-5.333 19.368-.399 1.799-1.82 4.565-1.084 5.524.491.639 2.383.464 5.676-.524zm-47.789-25.378c-5.733 3.253-10.905 14.121-9.885 20.623.75 4.786 4.232 6.785 8.685 4.985 2.954-1.193 4.887-3.21 5.669-6.408 1.181-4.825 2.589-9.596 3.813-14.411.357-1.407.414-2.889.614-4.375-3.378-2.715-6.175-1.958-8.896-.414zm-28.013 7.734c2.452-2.268 2.92-5.624 1.41-7.593-1.464-1.907-4.185-2.2-7.223-.449-4.668 2.69-7.369 6.83-8.621 12.506 5.607.262 10.458-.784 14.434-4.464z"/></g></svg>