<svg width="137" height="124" viewBox="0 0 137 124" xmlns="http://www.w3.org/2000/svg"><g fill="#fff"><path d="M78.888 33.071c-2.943 6.821-.701 7.91-.867 10.442 2.851-1.872.613-7.911.867-10.442zm-9.663-2.672c1.063 7.879 3.655 6.812 4.582 8.944.775-3.522-3.289-6.739-4.582-8.944zm16.006 10.805c-1.92 2.503-6.501 4.714-8.102 9.959 2.008-2.326 4.297.684 8.102-9.959zm-7.725-21.037c-.53 3.11-3.548 7.205-2.517 12.59.691-2.994 4.121-1.402 2.517-12.59zm-7.849-4.867c-1.32 8.224 1.244 8.196 1.528 10.819 1.931-3.57-1.071-8.196-1.528-10.819zm-2.307 8.254c-.593 2.064-3.127 4.889-2.347 8.344.544-1.982 2.951-.894 2.347-8.344zm-4.576.597c4.104-3.183 2.167-8.5 2.938-11.22-4.528 7.345-2.286 8.501-2.938 11.22zm-7.971 8.48c3.964-3.495 2.621-8.552 3.608-11.288-4.829 6.753-2.846 8.551-3.608 11.288zm5.34-2.968c1.321 6.412 3.471 5.594 4.381 7.349.547-2.75-3.168-5.541-4.381-7.349zm-9.358 4.176c6.283 7.798 7.881 5.594 10.413 7.126-2.257-4.008-7.896-5.203-10.413-7.126zm10.929 15.284c4.503-2.228 3.253-8.584 4.248-11.332-4.35 5.342-3.184 8.586-4.248 11.332zm7.21-5.124c-3.761 4.708-2.621 5.885-3.34 7.743 3.075-1.114 2.441-5.846 3.34-7.743zm-.128-4.593c2.861 9.368 4.794 8.14 6.06 10.692.717-3.927-4.387-8.059-6.06-10.692zm8.076 14.237c2.597-.378 4.516 1.898 10.712-2.327-2.597.751-6.682-.476-10.712 2.327zm15.404-10.635c-2.162 1.762-7.66 3.667-8.74 6.975 2.075-1.62 4.517-.153 8.74-6.975zm1.019-11.042c-4.951 4.885-4.132 7.495-5.404 9.893 4.349-2.119 4.056-7.495 5.404-9.893zm-9.134-4.593c-2.086 7.86-.059 8.852-.478 11.685 3.982-3.889.665-8.853.478-11.685zm6.431 3.551c.791-4.484-3.555-8.587-4.947-11.336 1.181 9.246 3.94 8.589 4.947 11.336zm-11.609-18.87c.303 9.365 2.937 8.735 3.463 11.502 2.055-3.81-2.31-8.692-3.463-11.502zm-10.567-4.697c2.029 2.603 4.14 9.711 8.068 10.106-1.883-2.297-.312-3.753-8.068-10.106zm-11.821 10.159c4.337-.379 6.605-6.558 8.729-8.827-7.246 3.81-6.621 6.816-8.729 8.827zm-2.564-3.889c-3.861 7.469-2.143 8.891-2.839 11.73 3.922-2.38 2.159-8.882 2.839-11.73zm-7.01 7.058c-1.743 8.645.396 8.994.385 11.873 2.541-3.189-.187-8.995-.385-11.873zm-5.061 11.824c2.006 2.58 3.754 9.296 8.005 10.298-1.875-2.413-.42-3.934-8.005-10.298zm8.921 7.732c3.251 6.708 7.575 7.531 10 9.941-2.793-6.24-7.576-7.531-10-9.941zm-7.301 3.623c2.825 1.653 5.728 6.175 11.654 6.415-2.825-1.457-2.94-4.335-11.654-6.415zm5.35 10.038c2.674-.322 6.481 2.074 11.029-1.434-2.674.373-2.632-1.748-11.029 1.434zm15.547 13.758c-16.959-1.763-30.183-16.1-30.183-33.526 0-18.617 15.092-33.709 33.71-33.709 18.616 0 33.709 15.092 33.709 33.709 0 16.431-11.758 30.114-27.318 33.101-.66-2.118-1.244-3.87-1.709-6.616-.327-1.507-.632-3.251.126-4.946.769-.99 2.31-2.978 5.109-6.55l.287-.647c-4.111 4.641-7.927 6.865-9.451 3.707.91 3.226 1.007 4.009-10.027-4.505 5.771 5.411 8.591 8.261 5.359 6.75 3.015 2.677 3.488 7.417.388 13.232zm8.825-12.858l-.122.19.122-.19z"/><path d="M36.145 102.996c0 1.97 1.581 3.532 3.581 3.532 1.987 0 3.568-1.562 3.568-3.532 0-1.982-1.581-3.544-3.568-3.544-2 0-3.581 1.562-3.581 3.544zm7.974.035c0 2.227-1.959 3.998-4.406 3.998-2.435 0-4.393-1.783-4.393-3.998 0-2.297 1.916-4.081 4.406-4.081 2.476 0 4.393 1.784 4.393 4.081z"/><path d="M51.47 105.887l3.483-6.784h1.343c-.265.057-.335.163-.335.524v6.727c0 .349.055.442.335.524h-1.455c.28-.082.336-.175.336-.524v-6.681l-3.665 7.205h-.35l-3.735-7.205v6.681c0 .349.07.442.336.524h-1.217c.279-.082.336-.175.336-.524v-6.727c0-.35-.07-.467-.336-.524h1.398l3.526 6.784"/><path d="M63.871 105.887l3.483-6.784h1.343c-.266.057-.336.163-.336.524v6.727c0 .349.056.442.336.524h-1.455c.28-.082.336-.175.336-.524v-6.681l-3.665 7.205h-.35l-3.735-7.205v6.681c0 .349.07.442.336.524h-1.218c.28-.082.336-.175.336-.524v-6.727c0-.35-.069-.467-.336-.524h1.399l3.526 6.784"/><path d="M78.509 99.103c-.265.057-.334.174-.334.524v4.675c0 1.084-.197 1.632-.728 2.052-.518.43-1.483.675-2.603.675-1.203 0-2.084-.302-2.615-.885-.448-.49-.588-.957-.588-1.971v-4.546c0-.35-.07-.467-.336-.524h1.455c-.265.057-.336.174-.336.524v4.546c0 1.702.7 2.355 2.504 2.355.91 0 1.652-.186 2.113-.536.391-.304.588-.909.588-1.842v-4.523c0-.361-.071-.467-.336-.524h1.216"/><path d="M82.181 106.33c0 .35.084.454.462.548h-1.497c.406-.082.49-.198.49-.607v-6.644c0-.361-.07-.467-.335-.524h1.077l5.665 6.76v-6.155c0-.338-.14-.536-.419-.605h1.356c-.279.069-.391.244-.391.605v7.17h-.671l-5.737-6.843v6.295"/><path d="M93.086 99.103c-.266.057-.336.163-.336.524v6.727c0 .349.056.454.336.524h-1.455c.266-.07.335-.175.335-.524v-6.727c0-.35-.069-.467-.335-.524h1.455"/><path d="M98.744 106.354c0 .349.056.442.336.524h-1.455c.294-.082.336-.163.336-.63v-6.691h-2.155c-.433 0-.531.058-.671.431v-.885h6.449v.885c-.14-.361-.252-.431-.7-.431h-2.14v6.797"/><path d="M107.204 106.354c0 .349.07.454.336.524h-1.455c.28-.082.336-.175.336-.524v-2.239l-2.728-4.605c-.14-.233-.322-.35-.616-.407h1.735c-.21.057-.307.127-.307.232 0 .047.027.117.097.233l2.35 4.023 2.266-3.918c.084-.128.098-.187.098-.244 0-.152-.069-.234-.279-.326h1.455c-.336.092-.434.174-.714.652l-2.574 4.36v2.239"/><path d="M11.379 120.85c0 .348.055.443.334.524h-1.453c.28-.07.335-.176.335-.524v-6.766c0-.327-.069-.431-.335-.478h5.352v.863c-.112-.326-.238-.409-.573-.409h-3.66v3.109l3.283.001c.307 0 .433-.059.559-.292v1.06c-.182-.279-.237-.313-.559-.313h-3.283v3.225"/><path d="M18.533 117.514c0 1.969 1.581 3.532 3.581 3.532 1.987 0 3.567-1.563 3.567-3.532 0-1.983-1.58-3.544-3.567-3.544-2 0-3.581 1.561-3.581 3.544zm7.974.035c0 2.226-1.959 3.998-4.407 3.998-2.434 0-4.392-1.783-4.392-3.998 0-2.297 1.916-4.081 4.406-4.081 2.476 0 4.393 1.784 4.393 4.081z"/><path d="M36.096 113.62c-.266.058-.336.175-.336.525v4.674c0 1.084-.196 1.632-.727 2.052-.518.431-1.483.676-2.602.676-1.203 0-2.085-.303-2.616-.886-.448-.489-.588-.956-.588-1.971v-4.545c0-.35-.07-.467-.335-.525h1.454c-.265.058-.335.175-.335.525v4.545c0 1.703.699 2.356 2.504 2.356.909 0 1.65-.187 2.112-.536.392-.304.588-.909.588-1.842v-4.523c0-.362-.07-.467-.336-.525h1.217"/><path d="M39.768 120.848c0 .349.084.454.461.548h-1.496c.405-.083.489-.199.489-.607v-6.644c0-.362-.07-.467-.336-.525h1.078l5.665 6.761v-6.155c0-.338-.139-.537-.419-.606h1.357c-.28.069-.393.244-.393.606v7.17h-.671l-5.735-6.843v6.295"/><path d="M51.245 120.94c1.203 0 2.197-.232 2.938-.711.965-.617 1.581-1.69 1.581-2.762 0-1.061-.588-2.064-1.553-2.682-.811-.501-1.679-.711-3.05-.711h-.825v6.866h.909zm-.07-7.32c1.567 0 2.546.209 3.47.734 1.203.688 1.944 1.866 1.944 3.078 0 1.434-.867 2.716-2.308 3.392-.867.408-1.776.572-3.246.572h-1.818c.28-.083.336-.175.336-.525v-6.715c0-.361-.07-.467-.336-.536h1.958z"/><path d="M63.448 118.05l-1.776-3.754-1.749 3.754h3.525zm2.099 2.727c.181.444.196.455.63.619h-1.792c.266-.047.42-.152.42-.292 0-.058-.028-.152-.112-.327l-1.035-2.273h-3.917l-1.021 2.273c-.07.141-.084.199-.084.269 0 .175.07.245.364.35h-1.511c.335-.105.406-.175.643-.711l2.994-6.471c.056-.116.084-.221.084-.291 0-.163-.112-.269-.293-.303h1.3l3.33 7.157z"/><path d="M69.854 120.871c0 .35.057.442.336.525h-1.455c.294-.083.336-.164.336-.63v-6.692h-2.154c-.434 0-.532.059-.672.432v-.886h6.449v.886c-.14-.361-.252-.432-.699-.432h-2.141v6.797"/><path d="M76.212 113.62c-.266.058-.335.163-.335.525v6.726c0 .35.055.454.335.525h-1.455c.266-.071.335-.175.335-.525v-6.726c0-.35-.069-.467-.335-.525h1.455"/><path d="M79.45 117.514c0 1.969 1.581 3.532 3.582 3.532 1.986 0 3.566-1.563 3.566-3.532 0-1.983-1.58-3.544-3.566-3.544-2.001 0-3.582 1.561-3.582 3.544zm7.974.035c0 2.226-1.959 3.998-4.407 3.998-2.433 0-4.392-1.783-4.392-3.998 0-2.297 1.917-4.081 4.407-4.081 2.475 0 4.392 1.784 4.392 4.081z"/><path d="M90.886 120.848c0 .349.084.454.461.548h-1.496c.406-.083.489-.199.489-.607v-6.644c0-.362-.07-.467-.335-.525h1.077l5.666 6.761v-6.155c0-.338-.141-.537-.42-.606h1.356c-.279.069-.391.244-.391.606v7.17h-.671l-5.736-6.843v6.295"/><path d="M98.751 122.903c.578-.606.653-.715.895-1.337-.447-.015-.709-.233-.709-.606 0-.326.318-.591.691-.591.447 0 .764.327.764.777 0 .669-.447 1.447-1.212 2.068l-.429-.311"/><path d="M106.969 113.634c-.265.058-.336.163-.336.524v6.714c0 .349.057.453.336.524h-1.452c.265-.071.335-.175.335-.524v-6.714c0-.349-.07-.466-.335-.524h1.452"/><path d="M110.863 120.848c0 .349.084.454.461.548h-1.496c.405-.083.489-.199.489-.607v-6.644c0-.362-.07-.467-.336-.525h1.077l5.666 6.761v-6.155c0-.338-.139-.537-.42-.606h1.358c-.281.069-.393.244-.393.606v7.17h-.671l-5.735-6.843v6.295"/><path d="M126.048 115.182c-.323-.746-1.133-1.212-2.126-1.212-1.946 0-3.358 1.515-3.358 3.601 0 2.018 1.328 3.475 3.19 3.475 1.062 0 2.154-.571 2.671-1.376v1.434c-.098-.198-.168-.256-.28-.256-.084 0-.139.023-.336.139-.601.338-1.398.56-2.084.56-2.308 0-3.987-1.691-3.987-4.022 0-2.413 1.693-4.057 4.155-4.057.518 0 .965.094 1.581.339l.251.069c.141 0 .225-.081.323-.256v1.562"/><path d="M129.208 120.369c-.41 0-.746.28-.746.607 0 .341.336.622.746.622.391 0 .727-.281.727-.622 0-.327-.336-.607-.727-.607"/><path d="M32.798 100.682c-.323-.746-1.133-1.212-2.126-1.212-1.946 0-3.358 1.515-3.358 3.601 0 2.018 1.328 3.475 3.19 3.475 1.062 0 2.154-.571 2.672-1.376v1.434c-.099-.198-.168-.256-.281-.256-.084 0-.139.023-.336.139-.601.338-1.398.56-2.084.56-2.308 0-3.987-1.691-3.987-4.022 0-2.413 1.693-4.057 4.155-4.057.518 0 .965.094 1.581.339l.251.069c.141 0 .225-.081.323-.256v1.562"/><path d="M10.634 91.878h3.903c.49 0 .63-.081.825-.466v.921h-5.847c.28-.07.336-.163.336-.478v-6.82c0-.327-.07-.431-.336-.477h5.638v.885c-.098-.303-.294-.431-.686-.431h-3.833v3.043h3.498c.307 0 .433-.082.573-.362v1.177c-.098-.256-.28-.361-.63-.361h-3.441v3.369"/><path d="M18.894 91.785c0 .35.084.454.462.548h-1.497c.406-.082.49-.198.49-.606v-6.646c0-.361-.07-.466-.336-.523h1.077l5.666 6.76v-6.155c0-.338-.14-.536-.42-.605h1.357c-.28.069-.391.244-.391.605v7.17h-.672l-5.736-6.843v6.295"/><path d="M31.403 91.809c0 .349.056.442.336.524h-1.455c.294-.082.336-.163.336-.63v-6.691h-2.154c-.434 0-.532.058-.672.431v-.885h6.449v.885c-.14-.362-.252-.431-.699-.431h-2.141v6.797"/><path d="M39.314 88.311c1.091 0 1.483-.058 1.874-.268.476-.257.812-.805.812-1.353 0-.512-.308-1.025-.756-1.305-.434-.269-1.021-.373-1.958-.373h-1.651v3.299h1.679zm-1.679 3.498c0 .349.056.454.335.524h-1.454c.265-.07.336-.175.336-.524v-6.774c0-.327-.071-.431-.336-.477h2.77c1.16 0 1.804.104 2.378.373.713.361 1.161 1.037 1.161 1.783 0 .816-.602 1.597-1.427 1.853-.252.082-.532.128-1.189.175l2.49 2.985c.364.455.391.478.769.606h-1.23l-2.827-3.567h-1.776v3.043z"/><path d="M50.637 88.987l-1.776-3.754-1.749 3.754h3.525zm2.099 2.728c.182.443.195.455.629.618h-1.791c.266-.047.42-.151.42-.291 0-.059-.028-.152-.112-.327l-1.035-2.274h-3.917l-1.021 2.274c-.07.14-.084.198-.084.268 0 .175.07.246.364.35h-1.511c.336-.104.406-.175.644-.711l2.993-6.471c.056-.116.084-.22.084-.291 0-.163-.112-.267-.294-.302h1.301l3.33 7.157z"/><path d="M55.092 92.333c.28-.07.336-.151.336-.478v-6.774c0-.361-.07-.466-.336-.523h1.456c-.267.057-.336.173-.336.523v6.797h3.665c.504 0 .714-.105.825-.454v.909h-5.61"/><path d="M78.812 91.878h3.903c.49 0 .629-.081.825-.466v.921h-5.847c.279-.07.336-.163.336-.478v-6.82c0-.327-.07-.431-.336-.477h5.638v.885c-.099-.303-.294-.431-.686-.431h-3.833v3.043h3.497c.308 0 .434-.082.574-.362v1.177c-.098-.256-.28-.361-.629-.361h-3.442v3.369"/><path d="M90.935 84.558h.489l2.546 7.064 1.945-6.506.028-.185c0-.176-.07-.269-.266-.35l-.056-.023h1.315c-.294.128-.406.256-.517.617l-2.155 7.228h-.84l-2.391-6.598-2.448 6.598h-.798l-2.168-7.228c-.112-.373-.195-.489-.462-.617h1.47c-.225.069-.281.128-.281.291l.071.267 1.916 6.412 2.602-6.97"/><path d="M110.608 88.451c0 1.97 1.581 3.532 3.581 3.532 1.986 0 3.567-1.562 3.567-3.532 0-1.982-1.581-3.544-3.567-3.544-2 0-3.581 1.562-3.581 3.544zm7.974.035c0 2.227-1.958 3.998-4.407 3.998-2.434 0-4.392-1.783-4.392-3.998 0-2.297 1.916-4.081 4.406-4.081 2.477 0 4.393 1.784 4.393 4.081z"/><path d="M123.583 88.311c1.09 0 1.482-.058 1.874-.268.476-.257.811-.805.811-1.353 0-.512-.307-1.025-.755-1.305-.433-.269-1.021-.373-1.959-.373h-1.65v3.299h1.679zm-1.679 3.498c0 .349.056.454.336.524h-1.455c.265-.07.336-.175.336-.524v-6.774c0-.327-.071-.431-.336-.477h2.769c1.161 0 1.805.104 2.379.373.713.361 1.16 1.037 1.16 1.783 0 .816-.6 1.597-1.426 1.853-.251.082-.532.128-1.189.175l2.49 2.985c.364.455.392.478.769.606h-1.231l-2.826-3.567h-1.776v3.043z"/><path d="M130.765 89.127v2.682c0 .361.057.442.336.524h-1.455c.267-.07.336-.175.336-.524v-6.728c0-.35-.069-.466-.336-.523h1.455c-.265.057-.336.162-.336.523v3.44l3.988-3.521c.153-.128.181-.175.181-.245 0-.081-.055-.14-.181-.197h1.566c-.321.104-.713.338-1.063.64l-2.434 2.146 3.092 4.255c.363.524.405.559.867.734h-1.274l-3.231-4.523-1.511 1.317"/><path d="M6.442 86.182c-.323-.746-1.133-1.212-2.126-1.212-1.946 0-3.358 1.515-3.358 3.601 0 2.018 1.328 3.475 3.19 3.475 1.062 0 2.154-.571 2.671-1.376v1.434c-.098-.198-.167-.256-.28-.256-.084 0-.139.023-.336.139-.601.338-1.398.56-2.084.56-2.308 0-3.987-1.691-3.987-4.022 0-2.413 1.693-4.057 4.155-4.057.518 0 .965.094 1.581.339l.251.069c.141 0 .225-.081.323-.256v1.562"/><path d="M68.507 91.761c0 .349.083.454.462.548h-1.498c.407-.082.491-.199.491-.607v-6.644c0-.362-.071-.467-.336-.525h1.077l5.665 6.761v-6.155c0-.338-.14-.536-.419-.606h1.356c-.279.07-.391.244-.391.606v7.17h-.671l-5.736-6.843v6.295"/><path d="M105.704 91.822c0 .35.07.454.336.525h-1.455c.28-.082.336-.175.336-.525v-2.238l-2.728-4.605c-.14-.233-.322-.35-.616-.408h1.735c-.21.058-.307.128-.307.233 0 .047.027.117.097.233l2.35 4.023 2.266-3.918c.084-.128.098-.187.098-.245 0-.151-.069-.233-.279-.326h1.455c-.336.093-.434.175-.714.653l-2.574 4.36v2.238"/></g></svg>