<svg width="150" height="61" viewBox="0 0 150 61" xmlns="http://www.w3.org/2000/svg"><g fill="#fff" fill-rule="nonzero"><g id="Group"><path d="M126.4 60.5c6.4-.4 11.9-2.8 16.3-7.2 4.9-4.8 7.3-10.9 7.3-18.3 0-6.7-1.9-12.5-6-17-.1-.1-.3-.2-.5-.2-.4 0-.7.3-.7.7v.2c3 8.1 1.3 16.3-4.1 18.4-3.7 1.5-8.2-.3-11.8-4.3-.3-.3-.7-.3-1 0-.2.2-.3.6-.1.9l.1.1c3.1 3.5 4.7 7.8 4.7 12.8 0 5-1.5 9.3-4.6 12.7-.1.1-.2.3-.2.5 0 .4.3.7.6.7zM76.6 58.3c-.5-.8-1.3-1.9-2.1-3.5-1.4-2.5-2.5-4.2-3.3-5.2-.8-1-1.6-1.8-2.4-2.3 1.4-.6 2.7-1.4 3.4-2.6.7-1.2 1.1-2.5 1.1-4.1 0-2.3-.8-4.2-2.3-5.5-1.5-1.4-3.8-2-6.4-2h-6.4v27.2h4v-11.9h.3c1.2 0 2.1.1 2.6.4.5.3 1.1.8 1.7 1.4.6.7 1.3 1.5 2.1 2.7l1.1 2.1 1.1 2 .7 1.1c.1.2.2.3.2.3l1.1 1.8h4.7l-1.2-1.9zm-9.4-14.2c-.6.3-2 .5-3.7.5h-1.3v-7.8h1c1.6 0 3 .1 3.8.4.7.3 1.3.7 1.6 1.3.4.6.6 1.3.6 2.1s-.2 1.5-.5 2.1c-.4.6-.9 1-1.5 1.4zM81.2 33h13.6v3.8h-9.6v6.9h9.6v3.8h-9.6v12.7h-4zM50 36.6c-2.6-2.7-5.9-4-9.9-4s-7.2 1.3-9.8 4c-2.6 2.7-3.9 6-3.9 10.1 0 4 1.3 7.3 3.9 9.9 2.6 2.6 5.8 3.9 9.6 3.9 4 0 7.4-1.3 10-3.9 2.7-2.6 4-6 4-10 .1-4-1.3-7.3-3.9-10zm-3 17.4c-1.8 2-4.1 3-6.9 3-2.7 0-5-1-6.8-2.9-1.8-2-2.7-4.4-2.7-7.3 0-3 .9-5.5 2.7-7.5 1.8-2 4.1-2.9 6.9-2.9 2.7 0 4.9 1 6.8 3 1.8 2 2.8 4.4 2.8 7.3 0 2.8-.9 5.3-2.8 7.3zM122.1 36.6c-2.6-2.7-5.9-4-9.9-4s-7.2 1.3-9.8 4c-2.6 2.7-3.9 6-3.9 10.1 0 4 1.3 7.3 3.9 9.9 2.6 2.6 5.8 3.9 9.6 3.9 4 0 7.4-1.3 10-3.9 2.7-2.6 4-6 4-10 .1-4-1.2-7.3-3.9-10zm-3 17.4c-1.8 2-4.1 3-6.9 3-2.7 0-5-1-6.8-2.9-1.8-2-2.7-4.4-2.7-7.3 0-3 .9-5.5 2.7-7.5 1.8-2 4.1-2.9 6.9-2.9 2.7 0 4.9 1 6.8 3 1.8 2 2.8 4.4 2.8 7.3 0 2.8-.9 5.3-2.8 7.3zM22.7 54c-2.1 2-4.7 3-7.8 3-3.1 0-5.7-1-7.8-2.9-2.1-2-3.1-4.4-3.1-7.3 0-3 1-5.5 3.1-7.5s4.7-2.9 7.9-2.9c3 0 5.6 1 7.7 3l.1.1v-4.4c-3.3-1.5-6.3-2.2-9-2.2-3.9 0-7.2 1.4-9.8 4.1-2.7 2.7-4 6-4 10 0 2.5.6 4.8 1.7 6.9 1.2 2.1 2.7 3.8 4.7 5 2 1.2 4.4 1.8 7.3 1.8 3.5 0 6.6-.8 9.3-2.3v-4.5c-.1-.1-.2 0-.3.1zM139.7 26.9c-.9-.9-2.1-1.4-3.5-1.4s-2.6.5-3.5 1.4c-.9.9-1.4 2.1-1.4 3.6 0 1.4.5 2.6 1.4 3.5.9.9 2.1 1.4 3.4 1.4 1.4 0 2.6-.5 3.6-1.4.9-.9 1.4-2.1 1.4-3.5 0-1.5-.4-2.7-1.4-3.6z"/></g><g><path d="M0 0h56v13h-56zM57 0h69v13h-69z"/></g></g></svg>