<svg width="284" height="53" viewBox="0 0 284 53" xmlns="http://www.w3.org/2000/svg"><g fill="#fff"><path d="M80.254 41.521c-1.305.444-2.666.844-4.027 1.121-1.597.325-3.25.502-4.93.502-5.429 0-9.679-1.806-10.375-6.109h23.161c.172-.826.476-2.826.476-4.93 0-9.778-4.865-18.754-17.277-18.754-12.058 0-18.477 9.455-18.477 20.049 0 12.213 8.539 19.199 20.46 19.199 3.036 0 5.255-.272 7.087-.644 1.902-.388 3.997-1.014 5.769-1.807l-1.867-8.627zm-13.183-19.399c4.59 0 5.977 4.194 5.977 6.497h-12.373c0-3.262 2.267-6.497 6.396-6.497z"/><path d="M260.061 41.521c-1.305.444-2.666.844-4.027 1.121-1.598.325-3.25.502-4.93.502-5.428 0-9.678-1.806-10.373-6.109h23.16c.172-.826.475-2.826.475-4.93 0-9.778-4.866-18.754-17.276-18.754-12.058 0-18.476 9.455-18.476 20.049 0 12.213 8.537 19.199 20.459 19.199 3.035 0 5.254-.272 7.088-.644 1.9-.388 3.996-1.014 5.767-1.807l-1.867-8.627zm-13.182-19.399c4.59 0 5.977 4.194 5.977 6.497h-12.373c0-3.262 2.267-6.497 6.396-6.497z"/><path d="M90.232 51.795h12.56v-50.895h-12.56z"/><path d="M127.846 52.599c9.801 0 19.72-6.172 19.72-19.955 0-8.207-4.862-19.231-19.105-19.231-14.662 0-20.01 10.682-20.01 19.856 0 11.512 7.994 19.33 19.395 19.33zm.169-9.315c-4.08 0-6.76-4.033-6.76-10.271 0-4.968 1.796-10.273 6.803-10.273 4.831 0 6.546 5.498 6.546 10.219 0 6.266-2.606 10.325-6.589 10.325z"/><path d="M153.027 51.795h12.558v-37.556h-12.558z"/><path d="M153.027 10.668h12.558v-9.752h-12.558z"/><path d="M175.533 4.02v10.214h-4.826v9.307h4.826v15.385c0 8.462 3.869 13.64 12.701 13.64 1.656 0 3.526-.17 5.249-.428 1.594-.239 3.008-.529 3.627-.731.01-.01-.092-9.81-.092-9.846-.404.14-3.252.618-4.293.618-1.01 0-2.511-.128-3.583-1.225-.766-.782-1.314-2.057-1.314-4.128v-13.285h8.118v-9.307h-8.118v-11.6l-12.295 1.386"/><path d="M204.59 4.02v10.214h-4.826v9.307h4.826v15.385c0 8.462 3.869 13.64 12.702 13.64 1.656 0 3.525-.17 5.246-.428 1.595-.239 3.009-.529 3.629-.731.009-.01-.092-9.81-.092-9.846-.405.14-3.25.618-4.293.618-1.01 0-2.51-.128-3.582-1.225-.766-.782-1.313-2.057-1.313-4.128v-13.285h8.115v-9.307h-8.115v-11.6l-12.297 1.386"/><path d="M269.774 45.663c0-3.836 3.111-6.945 6.947-6.945s6.949 3.109 6.949 6.945c0 3.839-3.113 6.948-6.949 6.948s-6.947-3.109-6.947-6.948"/><path d="M18.373 41.711c-.521.043-1.306.062-1.809.062h-3.983c.006-.004 0-31.278 0-31.278 1.378-.123 3.128-.205 4.297-.205 7.302 0 15.082 4.738 15.082 15.679 0 11.416-7.312 15.224-13.587 15.742zm-18.168 10.139h14.213c.962 0 2.126-.023 3.038-.07 19.452-1.005 27.546-12.518 27.546-25.811 0-16.605-11.2-25.906-30.528-25.906-4.961 0-9.371.169-14.269.582v51.205z"/></g></svg>