<svg width="151" height="137" viewBox="0 0 151 137" xmlns="http://www.w3.org/2000/svg"><g fill="#fff" fill-rule="nonzero"><path d="M63 137v-137h88v137h-88zm11.02-7.667v-2.922h-2.188l.08.961h.912v1.237c-.318.149-.703.209-1.128.209-1.149 0-1.732-.843-1.732-2.414 0-1.327.544-2.209 1.753-2.209.672 0 1.254.169 1.632.424l.544-.988c-.524-.339-1.189-.583-2.196-.583-2.078 0-3.097 1.343-3.097 3.375 0 2.118 1.019 3.504 3.007 3.504.822 0 1.515-.189 2.415-.595zm4.08-1.941c0 1.157-.314 1.583-.948 1.583-.634 0-.941-.454-.941-1.583 0-1.158.334-1.572.941-1.572.601 0 .948.405.948 1.572zm1.326 0c0-1.427-.81-2.513-2.273-2.513-1.484 0-2.274 1.088-2.274 2.513 0 1.665.818 2.535 2.274 2.535 1.443 0 2.273-.882 2.273-2.535zm2.251 1.091v-2.268c.221-.217.574-.386.9-.386.594 0 .961.405.961 1.564 0 1.169-.418 1.587-.98 1.587-.346 0-.681-.229-.881-.496zm-.087-3.009l.087-.783v-1.694h-1.294v6.833h.692l.241-.588c.302.418.708.686 1.4.686 1.13 0 2.117-.862 2.117-2.535 0-1.702-.818-2.513-1.956-2.513-.547 0-1.07.295-1.286.595zm4.576-2.477v1.177h1.306v-1.177h-1.306zm.039 6.833h1.286v-4.852h-1.849v.812l.563.118v3.923zm4.477-4.002c.673 0 .862.536.862 1.159h-1.771c0-.576.268-1.159.909-1.159zm-.909 1.923h3.018v-.563c0-1.222-.574-2.309-2.038-2.309-1.554 0-2.274 1.021-2.274 2.513 0 1.602.889 2.535 2.384 2.535.759 0 1.424-.26 1.829-.476l-.248-.91c-.425.217-.929.406-1.424.406-.81 0-1.247-.425-1.247-1.198zm6.744-1.694l.033-1.099c-.111-.03-.307-.071-.567-.071-.496.007-.945.296-1.156.745h-.028l-.142-.654h-.896v4.852h1.281v-3.524c.221-.181.528-.328.87-.328.205-.003.408.023.605.079zm3.785 3.773h1.318v-3.001c0-1.229-.489-1.95-1.712-1.95-.723 0-1.259.328-1.534.653l-.196-.554h-.889v4.852h1.294v-3.663c.225-.15.512-.299.85-.299.594 0 .869.347.869 1.079v2.883zm5.399-2.438h-.001c0 1.157-.318 1.583-.948 1.583-.634 0-.941-.454-.941-1.583 0-1.158.334-1.572.941-1.572.602 0 .949.405.949 1.572zm1.326 0c0-1.427-.811-2.513-2.274-2.513-1.483 0-2.278 1.088-2.278 2.513 0 1.665.823 2.535 2.278 2.535 1.444 0 2.274-.882 2.274-2.535zm6.157-1.304v2.485c-.244.255-.574.413-.9.413-.613 0-.976-.438-.976-1.595 0-1.127.385-1.544.999-1.544.309-.002.612.082.877.241zm.118-.736c-.267-.296-.68-.474-1.204-.474-1.176 0-2.089.921-2.089 2.524 0 1.733.881 2.525 1.979 2.525.621 0 1.09-.34 1.286-.635l.145.536h1.051v-6.833h-1.286v1.465c-.006.301.034.602.118.891zm4.351.476h.001c.673 0 .861.535.861 1.157h-1.775c0-.575.268-1.157.913-1.157zm-.913 1.921h3.019v-.563c0-1.222-.574-2.309-2.035-2.309-1.554 0-2.278 1.021-2.278 2.513 0 1.602.889 2.535 2.384 2.535.763 0 1.424-.26 1.83-.476l-.248-.91c-.425.217-.929.406-1.424.406-.811 0-1.248-.425-1.248-1.198zm8.908 2.178h.001c.82.005 1.622-.244 2.297-.712l-.417-1.048c-.456.335-1.105.611-1.759.611-1.09 0-1.645-.792-1.645-2.336 0-1.465.556-2.248 1.664-2.248.693 0 1.295.197 1.642.465l.492-1.047c-.543-.367-1.362-.564-2.274-.564-1.889 0-2.888 1.324-2.888 3.406 0 2.225 1.011 3.473 2.888 3.473zm3.164-.098h1.294v-3.663c.221-.161.527-.299.861-.299.582 0 .862.378.862 1.071v2.891h1.314v-3.001c0-1.229-.386-1.95-1.771-1.95-.543-.011-1.059.234-1.393.662.058-.15.126-.413.126-.752v-1.792h-1.294v6.833zm5.732-6.833v1.177h1.306v-1.177h-1.306zm.04 6.833h1.286v-4.852h-1.85v.812l.564.118v3.923zm2.474-1.288c0 .862.355 1.386 1.343 1.386.337 0 .715-.079.715-.079v-.909c-.539 0-.783-.064-.783-.469v-5.474h-1.275v5.545zm4.914-2.713c.669 0 .858.535.858 1.157h-1.771c0-.575.268-1.157.913-1.157zm-.913 1.921h3.018v-.563c0-1.222-.574-2.309-2.038-2.309-1.551 0-2.274 1.021-2.274 2.513 0 1.602.889 2.535 2.384 2.535.759 0 1.424-.26 1.829-.476l-.248-.91c-.425.217-.929.406-1.424.406-.811 0-1.247-.425-1.247-1.198zm-68.984-119.79c1.648 0 2.27.744 2.27 2.736 0 2.371-.866 2.994-1.94 2.994-.586 0-1.137-.087-1.417-.173v-5.557h1.087zm.244 7.073c2.561 0 3.722-1.65 3.722-4.324 0-3.068-1.515-4.045-3.903-4.045h-2.746v7.927c.755.22 1.73.442 2.927.442zm5.346-8.368v8.247h1.597v-8.247h-1.597zm5.784 1.248h.001c.963 0 1.487.303 1.487 1.221 0 .942-.437 1.417-1.488 1.417h-.806v-2.638h.806zm-.806 6.997v-3.103c.342 0 .586 0 .952-.012l1.354 3.115h1.881l-1.743-3.394c.925-.428 1.561-1.26 1.561-2.37 0-1.721-1.317-2.482-2.942-2.482h-2.649v8.247h1.586zm5.299 0h5.063v-1.331h-3.467v-2.114h2.526l.123-1.418h-2.649v-2.024h3.468v-1.359h-5.064v8.247zm9.372.122v.001c1.011.008 2-.299 2.829-.879l-.512-1.294c-.563.413-1.366.756-2.172.756-1.342 0-2.027-.978-2.027-2.883 0-1.808.685-2.772 2.05-2.772.854 0 1.597.244 2.027.575l.609-1.295c-.669-.453-1.684-.697-2.804-.697-2.334 0-3.566 1.638-3.566 4.202 0 2.748 1.243 4.288 3.565 4.288zm6.992-7.107c1.439 0 1.829 1.279 1.829 2.784 0 1.66-.413 2.981-1.829 2.981-1.452 0-1.818-1.343-1.818-2.981 0-1.477.378-2.784 1.818-2.784zm0 7.107l-.001.001c2.724 0 3.529-2.103 3.529-4.313 0-2.186-.731-4.178-3.528-4.178-2.747 0-3.502 2.016-3.502 4.178 0 2.249.783 4.312 3.502 4.312zm8.824-.122l2.527.001v-8.247h-1.481l.111 6.619h-.047l-2.597-6.62h-2.456v8.247h1.44l-.111-6.485h.047l2.565 6.485zm-39.235 12.217h1.204l-.209-5.494h-1.798s-.716 2.776-1.082 4.541h-.023c-.319-1.771-.921-4.541-.921-4.541h-1.83l-.209 5.494h.976l.072-4.639h.03c.081.445.175.888.28 1.328l.747 3.312h1.566l.783-3.312c.075-.32.169-.741.268-1.328h.031l.114 4.639zm2.298-5.615l-.001.968h1.076v-.968h-1.075zm.036 5.615h1.054v-3.989h-1.518v.669l.464.094v3.226zm4.374 0h1.083v-2.466c0-1.012-.402-1.603-1.409-1.603-.594 0-1.03.268-1.259.536l-.165-.457h-.731v3.989h1.066v-3.013c.189-.122.425-.244.701-.244.488 0 .715.287.715.886v2.371zm2.125-5.615v.968h1.07v-.968h-1.07zm.03 5.615h1.06v-3.989h-1.519v.669l.459.094v3.226zm2.826-2.938h-.001c0-.229.177-.367.544-.367.331.001.658.071.96.206l.145-.776c-.275-.114-.708-.194-1.121-.194-1.074 0-1.523.528-1.523 1.115 0 1.359 1.7 1.123 1.7 1.839 0 .244-.237.438-.582.438-.367 0-.759-.145-.944-.276l-.222.74c.268.154.716.292 1.197.292 1.03 0 1.569-.559 1.569-1.284 0-1.304-1.722-1.114-1.722-1.732zm3.91 3.016v.001c.375 0 .744-.092 1.075-.268l-.161-.779c-.165.083-.394.145-.61.145-.287 0-.425-.177-.425-.457v-1.953h1.067v-.756h-1.066v-1.033l-1.048.343v.69h-.594v.756h.594v1.976c0 1.005.46 1.336 1.168 1.336zm3.092-3.366h.001c.551 0 .708.437.708.953h-1.455c0-.473.216-.953.746-.953zm-.746 1.579h2.479v-.465c0-1-.472-1.897-1.677-1.897-1.274 0-1.868.839-1.868 2.067 0 1.32.732 2.084 1.959 2.084.626 0 1.172-.209 1.504-.39l-.201-.748c-.35.18-.767.335-1.172.335-.665 0-1.022-.35-1.022-.985zm5.425-1.39l.023-.905c-.091-.024-.252-.055-.463-.055-.472 0-.831.324-.952.611h-.024l-.114-.539h-.739v3.989h1.058v-2.898c.177-.146.429-.268.712-.268.169-.002.337.02.5.067zm.815-2.516v.969h1.07v-.969h-1.07zm.031 5.615l1.058.001v-3.989h-1.521v.669l.463.094v3.225zm4.392-2.004c0 .954-.26 1.304-.78 1.304-.524 0-.776-.374-.776-1.304 0-.949.28-1.29.776-1.29s.78.334.78 1.29zm1.089 0c0-1.169-.665-2.064-1.868-2.064-1.219 0-1.873.894-1.873 2.064 0 1.371.678 2.084 1.873 2.084 1.184 0 1.868-.725 1.868-2.084zm4.828-1.071v2.039c-.204.213-.471.343-.739.343-.508 0-.807-.358-.807-1.312 0-.925.319-1.268.823-1.268.254 0 .504.068.723.198zm.095-.603c-.216-.244-.558-.393-.991-.393-.968 0-1.715.759-1.715 2.079 0 1.421.723 2.072 1.629 2.072.511 0 .893-.276 1.055-.52l.122.441h.861v-5.615h-1.055v1.206c-.004.247.028.494.095.732zm3.459.39c.555 0 .708.437.708.953h-1.455c0-.473.22-.953.747-.953zm-.747 1.579h2.478v-.465c0-1-.467-1.897-1.672-1.897-1.278 0-1.868.839-1.868 2.067 0 1.32.732 2.084 1.955 2.084.63 0 1.173-.209 1.508-.39l-.204-.748c-.351.18-.763.335-1.168.335-.67 0-1.027-.35-1.027-.985zm-40.498 5.191c.641 0 .991.201.991.811 0 .626-.295.946-.991.946h-.539v-1.756h.539zm-.539 4.663l-.001-2.068.634-.008.906 2.076h1.251c-.382-.768-.779-1.501-1.164-2.264.617-.284 1.043-.839 1.043-1.58 0-1.146-.877-1.65-1.959-1.65h-1.763v5.494h1.055zm4.729-3.289h-.001c.552 0 .705.438.705.953h-1.455c0-.472.22-.953.751-.953zm-.751 1.579h2.483v-.465c0-1-.472-1.897-1.676-1.897-1.275 0-1.869.839-1.869 2.067 0 1.32.732 2.084 1.959 2.084.525-.006 1.042-.14 1.504-.39l-.204-.748c-.346.181-.763.335-1.168.335-.67 0-1.027-.35-1.027-.985zm3.175.65v-.001c0 .71.295 1.139 1.106 1.139.275 0 .586-.064.586-.064v-.748c-.44 0-.642-.051-.642-.386v-4.497h-1.051v4.557zm4.419-.686v.831c-.197.154-.456.268-.708.268-.398 0-.594-.217-.594-.583 0-.303.204-.516.642-.516h.661zm.299 1.744l.723.001v-2.532c0-1.015-.488-1.539-1.617-1.539-.54.003-1.074.114-1.57.327l.268.756c.375-.174.783-.265 1.196-.268.406 0 .701.161.701.677v.201h-.838c-.96 0-1.503.442-1.503 1.182 0 .764.534 1.276 1.33 1.276.562 0 .96-.276 1.164-.551l.146.472zm4.702-.271l-.193-.755c-.263.145-.669.302-1.082.302-.578 0-.913-.366-.913-1.272 0-.894.351-1.267.905-1.267.351 0 .717.071.999.244l.276-.725c-.382-.221-.838-.327-1.366-.327-1.18 0-1.896.775-1.896 2.075 0 1.402.715 2.076 1.904 2.076.476-.01.944-.13 1.366-.351zm.881-5.343v.968h1.074v-.968h-1.074zm.03 5.615h1.06v-3.989h-1.519v.669l.459.094v3.226zm4.396-2.004v-.001c0 .954-.263 1.304-.783 1.304s-.772-.374-.772-1.304c0-.949.276-1.291.772-1.291s.783.335.783 1.292zm1.09-.001h.001c0-1.169-.67-2.067-1.873-2.067-1.22 0-1.869.897-1.869 2.067 0 1.367.673 2.084 1.868 2.084 1.189 0 1.873-.725 1.873-2.084zm3.148 2.005h1.082v-2.469c0-1.008-.401-1.603-1.408-1.603-.594 0-1.03.271-1.259.539l-.165-.457h-.732v3.989h1.067v-3.013c.188-.122.425-.244.701-.244.488 0 .715.283.715.886v2.371zm3.49-3.289c.555 0 .708.438.708.953h-1.455c0-.472.221-.953.747-.953zm-.747 1.579h2.479v-.465c0-1-.472-1.897-1.672-1.897-1.279 0-1.873.839-1.873 2.067 0 1.32.732 2.084 1.963 2.084.525-.007 1.041-.14 1.504-.39l-.204-.748c-.351.181-.763.335-1.173.335-.665 0-1.022-.35-1.022-.985zm4.084-1.228h-.001c0-.229.181-.367.544-.367.331 0 .657.068.96.202l.149-.772c-.279-.114-.708-.198-1.125-.198-1.071 0-1.519.532-1.519 1.119 0 1.359 1.7 1.122 1.7 1.835 0 .245-.237.442-.586.442-.367 0-.755-.145-.945-.276l-.217.74c.268.154.712.292 1.193.292 1.035 0 1.569-.559 1.569-1.284 0-1.303-1.722-1.114-1.722-1.732zm4.166 2.938h3.376v-.89h-2.31v-1.406h1.68l.083-.945h-1.763v-1.351h2.31v-.902h-3.376v5.494zm5.296-1.264l.665 1.263h1.35l-1.323-1.976 1.236-2.013h-1.156l-.559 1.139-.57-1.138h-1.405l1.298 1.89-1.381 2.099h1.145l.7-1.264zm3.938 1.343c.375 0 .744-.093 1.075-.268l-.165-.779c-.162.079-.39.145-.61.145-.283 0-.421-.176-.421-.457v-1.953h1.067v-.756h-1.067v-1.032l-1.051.339v.694h-.594v.756h.594v1.977c0 1.004.464 1.335 1.172 1.335zm3.092-3.367c.551 0 .705.438.705.953h-1.455c0-.472.22-.953.75-.953zm-.75 1.579h2.482v-.465c0-1-.471-1.897-1.676-1.897-1.274 0-1.868.839-1.868 2.067 0 1.32.731 2.084 1.959 2.084.525-.006 1.041-.14 1.503-.39l-.204-.748c-.346.181-.763.335-1.168.335-.669 0-1.026-.35-1.026-.985zm5.429-1.393l.023-.901c-.091-.024-.252-.06-.463-.06-.409.005-.779.244-.953.615h-.023l-.114-.539h-.739v3.989h1.058v-2.898c.177-.146.429-.268.712-.268.169-.001.337.02.5.064zm.815-2.513v.969h1.07v-.969h-1.07zm.03 5.615l1.06.001v-3.989h-1.523v.669l.463.094v3.225zm4.392-2.004c0 .954-.26 1.304-.779 1.304-.524 0-.776-.374-.776-1.304 0-.948.28-1.29.776-1.29s.779.334.779 1.29zm1.09 0c0-1.169-.665-2.067-1.868-2.067-1.22 0-1.873.897-1.873 2.067 0 1.367.677 2.084 1.873 2.084 1.184 0 1.868-.725 1.868-2.084zm2.939-1.099l.023-.9c-.091-.024-.252-.06-.463-.06-.409.005-.779.244-.953.615h-.023l-.114-.539h-.74v3.989h1.06v-2.898c.176-.146.428-.268.715-.268.167-.002.334.019.496.063zm1.979-.184c.551 0 .704.438.704.953h-1.455c0-.472.221-.953.751-.953zm-.751 1.579h2.483v-.465c0-1-.472-1.897-1.676-1.897-1.275 0-1.869.839-1.869 2.067 0 1.32.731 2.084 1.96 2.084.525-.006 1.041-.14 1.503-.39l-.204-.748c-.346.181-.763.335-1.168.335-.669 0-1.027-.35-1.027-.985zm4.084-1.228c0-.229.18-.367.547-.367.35 0 .688.08.96.202l.145-.772c-.275-.114-.708-.198-1.121-.198-1.074 0-1.523.532-1.523 1.119 0 1.359 1.7 1.122 1.7 1.835 0 .245-.237.442-.586.442-.366 0-.755-.145-.945-.276l-.217.74c.268.154.716.292 1.197.292 1.031 0 1.565-.559 1.565-1.284 0-1.304-1.722-1.114-1.722-1.732z"/><path d="M0 137v-137h62.071v137h-62.071zm40.927-122.154c.051-.02-.03-.303.253-.323.253-.01.628.202.668.444.061.272-.162.939.709 1.029l-.02.272c-.015.161-.06.319-.132.464h.162c1.164.05 1.822-.04 2.156-.383.513-.537.699-1.307.486-2.018l-.03-.101-.081-.151c-.427-.631-1.055-1.1-1.782-1.332l-.172-.02h-.01l.03-.02h.182c.628.081 1.68.696 1.903 1.322.202-.121.375-.474.405-.777.02-.061-.02-.434.142-.767.046-.095.011-.21-.081-.262-.091-.04-.202 0-.253.101-.162.313-.526.141-.375-.182.046-.095.011-.21-.081-.262-.098-.036-.207.007-.253.101-.152.303-.506.131-.364-.182.04-.092.005-.2-.081-.252-.098-.036-.207.007-.253.101-.152.313-.516.131-.364-.192.044-.098.004-.213-.091-.262-.098-.036-.207.007-.253.101-.076.176-.179.339-.304.484.717.15 1.377.5 1.903 1.009 0 0 .202.212.213.252v.01l.02.071h-.02c-.596-.633-1.38-1.058-2.237-1.211-.385.03-.273.454-.233.727-.256-.062-.527-.015-.746.131-.219.146-.367.377-.408.636 0 .161.04.323.121.505v.04c-.03.01-.121-.061-.172-.192-.04-.101-.071-.202-.081-.323-.506.03-.982.303-.952.777.02.283.354.626.476.636v-.001zm1.812-.717c.132-.161.172.525.709.323-.385.464-.901-.01-.709-.323zm-.04-.343c.202-.121.385-.535.709-.333l.445.343c.162.121.344.222.425.373.091.182-.162.626-.435.232-.182-.293-.445-.828-.86-.616-.334.172-.567.404-.658.182-.02-.111.243-.101.375-.182l-.001.001zm-1.468.091c-.091.192-.364.192-.405.434-.233-.202.202-.686.405-.434zm13.787 22.737c-.354-.434-1.306-.222-1.306-.222.506-1.514-.891-1.917-.891-1.917-.496-.121-.83-.03-1.032.121h-.02l-.01.01-.101.091c-.214.221-.266.552-.129.828.137.275.433.435.739.399.306-.036.556-.261.625-.56.192.121.263.333.263.333.405 1.282-1.043 1.746-1.043 1.746-3.199.959-5.162-.686-5.162-.686l.567-.303c.192-.091.364-.101.506-.101v.081c0 .353.273.636.617.636.23.007.445-.112.561-.309.116-.198.114-.443-.004-.639l-.04-.071c-.385-.565-1.67-.192-1.67-.192.435-1.05.051-1.817.051-1.817-.243-.394-.202-.535-.202-.535 0-.373-.091-.404-.091-.404-.192-.272-.536-.131-.536-.131-.526.111-.638-.101-.638-.101-.425-.303-.607-.111-.607-.111-.202.121.061.444.061.444-.456 0-.597.585-.597.585-.182.969.617 1.05.617 1.05.577.03.587-.444.587-.444.071-.444-.567-.474-.567-.474.101-.262.304-.252.304-.252.668-.172.972.585.972.585.536.848-.152 1.645-.152 1.645-.101.121-.223.05-.223.05-.375-.161-.911-.565-.911-.565l-.061-.03h-.223c-.24.009-.476.06-.698.151.263.272 1.103.979 1.103.979-.638.495-1.002.151-1.002.151-.304-.333-.233-.878-.182-1.11-.314.139-.631.27-.952.394l.769 1.312c-.729.262-.891-.706-.921-1.251l-.425.161c.067.506.266.987.577 1.393-.301-.064-.615.022-.84.232-.231.201-.345.504-.304.807 0 .202.162.363.364.363.202 0 .375-.172.375-.373 0-.202-.162-.363-.354-.373.162-.404.547-.081.547-.081.567.505-.324 1.08-.324 1.08-.628.414-1.235-.383-1.235-.383.489-.749.755-1.62.769-2.513l-.688.232c.314 1.06-.425 1.665-.425 1.665-.213-.151-.243-.717-.243-.717-.062-.236-.136-.468-.223-.696l-.607.161c.233.666.324 1.645.324 1.645-.111.141-.476.172-.476.172-.516.05-.243-.242-.243-.242.253-.222.202-.373.202-.373-.162-.363-.729-.03-.729-.03-.759.424-.526.868-.526.868.091.272.86.535.86.535-.415.323-1.215.192-1.316.172-.022-.216-.175-.397-.385-.454l-.051-.02c-.273-.02-.425.101-.496.202l-.091.161-.466-.101c-.324-.04-.506-.979-.607-1.786l-.405.04c.132.868.294 1.645.294 1.645-.162 0-.85-.474-.85-.474-.86-.525-1.448-.353-1.468-.343-.456.096-.769.517-.727.98.041.463.423.822.889.837.506 0 .911-.404.911-.888.334.151.638.333.638.333.82.545 1.599.606 1.802.606.049.279.27.496.551.542.28.045.559-.091.694-.34 1.761-.061 2.399-.838 2.399-.838.192-.242.233-.101.233-.101.648.928 1.893.363 1.893.363.243-.121.294.04.294.04.253.404.638.192.638.192.506-.262.202-.575.202-.575-.162-.172.04-.161.04-.161.587.091.709-.252.709-.252.111-.262-.304-.505-.304-.505-.121-.141.101-.252.101-.252.354-.202.304-.404.304-.404.435 0 .405-.202.405-.202 0-.161-.547-.161-.547-.161-.435-.04-.334-.262-.334-.262.638-.02 1.609-.303 1.609-.303 1.417 1.15 3.523 1.423 3.523 1.423.04.202-.03.505-.04.535h-.03c-.09-.003-.178.031-.243.094s-.101.149-.101.239c0 .182.152.333.344.333l.091-.01c.678-.182.729-1.171.729-1.171 1.212.068 2.394-.392 3.239-1.262.182-.161.273-.121.314-.061.101.121.263.202.435.202.182 0 .354-.101.445-.232.054-.093.088-.196.101-.303v-.01c0-.232-.101-.363-.101-.363h-.01l-.002-.004zm-23.15 2.462c.182-.101.213-.303.213-.303.027-.3-.108-.592-.354-.767l-.688.01-.688-.01s-.385.242-.354.767c0 0 .04.202.223.303 0 0-.486.202-.496.535 0 0-.051.252.375.606 0 0 .314.343.405.606 0 0 .03.373.536.373s.547-.373.547-.373c.091-.262.405-.606.405-.606.425-.353.375-.606.375-.606-.01-.333-.506-.535-.506-.535h.01-.003zm11.559-5.196c-.142 0-.243.04-.243.04-.466.121-4.859 2.059-12.147 2.059-7.278 0-11.671-1.938-12.147-2.059 0 0-.101-.04-.233-.04-.129-.006-.256.03-.364.101l-1.488 1.171h.01c.435 0 .911.232.931.232 3.877 1.695 8.331 2.392 13.291 2.442 4.97-.05 9.414-.747 13.291-2.442.02 0 .506-.232.931-.232l-1.478-1.161c-.103-.073-.227-.112-.354-.111zm-13.817 2.281l.304.01-.354.232h-.071l.121-.242zm-9.92-1.15l-.002.002c-.018.059-.058.109-.111.141l-.182.04-.243-.071-.071-.02-.091.222v.101l.081.071h.02l-.03.081-.526-.192.03-.081h.02l.101.02.051-.091.213-.575.01-.101-.081-.061h-.02l.03-.081.395.131.223.101.132.091.071.131-.02.141zm-.445-.374l-.132.373.051.02c.071.03.132.03.172 0l.081-.111.02-.131-.051-.091-.132-.061h-.01l.001.001zm1.65 1.01c-.044.132-.139.241-.263.303-.138.068-.298.079-.445.03-.106-.034-.203-.093-.283-.172-.072-.07-.118-.162-.132-.262-.01-.101 0-.181.02-.262.06-.187.22-.324.415-.353.102-.02.203 0 .294.02.172.05.303.151.364.272.069.131.08.285.03.424zm-.638-.566c-.082.083-.138.188-.162.303-.042.109-.056.227-.04.343.021.073.079.13.152.151.081.03.162.02.223-.03s.111-.151.162-.303c.051-.141.061-.252.04-.333-.017-.08-.075-.145-.152-.172-.077-.019-.158-.005-.223.04v.001zm1.691 1.071l-.001-.002.081.202.071.05-.02.081-.314-.081-.101-.303-.04-.151-.03-.05-.101-.04-.071.232v.101l.091.061h.01l-.02.091-.536-.151.02-.081h.121l.051-.081.162-.595v-.101l-.091-.05h-.02l.02-.091.405.101.101.03.182.061.101.071c.071.063.102.159.081.252-.03.121-.121.182-.263.202.048.077.082.163.101.252l.01-.01zm-.294-.747l-.001.001-.04-.01-.101.373.172.03.081-.04.061-.101-.01-.172-.162-.081zm1.995 1.433v.001l-.931-.202.02-.081h.121l.04-.101.132-.585v-.101l-.101-.061h-.01l.02-.081.536.121-.02.071h-.01l-.111.01-.04.091-.121.575-.01.101.03.03.101.04c.102.02.162.01.223-.02.05-.04.101-.09.121-.161l.081.02-.071.333zm1.134.202v.003l-.506-.091.02-.081h.081l.02-.03v-.071l-.02-.081-.314-.061-.03.05-.04.071.02.05.081.03-.02.091-.334-.061.01-.091c.07.02.131-.03.202-.131l.445-.737.091.02.182.848.061.151.061.04-.01.081zm-.679-.496l.253.05-.071-.333-.182.283zm2.43.748h.003l-.324-.05-.132-.283-.061-.151-.051-.04-.101-.03-.03.242v.111l.101.05h.02l-.01.081-.557-.071.01-.091h.121l.04-.101.081-.606-.01-.101-.101-.04h-.02l.02-.091.405.061h.101l.202.04.101.061.101.101.01.141c-.02.121-.101.202-.243.222l.142.242.101.182.091.04-.01.081zm-.568-1.031h-.04l-.051.383h.172l.081-.04.04-.121-.03-.151c-.03-.04-.081-.061-.172-.071zm1.702 1.142l-.001-.001-.506-.05v-.081h.091l.02-.04v-.05l-.02-.02-.01-.081-.324-.03-.03.04-.02.081.01.05.091.02-.01.091-.344-.03v-.091c.071 0 .131-.04.192-.141l.395-.777.091.01.243.838.071.151.071.03-.01.081zm-.71-.446l.253.03-.101-.323-.152.293zm1.823-.442v.001l-.648.828.243.02h.152l.081-.071.071-.121h.101l-.051.313-.931-.071v-.071l.648-.828-.162-.01c-.102-.01-.183 0-.223.02l-.101.141h-.071l.03-.283.871.061-.01.071zm1.245.888c-.12.104-.277.155-.435.141-.115-.004-.227-.039-.324-.101-.08-.047-.143-.118-.182-.202-.037-.082-.055-.172-.051-.262 0-.1.03-.181.081-.272.061-.091.132-.152.223-.182.091-.051.192-.061.283-.061.159 0 .311.062.425.172.206.218.197.56-.02.767zm-.406-.839c-.078-.004-.152.035-.192.101-.051.061-.071.172-.081.313-.014.12.004.242.051.353.039.068.114.107.192.101.091 0 .152-.02.202-.081.051-.061.071-.172.081-.333 0-.151-.01-.262-.051-.333-.037-.077-.117-.125-.202-.121zm1.924.032l.001.001-.081.02-.04.061-.01.101v.787h-.101l-.678-.757v.474l.04.151.101.03v.081h-.385v-.081l.091-.02.04-.061.02-.101v-.525c0-.1-.051-.161-.152-.161v-.091l.354.01.567.636v-.383c0-.101-.051-.172-.142-.172v-.081h.375v.081zm1.721.767l.001.001c-.107.109-.253.17-.405.172-.115.008-.23-.013-.334-.061-.087-.044-.158-.115-.202-.202-.042-.078-.066-.164-.071-.252 0-.1.01-.181.061-.272.05-.101.121-.162.202-.202.086-.05.183-.078.283-.081.182-.01.334.04.435.141.101.101.172.222.172.373.009.142-.043.281-.142.383zm-.456-.799c-.078-.006-.153.033-.192.101-.049.104-.067.219-.051.333 0 .161.03.272.081.333.041.072.121.112.202.101.081 0 .142-.04.192-.101.04-.071.051-.182.051-.343 0-.141-.03-.252-.081-.323-.041-.072-.121-.112-.202-.101zm1.347.88l-.001.001-.01-.081.111-.04.02-.101-.061-.606-.03-.101-.101-.02h-.02v-.081l.547-.05.01.081h-.02l-.101.04-.01.101.051.585.01.101.051.02h.101c.101 0 .162-.031.202-.081.041-.041.071-.101.081-.182l.081-.01.03.343-.941.081zm1.579-.151l-.001.001v-.081l.081-.03v-.03l-.01-.05-.01-.02-.04-.071-.314.03-.02.05-.01.081.03.05.081.01.02.081-.344.04-.01-.081c.061-.01.102-.071.142-.182l.223-.838.101-.01.405.757.101.131.081.02v.081l-.506.061zm-.284-.346l.263-.03-.162-.293-.101.323zm2.066-.673h.001l-.061-.101-.071-.05h-.101l-.162.03.051.353.081-.02.081-.04.01-.101.081-.01.061.353h-.081l-.051-.101h-.162l.04.283.04.101h.131l.01.091-.557.081v-.081l.101-.05v-.101l-.091-.606-.04-.091h-.121l-.01-.091.86-.141.051.272-.091.02zm1.215-.262h-.002l.061.343.02.182-.04.151-.121.121-.202.091h-.213l-.162-.071-.101-.121-.051-.151-.071-.404-.051-.101h-.101l-.02-.081.536-.101.02.081h-.02l-.101.04v.101l.081.404.051.172.101.091.152.01c.061 0 .112-.031.152-.071l.061-.131-.01-.202-.071-.333c-.02-.101-.081-.151-.182-.131l-.02-.081.375-.071.02.081-.061.03-.04.061v.101l.01-.01zm.466.717l-.001.002-.02-.091h.02l.091-.05v-.101l-.142-.606-.051-.081-.101-.01h-.02l-.02-.081.86-.202.081.262-.081.02-.081-.101-.071-.04-.091.02-.192.04.081.343.101-.02.081-.04v-.101l.081-.03.081.343-.081.02v-.01l-.04-.081h-.101l-.101.01.061.252.03.091.051.02h.121l.132-.061.071-.101.02-.151.081-.02.071.333-.921.222zm1.923-.495l.001-.001c-.123-.098-.239-.206-.344-.323l-.061-.03-.111.02.071.242.04.081h.131l.02.081-.536.151-.03-.081h.02l.101-.061-.01-.101-.172-.585-.04-.101h-.101l-.03.01-.02-.081.405-.111.091-.02.202-.05.121.01.121.071.071.101c.03.121-.011.222-.132.303.083.046.158.104.223.172l.172.131h.091l.02.081-.314.091zm.486-.141l-.001-.001-.01-.061.273-1.009-.162.04-.192.101-.04.172-.081.03-.061-.272.83-.272.02.071-.283 1.009.223-.071.132-.061.061-.101.02-.141.081-.02.081.303-.891.283zm1.559-.535v-.001l-.03-.081.071-.04v-.04l-.02-.04-.02-.02-.051-.061-.304.111v.141l.051.04.081-.02.03.081-.314.121-.03-.071c.061-.03.091-.101.091-.222l.01-.858.091-.03.587.626c.051.071.102.101.132.101h.081l.03.081-.486.182zm-19.992-21.526l.003-.003c.743.353 1.575.476 2.389.353.212-.051.445-.122.678-.283l.091-.061.04-.03c.344-.303.556-.777.526-1.383l.03-.04c.04 0 .101.161.091.373 0 .232-.061.505-.152.747v.121c.011.088.046.172.101.242.162.182.577.242.911.111h.03c0 .051-.212.283-.617.283l-.243-.02c.223.363.85.625 1.488.595l.04.02c0 .04-.162.101-.375.101-.304 0-.648-.081-.911-.212.304.364.82.707 1.721.828.03.101-.669.021-.871-.05.405 1.615 1.286 1.433 1.296 1.544-.253.091-.435.404-.253.757.931-.333 1.62-.363 1.822-.363.203 0 .921.03 1.873.373.102-.131.102-.283.051-.414-.142-.403-1.397-.726-2.571-.383l-.152.081h-.01l.01-.03.152-.101c.516-.273 1.589-.374 2.176-.081.507.212.952-.393.79-.706.374.02.648-.202.678-.575l-.202.091c-.121.071-.253.071-.263.061v-.03l.172-.081c.688-.394 1.012-1.171.941-1.413-.051.141-.274.262-.476.262-.101.01-.172-.01-.172-.03l.02-.02c.081 0 .152-.04.233-.101.243-.172.456-.485.567-.747-.425-.404-.577-.878-.82-1.514-.101-.233-.303-.475-.597-.505h-.121l-.101.02h-.03c.334-.273.688.02.911.141.03-.606.243-.757.263-.747v.02c-.405 1.241.405 2.412 1.063 2.785.861.464 2.43.535 3.462-.353-.181.058-.368.092-.557.101-.213 0-.375-.051-.375-.091l.03-.03c.142.01.274 0 .395-.01 1.488-.393 1.549-2.22 1.316-2.351l-.03-.01-.132.313c-.091.202-.203.303-.243.303v-.05c.324-.565.304-1.009.142-1.574-.111-.302-.294-.605-.577-.807-.759-.525-2.267-.606-3.087.03-.283-.293-.648-.505-1.073-.656-.101.465-.608 1.08-1.053 1.393-.092.06-.345.232-.456.232 0 0-.101-.02 0-.101.799-.505 1.184-1.11 1.194-1.857v-.02c-.012-.577-.215-1.133-.577-1.584-.728-.797-2.692-.908-3.593-.151-.24.255-.402.574-.466.918.102-.272.304-.545.719-.676.404-.121 1.164-.04 1.275.424-.668-.696-1.893-.182-2.065.989v-.01l-.061.081c-.041 0-.081-.01-.061-.535.01-.323.111-.727.263-1.07-1.519-.272-3.32.465-3.29 2.705.02.303.131.606.425.939l.01.101c-.04.01-.233-.111-.344-.262-.152-.202-.283-.475-.344-.737-.951-.343-1.528-.343-2.075-.303-.598.116-1.14.429-1.539.888-.127.168-.238.347-.334.535-.222.41-.317.877-.273 1.342.081.868.506 1.615 1.154 1.958zm14.951-4.592l-.001-.001c.354.111.618.394.81.828.172.373.101.757-.01.979h-.02l-.01-.02c.04-.212-.02-.585-.152-.888-.071-.162-.233-.434-.466-.505.142.212.243.384.304.535.101.202.101.303.101.404 0 .434-.203.928-.405 1.11h-.03v-.02c.223-.535.243-.989.051-1.413l-.061-.121c-.162-.303-.446-.646-.871-.636.203.152.375.364.486.626.243.555.203 1.181-.101 1.433h-.03v-.01l.01-.232c.02-.192.02-.373-.02-.575-.233-.979-1.043-1.322-1.62-.747 0 0 .628-1.171 2.035-.747zm-5.922 6.923c-.131-.061-.131-.313-.111-.444.05-.313.425-.464.597-.636.03 0 .01.505-.486 1.08zm-.111-.898c.263-.091 1.032-1.161.425-1.07-.121.333-.617.747-.425 1.07zm1.579-7.67l.001-.001c.04.495-.243.646-.304.616v-.05c.132-.343.081-.868-.182-1.171-.183-.222-.527-.343-.547-.383-.031-.03.87.182 1.032.979v.01zm-1.346 4.864v.001c.436.182-.222 1.06-.273 1.221.101-.041.455-.424.607-.303.213.181-.476 1.079-.658 1.15-.972-1.272.273-1.645.324-2.069zm-.638 2.15v-.001c.071.606.182 1.403-.101 1.928-.162-.04-.071-.323-.071-.444 0-.676-.02-1.342-.192-1.917-.081-.272-.304-1.181-.911-2.321.62.815 1.055 1.755 1.275 2.755zm-4.069-3.058h-.001c.445.707 1.619 1.665 3.087 2.059.496.141.739 1.736.334 2.523-.465.02-.506-.303-.607-.656.203.161.496.373.466 0-.162-.141-1.194-.404-.931-.858.172-.242.729.747.881.414.101-.666-1.974-.868-1.913-1.433.01-.303 1.64.787 1.873.757-.03-.353-2.419-1.322-3.148-2.624l-.061-.182h.02zm-3.695 1.827v.001c.557-.142 1.043-.434.901-.949-.041-.152-.173-.263-.375-.283-.314-.03-.526.202-.678.424.03-.485.344-.808.83-.747.263.03.607.273.658.545.152.767-.546 1.08-1.336 1.009zm.061-3.623h-.001c.605-.208 1.275-.064 1.741.373 1.114 1.09.506 2.624.162 2.705.233-.636.354-1.595-.658-1.847-.779-.201-1.488.394-1.852.717.233-.716 1.012-1.251 2.065-1.029-.223-.605-.992-.848-1.893-.353-.222.121-.374.262-.526.383.162-.454.537-.788.962-.949zm4.17 28.601l-.017-.002c-.02-.01-.608-.182-1.468.343 0 0-.688.474-.85.474 0 0 .162-.777.294-1.645l-.395-.04c-.101.807-.283 1.746-.607 1.796l-.476.101-.091-.172c-.071-.101-.213-.222-.496-.202l-.04.02c-.218.05-.381.232-.405.454-.102.02-.891.151-1.296-.172 0 0 .769-.263.86-.535 0 0 .223-.444-.536-.868 0 0-.567-.333-.719.03 0 0-.061.151.202.373 0 0 .263.292-.253.242 0 0-.355-.031-.476-.172 0 0 .101-.979.324-1.645l-.607-.161c-.082.228-.153.461-.213.696 0 0-.03.576-.243.717 0 0-.749-.605-.425-1.665l-.698-.232c-.021.505.101 1.332.769 2.513 0 0-.607.807-1.235.383 0 0-.881-.575-.314-1.08 0 0 .385-.323.547.081-.199.01-.354.174-.354.373 0 .202.162.363.364.363.203 0 .365-.151.375-.343.041-.303-.073-.606-.304-.807 0 0-.324-.343-.84-.232.065-.51.264-.994.577-1.403l-.425-.161c-.04.534-.202 1.513-.931 1.251l.779-1.312c-.32-.121-.638-.248-.952-.383.041.222.102.777-.192 1.1 0 0-.364.344-.992-.151 0 0 .84-.707 1.093-.979-.219-.088-.452-.139-.688-.151h-.233l-.051.03s-.546.404-.921.565c0 0-.102.071-.223-.05 0 0-.688-.797-.152-1.645 0 0 .304-.757.982-.585 0 0 .193 0 .304.262 0 0-.648.02-.577.464 0 0 .01.474.587.444 0 0 .809-.081.617-1.05 0 0-.131-.585-.597-.585 0 0 .263-.323.071-.444 0 0-.192-.192-.617.111 0 0-.112.212-.628.101 0 0-.355-.141-.547.121 0 0-.091.041-.091.414 0 0 .041.141-.202.535 0 0-.122.262-.142.686-.155-.127-.339-.213-.536-.252-.263-.273-.284-1.544-.557-2.18-.061-.142.121-.788.121-1.484 1.354-.257 2.457-1.234 2.875-2.543.304-1.059-.101-2.149-.152-2.442h.051c.081.162.152.333.213.505.684.07 1.375-.013 2.024-.242l.071-.03.101-.04.223-.101.081-.04c1.356-.696 1.963-1.816 2.338-2.452-.193-.041-.77-.222-.962-.515.496.04.871.242 1.367.252.739 0 1.225-.404 2.035-.303 0 .04.102.373.628.585-.003.471.086.937.263 1.373 0 0-.607.464-.445.858l.121.303-.091-.01c-.091-.04-.202.111-.334.323-.071.101-.385.767-.152.828l.152.02c-.178.829-.014 1.695.456 2.402v.01c.031.061.911 1.484 3.27 1.484h.03c.233 0 2.308.04 3.037 1.413.051.081.213.313.395.313.183 0 .345-.232.385-.303.739-1.383 2.814-1.413 3.037-1.413h.04c2.359 0 3.24-1.433 3.27-1.494v-.01c.294-.414.435-.858.486-1.272.465-.252.445-1.291.445-1.473.132.182.405.707.982.838-.101.485-.07 1.292.456 1.403.162.02.303-.222.263-.404.456 1.292.071 2.099.405 2.19.445 0 .476-.767.506-.787.04.071.182.303.192.656 0 .404-.05.807.132.868.608.101.314-1.676.79-1.494-.121.787 0 1.231.324 1.352-.01.363-.05.706-.202.706-.87.201-1.67-.495-2.429-.283l-.081-.05c-1.407-.757-2.288-.181-2.379-.262-.395-.353-.547.182-.658.121-.729-.414-1.134.293-1.326.323-.172.02-.486-.363-.82.454-.162.363-.972.525-1.043.545-.324.04-.405-.192-.405-.192l-.101-.232-.111-.161c-.088-.086-.211-.127-.334-.111-.168.015-.314.118-.383.271-.069.153-.05.331.049.466l.202-.081c.182.02.324.151.324.333.03.374-.547.747-.547.747-.324.303-.739-.111-.739-.111-.233-.182-.385-.202-.385-.202-.243 0-.354.262-.354.262s-.101-.252-.344-.262c0 0-.162.02-.405.202 0 0-.405.404-.739.111 0 0-.566-.374-.536-.747 0-.182.142-.313.324-.333l.202.081c.061-.081.101-.172.101-.283 0-.242-.202-.444-.445-.454-.101-.01-.213 0-.324.101l-.121.172-.101.232s-.071.232-.405.192c-.06-.02-.88-.182-1.032-.545-.334-.817-.648-.434-.81-.454-.202-.03-.607-.737-1.336-.323-.111.061-.263-.474-.658-.121-.081.07-.769-.364-1.893.05-.071-.141-.425-.202-.516-.242-.233-.061-.435-.242-.577-.313-.313-.162-.83-.061-1.184-.101-.142-.021-.345-.101-.466-.172-.466-.283-.992-.636-1.286-1.05l-.192-.252c-.132-.182-.203-.303-.314-.606-.162-.575.081-1.181.172-1.766l.051-.545c-.58.128-1.185.1-1.751-.081.182.605.213 1.261.142 1.766.284.202.446.555.466.727.031.283-.101.596.071.828.253.343.81.656 1.154.898.111.07 1.691 1.292 1.893 1.332.223.04.365-.121.567-.091l.172.101s.132.152.324.283c-.475.303-1.073.656-1.518.868 0 0-.709.394-.375.404 0 0 .507-.02.547.081l-.536.222c.749.273 1.519.505 2.288.717.486-.484 1.124-1.009 1.741-1.241 0 0 .89.04 1.184-.606.091-.202.466.373 1.245-.061l.405.232c.081.02-.304.081-.233.424.01.04-.637 0-.85.363-.061.101-1.447.071-2.662 1.11l.698.151c.405-.302.891-.504 1.458-.474 0 0 .749.041 1.073.939l1.417.172h-.01c.132-.06.79-.383.496-.777 0 0-.162-.201-.435.061 0 0-.172.161-.253-.091 0 0-.01-.131-.081-.252 0 0-.132-.192.121-.101 0 0 .243.07.466.04.233-.01.415-.202.415-.444s-.172-.474-.415-.474l-.061.03.061.131c0 .08-.071.181-.152.161-.273-.081-.203-.606.172-.616 0 0 .324.01.597.343 0 0 .628.928 1.205 1.13.04.01-.101.333.263.444.04.02-.011.302.364.272.01 0 .081.121.172.323.661.016 1.323.016 1.984 0 .091-.202.162-.323.172-.323.374.021.324-.252.364-.272.364-.101.223-.434.263-.444.577-.202 1.205-1.13 1.205-1.13.146-.188.361-.311.597-.343.374.011.445.535.182.606-.101.031-.162-.07-.162-.151l.061-.131-.061-.03c-.243 0-.415.232-.415.474 0 .242.182.434.415.444.223.031.466-.04.466-.04.253-.091.121.101.121.101-.071.121-.091.252-.091.252-.071.252-.243.101-.243.101-.273-.263-.435-.071-.435-.071-.294.394.364.706.496.767h-.01c.476-.04.951-.1 1.417-.161.324-.899 1.073-.939 1.073-.939.567-.031 1.053.171 1.458.474l.709-.151c-1.235-1.039-2.611-1.009-2.672-1.11-.212-.363-.87-.323-.85-.363.081-.343-.314-.404-.243-.424.223-.06.344-.272.405-.232.789.434 1.164-.141 1.255.061.293.646 1.184.606 1.184.606.656.297 1.247.718 1.741 1.241.708-.192 1.417-.404 2.095-.646l-.01-.02-.04-.121-.02-.03c-.166-.321-.377-.617-.628-.878l-.03-.03s.516-.787.84-.252c.031.06-.03.252-.354.252 0 0 .375.585.466.989h.01l.334-.121.091-.02c-.202-.394-.506-.606-.415-.747.071-.03.354.101.516-.131.04-.051.081-.343.111-.646.202.111.445.121.506.121.536-.01.739-.808.587-1.07.081-.05.395-.303.425-.232.162.373 1.023.777.952-.071.132.414.233.878.709.848.354-.091.132-.676.253-.676.101.171.243.847.759.686.162-.061.283-.182.283-.404.031-.656-1.842-4.067-2.014-5.551l-.081-.02c-.182-.101-.202-.394-.172-.606v-.04c-.213-.041-.567-.242-.628-.858 0-.566.243-.838.304-.838l.01.05c-.142.445-.243.969.081 1.262.095.07.207.112.324.121.101-.181.233-.282.263-.272v.04c-.172.302-.162.716 0 .908.09.087.208.14.334.151.526-.182.79-1.181.911-1.484.345.071-.566 2.069.132 2.503.294-.02.456-.353.557-.646.233.585-.738 1.826-.04 2.109.425.101.577-.979.587-.838.122 1.655-.749 2.463-.192 2.725.476.202.638-1.141.638-.969-.02 1.766-.911 2.26-.526 2.573.435.171.749-.898.739-.646-.041 1.585-.83 2.008-.476 2.503.405.575 1.175-1.03 1.215-.727.041.363-.87 2.2-.354 2.321.456.121.608-.505.638-.646.993-3.404 1.441-6.943 1.326-10.486-.058-2.139-.357-4.265-.891-6.338-.344-1.181-1.012-3.593-2.571-3.916-.739-.162-1.296.524-1.286 1.14.01.525.385.777.223 1.302-.202.343-.395.707-.496 1.09-.091.384.243.535.142.939-.476-.07-.729.323-1.417.182-.411.167-.862.209-1.296.121l.03-.01c.699-.02 1.336-.252 1.468-.555.141-.474.05-1.171-.304-1.433-.395.081-.597.424-1.994.343-1.143-.07-1.437.152-1.599.848-.058-.101-.077-.22-.051-.333.041-.383.425-.616.891-.666.101-.161.101-.302.101-.474-.203-.02-.304-.02-.567.02-.547.081-1.306.394-1.488.939-.054.171-.054.354 0 .525l.051.182c.183.374.608.586 1.539.626l.03.03c0 .04-.182.07-.415.05 0 0-.86 0-1.245-.444-.288.318-.685.52-1.113.565-.393-.005-.768-.173-1.032-.464-.557-.747.162-2.039.152-2.523-.04-1.271-1.781-.696-2.429-.363-.731.427-1.368.997-1.873 1.675-.289.34-.537.712-.739 1.11.223.111.891.404 1.397.404h.02l.182.02c.263 0 .759-.05 1.134-.353.112-.098.256-.152.405-.151.152 0 .303.061.435.182.091.071 1.185.949 1.549 1.191.093.068.155.169.172.283.02.09 0 .232-.132.383-.503.596-.891 1.281-1.144 2.018-.132.474-.223 1.211.425 1.443 0 0 .719.192.668-1.009 0 0 .121.767.678.747.243-.01.456-.252.405-.767h.01c-.05-.484-.04-1.049.051-1.675l.01-.061c.01 0 .031.061.061.303.03.303-.182 3.078 2.085 4.945 0 0-.952-.464-1.62-1.635-.385.222-.911.707-.668 1.746.122.363.365.696.557.797l.03.05c0 .05-.121.141-.334-.071-.126-.132-.223-.291-.283-.464-.253-.222-.506-.464-.739-.706v-.01c-.182-.374-.081-1.474-1.164-1.484h-.101l-.182.03h-.04c-.283-.969-.202-1.584-.202-1.675.21-.997.67-1.924 1.336-2.695.041-.041.091-.101.081-.182l-.061-.101c-.537-.39-1.063-.794-1.579-1.211h-.01c-.071-.075-.169-.119-.273-.121-.132 0-.223.091-.223.091-.433.328-.978.473-1.518.404h-.01c-.628-.02-1.417-.393-1.569-.474-.65-.281-1.347-.439-2.055-.464-.708.025-1.405.183-2.055.464-.489.253-1.021.414-1.569.474h-.01l-.213.01c-.304 0-.861-.051-1.296-.404v-.02s-.101-.081-.243-.081c-.097.006-.188.049-.253.121h-.01c-.121.101-1.215.969-1.579 1.211l-.061.101c-.01.071.031.142.071.182.665.771 1.121 1.699 1.326 2.695.01.051.04.263.01.606-.121-.388-.256-.772-.405-1.15-.151-.242-.374-.404-.607-.545-.202-.111-.415-.141-.607-.272-.283-.202-.587-.404-.769-.777-.01-.716-.385-1.251-.385-1.251.101-.051.547.262.577 1.039.507-.535.77-1.322.952-2.19.405-.535 1.488-.323 1.903-.252.102.02.294.05.375.121.112.081.142.262.304.333.172.071.364.02.577 0 .071.081.101.182.152.283l.142-.01h.03c.587-.01 1.397-.404 1.468-.444h.02l.091-.04c-.233-.293-.607-.374-.911-.424-.415-.071-.637-.414-1.022-.505-.101-.01-.446-.07-.557-.02-.871.101-1.478-.211-2.278-.272-.769-.061-.79.464-1.063.898-.111.161-.232.343-.364.464-.203.202-.456.212-.709.404l-.03-.02c-.06-.262-.162-.686-.364-.979v-.01l-.061-.101c-.383-.694-1.046-1.19-1.822-1.362-.172-.071-.203-.091-.324-.172l-.067-.136.067-.136c.273-.151.718-.101 1.022-.242.739-.343.475-.959.192-1.009-.374-.071-1.042-.242-1.174-.323-.182-.111-.294-.424-.577-.525-.222-.07-.405-.06-.607-.03l-.425.131c.162-.232.455-.353.83-.383-.324-.091-.212-.606-.506-.737-.131-.021-.323.04-.536.151-.02-.171-.111-.726-.415-.908-.253-.141-.334.081-.324.232 0 .121.374.273.435.848l-.192.131c-.041-.242-.152-.606-.395-.737-.243-.141-.334.071-.324.222.02.121.334.253.435.737l-.253.212c-.496-.132-.608-.475-.729-.505-.142-.03-.364.041-.253.303.122.252.486.403.709.474l-.142.172c-.577-.121-.698-.505-.83-.535-.132-.03-.364.041-.243.303.151.333.708.485.86.505-.101.172-.141.303-.111.404-.455-.04-1.245.202-1.093.717.152.101.678-.323 1.164-.081.314.495.831.515.952.606.172.142.202.394.283.626.141.423.445.777.698 1.15.263.424.557.858.84 1.211.049.114.067.24.051.363-.324.525-1.316 1.131-1.721 1.514-.405.374-4.251 3.29-4.717 4.552-.121.332-.176.685-.162 1.039-.223.121-.638.05-.759-.091-.253-.303.264-.575.132-.979-.051-.151-.253-.201-.415-.151-.283.101-.344.666-.202 1.009.031.101.182.222.071.303-.142.05-.233-.091-.233-.303-.103.081-.147.217-.111.343.07.272.405.282.526.353-.02.132-.202.182-.334.071-.212.303.02.424.071.434.233.04.486-.162.628-.182.071.161-.04.201-.283.272.385.464.729-.333 1.154-.232.132.02 1.347 1.15 1.134 2.008l-.081.202c-.273.323-.708.585-1.012.898-.638.403.597 2.916.496 4.208-.081.504.435.403.729 1.231-.303 0-.617.081-.779.313l-.04.071c-.112.194-.112.433.001.627s.321.313.546.312c.355 0 .638-.273.638-.626v-.091c.131 0 .304.03.506.101l.557.303s-1.963 1.655-5.162.696c0 0-1.448-.454-1.043-1.746 0 0 .071-.212.273-.343.072.332.368.568.709.565.287-.007.543-.181.654-.444.111-.264.057-.568-.138-.777l-.101-.091-.02-.01c-.213-.151-.547-.242-1.043-.111 0 0-1.397.403-.891 1.907 0 0-.942-.212-1.306.222 0 0-.121.131-.101.353v.02c.007.107.038.21.091.303.098.143.259.231.433.237.174.006.34-.071.448-.207.041-.06.132-.1.324.061 0 0 1.316 1.443 3.239 1.251 0 0 .051.999.719 1.171l.101.02c.184 0 .334-.149.334-.333 0-.184-.15-.333-.334-.333h-.04c0-.03-.08-.323-.04-.535 1.048-.748 2.259-1.236 3.533-1.423 0 0 .961.283 1.609.303 0 0 .091.222-.344.262 0 0-.546 0-.536.172 0 0-.04.202.405.192 0 0-.06.202.294.404 0 0 .222.111.101.262 0 0-.415.233-.304.505 0 0 .122.333.709.242 0 0 .202 0 .04.161 0 0-.294.313.202.565 0 0 .385.212.638-.182 0 0 .061-.161.294-.04 0 0 1.255.565 1.903-.363 0 0 .041-.141.223.101 0 0 .648.778 2.409.828.129.252.406.393.687.349.281-.043.502-.262.548-.541.203 0 .982-.061 1.812-.606 0 0 .293-.182.617-.333.008.507.427.911.936.903.509-.009.914-.427.906-.934.006-.448-.316-.833-.759-.908v.01zm-5.871-6.892v-.001l-.03.05-.02.02-.02.02-.182.03c-.121 0-.253-.01-.344-.03-.01.081.03.132.101.182l.091.05.152.071c0 .121-.203.192-.304.192-.203 0-.324-.222-.405-.363l-.051-.04-.051-.03c-.172-.101-.435-.131-.698-.141.05-.464 1.316-.151 1.356-.141.132.04.304.04.405.101v.03zm19.314 1.11v-.003l-.03.061c-.233 0-.749-.353-.759-.353-.071-.05-.304-.182-.486-.111-.202.101-.304.303-.415.404l-.04-.111v-.02l-.01-.101v-.111l.02-.04.051-.101.03-.04.04-.03.061-.04.02-.02c.112-.061.253-.081.395-.071.195.01.383.08.536.202.172.162.516.202.729.202l-.142.283zm5.223-15.713l-.003-.001c.092-.384.628-.848.628-1.06l-.294-.807c-.041-.505.334-.979.83-.878.304.06.527.333.709.565l.263.252c.567.707 1.013 1.948 1.296 2.947.81 2.947 1.185 7.589.223 12.716-.091.434-.304 1.554-.344 1.463.941-8.467.425-10.556.263-10.526-.131.051-.283 1.04-.759.737-.455-.293 1.063-2.16.456-3.189l-.506.161c-.628-.202.344-1.816.162-1.988-.142-.121-.608-.212-.628-.807 0-.273.183-.495-.04-.717-.172-.171-.142.152-.324.071-.293-.303-.02-.656-.172-.888-.071-.06-.273.192-.435.061-.172-.142.102-.404-.121-.505-.273.03-.678.333-.607.787.051.232.324.384.304.646 0 .232-.283.505-.344.626-.405.908.273 1.1.182 1.413-.04.162-.334.253-.516.172-.253-.101-.304-.908-.223-1.251zm-1.225 1.806v.001c.131-.01.304-.051.425-.081.131-.041.222-.172.364-.172.051.05-.05.121-.101.151-.211.163-.452.283-.709.353-.445.101-.85-.051-1.032-.323.324-.101.608.132 1.053.071zm-7.774-3.189v.001l-.071.01c-.364-.181-1.042-.161-1.528.091-.365.192-.648.545-.709.575-.061.03.587-.949 1.65-1.06.638 0 .709.333.658.383zm2.308 2.957c-.141.253-.364.555-.688.636-.607.151-1.215-.343-1.235-.414-.031-.07.506.242 1.012.202.375-.02.668-.282.891-.464l.02.04zm.952 9.497c.518.186 1.093.115 1.549-.192h.081c.05.05 0 .424-.648.555-.685.023-1.334-.304-1.721-.868.061.01.375.364.739.505zm-2.753-1.938l.003-.001.02.02.01.04.01.04v.04l.01.071v.454l.02.262c.028.221-.018.445-.132.636l-.051.071-.061.061-.051.03h-.01l-.061.02h-.101l-.061-.02-.03-.01-.061-.03-.04-.02-.071-.061-.03-.03s-.131-.232.071-.252l.101.091.051.02h.071l.04-.02.01-.02.02-.04.01-.02.02-.081v-.03l.02-.071v-.101c.03-.363.01-.857.121-1.029l.03-.03v-.01l.051-.01.061.01.01.02zm-1.245-1.473h.011c.091-.06.203-.101.314-.131l.182-.01.202.02c.03 0 .162.232.202.464.02.051.122.404.243.515.121.121.07.353-.213.303h-.02c-.304-.04-.648-.515-.506-.989l-.223-.01-.111.03-.03.01-.061.03-.051.03c-.07.061-.101.172-.202.182 0-.182.111-.343.263-.444zm-11.943 1.058h-.005c.85-1.443.769-2.442.739-2.624 0-1.605-1.012-2.816-1.113-2.947-.121-.121-.131-.242-.121-.313.02-.151.132-.242.172-.252l.921-.585.101-.061.071-.03c.06 0 .101.04.202.111.43.374 1.01.527 1.569.414.344-.04.901-.323.911-.333l.476-.222.051-.02c.911-.384 1.68-.404 1.893-.404.213 0 .982.021 1.883.404l.051.02.496.222s.557.293.891.333l.354.03c.648 0 1.023-.283 1.215-.444.102-.071.152-.101.213-.101l.101.03.101.061.911.585c.02 0 .132.091.152.232 0 .081 0 .202-.121.323-.685.826-1.077 1.855-1.113 2.927-.03.202-.111 1.201.729 2.644.04.08.941 1.756-.051 3.219-.081.131-.87 1.342-2.925 1.342-.182 0-1.822.03-2.389 1.08l-.04.05c-.06.101-.273.444-.364.626l-.091.05-.101-.05c-.081-.182-.293-.515-.354-.626l-.03-.05c-.567-1.05-2.217-1.08-2.399-1.08-2.054 0-2.834-1.211-2.925-1.352-1.013-1.493-.061-3.189-.051-3.209h-.01zm5.707-1.251l-.981-1.442h-3.512l4.484 1.433-1.63.606-.607-.444h-2.723l-.182.484-.172.363v3.542c.101.121.253.283.476.444l-.001.002v-4.35h.324v4.541c.142.081.304.151.476.212v-4.753h.314v4.854l.486.081v-4.935h.324v4.965h.202l.273.02v-2.029l-.283.202 2.733-3.795-.001-.001v-.001l2.672 3.764v1.867l.375-.02.101-.01v-4.965h.334v4.945c.162-.01.334-.031.476-.071v-4.874h.314v4.794c.182-.061.344-.121.486-.202v-4.592h.324v4.42c.182-.121.334-.252.445-.363l.03-.05v-3.28c-.152-.253-.274-.505-.375-.727l-.182-.484h-2.743l-.607.444-1.215-.444-.425-.161 4.484-1.433h-3.512l-.091-.303h3.948l.101-.484h-4.191l-.101-.323h4.373l.182-.474h-4.697l-.101-.323h4.94l.263-.474h-5.345l-.101-.323h5.658c.108-.165.226-.323.354-.474h-6.154l-.02-.071v4.692zm5.869 1.924c.213.474.385 1.221 0 2.129v-2.129zm-6.406 4.384v.001c.156.14.289.303.395.484l.02.04.071.101v-5.147l-.486.353v4.168zm-4.483-11.595l-.547.353h1.124l-.577-.353zm7.308.323h.001l-.476-.222-.051-.02c-.212-.101-.425-.162-.607-.202h-2.298c-.192.041-.405.101-.607.202l-.061.02c-.102.04-.304.131-.466.222l-.061.03h4.687l-.061-.03zm2.976-.303l-.02-.01h-.02c-.101.081-.253.202-.486.343h.982l-.456-.333zm-10.912 9.325c-.342-.771-.342-1.651 0-2.422v2.422zm5.628-8.679l-.001-.001h-5.972c-.01.071.031.132.061.172l.243.303h5.527l.142-.474zm-.243.797h-5.223l.253.474h4.828l.142-.474zm-.385 1.272h-.001l.142-.474h-4.585c.061.151.122.302.162.474h4.282zm-.101.323h-4.1c.031.151.061.312.071.484h3.887l.142-.484zm-4.13 2.079h2.186l-.668-.484h-1.417c-.02.141-.05.302-.101.474v.01zm.121-1.282h-.001v.04c0 .061.02.212 0 .434h.952l-.678-.474h-.273zm7.117 2.069h.314v2.997l-.304-.928-.01-2.069zm-1.275 5.5v-.001c.152-.101.304-.181.476-.242v-2.977l-.476-.363v3.583zm-.82.979h.001l.182-.283.03-.04c.071-.141.172-.272.273-.373v-4.118l-.486-.363v5.177zm-1.599-1.262v.001c.172.06.334.131.486.232v-3.704l-.486.363v3.108zm3.219-.071c.162-.05.324-.091.476-.111v-2.15l-.476-.363v2.624zm-4.008-.131l.476.101v-2.765l-.476.363v2.301zm2.124-5.652v.001-.001zm-2.448.636v-.001h.324v1.403l-.324.939v-2.341zm5.142-.787h2.217l-.091-.484h-1.448l-.678.484zm2.126-1.282h-.334l-.678.474h.992l.01-.333.01-.141zm-11.033.878l-.004-.001c.102.1.193.363.223.706v.071l.01.111v.101l.01.081v.293l-.02.101v.061l-.02.141-.01.091-.02.091-.01.071-.02.081-.03.131-.03.071-.02.081-.03.071-.051.111-.03.05-.04.071-.03.05-.081.101-.02.02-.071.061-.03.03-.101.061h-.01l-.111.04h-.03l-.132.01-.02-.091c0-.122.131-.243.202-.394.05-.141.04-.232.121-.333.131-.01.243.04.283-.101-.202-.151-.212-.485.051-.757.375-.374 0-1.181.071-1.282zm-.121-1.251c.091-.555-.952-1.261-2.207-.555.294.121.648.252 1.124.04.881-.171.921.555 1.083.515zm-7.288-7.165h.001c-.203-.444.506-1.06.688-1.11.405-.152.709.1 1.154.161.253.04.536 0 .749.02.476.04.344.384.263.434-.395.111-.618-.192-.962-.242l-.759.091c-.223-.02-.385-.151-.577 0-.02.011-.304.223-.243.495.02.171-.233.262-.324.151h.01zm.456-.101c.537.202.588-.474.709-.313.192.303-.324.787-.709.323v-.01zm1.012 1.524l-.001.001c.84.06 1.671.07 2.207.363l.061.04c.162.121.608.464.8 1.11-.709-.444-.972-.545-1.569-.757-.587-.202-1.245-.303-1.498-.767v.01zm-4.221 18.489h-.031l-.294-.182c-.101.152.081.303.172.424l-.121.071-.202-.03h-.01c-.183-.081-.213-.344-.223-.495-.017-.198-.131-.375-.304-.474.355-.233.901.333.952.383l.263.202.071.071c-.05.101-.152.091-.273.03z"/></g></svg>