<svg width="196" height="40" viewBox="0 0 196 40" xmlns="http://www.w3.org/2000/svg"><g fill="#fff" fill-rule="nonzero"><path d="M68 20.4c0-1.2-.3-2-.9-2.6-.5-.6-1.2-.8-2-.8-1 0-1.6.2-2.2.8-.562.747-.845 1.666-.8 2.6h5.9zm-6 2.4c0 1.1.4 2 1 2.6.6.6 1.4 1 2.4 1 1.207-.007 2.346-.558 3.1-1.5l2 1.8c-1.225 1.507-3.059 2.387-5 2.4-.8 0-1.5-.1-2.2-.3l-1-.5c-.361-.192-.697-.427-1-.7-.6-.5-1-1.3-1.4-2.3-.5-.9-.7-2.1-.7-3.6 0-1.4.2-2.6.6-3.6.3-1 .8-1.7 1.3-2.3.563-.552 1.248-.963 2-1.2 2.086-.723 4.401-.222 6 1.3 1.169 1.197 1.786 2.829 1.7 4.5v2.4h-8.8zm10.8-8.4h3.4l2.8 4.7 2.8-4.7h3.4l-4.8 7.1 5 7.4h-3.4l-3-4.8-3 4.8h-3.4l4.8-7.4-4.6-7.1zm20.6 11.8c.6 0 1.2-.1 1.5-.4.4-.3.7-.6.9-1l.3-1.5c.038-1.1.038-2.2 0-3.3 0-.6-.1-1-.3-1.5-.176-.427-.494-.781-.9-1-.456-.263-.974-.401-1.5-.4-.7 0-1.2.2-1.5.4-.4.3-.7.7-.9 1.1-.2.4-.3 1-.3 1.4-.104 1.064-.104 2.136 0 3.2 0 .6.1 1 .3 1.5.389.969 1.359 1.575 2.4 1.5zm-5.6-11.8h2.8v1.5c1-1 2.1-1.6 3.6-1.7 1.7 0 3 .7 3.8 2 .4.4.6 1 .8 1.7l.2 3.8c0 1.7 0 3-.2 3.7-.112.657-.387 1.276-.8 1.8-.4.6-1 1-1.5 1.4-.7.3-1.4.5-2.3.5-.7 0-1.4-.2-2-.5-.5-.3-1.1-.7-1.6-1.2v7.4h-2.8v-20.4zm14.7-5.9h2.8v16.7c0 .7.4 1 1 1h1v2.7h-1.2c-.934.045-1.853-.238-2.6-.8-.7-.5-1-1.4-1-2.7v-16.9zm15.3 13.2l-.1-2.3c-.1-.5-.3-.9-.6-1.2-.211-.353-.525-.632-.9-.8-.436-.212-.916-.314-1.4-.3-.45.001-.895.104-1.3.3l-1 .8-.5 1.2-.1 2.3.1 2.2c.1.4.3.9.6 1.2.2.3.5.6 1 .8 1.214.651 2.719.359 3.6-.7l.5-1.3.1-2.2zm-8.8 0c0-1.6.2-2.8.4-3.6.3-.8.6-1.5 1.2-2 .4-.5.9-1 1.6-1.3.7-.4 1.6-.6 2.6-.6.934-.013 1.859.192 2.7.6.618.317 1.163.76 1.6 1.3.6.5 1 1.2 1.2 2 .2.8.3 2 .3 3.6 0 1.5 0 2.6-.3 3.5-.237.752-.648 1.437-1.2 2l-.7.7c-1.02.814-2.296 1.24-3.6 1.2-1 0-2-.2-2.6-.6-1.353-.662-2.368-1.858-2.8-3.3-.2-.9-.4-2-.4-3.5zm15-7.3h2.8v1.5c1.696-1.993 4.677-2.26 6.7-.6l-2.1 2.6c-.519-.483-1.192-.766-1.9-.8-.7 0-1.3.3-1.8.8-.6.4-1 1.2-1 2.3v8.7h-2.7v-14.5zm17.8 8.4h-3.4c-1.6 0-2.4.6-2.4 1.7 0 .5.2 1 .6 1.3.4.4 1.1.6 2 .6 1.2 0 2-.2 2.6-.5.4-.3.6-1 .6-2v-1.1zm0 4.8c-.3.5-.7.9-1.2 1.1-.724.313-1.513.45-2.3.4-1.325.061-2.62-.406-3.6-1.3-.905-.774-1.418-1.91-1.4-3.1 0-1.3.4-2.3 1.2-3 .8-.9 2-1.3 3.4-1.3h4v-1.6c0-1.3-1-1.9-3-1.8-.541-.02-1.081.047-1.6.2-.427.176-.781.494-1 .9l-2.3-1.8c1.153-1.444 2.963-2.198 4.8-2 1.8-.1 3.2.2 4.2 1 1 .7 1.6 2 1.6 3.7v10h-2.8v-1.4zm5 3.4h13.9v1.5h-14l.1-1.5zm16-22.5h2.8v16.7c0 .7.4 1 1.1 1h1v2.7h-1.3c-.9.022-1.78-.26-2.5-.8-.7-.5-1-1.4-1-2.7l-.1-16.9zm14.7 14.3h-3.5c-1.7 0-2.5.6-2.5 1.7 0 .5.2 1 .7 1.3.4.4 1 .6 2 .6.863.052 1.724-.12 2.5-.5.4-.3.7-1 .7-2l.1-1.1zm0 4.8c-.4.5-.8.9-1.3 1.1-.724.313-1.513.45-2.3.4-1.325.061-2.62-.406-3.6-1.3-.868-.792-1.343-1.926-1.3-3.1 0-1.3.3-2.3 1.1-3 .8-.9 2-1.3 3.4-1.3h4v-1.6c0-1.3-1-1.9-3-1.8-.541-.02-1.081.047-1.6.2-.427.176-.781.494-1 .9l-2.2-1.8c1-1.4 2.6-2.1 4.7-2 1.8-.1 3.2.2 4.3 1 1 .7 1.6 2 1.6 3.7v10h-2.8v-1.4zm12.4-10.5c-.7 0-1.2.2-1.5.4-.4.3-.7.7-.9 1.1-.2.4-.3 1-.3 1.4-.111 1.064-.111 2.136 0 3.2 0 .6.1 1 .3 1.5.389.969 1.359 1.575 2.4 1.5.6 0 1.2-.1 1.6-.4l.8-1 .3-1.5c.038-1.1.038-2.2 0-3.3 0-.6-.1-1-.3-1.5-.15-.412-.431-.763-.8-1-.485-.28-1.04-.419-1.6-.4zm-5.6-8.6h2.8v7.5c.5-.5 1-.9 1.7-1.2.612-.339 1.301-.511 2-.5 1.6 0 2.9.7 3.7 2 .4.4.7 1 .8 1.7l.2 3.8c0 1.7 0 2.9-.2 3.6-.079.727-.355 1.419-.8 2-.4.5-.9 1-1.5 1.3-2.029 1.092-4.547.588-6-1.2v1.5h-2.7v-20.5zM44.1 3.2c-.5-.4-1.5-.4-2 .1l-3.4 3.2c-.252.189-.4.485-.4.8 0 .315.148.611.4.8 0 0 5.3 3.9 5.3 12.2-.033 4.717-2.026 9.209-5.5 12.4-.6.5-.6 1.2 0 1.7l3.3 3.1c.6.5 1.5.6 2 .1 0 0 8-5.4 8-17.3 0-11.8-7.7-17.1-7.7-17.1" id="Shape"/><path d="M24.3 12.4c-1-2.2-3.2-3.9-6.6-3.9-2.81-.137-5.421 1.446-6.6 4-.573 1.257-.879 2.619-.9 4h15c-.021-1.381-.327-2.743-.9-4v-.1zm-13 10.5s-1 0-1 .7c0 4.5 3.3 7.7 8.6 7.7 3.9 0 5.6-.9 8-2.7.5-.4 1-.8 1.5-.3l4.5 4.2c.5.5.3 1-.2 1.5-.6.5-6.8 5.3-14 5.3-9.2 0-18.2-4-18.2-19.3 0-12.4 7-19.3 17.2-19.3 11 0 17.3 7.7 17.3 18v2.7c0 1-1 1.5-1.6 1.5h-22.1z"/></g></svg>