<svg width="202" height="26" viewBox="0 0 202 26" xmlns="http://www.w3.org/2000/svg"><path d="M22.344 3.5c-3.35-.03-6.939 1.904-6.969 5.531-.035 3.955 3.235 5.041 6.406 6.1 2.805.937 5.461 1.829 5.438 4.646-.02 2.374-2.177 4.87-6.125 4.836-2.642-.024-4.716-1.261-5.875-2.023v1.422c1.689.933 3.784 1.468 5.906 1.486 4.045.037 8.15-2.22 8.188-6.606.032-3.739-3.212-4.842-6.375-5.911-2.859-.968-5.586-1.885-5.563-4.678.02-2.318 2.201-4.038 5.063-4.014 2.739.023 4.622 1.287 5.5 1.991.006-.482-.001-1.22 0-1.391-.865-.454-2.929-1.368-5.594-1.391zm91.031.284c-.101.253-8.487 20.586-8.719 21.146h1.469c.103-.253 3.25-8.123 3.25-8.123h8.844l3.281 8.123h2.719c-.785-1.864-5.469-12.959-5.469-12.959s-3.332-7.94-3.438-8.186h-1.938zm-113.375.19v20.956h12.125v-.948h-9.75v-9.988h8.844v-.853h-8.844v-8.281h9.594v-.885h-11.969zm30.188 0v.885h6.813v20.071h2.406v-20.071h6.813v-.885h-16.031zm19.375 0v20.956h12.125v-.948h-9.75v-9.988h8.844v-.853h-8.844v-8.281h9.594v-.885h-11.969zm16.5 0v20.956h12.125v-.948h-9.75v-9.988h8.844v-.853h-8.844v-8.281h9.594v-.885h-11.969zm25.031 0v20.956h12v-.98l-9.656.032v-20.008h-2.344zm35.125 0v14.097c0 4.796 2.865 7.333 8.281 7.333 5.15 0 8.219-2.682 8.219-7.175v-14.255h-1.219v14.255c0 3.962-2.559 6.416-6.688 6.416-3.903 0-6.25-2.239-6.25-6.006v-14.666h-2.344zm21.125 0v20.956h6.844c3.696.046 6.688-.972 8.688-2.971 1.85-1.847 2.781-4.469 2.781-7.776 0-3.211-.925-5.83-2.688-7.586-1.785-1.776-4.431-2.677-7.688-2.623h-7.938zm22.188 0v20.956h12.125v-.948h-9.75v-9.988h8.844v-.853h-8.844v-8.281h9.594v-.885h-11.969zm16.531 0v20.956h2.375v-10.209h4.406s6.379 10.02 6.5 10.209h2.594l-6.844-10.462.313-.063c.215-.042 5.219-1.062 5.219-5.152-.004-1.426-.455-2.596-1.344-3.477-1.22-1.207-3.273-1.851-5.781-1.802h-7.438zm2.375.79h4.844c1.716-.022 3.007.4 3.875 1.264.769.765 1.155 1.859 1.156 3.224.005 1.262-.373 2.311-1.156 3.098-1.085 1.087-2.895 1.635-5.219 1.612h-3.5v-9.198zm-38.688.032h5.125c2.46-.027 4.429.671 5.844 2.086 1.661 1.665 2.5 4.252 2.5 7.681 0 3.223-.796 5.655-2.375 7.238-1.6 1.598-3.928 2.342-7.156 2.307h-3.938v-19.313zm-35.969.853l2.938 7.396 1.156 2.876h-8.156l.125-.284c.397-.966 2.301-5.679 3.75-9.482l.188-.506zm-64.25-5.65h12v.813h-12v-.813z" fill="#fff" fill-rule="nonzero"/></svg>