<svg width="400" height="101" viewBox="0 0 400 101" xmlns="http://www.w3.org/2000/svg"><g fill="#fff" fill-rule="nonzero"><g id="Group"><g id="Shape"><path d="M54.762 27.012c-1.548-.911-3.135-1.782-4.683-2.575l-1.548.99c1.865.832 3.73 1.822 5.516 2.891 17.778 10.496 26.23 23.844 22.54 34.776l-.04.04c-1.23 3.287-3.294 7.288-6.27 11.328-.635.832-1.27 1.703-1.984 2.535-3.77 4.555-8.611 9.031-14.603 12.516-2.937 1.703-5.913 3.089-8.929 4.159.833.277 1.667.515 2.54.753 2.381-1.109 4.762-2.376 7.103-3.763 8.968-5.268 16.349-11.526 21.23-17.665 1.111-1.386 2.103-2.773 2.937-4.119 1.071-1.703 1.905-3.406 2.5-5.03l.04-.079c4.167-12.001-6.746-25.191-26.349-36.756zM22.659 16.595c-1.905 0-3.69.198-5.278.594-1.865.515-4.444 1.426-6.508 3.802-6.151 6.654-10.437 21.071-10.476 37.786-.04 16.675 4.167 31.053 10.238 37.746 2.024 1.862 3.056 2.891 7.421 4 5.437 1.03 12.778.079 20.873-2.654-1.865-.436-3.69-.871-5.476-1.347-5.516.792-10.437.634-14.127-.04-4.008-.99-4.921-1.941-6.746-3.644-5.556-6.1-11.19-19.21-11.151-34.34.04-15.209 5.754-28.24 11.349-34.261 1.865-2.139 4.246-2.971 5.913-3.446.833-.198 1.706-.356 2.659-.475.754-.079 1.508-.158 2.302-.198 5.159-.238 11.587.594 18.294 2.773l1.667-1.426c-6.627-2.773-12.937-4.357-18.333-4.753-.833-.079-1.746-.119-2.619-.119z"/></g><g id="Shape"><path d="M34.246 79.929c-3.929-1.228-4.802-2.258-6.508-4.04-2.183-2.733-4.286-6.694-5.952-11.486-.437-1.307-.873-2.654-1.23-4.04-1.508-5.743-2.302-12.397-1.905-19.408.437-6.892 2.024-13.269 4.167-18.695l-2.063.158c-1.587 5.585-2.698 11.962-3.135 18.774-.556 8.674.119 16.833 1.667 23.606.516 2.258 1.151 4.396 1.825 6.337 1.23 3.367 2.738 6.218 4.444 8.357 1.905 1.98 2.857 3.089 7.183 4.476 7.897 1.98 20.198 0 33.056-5.743.635-.792 1.27-1.584 1.865-2.416-12.5 5.862-25.833 6.02-33.413 4.119zM73.769 12.793c-13.69-9.229-27.857-13.625-36.706-12.12-1.905.396-4.563 1.188-6.746 3.406-2.579 2.495-4.96 6.179-6.905 10.773.952 0 1.944.04 2.937.119 1.825-3.129 3.81-5.704 5.714-7.525 1.984-2.02 4.405-2.733 6.111-3.089 8.016-1.386 22.421 1.307 34.881 9.704 16.786 11.328 24.444 24.874 20.675 35.449l-.238.673-.04.04c-.159.356-.317.753-.516 1.149-2.103 4.396-5.754 9.664-10.873 14.576-1.19 1.862-2.54 3.763-4.048 5.704 7.341-4.753 13.214-10.1 16.944-15.249.437-.594.833-1.188 1.19-1.743.714-1.149 1.349-2.297 1.825-3.406l.04-.04c4.722-11.803-5.357-25.626-24.246-38.42z"/></g><g id="Shape"><path d="M96.785 56.243c-.397.634-.833 1.228-1.27 1.862 3.929 12.199 2.698 22.339-3.611 27.963l-.04.04c-6.27 5.268-18.452 11.288-32.698 11.288-4.96 0-9.722-.713-14.087-1.901-1.032-.277-2.024-.555-2.976-.911-6.944-2.258-12.619-5.585-16.19-8.674-2.976-2.891-3.333-4.159-4.087-6.575-.238-1.069-.437-2.258-.516-3.525-.952-2.693-1.786-5.545-2.54-8.595-1.111 5.545-1.27 10.496-.437 14.338.833 2.654 1.23 4.04 4.484 7.248 3.333 2.852 8.254 5.268 14.286 7.011 1.389.396 2.857.753 4.365 1.109 5.397 1.149 11.389 1.822 17.778 1.822 15.714 0 29.325-3.961 36.23-9.744l.079-.04c7.341-6.496 7.103-18.338 1.23-32.716zM28.928 43.965c4.921-8.635 11.468-15.209 17.619-19.408.556-.396 1.111-.753 1.667-1.069 2.619-1.624 5.119-2.773 7.341-3.485 2.659-.911 5.119-.436 6.825 0 7.778 2.376 19.524 11.328 26.984 24.478.992 1.743 1.905 3.485 2.698 5.149.238-.475.437-.951.635-1.426l.079-.079.079-.198c-.714-1.386-1.468-2.812-2.302-4.198-8.214-14.496-19.008-24.834-27.579-27.448-1.865-.475-4.603-1.03-7.54 0-3.175.99-6.627 3.01-10.159 5.902-.516.436-1.032.871-1.548 1.347-5.516 4.911-11.111 11.882-15.873 20.24-2.778 4.911-5 9.823-6.667 14.536.317 1.149.675 2.258 1.032 3.367 1.23-5.704 3.373-11.843 6.706-17.705z"/></g></g><g><path d="M132.58 36.637c0-1.228.952-2.258 2.024-2.258h20.079v-8.912h-22.024c-4.683 0-8.532 4.436-8.532 9.823v41.153h8.452v-22.18h16.23v-8.793h-16.23v-8.833zM177.342 24.913c-2.5 0-4.96 1.743-5.833 4.515l-15.198 47.015h8.413l3.81-11.882h17.183l3.77 11.882h8.968l-15.357-47.015c-.873-2.693-3.135-4.515-5.754-4.515zm-6.111 30.973l5.913-19.051 5.913 19.051h-11.825zM232.461 27.369c-3.571-1.98-6.944-1.743-10.675-1.901h-5.833c-4.722 0-8.532 4.436-8.532 9.902v41.073h8.452v-18.418h5.952c4.008 0 8.135-.673 11.468-3.05 4.206-2.971 5.833-8.08 5.833-13.467.04-5.704-2.103-11.605-6.667-14.14zm-10.159 21.903h-6.389v-12.714c0-1.228 0-2.416 1.071-2.416h5c5.397 0 8.532.951 8.532 7.565 0 5.664-4.087 7.565-8.214 7.565z" id="Shape"/><path d="M345.397 25.468h8.452v50.936h-8.452z"/><path d="M383.413 45.985v8.357l7.857.04v12.714c-1.429.515-3.135.713-4.762.713-9.524 0-14.444-6.496-14.444-17.031 0-3.723.833-8.318 2.698-11.407 2.46-3.921 6.389-5.704 10.516-5.704 3.532 0 7.976.871 11.151 2.693h1.071v-8.872c-4.127-1.624-8.135-2.575-12.619-2.575-7.143.079-13.373 3.01-17.302 9.545-3.016 4.832-4.286 10.536-4.286 16.2 0 6.575 1.627 13.11 5.397 18.061 4.246 5.545 10.079 7.684 16.548 7.684 4.881-.079 9.603-.911 14.405-2.416v-28.042h-16.23v.04zM259.524 34.34h19.921v-8.872h-21.944c-4.683 0-8.452 4.436-8.452 9.823v31.29c0 5.387 3.77 9.823 8.452 9.823h21.944v-8.872h-19.921c-1.071 0-1.984-1.03-1.984-2.258v-11.408h16.23v-8.516h-16.23v-8.714c-.04-1.267.913-2.297 1.984-2.297zM326.905 24.913c-2.937-.079-4.405 1.822-6.548 4.634l-8.849 15.922-8.849-15.922c-2.143-2.812-3.611-4.713-6.548-4.634-3.056.079-5.476 3.05-5.516 6.535v44.955h7.063l.079-39.291 13.849 22.101 13.69-22.101.079 39.291h7.063v-44.955c-.079-3.485-2.46-6.456-5.516-6.535z"/></g></g></svg>