<svg width="446" height="87" viewBox="0 0 446 87" xmlns="http://www.w3.org/2000/svg"><g fill="#fff"><path d="M48.607 24.735h-41.23v16.47h35.902v5.735h-35.902v22.058h-7.377v-49.998h48.607v5.735zm38.147 45.145c-16.557 0-25.82-12.852-25.82-25.057v-25.823h7.377v24.72c0 9.338 6.312 20.131 18.525 20.131 12.213 0 18.525-10.793 18.525-20.131v-24.72h7.131v25.749c0 12.205-9.262 25.131-25.738 25.131zm85.492-50.88h7.131v49.998h-6.967l-37.951-43.233v43.233h-7.131v-49.998h10.164l34.754 39.557v-39.557zm71.246 49.998l-6.885-13.161h-30.574l-6.885 13.161h-7.705l26.312-49.998h7.459l26.312 49.998h-8.033zm-22.131-42.792l-12.377 23.896h24.672l-12.295-23.896zm96.574 42.792h-8.934l-16.557-20.587h-21.476v20.587h-7.377v-49.998h33.443c11.639 0 18.197 5.294 18.197 14.705 0 8.235-5.082 13.308-14.18 14.485l16.885 20.808zm-46.967-44.263v17.94h24.672c8.033 0 12.049-2.941 12.049-8.97 0-6.029-4.016-8.97-12.049-8.97h-24.672zm101.82 18.602c6.967 1.765 10.738 5.882 10.738 12.132 0 8.823-6.721 13.529-19.262 13.529h-33.853v-49.998h32.705c12.131 0 18.607 4.559 18.607 13.088 0 5.588-3.115 9.411-8.934 11.249zm-35-18.602v16.102h25.082c7.541 0 11.475-2.72 11.475-8.014 0-5.367-3.934-8.088-11.475-8.088h-25.082zm25.984 38.528c8.033 0 12.213-2.794 12.213-8.308 0-5.588-4.016-8.382-12.213-8.382h-25.984v16.69h25.984zm82.23-38.528h-41.23v16.102h35.902v5.735h-35.902v16.69h41.23v5.735h-48.607v-49.998h48.607v5.735z"/><path d="M0 0h446v2h-446zM0 85h446v2h-446z"/></g></svg>