<svg width="114" height="23" viewBox="0 0 114 23" xmlns="http://www.w3.org/2000/svg"><path d="M0 22.012v-22.012h13.888v3.884h-9.472v6.474h7.744v3.884h-7.744v7.769h-4.416zm21.416-7.348c0 2.568 1.291 3.852 3.872 3.852s3.872-1.284 3.872-3.852v-14.664h4.416v14.566c0 2.698-.688 4.677-2.064 5.94-1.376 1.262-3.451 1.894-6.224 1.894s-4.848-.631-6.224-1.894c-1.376-1.262-2.064-3.242-2.064-5.94v-14.566h4.416v14.664zm16.584 7.348v-22.012h7.456l5.248 18.127h.32v-18.127h4.416v22.012h-7.264l-5.44-18.127h-.32v18.127h-4.416zm29.328 0h-7.328v-22.012h7.328c1.877 0 3.424.2 4.64.599 1.216.399 2.16 1.057 2.832 1.975.672.917 1.136 1.996 1.392 3.237s.384 2.854.384 4.839c0 1.985-.117 3.631-.352 4.936-.235 1.306-.677 2.471-1.328 3.496s-1.595 1.77-2.832 2.234c-1.237.464-2.816.696-4.736.696zm4.634-8.74c.043-.691.064-1.645.064-2.865 0-1.219-.043-2.196-.128-2.929-.085-.734-.288-1.403-.608-2.007-.32-.604-.795-1.02-1.424-1.246-.629-.227-1.477-.34-2.544-.34h-2.912v14.243h2.912c1.6 0 2.763-.41 3.488-1.23.619-.669 1.003-1.877 1.152-3.625zm8.038 8.74v-22.012h14v3.884h-9.609v5.147h7.7v3.82h-7.7v5.276h9.609v3.884h-14zm26-6.409h-3.584v6.409h-4.416v-22.012h8c5.163 0 7.744 2.546 7.744 7.639 0 2.568-.656 4.537-1.968 5.908-1.312 1.37-3.237 2.055-5.776 2.055zm-3.6-3.82h3.552c2.197 0 3.296-1.381 3.296-4.143 0-1.36-.267-2.336-.8-2.929s-1.365-.89-2.496-.89h-3.552v7.963z" fill="#fff"/></svg>