<svg width="360" height="63" viewBox="0 0 360 63" xmlns="http://www.w3.org/2000/svg"><g fill="#fff" fill-rule="nonzero"><path d="M70.7 19.3h4.2l11.3 25.8h-4.8l-2.6-6.1h-12.1l-2.6 6.2h-4.6l11.2-25.9zm6.5 15.7l-4.4-10.3-4.4 10.3h8.8zm12.1-9.2h4.4v4.4c1.2-2.9 3.4-4.9 6.9-4.7v4.7h-.3c-3.9 0-6.6 2.5-6.6 7.7v7.4h-4.4v-19.5zm14.4 23l1.6-3.3c2.1 1.3 4.2 2.1 6.9 2.1 4 0 6.1-2.1 6.1-5.9v-1.5c-1.6 2.1-3.6 3.6-6.8 3.6-4.5 0-8.8-3.4-8.8-9v-.1c0-5.7 4.3-9.1 8.8-9.1 3.3 0 5.3 1.5 6.8 3.3v-2.9h4.4v15.4c0 3.3-.8 5.7-2.5 7.3-1.8 1.8-4.5 2.6-7.9 2.6-3.1-.2-6.1-1-8.6-2.5zm14.7-14.2c0-3.2-2.6-5.4-5.7-5.4s-5.5 2.1-5.5 5.3v.1c0 3.2 2.5 5.3 5.5 5.3 3.1 0 5.7-2.2 5.7-5.3zm8.2 1c0-5.6 3.9-10.1 9.5-10.1 6.2 0 9.3 4.8 9.3 10.4 0 .4 0 .8-.1 1.2h-14.3c.5 3.2 2.7 4.9 5.6 4.9 2.2 0 3.7-.8 5.2-2.3l2.6 2.3c-1.8 2.2-4.4 3.6-7.9 3.6-5.6 0-9.9-4.1-9.9-10zm14.3-1.5c-.3-2.9-2-5.1-4.9-5.1-2.7 0-4.6 2.1-5 5.1h9.9zm8.2-8.3h4.4v3c1.2-1.8 3-3.4 6-3.4 4.4 0 6.9 2.9 6.9 7.4v12.3h-4.4v-11c0-3-1.5-4.7-4.1-4.7-2.6 0-4.4 1.8-4.4 4.8v10.9h-4.4v-19.3zm22.9 14v-10.2h-2.5v-3.8h2.5v-5.3h4.4v5.3h5.2v3.8h-5.2v9.5c0 1.7.9 2.4 2.4 2.4 1 0 1.9-.2 2.7-.7v3.6c-1.1.6-2.3 1-4 1-3.2.1-5.5-1.3-5.5-5.6zm13.5-21.1h4.8v4.2h-4.8v-4.2zm.2 7.1h4.4v19.3h-4.4v-19.3zm9.5 0h4.4v3c1.2-1.8 3-3.4 6-3.4 4.4 0 6.9 2.9 6.9 7.4v12.3h-4.4v-11c0-3-1.5-4.7-4.1-4.7-2.6 0-4.4 1.8-4.4 4.8v10.9h-4.4v-19.3zm20.7 13.8c0-4.2 3.3-6.3 8-6.3 2.2 0 3.7.3 5.2.8v-.5c0-2.7-1.7-4.2-4.8-4.2-2.2 0-3.8.5-5.5 1.2l-1.2-3.5c2.1-1 4.2-1.6 7.3-1.6 2.9 0 5.1.8 6.4 2.2 1.4 1.4 2.1 3.4 2.1 6v11.5h-4.4v-2.4c-1.3 1.6-3.3 2.8-6.3 2.8-3.6 0-6.8-2.1-6.8-6zm13.2-1.4v-1.3c-1.1-.4-2.6-.8-4.4-.8-2.9 0-4.5 1.2-4.5 3.2v.1c0 1.9 1.6 2.9 3.8 2.9 2.9.1 5.1-1.6 5.1-4.1zm8.6 1.9h4.9v5.1h-4.9v-5.1zm9.4 8.7l1.6-3.3c2.1 1.3 4.2 2.1 6.9 2.1 4 0 6.1-2.1 6.1-5.9v-1.5c-1.6 2.1-3.6 3.6-6.8 3.6-4.5 0-8.8-3.4-8.8-9v-.1c0-5.7 4.3-9.1 8.8-9.1 3.3 0 5.3 1.5 6.8 3.3v-2.9h4.4v15.4c0 3.3-.8 5.7-2.5 7.3-1.8 1.8-4.5 2.6-7.9 2.6-3.1-.2-6.1-1-8.6-2.5zm14.7-14.2c0-3.2-2.6-5.4-5.7-5.4s-5.5 2.1-5.5 5.3v.1c0 3.2 2.5 5.3 5.5 5.3 3.1 0 5.7-2.2 5.7-5.3zm8.1 1c0-5.6 4.4-10.2 10.3-10.2s10.3 4.5 10.3 10v.1c0 5.5-4.4 10.1-10.4 10.1-5.8 0-10.2-4.5-10.2-10zm16.2 0c0-3.5-2.5-6.3-5.9-6.3-3.6 0-5.8 2.8-5.8 6.2v.1c0 3.4 2.5 6.2 5.9 6.2 3.5-.1 5.8-2.9 5.8-6.2zm12.7 6.6v3h-4.4v-26.8h4.4v10.6c1.4-2 3.4-3.6 6.6-3.6 4.5 0 9 3.6 9 10v.1c0 6.4-4.4 10-9 10-3.3.1-5.3-1.5-6.6-3.3zm11-6.7c0-3.8-2.5-6.3-5.5-6.3s-5.6 2.5-5.6 6.2v.1c0 3.7 2.6 6.2 5.6 6.2 3 0 5.5-2.4 5.5-6.2zm8.1 4.6h4.9v5.1h-4.9v-5.1zm8.2-.5c0-4.2 3.3-6.3 8-6.3 2.2 0 3.7.3 5.2.8v-.5c0-2.7-1.7-4.2-4.8-4.2-2.2 0-3.8.5-5.5 1.2l-1.2-3.5c2.1-1 4.2-1.6 7.3-1.6 2.9 0 5.1.8 6.4 2.2 1.4 1.4 2.1 3.4 2.1 6v11.5h-4.3v-2.4c-1.3 1.6-3.3 2.8-6.3 2.8-3.7 0-6.9-2.1-6.9-6zm13.2-1.4v-1.3c-1.1-.4-2.6-.8-4.4-.8-2.9 0-4.5 1.2-4.5 3.2v.1c0 1.9 1.6 2.9 3.8 2.9 2.9.1 5.1-1.6 5.1-4.1zm8.8-12.4h4.4v4.4c1.2-2.9 3.4-4.9 6.9-4.7v4.7h-.3c-3.9 0-6.6 2.5-6.6 7.7v7.4h-4.4v-19.5zM17.2 58.5c-1-.2-2-.5-2.9-.9-1.2-.5-2.3-1.1-3.4-1.8-.4.1-.8.1-1.2 0-.5-.1-1-.3-1.5-.6-.6-.3-1.2-.8-1.8-1.4-.1-.1-.1-.2-.1-.3 0-.1.1-.2.3-.2-.2-.2-.3-.3-.5-.4-.5-.4-1-1-1.5-1.7v-.3c.1-.1.1-.2.2-.2l-.3-.3c-.5-.5-.9-1.1-1.3-1.9-.1-.1-.1-.2 0-.3.1-.1.1-.2.2-.2l-.3-.3c-.4-.5-.8-1.2-1.1-2-.1-.1-.1-.2 0-.3 0 0 .1-.1.2-.1l-.3-.5c-.4-.6-.7-1.3-.9-2.1l.1-.3c.1-.1.1-.1.2-.1l-.2-.3c-.3-.6-.6-1.4-.7-2.2 0-.1 0-.2.1-.3.1-.1.2-.1.3-.1l-.2-.6c-.2-.7-.3-1.5-.3-2.3 0-.1.1-.2.2-.3h.2l-.1-.4c-.2-.7-.2-1.5-.1-2.3 0-.2.1-.3.3-.3 0-.1-.1-.3-.1-.5-.1-.7-.1-1.5.1-2.3 0-.1.1-.2.3-.2-.1-.1-.1-.3-.1-.4 0-.7 0-1.5.2-2.3 0-.1.1-.2.2-.2.1-.1.2 0 .3 0v-.5c.1-.7.2-1.4.5-2.2 0-.1.1-.2.2-.2s.2 0 .3.1v-.5c.1-.7.3-1.5.7-2.2.1-.1.2-.2.3-.2.1 0 .2 0 .3.1l.1-.6c.2-.6.6-1.3 1.1-2 .1-.1.2-.1.3-.1l.2-.5c.3-.6.7-1.3 1.3-1.9.1-.1.2-.1.3-.1.1 0 .1 0 .2.1l.3-.5c.4-.6.9-1.2 1.6-1.7.1-.1.2-.1.3-.1.1 0 .2 0 .2.1.1-.2.2-.3.3-.4.2-.2.6-.6 1.1-1-.3 0-.6.1-1.2.3-.2.1-.4 0-.5-.2-.1-.1-.1-.4.1-.5 0-.1.5-.5 1.4-.8l.9-.3-2.4-.3c-.2 0-.4-.2-.4-.4s.2-.4.4-.4l2.4-.3-.3-.1c-.5-.2-.9-.5-1.9-.5-.2 0-.4-.2-.4-.4s.1-.4.3-.5c0-.1.7-.3 1.6-.2.4 0 .7.1 1 .1l-2-1.2c-.2-.1-.3-.3-.2-.5.1-.1.3-.3.5-.2l2.3.6c-.1 0-.1-.1-.2-.2-.3-.4-.6-.8-1.5-1.2-.2-.1-.3-.3-.2-.5 0-.2.2-.3.4-.3.1 0 .7.1 1.7.4.3.1.6.3.8.4l-1.4-1.9c-.2-.1-.1-.4 0-.5.1-.1.3-.1.5 0l2 1.5-.1-.3c-.2-.5-.3-1-1-1.7-.1-.1-.1-.3 0-.5.1-.1.3-.2.5-.1 0 0 .6.3 1.2 1l.6.7-.3-2.3c-.1-.2 0-.4.2-.5.2-.1.4 0 .5.2l1.2 2.1v-.3c.1-.5.1-1-.2-1.9-.1-.2 0-.4.2-.5.1-.1.4-.1.5.1 0 0 .4.5.7 1.4l.3.9.3-2.3c0-.2.2-.4.4-.4s.4.2.4.4l.3 2.3.1-.3c.2-.5.5-.9.5-1.9 0-.3.4-.4.6-.4.2 0 .4.1.5.3.1 0 .3.7.2 1.6 0 .4-.1.7-.1 1l1.2-2.1c.1-.2.3-.3.5-.2.1.1.3.3.2.5l-.6 2.3c0-.1.1-.1.2-.2.4-.3.8-.6 1.2-1.5.1-.2.3-.3.5-.2.2 0 .3.2.3.4 0 0-.1.7-.5 1.5-.2.4-.4.7-.5.9l1.9-1.4c.1-.2.4-.1.5 0 .1.1.1.3 0 .5l-1.3 1.9.3-.1c.5-.2 1-.3 1.7-1 .1-.1.3-.1.5 0 .1.1.2.3.1.5 0 0-.3.6-1 1.2l-.7.6 2.3-.6c.2-.1.4 0 .5.2.1.2 0 .4-.2.5l-2 1.2h.3c.5.1 1 .1 1.9-.2.2-.1.4.1.5.2.1.1.1.4-.1.5 0 0-.5.4-1.4.7l-.9.3 2.3.3c.2 0 .4.2.4.4s-.2.4-.4.4l-2.4.4.3.2c.5.2.9.5 1.9.5.2 0 .4.2.4.4s-.1.4-.3.5c0 0-.7.2-1.6.1h-.4c.8.3 1.4.7 1.8 1.3 0-.1.1-.2.2-.2s.2 0 .3.1c.7.6 1.2 1.1 1.6 1.7.1.1.2.3.3.5 0 0 .1-.1.2-.1s.2 0 .3.1c.6.6 1 1.3 1.3 1.9.1.1.1.3.2.5l.3-.1c.1 0 .2 0 .3.1.5.7.8 1.4 1 2.1l.1.5c0-.1.1-.1.2-.1.2 0 .2.1.3.2.4.8.6 1.5.7 2.2v.5h.3c.1 0 .2.1.2.2.3.7.5 1.5.5 2.2v.6h.3c.1 0 .2.1.2.2.2.8.3 1.6.2 2.3-.1.2-.1.3-.1.4h.2c.1 0 .2.1.2.2.2.8.2 1.6.1 2.3l-.1.5h.2c.1.1.2.2.2.3 0 .9 0 1.6-.2 2.3l-.1.4.2.1.1.3c0 .9-.2 1.6-.4 2.3l-.2.4c.1 0 .1 0 .2.1s.1.2.1.3c-.1.8-.3 1.5-.5 1.9-.1.2-.2.4-.3.5.1 0 .2 0 .3.1.1.1.1.2.1.3-.2.8-.5 1.5-.9 2.1-.1.2-.2.3-.3.4.1 0 .2 0 .3.1v.3c-.3.8-.7 1.5-1.1 2-.1.2-.2.3-.3.4l.2.2c0 .1.1.2 0 .3-.3.8-.8 1.4-1.3 1.9l-.3.3c.1.1.2.1.2.2.1.1.1.2 0 .3-.4.7-.9 1.3-1.5 1.7-.1.2-.3.3-.4.4.1 0 .2.1.2.2s0 .2-.1.3c-.6.6-1.2 1.1-1.8 1.4-.5.3-1 .5-1.5.6-.4.1-.8.1-1.2 0-.3.3-1.2.9-2.4 1.5-1 .5-1.9.8-2.9 1.1l-1.5.3c-.8 0-.1-.1.2-.5 0-.1.7-.3 1.1-.4.4-.1 1.8-.6 2.7-1 1.2-.6 2-1.2 2.3-1.4 0-.3 0-.7.1-1-.7.6-1.4 1.1-2.1 1.5-.9.5-2.5 1.2-3.5 1.5v-.2c0-.2 0-.4-.1-.5.9-.3 2.4-1 3.3-1.5 1.9-1 3.6-2.6 5.1-4.5.5-.6 1-1.3 1.4-2-1.2-.5-4-1.7-5.8-3.1l-.3.4c-.2.2-.6.4-1 .4l-.3.4c-.3.2-.7.5-1.4.5l-.3.4c-.3.4-.8.5-1.3.4-.1.1-.3.2-.5.3-.2.1-.7.2-1.2.1v4.1c0 .3-.2.5-.5.5s-.5-.2-.5-.5v-3.9l-.7.1h-.3c-.3-.1-.5-.3-.7-.5-.4.1-1 .1-1.4-.2-.2-.1-.3-.3-.4-.5-.1 0-.3 0-.5-.1-.4-.2-.8-.4-.9-.8h-.4c-.4-.1-.9-.3-1.1-.7-.1-.1-.1-.2-.1-.3-2.2 1.2-4.8 2.3-5.9 2.8.4.8.9 1.5 1.4 2.2 1.5 1.9 3.2 3.4 5.1 4.5.757.473 1.692.856 2.552 1.15.087-.139.206-.256.348-.35.9-.6 2.6-.1 3.1 0 .5-.2 2.2-.6 3.1 0 .3.2.5.5.5.9.1.5 0 .9-.3 1.2-.4.5-1.3.8-1.8.9v.7c.4.4 1.6 1.5 3.5 1.5 0 .1-.2.3-.5.6-1.6-.3-2.7-1.1-3.2-1.6-.1.1-.1.2-.2.2.1.4.6 1.5 2.5 2-.4.1-.7.2-1.2.3-1.4-.6-1.8-1.6-2-2.1h-.6c-.2.6-.7 1.5-2 2.1-.5 0-.9-.2-1.2-.3 1.9-.5 2.4-1.6 2.5-2l-.2-.2c-.5.4-1.6 1.3-3.2 1.6-.3-.3-.4-.5-.5-.6 1.8-.2 3-1.2 3.4-1.6v-.6c-.313-.052-.68-.132-1.031-.281l-.169-.019zm-.996-1.66c-.923-.293-1.77-.672-2.704-1.14-.7-.4-1.4-.8-2.1-1.4.1.3.1.7.1 1 1 .7 2 1.2 3.1 1.7.627.269 1.173.457 1.783.637-.104-.266-.163-.532-.179-.797zm6.396-.44c-.3-.2-.8-.2-1.4-.1.3.1.5.4.6.7.1.3.1.7-.1 1 .4-.1.7-.3.9-.5.2-.2.2-.4.2-.7 0-.2-.1-.3-.2-.4zm-4 .8c-.1.3.1.7.3.8.3-.3.6-.4 1-.4s.7.2 1 .4c.2-.2.4-.5.3-.8-.1-.3-.3-.5-.7-.6-.3-.1-.6-.1-.6-.1-.1 0-1 0-1.3.7zm-.5.8c-.2-.3-.3-.6-.2-1.1.2-.3.4-.5.6-.7h-.4c-.4 0-.7.1-.9.2-.1.1-.2.2-.2.4 0 .3 0 .5.2.7.2.2.6.4.9.5zm1.8 1.8c.414 0 .75-.336.75-.75s-.336-.75-.75-.75-.75.336-.75.75.336.75.75.75zm18.7-21.1c.2-.5.3-1 .3-1.6-.4.2-.9.7-1.4 1.6 0 .1-.1.1-.2.1s-.2-.1-.2-.2c0 0-.2-.7-.6-1.2-.1.3-.1.6-.1.9 0 .9.2 1.7.7 2.3.1-.1.5-.3.8-.7.3-.3.5-.7.7-1.2zm.2-3c.1-.5.1-1 .1-1.6-.4.3-.9.8-1.3 1.7 0 .1-.1.2-.2.2s-.2 0-.2-.1c0 0-.3-.6-.7-1.1 0 .7.1 2.1.9 3 .2-.1.5-.4.8-.8.3-.4.5-.8.6-1.3zm-.3-3.1c.1-.5.1-1 0-1.6-.3.4-.7.9-1 1.7 0 .1-.1.2-.2.2s-.1 0-.2-.1c0 0-.3-.6-.8-1 .1.8.3 2.2 1.1 2.9.1-.1.4-.3.7-.8.2-.4.3-.8.4-1.3zm-.3-2.8c.1-.5 0-1-.1-1.6-.3.3-.7.9-.7 2 0 .1-.1.2-.2.2s-.2 0-.3-.1c0-.1-.4-.6-.9-1 0 .2 0 .5.1.8.1.6.4 1.4 1.1 2 .1-.1.4-.4.6-.9.2-.5.3-.9.4-1.4zm-23.1-1.6v.1c1.3-.5 2.4-.8 5 .8.9.6 2 .6 2.2.6h1.1c.3 0 1 0 1.4-.4 0 0 .1-.1.1-.2-.1-.6-.6-.8-1.7-1.1l-.8-.3c-1-.4-1.9-1.1-1.9-1.1-.2-.2-.3-.5-.1-.7.2-.2.5-.3.7-.1 0 .1.7.6 1.6 1 .2.1.4.1.7.2.4.1.9.2 1.3.4-.1-.5-.2-1-.3-1.4-1.3-.3-2.4-1.2-2.4-1.2-.1-.1-.2-.2-.2-.3 0-.1 0-.2.1-.3.1-.2.4-.2.5.2 0 0 .7.6 1.6.9-.3-1.3-.8-2.5-1.4-3.7-.4-.9-1.1-1.4-1.9-1.7-.6-.2-1.1-.2-1.1-.2s-1.5.1-2.5 1.2c-.1.2-.6.8-.7 1.2 0 .2.1.4.2.5.1 0 .4.1.8-.2l.2-.2c.2-.1.4-.1.6.1.1.2.1.4-.1.6l-.2.1c-.2.1-.6.5-1 1.1-.6.8-1.4 2.1-1.8 4.1zm.8 1.5h3.2c-1.9-1.2-2.6-1-4-.3l.1.1c.1.1.4.2.7.2zm4.3 1v8c.6.1 1.1.3 1.6.5h.2c.9-.1 1.7.2 2.7.6.3.1.6.2 1 .3.2.1 5.2 1.7 9.4 1.9.5-2.1.8-4.3.8-6.5 0-2.9-.5-5.7-1.3-8.3-.9-2.6-2-4.8-3.5-6.8-1.5-1.9-3.2-3.4-5.1-4.5-2-1.1-4-1.7-6.2-1.7-2.1 0-4.2.6-6.2 1.7-1.9 1-3.6 2.6-5.1 4.5-1.5 2-2.7 4.3-3.5 6.8-.9 2.6-1.3 5.4-1.3 8.3 0 2.2.2 4.3.7 6.4 6.9-.8 11.1-1.6 12.3-2.4.9-.6 1.6-.9 2.5-.9v-7.9h-3.5c-.8 0-1.2-.3-1.4-.6-.2-.3-.3-.6-.4-.9v-.1c0-.4 0-.7.1-1.1.4-2.2 1.3-3.8 2.1-4.7 0 0-.1-.1-.2-.1-.5-.2-.7-.8-.6-1.4.2-.8.9-1.6 1-1.7 1.2-1.4 3-1.5 3.2-1.5.3-.1 2.6-.2 3.9 2.3 1.6 2.9 1.9 5.4 2.2 7.3v.1c.1.4.1.7 0 .9v.1c-.1.3-.3.5-.4.6-.3.4-.8.7-1.4.8h-3.6zm5.7-17.1c.4-.1.8-.2 1.1-.3-.4-.2-.8-.4-1.3-.4-.4-.1-.9-.1-1.3 0s-.7.3-.9.4c.5.2 1 .4 1.6.4.2 0 .5 0 .8-.1zm.9 1.6c.3 0 .6-.1.8-.2-.6-.6-1.3-.8-2.1-.8-.3 0-.6.1-.9.2.7.5 1.4.8 2.1.8h.1zm-4-2.4c.7-.1 1.2-.3 1.5-.4-1.1-.4-2.1-.4-2.7 0-.4.2-.7.4-.8.5.9 1.1 2.2 1.3 2.9 1.3-.4-.5-1-.9-1-.9-.1-.1-.1-.2-.1-.3 0-.1.1-.2.2-.2zm-3-.2c.7-.2 1.2-.5 1.4-.7-1.2-.1-2.1 0-2.7.5-.4.2-.6.4-.7.6.8.6 1.8.7 2.5.7h.6c-.5-.5-1.1-.7-1.1-.7-.1 0-.2-.1-.2-.2s.1-.2.2-.2zm-3.1.3c.7-.4 1.1-.8 1.3-1-1.2.1-2.1.5-2.7 1.1-.3.3-.4.6-.5.8.5.2 1 .3 1.5.3.4 0 .7-.1.9-.1.3 0 .5-.1.8-.2-.5-.3-1.2-.4-1.2-.4-.1 0-.2-.1-.2-.2-.1-.1 0-.3.1-.3zm-2.9 1.3c0-.1 0-.2.1-.3.6-.6 1-1.1 1-1.5-2.2.8-2.7 2.1-2.8 2.6.2 0 .5.1.9.1s.9-.1 1.5-.3l.8-.3-.7-.1h-.6c-.1 0-.2-.1-.2-.2zm23.3 11c-.2.4-.5 1-.6 1.9 0 .1 0 .2-.1.2s-.2 0-.3-.1c0 0-.4-.5-1-.8 0 .3.1.5.2.8.3.9.8 1.5 1.4 1.9.1-.1.3-.4.5-.9.2-.4.2-.9.2-1.4 0-.5-.1-1.1-.3-1.6zm-1.2-2.8c-.2.5-.4 1.1-.4 2v.1c-.1.1-.2.1-.3 0 0 0-.5-.4-1.1-.7.1.3.2.6.3.8.4.8.9 1.4 1.6 1.7.1-.1.3-.5.4-1 .1-.4.1-.9 0-1.4-.1-.5-.3-1-.5-1.5zm-1.6-.6c0 .1 0 .2-.1.3-.1 0-.2 0-.4-.1 0 0-.6-.4-1.2-.6.1.3.2.6.4.8.5.7 1.2 1.2 1.9 1.5.1-.1.2-.5.3-1 .1-.4 0-.9-.1-1.4-.1-.5-.3-1-.6-1.5-.2.4-.3 1.1-.2 2zm-1.7-2.1c-.1.1-.2.1-.3 0 0 0-.6-.4-1.3-.4l.6.7c.6.7 1.3 1.1 2 1.2 0-.2.1-.6.1-1.1 0-.5-.1-.9-.3-1.4-.2-.4-.4-.9-.8-1.3-.1.5-.1 1.2.1 2 0 .1 0 .2-.1.3zm-1.9-2.2c-.1.1-.2.1-.3.1 0-.1-.5-.3-1.2-.1h-.1l.7.6c.5.3 1.3.8 2.1.8 0-.2 0-.6-.1-1.1-.1-.4-.3-.9-.6-1.3-.2-.4-.6-.8-1-1.2 0 .4.1 1.1.5 1.9.1.1.1.2 0 .3zm-.8-.7c0-.2 0-.7-.2-1.2-.3-.8-1-1.4-1.9-1.8.1.4.4 1 .8 1.5.1.1.1.2 0 .3-.1.1-.2.1-.3.1 0 0-.7-.1-1.3 0 .6.4 1.8 1.1 2.8 1.1h.1zm-18.6-4.3c0 .1-.1.1-.1.1.3 0 .6 0 .7-.1h1.1c.6-.4 1.3-.7 2.1-.9.1 0 .2 0 .3.1 0 0 .1.1.1.2.2 0 .3-.1.5-.2.6-.3 1.4-.4 2.2-.5.1 0 .2 0 .3.1.1.1.1.1.1.2l.8-.2c.7-.1 1.5-.1 2.3 0 .2 0 .3.1.3.2v.1h.7c.7 0 1.4.1 2.2.4.1 0 .2.1.2.2.5 0 1.1.2 1.6.4h.1c.3.1.9.2 1.5.2h.2l-.8-.4c-.1-.1-.3-.2-.5-.3-.6-.3-1.2-.4-1.3-.4 0 0-.1-.1-.1-.2s0-.2.1-.2l2.9-.4-2.9-.4s-.1 0-.1-.1 0-.2.1-.2c0-.1.4-.4 1.1-.5.3-.1.9-.2 1.5-.4 0-.1.1-.1.1-.1-.3.1-.6 0-.9 0h-.6c-.7-.1-1.3.1-1.4.1-.1 0-.2 0-.2-.1s0-.2.1-.2l2.7-1.4-2.9.7c-.1 0-.2 0-.2-.1v-.2c0-.1.3-.5.9-.9.2-.1.7-.5 1.2-.9l.1-.1-.9.3-.6.2c-.7.2-1.2.6-1.2.6 0 .1-.1.1-.2 0 0 0-.1-.1 0-.2l1.9-2.5-2.4 1.8h-.2c-.1-.1-.1-.1-.1-.2 0 0 .1-.5.5-1.1.1-.2.4-.7.7-1.3.1 0 .1-.1.1-.1l-.7.6c-.1.1-.2.3-.4.4-.5.4-.9.9-.9 1 0 .1-.1.1-.2.1s-.1-.1-.1-.2l.7-2.9-1.5 2.6c-.1.1-.1.1-.2.1 0 0-.1 0-.1-.1 0 0-.1-.5 0-1.2.1-.3.2-.9.2-1.5v-.2l-.4.8c-.1.1-.2.3-.3.5-.3.7-.4 1.3-.4 1.3s-.1.1-.2.1-.2 0-.2-.1l-.4-2.9-.5 2.9s0 .1-.1.1-.2 0-.2-.1c0 0-.3-.5-.4-1.1-.1-.3-.2-.9-.4-1.5-.1 0-.1-.1-.1-.1.1.3 0 .6 0 .9v.6c-.1.8.1 1.4.1 1.4 0 .1 0 .2-.1.2s-.2 0-.2-.1l-1.5-2.8.7 2.9c0 .1 0 .2-.1.2h-.2c-.1 0-.5-.4-.9-.9-.1-.2-.5-.7-.9-1.2l-.1-.1.3.9.2.6c.2.7.6 1.1.6 1.2.1 0 .1.1 0 .2h-.2l-2.4-1.8 1.8 2.4v.2c-.1.1-.1.1-.2.1 0 0-.5-.1-1.1-.5-.2-.1-.7-.4-1.3-.7 0-.1-.1-.1-.1-.1l.6.7c.1.1.3.2.4.4.4.6 1 .9 1 .9.1 0 .1.1.1.2s-.1.1-.2.1l-2.9-.7 2.6 1.5c.1.1.1.1.1.2 0 0 0 .1-.1.1 0 0-.5.1-1.2 0-.3-.1-.9-.2-1.5-.2h-.2l.8.4c.1.1.3.2.5.3.7.3 1.3.4 1.3.4s.1.1.1.2 0 .2-.1.2l-2.9.4 2.9.4s.1 0 .1.1 0 .2-.1.2c0 .1-.4.4-1.1.5-.3.1-.9.2-1.5.4zm.1 2.9c.5-.7.6-1.4.6-1.9-1.9 1.3-2.1 2.8-1.9 3.4h.1c1.2 0 2.2-.8 2.8-1.2-.7 0-1.3.1-1.3.1-.1 0-.2 0-.3-.1-.1-.1-.1-.2 0-.3zm-2.9 1c-.3.4-.5.9-.6 1.3l-.1 1h.1c.8 0 1.5-.4 2-.8.2-.1.5-.4.7-.6-.6 0-1.2.2-1.2.2-.1 0-.2 0-.3-.1v-.3c.4-.7.5-1.4.5-1.9-.5.4-.8.8-1.1 1.2zm-1.3 3c.3-.8.2-1.5.1-2-1.5 1.8-1.3 3.2-1.1 3.8 1.2-.2 2.2-1.3 2.6-1.9-.7 0-1.2.4-1.2.4-.1.1-.2.1-.3 0-.1-.1-.1-.2-.1-.3zm-1.8.5c-.3.4-.6.9-.7 1.4-.2.5-.2.9-.3 1.5.1.5.2.9.3 1 .7-.2 1.4-.7 1.9-1.4.2-.3.4-.6.5-.8-.7.1-1.2.6-1.2.6-.1 0-.2.1-.3 0-.1-.1-.1-.2-.1-.3.2-.9 0-1.6-.1-2zm-1.6 2.6c-.3.5-.4 1-.5 1.5-.1.5-.1.9 0 1.5.1.5.3.8.4 1 .8-.4 1.4-1 1.8-1.8l.3-.7c-.7.2-1.2.7-1.2.7h-.3s-.1-.1-.1-.2c0-.9-.2-1.6-.4-2zm-.6 4.6c-.1-.9-.4-1.5-.7-1.9-.1.6-.2 1.1-.1 1.6 0 .5.1 1 .2 1.4.1.5.4.8.5.9.7-.5 1.2-1.2 1.5-2 .1-.3.2-.5.2-.8-.7.4-1.1.9-1.1.9-.1.1-.2.1-.3.1-.1 0-.2-.1-.2-.2zm-.6 2.8c-.2-.9-.6-1.5-.9-1.8-.1.6-.1 1.1 0 1.5.1.5.2 1 .4 1.4.2.5.5.8.6.9.6-.5 1-1.3 1.2-2.1.1-.3.1-.5.1-.8-.5.4-.9 1-.9 1-.1.1-.2.1-.3.1-.1 0-.2-.1-.2-.2zm-.4 2.8c-.2-.8-.7-1.4-1-1.7v1.7c0 .5.2.9.4 1.3.3.4.6.7.7.8.5-.5.9-1.2 1-2.1.1-.3.1-.6.1-.9-.5.4-.8 1-.8 1 0 .1-.1.1-.2.1s-.2-.1-.2-.2zm-1 1.6c0-.1-.1-.2-.2-.2-.1 2.4.9 3.4 1.3 3.7.5-.5.8-1 .9-1.7.1-.5.1-1.1 0-1.4-.5.5-.6 1.1-.6 1.1 0 .1-.1.2-.2.2-.2 0-.3-.1-.3-.2-.3-.7-.6-1.2-.9-1.5zm-.1 3c-.1-.1-.1-.2-.2-.2.1 2.3 1.2 3.2 1.6 3.4.9-1.2.8-2.5.7-3.1-.4.5-.7 1.2-.7 1.2 0 .1-.1.2-.2.2s-.2 0-.2-.1c-.3-.7-.7-1.1-1-1.4zm1.4 4.2c-.5-.7-1.1-1.1-1.5-1.3.2.6.3 1.1.6 1.4.3.4.6.8.9 1.1.4.4.8.5.9.6.4-.7.6-1.6.4-2.4l-.3-.8c-.3.6-.5 1.3-.5 1.3 0 .1-.1.2-.2.2s-.2 0-.3-.1zm-.5 1.7c-.1-.1-.2-.1-.3-.1.7 2.2 2.1 2.8 2.7 3 .6-1.3.2-2.6-.1-3.2-.3.6-.4 1.3-.4 1.3 0 .1-.1.2-.2.2s-.2 0-.3-.1c-.5-.6-1-.9-1.4-1.1zm.7 2.7c.2.6.5 1 .8 1.4.3.4.6.7 1.1 1 .4.3.8.4 1 .4.3-.8.2-1.6-.1-2.4-.1-.3-.3-.6-.4-.8-.2.6-.2 1.3-.2 1.3 0 .1-.1.2-.2.2-.1.1-.2 0-.3 0-.6-.6-1.1-.9-1.5-1-.1 0-.1 0-.2-.1zm3 3.6c-.6-.5-1.3-.7-1.8-.8.3.5.6.9.9 1.3.4.3.8.6 1.2.8.5.2.9.2 1 .2.2-.9-.1-1.7-.4-2.3-.1-.2-.2-.5-.4-.7-.2.7-.1 1.3-.1 1.3 0 .1 0 .2-.1.2-.1.1-.2.1-.3 0zm3.6 2.9c.1.7.3 1.3.3 1.3v.1c-.1.1-.2.1-.3.1-.8-.4-1.5-.4-2-.3.8.8 1.7 1.3 2.5 1.5.2.1.4.1.6.1h.4c0-1.3-.9-2.3-1.5-2.8zm-1.6-.5c-.1.1-.2.1-.3 0-.8-.5-1.5-.6-1.9-.8.3.5.7.9 1.1 1.2.4.3.8.6 1.2.7.4.2.8.2 1 .2h.1c.1-1.2-.7-2.3-1.2-2.9-.1.7.1 1.3.1 1.3 0 .1 0 .2-.1.3zm9.2-6.3c0-.1.1-.1.2-.2-.1-.2-.1-.3-.2-.2-.1-.1-.2-.1-.3-.1-.2 0-.5.2-.9.5-.3.3-.4.5-.4.7 0 .1 0 .3.4.4.1.1.1.1.2.1.1-.4.5-.8 1-1.2zm-.1 1.7c.2.2.6.1.8.1.1-.4.4-.7.8-1 .2-.1.3-.3.3-.4 0-.1 0-.1-.1-.2s-.2-.1-.3-.1c-.2 0-.5.2-.9.5-.3.2-.7.6-.7.9 0 .1 0 .2.1.2zm1.8.6c.4.1.9-.3 1.1-.4.1-.1.4-.3.4-.4 0 0 0-.1-.1-.2 0 0-.2-.2-.7.1-.3.2-.7.4-.9.8 0 .1.1.1.2.1zm-3.5-2.9l.2-.2c-.1-.1-.2-.1-.1 0h-.1c-.4 0-.9.2-1.1.5-.2.2-.1.4-.1.4 0 .1.1.2.4.2h.2c.1-.4.4-.7.6-.9zm10.2.5c.3 0 .5-.1.6-.2.1-.1.2-.3.3-.1-.2-.3-1-1.3-2.1-2-.5-.3-1-.6-1.5-.8-.5-.2-1-.2-1.4-.1-.1 0-.3.2-.5.3l-.5.3c-.5.3-1.2.5-1.7.5s-1.1 0-1.5-.5c-.3-.3-.3-.6-.2-1 .1-.4.5-.6 1-.8l.6-.3.5-.4c.2-.1.4-.3.7-.5l.4-.2c-.2-.1-.3-.1-.5-.1-.7-.1-1.3.2-2.1.8-.7.4-2.1.9-4.2 1.3-2 .4-4.8.8-8.3 1.2.1.3.2.7.3 1.1.4 1.4 1 2.7 1.6 3.9 1.2-.6 4.2-1.9 6.6-3.2.4-.4 1.2-.7 1.7-.6.1 0 .6 0 .9.3.4-.1.8-.1 1.1.1.4.2.5.4.6.6.5-.1.9 0 1.3.3.2.2.4.4.4.7.5 0 .8.1 1 .3.4.3.4.7.4.9 0 .2-.1.3-.2.5.3 0 .5 0 .7-.1l.2-.1c-.1-.2-.3-.5-.6-.8-.1-.1-.1-.2-.1-.3 0-.1 0-.2.1-.3.2-.2.4-.2.6 0 .5.4.7.9.8 1.1.3 0 .5-.1.6-.2.1-.1.2-.2.2-.3 0-.1-.1-.3-.4-.6-.2-.3-.7-.7-.9-.8-.1-.1-.2-.2-.2-.3 0-.1 0-.2.1-.3.1-.1.2-.2.3-.2.1 0 .2 0 .3.1 0 0 .7.5 1.1.9.3.3.5.6.6.8.3 0 .5-.1.7-.3l.1-.2c-.3-.5-1.1-1.4-2.1-1.9-.1 0-.2-.1-.2-.2-.1-.1 0-.2 0-.3 0-.1.1-.2.2-.2.1-.1.2 0 .3 0 1.1.6 2 1.7 2.3 2.2zm1.4-1.1c.1.1.3.3.7.6 1.8 1.2 4.4 2.4 5.5 3 .7-1.2 1.2-2.6 1.7-4l.3-1.1c-2.2-.1-4.5-.6-6.1-1-1.8-.5-3.1-.9-3.2-.9-.4-.1-.7-.2-1-.3-1-.4-1.7-.6-2.4-.6h-.6c-.6 0-1.1 0-1.5.3-.3.2-.5.4-.7.5-.2.2-.3.3-.6.5-.2.2-.5.3-.7.4-.2.1-.5.2-.6.3 0 0 0 .1.1.2s.3.1.7.1c.3 0 .9-.2 1.3-.4l.4-.3c.3-.2.5-.3.8-.4 1.4-.4 2.8.5 3.6 1 1 .7 1.8 1.6 2.2 2l.1.1zm3.3 10.9c.5-.2 1.4-.5 2.5-1.5-.4-.1-1.1-.1-1.9.4-.1 0-.2 0-.3-.1-.1-.1-.1-.2-.1-.3 0 0 .2-.6.3-1.2l-.6.6c-.6.7-.9 1.4-.9 2.2h.4l.6-.1zm3.3-2.8c.4-.3.8-.7 1.1-1.2-.5 0-1.2.1-1.9.8-.1.1-.2.1-.3 0-.1-.1-.1-.2-.1-.3 0 0 .2-.7.1-1.3l-.5.7c-.5.7-.8 1.5-.7 2.2h.1c.3 0 .6-.1 1-.2.4-.2.8-.4 1.2-.7zm.5-1.7c.4-.2.8-.5 1.2-.8.3-.4.7-.8.9-1.3-.4 0-1.1.2-1.8.8h-.3c-.1 0-.1-.1-.1-.2 0 0 0-.7-.1-1.3l-.4.7c-.4.8-.5 1.6-.4 2.3.1 0 .5 0 1-.2zm1.5-2.6c.4-.2.8-.5 1.1-.9.3-.4.6-.9.8-1.5l-.3.1c-.4.1-1 .4-1.5 1-.1.1-.2.1-.3.1-.1 0-.2-.1-.2-.2 0 0 0-.7-.2-1.3-.1.2-.2.4-.3.7-.3.9-.3 1.7-.1 2.4.2 0 .6-.1 1-.4zm1.1-2.7c.4-.2.7-.6 1-1 .3-.4.5-.9.7-1.5-.4.2-1 .5-1.6 1.2-.1.1-.2.1-.3.1-.1 0-.2-.1-.2-.2 0 0-.1-.7-.4-1.3-.1.2-.2.5-.3.8-.1.6-.3 1.5.1 2.4.2-.1.6-.2 1-.5zm1-2.8c.3-.3.6-.7.8-1.1.2-.5.4-1 .4-1.5-.4.2-.9.7-1.4 1.4 0 .1-.1.1-.2.1s-.2-.1-.2-.2c0 0-.2-.7-.5-1.3-.1.2-.2.5-.2.8-.1.9 0 1.7.4 2.4.2-.1.5-.3.9-.6zm-16.5-34.2s-.2 0-.1-.3c0 0 0-.6.3-.6.8-.1 1.6 0 1.6 0 1.5.2 1.8 1.1 1.8 1.1.1.3-.1.3-.1.3-.2.1-.3-.1-.3-.1s-.3-.9-3.2-.4zm-2.4.5s.4.2.8.6c0 0 .1.2-.2.2-.3 0-.4 0-.4-.1-.1-.2-.3-.3-.5-.4.1.1.1.2.1.3 0 .4-.3.7-.7.7-.4 0-.7-.3-.7-.7v-.2c-.5.2-.6.4-.6.4s-.1.3-.4.2c0 0-.2 0-.1-.3 0 0 .3-.8 1.6-.8 0 0 .7-.1 1.1.1zm2.4 1.1c-.3 0-.2-.2 0 .1.2-.7.6-.9.6-.9.3-.1 1.1-.1 1.1-.1 1.3 0 1.6.8 1.6.8.1.3-.1.3-.1.3-.3 0-.4-.2-.4-.2s-.1-.3-.6-.4v.2c0 .4-.3.7-.7.7-.4 0-.7-.3-.7-.7l.1-.3c-.2 0-.4.2-.5.4-.1.1-.2.1-.4.1zm-5.5-1.1s-.2 0 0-.2c0 0 .3-.9 1.8-1.1 0 0 .7-.2 1.6 0 .2 0 .3.6.3.6.1.3-.2.2-.2.2-2.9-.4-3.2.4-3.2.4s-.1.2-.3.1z"/></g></svg>