<svg width="95" height="37" viewBox="0 0 95 37" xmlns="http://www.w3.org/2000/svg"><g fill="#fff" fill-rule="nonzero"><path d="M29.392.274c-.04.003-.624.246-1.299.543l-2.407 1.056c-3.891 1.693-6.226 2.888-7.992 4.08-1.339.901-2.418 1.921-2.982 2.814-.459.726-.655 1.37-.655 2.135 0 .445.031.655.157 1.064.182.605.49 1.115 1.003 1.672.798.86 1.76 1.474 3.293 2.102 1.376.563 3.059 1.047 5.967 1.714 2.908.664 3.802.887 4.794 1.183 2.025.611 3.31 1.299 3.868 2.073.658.913.573 1.963-.265 3.294-.271.43-.456.679-1.176 1.557-4.443 5.447-6.377 8.012-7.371 9.791-.214.38-.222.427-.066.4.16-.027 1.045-.332 1.555-.537 4.002-1.604 7.394-4.62 9.562-8.495 2.35-4.202 3.127-9.121 2.199-13.936-.874-4.534-3.244-8.549-6.782-11.496-.652-.543-1.307-1.017-1.401-1.014zm-26.079 5.363c-.041.005-.111.111-.231.303-1.715 2.761-2.697 5.69-3.022 9.008-.063.652-.071 2.829-.014 3.484.382 4.32 1.906 8.113 4.517 11.253 2.957 3.546 6.847 5.829 11.251 6.597 1.145.199 1.612.234 3.093.237 1.077 0 1.416-.009 1.809-.053.487-.053 1.222-.157 1.35-.19.054-.015.103-.092.231-.377.447-.981.786-2.064.943-3.013.085-.522.108-1.569.043-2.046-.094-.7-.259-1.254-.564-1.874-.325-.67-.741-1.257-1.626-2.301-.812-.958-1.08-1.319-1.322-1.779-.285-.54-.393-.97-.37-1.474.023-.528.134-.845.635-1.824.276-.543.273-1.073-.011-1.542-.125-.211-.53-.62-.826-.842-.755-.56-1.641-.987-4.506-2.182-2.438-1.017-3.54-1.518-4.742-2.162-3.053-1.634-4.848-3.309-5.842-5.444-.479-1.026-.723-2.126-.735-3.268-.002-.36-.007-.521-.06-.514zm16.153 4.925c.203.002.41.021.615.057 1.145.202 2.35.934 2.68 1.628.128.267.131.356.02.486-.182.216-.573.308-1.182.276-.98-.053-1.874-.261-2.589-.608-.342-.166-.778-.471-.943-.661-.14-.16-.299-.466-.299-.572 0-.104.083-.19.282-.294.399-.209.897-.317 1.416-.312zm4.726 2.018c.106.002.236.019.383.053.795.187 1.521.587 1.663.919.074.166.046.249-.117.35-.111.065-.174.083-.379.092-.31.015-.504-.027-.795-.172-.313-.157-.553-.332-.758-.549-.188-.196-.342-.48-.316-.572.027-.083.14-.124.317-.121zm3.34 2.167l.302.053c.282.074.592.243.769.421.122.125.134.145.1.19-.031.042-.08.047-.31.033-.587-.03-1.339-.329-1.339-.531 0-.042.134-.116.259-.139l.219-.027z"/><path d="M43.573 30.16v-24.314h1.433c.786.003 1.552.015 1.7.027.718.068 1.262.341 1.769.884.501.537.729 1.044.798 1.77l.026 21.634h-5.725zm7.927 0l-.037-24.255h4.925c3.167 0 5.081.012 5.363.033 2.714.193 5.153 1.139 7.087 2.743.487.403 1.387 1.337 1.755 1.821 1.302 1.711 2.065 3.638 2.333 5.901.066.534.088 2.043.046 2.63-.125 1.613-.51 3.084-1.171 4.463-1.871 3.905-5.634 6.339-10.254 6.636-.285.018-2.358.03-5.258.03h-4.788zm10.217-18.731c-.259-.042-.59-.05-2.393-.059-1.154-.006-2.105-.003-2.116.009-.011.012-.02 3.001-.02 6.639 0 5.72.006 6.624.04 6.654.031.03.535.033 2.102.024 1.923-.009 2.085-.015 2.432-.074 1.481-.246 2.64-.833 3.549-1.791 1.233-1.302 1.82-3.06 1.729-5.183-.046-.993-.259-1.927-.638-2.752-.883-1.921-2.458-3.087-4.685-3.466zm12.903 18.731v-24.255h5.751c3.62 0 5.885.012 6.115.03.758.062 1.447.184 2.099.371 1.267.362 2.313.99 3.153 1.901.903.976 1.376 2.064 1.512 3.466.043.439.017 1.426-.046 1.838-.231 1.509-.92 2.716-2.094 3.659l-.276.237c-.006.009.168.11.385.225 1.04.552 1.886 1.299 2.432 2.147.325.507.524.981.678 1.607.151.635.185.961.185 1.88-.003.869-.028 1.153-.157 1.735-.644 2.858-3.008 4.629-6.75 5.053-.86.098-1.401.107-7.183.107h-5.805zm10.581-18.915c-.376-.036-4.948-.044-4.979-.012-.011.009-.02.937-.02 2.055 0 1.738.006 2.043.04 2.073.031.03.607.033 2.43.024 1.982-.009 2.438-.021 2.686-.059.857-.133 1.333-.338 1.726-.744.356-.371.493-.738.496-1.311.003-1.189-.815-1.886-2.378-2.025zm.897 9.248c-.424-.033-5.845-.042-5.876-.009-.011.009-.02.976-.02 2.144 0 1.782.006 2.132.04 2.162.028.027.832.033 3.167.024 3.418-.009 3.298-.003 3.899-.184.743-.225 1.239-.667 1.427-1.272.103-.323.125-.83.054-1.156-.219-1.032-1.082-1.58-2.692-1.708z"/></g></svg>