<svg width="276" height="106" viewBox="0 0 276 106" xmlns="http://www.w3.org/2000/svg"><g fill="#fff"><path d="M0 11.733c.134-.057 3.948 5.696 5.334 8.292 1.377 2.578 2.36 5.364 3.74 8.582l2.923 1.942c1.119-2.659 2.159-5.132 3.208-7.628-2.07-4.069-4.663-7.726-7.834-10.939-1.263-1.28-3.721-3.443-7.371-6.488v-4.494h40.787c-12.914 7.06-21.381 17.667-26.553 31.046l7.456 6.857c.941-3.349 1.727-6.739 2.846-10.015 3.84-11.238 10.209-20.671 20.23-27.383.642-.43 1.057-.463 1.026-.504 9.018-.008 28.442.007 29.208 0v23.442c-22.76 6.149-36.862 21.398-45.247 42.901l9.46 8.722c.518-2.199.991-4.411 1.563-6.597 3.05-11.64 8.226-22.175 16.477-31.069 4.8-5.174 10.346-9.386 16.721-12.479.399-.194.497-.355 1.026-.73v44.395c-12.794 8.922-21.087 21.353-27 35.412h-4c1.757-3.331 3.385-6.756 5.026-10.207-5.286-9.474-12.025-17.675-20.517-24.424-8.478-6.739-18.182-11.396-28.509-14.5v-24.941000000000003c.533.31 1.017.544 1.326.768 6.024 4.365 10.81 9.585 14.346 15.46.682 1.134 1.798 2.844 2.4 4.107 2.196 4.607 3.557 7.93 4.699 11.343.125.374.5.499 1.16.912.66.413 2.011 1.303 3.168 2.063l4.015-9.551c-6.948-13.165-17.794-22.323-31.114-28.591v-15.703zm17.516 4.479c2.488 0 4.504-2.01 4.504-4.489s-2.017-4.489-4.504-4.489c-2.488 0-4.504 2.01-4.504 4.489s2.017 4.489 4.504 4.489zm34.031 69.336c3.87 0 7.006-3.127 7.006-6.984s-3.137-6.984-7.006-6.984c-3.87 0-7.006 3.127-7.006 6.984s3.137 6.984 7.006 6.984zm-18.517-37.162c3.179 0 5.755-2.568 5.755-5.736 0-3.168-2.577-5.736-5.755-5.736-3.179 0-5.755 2.568-5.755 5.736 0 3.168 2.577 5.736 5.755 5.736zm-33.03 8.729c7.493 3.539 14.161 8.333 19.786 14.076 9.377 9.574 15.306 20.979 19.214 33.806h-39v-47.882zm75 47.882h-12.443c2.831-9.221 6.872-17.149 12.443-24.687.074 0 .074 8.229 0 24.687z"/><path d="M95 .98h1.926v17.301h-1.926v-17.301zm8.328 17.301h-1.926v-18.027l13.532 14.137v-13.41h1.926v18.079l-13.532-14.137v13.358zm26.492-15.485h-4.216v15.485h-1.926v-15.485h-4.216v-1.816h10.357v1.816zm11.607-1.816v1.816h-7.078v5.136h6.87v1.816h-6.87v6.718h7.078v1.816h-9.004v-17.301h9.004zm3.539 0h2.785c1.171 0 2.915.078 4.216.96 1.015.674 1.9 1.997 1.9 3.839 0 2.646-1.744 4.591-4.372 4.773l5.517 7.73h-2.342l-5.283-7.574h-.494v7.574h-1.926v-17.301zm1.926 1.816v6.199h1.223c2.394 0 3.825-1.141 3.825-3.165 0-.96-.286-1.919-1.379-2.542-.781-.441-1.666-.493-2.498-.493h-1.171zm13.064 15.485h-1.926v-18.027l13.532 14.137v-13.41h1.926v18.079l-13.532-14.137v13.358zm29.615 0l-2.03-4.876h-7.391l-2.082 4.876h-2.134l7.989-18.131 7.781 18.131h-2.134zm-8.666-6.692h5.881l-2.915-6.926-2.967 6.926zm21.73-8.793h-4.216v15.485h-1.926v-15.485h-4.216v-1.816h10.357v1.816zm2.602-1.816h1.926v17.301h-1.926v-17.301zm14.495 17.612c-5.023 0-9.03-3.813-9.03-8.949 0-5.162 4.034-8.949 9.03-8.949 4.997 0 9.03 3.787 9.03 8.949 0 5.136-4.008 8.949-9.03 8.949zm0-16.082c-3.904 0-7.052 3.165-7.052 7.133 0 3.969 3.149 7.133 7.052 7.133 3.904 0 7.052-3.165 7.052-7.133 0-3.969-3.149-7.133-7.052-7.133zm14.495 15.771h-1.926v-18.027l13.532 14.137v-13.41h1.926v18.079l-13.532-14.137v13.358zm29.615 0l-2.03-4.876h-7.391l-2.082 4.876h-2.134l7.989-18.131 7.781 18.131h-2.134zm-8.666-6.692h5.881l-2.915-6.926-2.967 6.926zm13.246-10.609h1.926v15.485h4.788v1.816h-6.714v-17.301zm-165.51 28.932v1.816h-5.985v5.11h5.777v1.816h-5.777v8.56h-1.926v-17.301h7.911zm11.476 17.612c-5.023 0-9.03-3.813-9.03-8.949 0-5.162 4.034-8.949 9.03-8.949 4.997 0 9.03 3.787 9.03 8.949 0 5.136-4.008 8.949-9.03 8.949zm0-16.082c-3.904 0-7.052 3.165-7.052 7.133 0 3.969 3.149 7.133 7.052 7.133 3.904 0 7.052-3.165 7.052-7.133 0-3.969-3.149-7.133-7.052-7.133zm20.663 16.082c-5.023 0-9.03-3.813-9.03-8.949 0-5.162 4.034-8.949 9.03-8.949 4.997 0 9.03 3.787 9.03 8.949 0 5.136-4.008 8.949-9.03 8.949zm0-16.082c-3.904 0-7.052 3.165-7.052 7.133 0 3.969 3.149 7.133 7.052 7.133 3.904 0 7.052-3.165 7.052-7.133 0-3.969-3.149-7.133-7.052-7.133zm12.569 15.771v-17.301h3.539c1.744 0 4.216.182 6.402 2.023 1.587 1.323 2.967 3.528 2.967 6.64 0 3.631-1.796 5.577-3.045 6.64-1.587 1.349-3.253 1.997-6.35 1.997h-3.513zm1.926-15.485v13.67h1.692c1.379 0 3.279-.156 4.971-1.556 1.301-1.089 2.342-2.801 2.342-5.266 0-4.15-2.915-6.848-7.313-6.848h-1.692zm20.585-1.816h3.149c1.744 0 3.201.208 4.372 1.219 1.275 1.089 1.587 2.62 1.587 3.709 0 2.438-1.535 4.851-5.491 4.851h-1.692v7.522h-1.926v-17.301zm1.926 1.816v6.148h1.587c2.29 0 3.669-1.141 3.669-3.139 0-2.75-2.576-3.009-3.825-3.009h-1.431zm18.034 15.797c-5.023 0-9.03-3.813-9.03-8.949 0-5.162 4.034-8.949 9.03-8.949 4.997 0 9.03 3.787 9.03 8.949 0 5.136-4.008 8.949-9.03 8.949zm0-16.082c-3.904 0-7.052 3.165-7.052 7.133 0 3.969 3.149 7.133 7.052 7.133 3.904 0 7.052-3.165 7.052-7.133 0-3.969-3.149-7.133-7.052-7.133zm12.569-1.53h1.926v15.485h4.788v1.816h-6.714v-17.301zm9.316 0h1.926v17.301h-1.926v-17.301zm19.674 1.427v2.386c-.546-.545-1.379-1.193-2.264-1.608-.911-.415-1.978-.674-2.993-.674-4.008 0-6.974 3.216-6.974 7.211 0 4.695 3.825 7.055 7 7.055 1.171 0 2.316-.337 3.227-.804.989-.493 1.692-1.141 2.004-1.453v2.386c-1.926 1.375-3.93 1.686-5.231 1.686-5.153 0-8.978-3.891-8.978-8.897 0-5.162 3.878-9.001 9.082-9.001 1.041 0 3.045.13 5.127 1.712zm7.209 15.875v-7.444l-5.699-9.857h2.238l4.424 7.73 4.476-7.73h2.238l-5.751 9.857v7.444h-1.926zm-143.859 11.631h2.785c1.171 0 2.915.078 4.216.96 1.015.674 1.9 1.997 1.9 3.839 0 2.646-1.744 4.591-4.372 4.773l5.517 7.73h-2.342l-5.283-7.574h-.494v7.574h-1.926v-17.301zm1.926 1.816v6.199h1.223c2.394 0 3.825-1.141 3.825-3.165 0-.96-.286-1.919-1.379-2.542-.781-.441-1.666-.493-2.498-.493h-1.171zm20.142-1.816v1.816h-7.078v5.136h6.87v1.816h-6.87v6.718h7.078v1.816h-9.004v-17.301h9.004zm12.83 2.412l-1.535 1.012c-.234-.467-.625-.986-1.015-1.297-.338-.259-.963-.597-1.952-.597-1.718 0-2.915 1.063-2.915 2.672 0 .674.182 1.063.651 1.504.52.519 1.171.804 1.822 1.089l1.666.726c1.015.441 1.952.908 2.68 1.634.885.882 1.249 1.894 1.249 3.139 0 3.19-2.368 5.317-5.491 5.317-1.145 0-2.576-.233-3.773-1.401-.859-.83-1.379-2.023-1.613-3.061l1.874-.519c.13.908.546 1.686 1.041 2.205.755.752 1.613.96 2.498.96 2.368 0 3.487-1.686 3.487-3.424 0-.778-.234-1.453-.859-2.023-.494-.467-1.171-.778-2.082-1.193l-1.561-.726c-.677-.311-1.535-.674-2.316-1.427-.755-.726-1.197-1.53-1.197-2.827 0-2.672 2.056-4.461 4.866-4.461 1.067 0 1.926.208 2.785.778.703.467 1.301 1.167 1.692 1.919zm13.194-2.412v1.816h-7.078v5.136h6.87v1.816h-6.87v6.718h7.078v1.816h-9.004v-17.301h9.004zm15.146 17.301l-2.03-4.876h-7.391l-2.082 4.876h-2.134l7.989-18.131 7.781 18.131h-2.134zm-8.666-6.692h5.881l-2.915-6.926-2.967 6.926zm13.246-10.609h2.785c1.171 0 2.915.078 4.216.96 1.015.674 1.9 1.997 1.9 3.839 0 2.646-1.744 4.591-4.372 4.773l5.517 7.73h-2.342l-5.283-7.574h-.494v7.574h-1.926v-17.301zm1.926 1.816v6.199h1.223c2.394 0 3.825-1.141 3.825-3.165 0-.96-.286-1.919-1.379-2.542-.781-.441-1.666-.493-2.498-.493h-1.171zm24.41-.389v2.386c-.546-.545-1.379-1.193-2.264-1.608-.911-.415-1.978-.674-2.993-.674-4.008 0-6.974 3.216-6.974 7.211 0 4.695 3.825 7.055 7 7.055 1.171 0 2.316-.337 3.227-.804.989-.493 1.692-1.141 2.004-1.453v2.386c-1.926 1.375-3.93 1.686-5.231 1.686-5.153 0-8.978-3.891-8.978-8.897 0-5.162 3.878-9.001 9.082-9.001 1.041 0 3.045.13 5.127 1.712zm5.465-1.427v7.029h8.9v-7.029h1.926v17.301h-1.926v-8.456h-8.9v8.456h-1.926v-17.301h1.926zm-99.619 28.932h1.926v17.301h-1.926v-17.301zm8.328 17.301h-1.926v-18.027l13.532 14.137v-13.41h1.926v18.079l-13.532-14.137v13.358zm27.299-14.889l-1.535 1.012c-.234-.467-.625-.986-1.015-1.297-.338-.259-.963-.597-1.952-.597-1.718 0-2.915 1.063-2.915 2.672 0 .674.182 1.063.651 1.504.52.519 1.171.804 1.822 1.089l1.666.726c1.015.441 1.952.908 2.68 1.634.885.882 1.249 1.894 1.249 3.139 0 3.19-2.368 5.317-5.491 5.317-1.145 0-2.576-.233-3.773-1.401-.859-.83-1.379-2.023-1.613-3.061l1.874-.519c.13.908.546 1.686 1.041 2.205.755.752 1.613.96 2.498.96 2.368 0 3.487-1.686 3.487-3.424 0-.778-.234-1.453-.859-2.023-.494-.467-1.171-.778-2.082-1.193l-1.561-.726c-.677-.311-1.535-.674-2.316-1.427-.755-.726-1.197-1.53-1.197-2.827 0-2.672 2.056-4.461 4.866-4.461 1.067 0 1.926.208 2.785.778.703.467 1.301 1.167 1.692 1.919zm12.674-.597h-4.216v15.485h-1.926v-15.485h-4.216v-1.816h10.357v1.816zm2.602-1.816h1.926v17.301h-1.926v-17.301zm14.886 1.816h-4.216v15.485h-1.926v-15.485h-4.216v-1.816h10.357v1.816zm4.528-1.816v10.609c0 1.453 0 3.035 1.379 4.202.703.597 1.9.986 2.863.986.963 0 2.16-.389 2.863-.986 1.379-1.167 1.379-2.75 1.379-4.202v-10.609h1.926v11.128c0 1.453-.156 2.853-1.093 4.15-1.041 1.427-2.863 2.334-5.075 2.334s-4.034-.908-5.075-2.334c-.937-1.297-1.093-2.698-1.093-4.15v-11.128h1.926zm23.369 1.816h-4.216v15.485h-1.926v-15.485h-4.216v-1.816h10.357v1.816zm11.607-1.816v1.816h-7.078v5.136h6.87v1.816h-6.87v6.718h7.078v1.816h-9.004v-17.301h9.004z"/></g></svg>