<svg width="253" height="101" viewBox="0 0 253 101" xmlns="http://www.w3.org/2000/svg"><g fill="#fff"><path id="Shape" fill-rule="nonzero" d="M15.375 59.169l-15.375-4.569 45.314-50.955zM92.2 82h-88l44-81.6 44 81.6z"/><path d="M115.7 27.4l13.7-25.8c.6-1.1 1.2-1.2 2.5-1.2h5.7v40.6h-6.6v-28.5l-12.1 21.9c-.6 1-1.5 1.7-2.7 1.7h-1c-1.2 0-2.1-.6-2.7-1.7l-12.2-22.1v28.6h-6.6v-40.4h5.7c1.3 0 1.9.1 2.6 1.2l13.7 25.7z"/><path fill-rule="nonzero" d="M140.8.5h7.6v40.5h-7.6z"/><path d="M158 1.7l21.1 26.9v-28.1h6.6v40.5h-3.9c-1.2 0-1.9-.3-2.6-1.3l-21-26.8v28.1h-6.7v-40.5h4c1.3 0 1.7.1 2.5 1.2" id="Shape" fill-rule="nonzero"/><path d="M226.2 41h-5.8c-1.3 0-2.2-.7-2.5-1.7l-3-8.3h-16.8l-3 8.3c-.3.9-1.2 1.7-2.5 1.7h-5.9l15.9-40.5h7.7l15.9 40.5zm-26.2-15.3h12.9l-6.5-18.3-6.4 18.3zm49.7-17.9c-.4.8-.9 1.1-1.7 1.1-1.5 0-3.5-2.8-8.2-2.8-4.1 0-6.3 2.1-6.3 5.1 0 7.7 18.7 3.6 18.7 17 0 7.3-5.1 13.1-14.1 13.1-5.2 0-10.2-2.1-13.3-5.3l2.2-3.6c.4-.5 1-.9 1.7-.9 1.9 0 4.1 3.7 9.6 3.7 4.3 0 6.8-2.1 6.8-5.9 0-8.6-18.7-2.9-18.7-17.7 0-5.9 4.8-11.6 13.3-11.6 4.8 0 8.9 1.6 11.8 4.3l-1.8 3.5zm-130.1 67.7v-6.6h-4.6c-.9 0-1.4-.5-1.4-1.3v-3.8h12.1v14.7c-3.7 2.7-7.9 3.9-13.8 3.9-10.5 0-18.2-7.7-18.2-18.5 0-10.9 7.3-18.5 18.9-18.5 5.9 0 10.2 1.9 13.2 4.7l-2 3.1c-.4.6-.9.9-1.5.9-.4 0-.8-.1-1.2-.4-2.2-1.3-4.3-2.6-8.7-2.6-7.2 0-11.7 5-11.7 12.8 0 8.3 4.9 13.2 11.9 13.2 2.8 0 4.9-.6 7-1.6zM152.5 45.8v5.3h-16.1v10.1h12.7v5.2h-12.7v10.2h16.1v5.4h-22.9v-36.2h22.9zm10.5 22.1v14.1h-6.7v-36.2h11.1c9.9 0 14 4.3 14 10.4 0 4.9-2.9 8.8-8 10.4.9.5 1.6 1.2 2.2 2.1l9.1 13.4h-6.1c-1.2 0-2-.5-2.5-1.4l-7.6-11.6c-.6-.9-1.1-1.2-2.5-1.2h-3zm0-4.9h4.2c5.1 0 7.5-2.7 7.5-6.3 0-3.7-2.4-5.7-7.4-5.7h-4.3v12zm55.5 19h-5.2c-1.2 0-1.9-.7-2.3-1.5l-2.7-7.4h-15l-2.7 7.4c-.3.8-1.1 1.5-2.2 1.5h-5.2l14.2-36.3h6.9l14.2 36.3zm-23.5-13.7h11.6l-5.8-16.3-5.8 16.3zM219.5 45.8h6.8v36.3h-6.8zM250 52.3c-.4.7-.8 1-1.5 1-1.4 0-3.2-2.5-7.3-2.5-3.7 0-5.6 1.9-5.6 4.6 0 6.9 16.7 3.2 16.7 15.3 0 6.5-4.6 11.8-12.6 11.8-4.6 0-9.1-1.9-11.9-4.8l2-3.2c.4-.5.9-.8 1.5-.8 1.7 0 3.6 3.3 8.6 3.3 3.8 0 6-1.9 6-5.3 0-7.7-16.7-2.6-16.7-15.9 0-5.3 4.3-10.4 11.9-10.4 4.3 0 8 1.4 10.5 3.8l-1.6 3.1zM10.8 98.6v-1.7h-1.2c-.2 0-.4-.1-.4-.3v-1h3v3.7c-.9.7-2 1-3.5 1-2.6 0-4.6-1.9-4.6-4.7.2-2.7 2-4.6 4.9-4.6 1.5 0 2.6.5 3.3 1.2l-.5.8c-.1.2-.2.2-.4.2-.1 0-.2 0-.3-.1-.5-.3-1.1-.6-2.2-.6-1.8 0-2.9 1.3-2.9 3.2 0 2.1 1.2 3.3 3 3.3.7-.1 1.3-.2 1.8-.4zm15.5 1.7c-2.8 0-4.6-2-4.6-4.7s1.9-4.7 4.6-4.7c2.8 0 4.6 2 4.6 4.7.1 2.7-1.8 4.7-4.6 4.7zm0-7.9c-1.8 0-2.9 1.2-2.9 3.2s1.1 3.2 2.9 3.2c1.8 0 2.9-1.2 2.9-3.2s-1.1-3.2-2.9-3.2zm12.4-1.3h1.3c.3 0 .5.2.6.4l2.1 5.6c.1.4.3.8.4 1.3.1-.5.2-.9.4-1.3l2.1-5.6c.1-.2.3-.4.6-.4h1.4l-3.7 9.1h-1.5l-3.7-9.1zm23.7 0v1.3h-4v2.6h3.2v1.3h-3.2v2.6h4v1.4h-5.7v-9.1h5.7v-.1zm11.3 5.5v3.6h-1.7v-9.1h2.8c2.5 0 3.5 1.1 3.5 2.6 0 1.2-.7 2.2-2 2.6.2.1.4.3.6.5l2.3 3.4h-1.5c-.3 0-.5-.1-.6-.3l-1.9-2.9c-.1-.2-.3-.3-.6-.3h-.9v-.1zm0-1.2h1.1c1.3 0 1.9-.7 1.9-1.6 0-.9-.6-1.4-1.9-1.4h-1.1v3zm16.1-4l4.8 6.1v-6.3h1.4v9.1h-.9c-.3 0-.4-.1-.6-.3l-4.8-6.1v6.4h-1.5v-9.1h.9c.4-.1.5-.1.7.2zm20.3 8.9c-2.8 0-4.6-2-4.6-4.7s1.9-4.7 4.6-4.7c2.8 0 4.6 2 4.6 4.7s-1.8 4.7-4.6 4.7zm0-7.9c-1.8 0-2.9 1.2-2.9 3.2s1.1 3.2 2.9 3.2c1.8 0 2.9-1.2 2.9-3.2s-1.1-3.2-2.9-3.2zm28.1 7.8h-3.5v-9.1h3.5c2.8 0 4.6 1.9 4.6 4.6.1 2.6-1.8 4.5-4.6 4.5zm0-7.8h-1.8v6.4h1.8c1.8 0 2.9-1.2 2.9-3.2s-1.1-3.2-2.9-3.2zm19.9-1.3v1.3h-4v2.6h3.2v1.3h-3.3v2.6h4v1.4h-5.7v-9.1h5.8v-.1zm26.5 0v1.4h-2.7v7.7h-1.7v-7.7h-2.8v-1.4h7.2zm12.4 9.2c-2.8 0-4.6-2-4.6-4.7s1.9-4.7 4.6-4.7c2.8 0 4.6 2 4.6 4.7s-1.8 4.7-4.6 4.7zm0-7.9c-1.8 0-2.9 1.2-2.9 3.2s1.1 3.2 2.9 3.2c1.8 0 2.9-1.2 2.9-3.2s-1.1-3.2-2.9-3.2zm17.3 7.8h-3.5v-9.1h3.5c2.8 0 4.6 1.9 4.6 4.6 0 2.6-1.9 4.5-4.6 4.5zm0-7.8h-1.8v6.4h1.8c1.8 0 2.9-1.2 2.9-3.2-.1-2-1.2-3.2-2.9-3.2zm17.5 7.9c-2.8 0-4.6-2-4.6-4.7s1.9-4.7 4.6-4.7c2.8 0 4.6 2 4.6 4.7s-1.8 4.7-4.6 4.7zm0-7.9c-1.8 0-2.9 1.2-2.9 3.2s1.1 3.2 2.9 3.2c1.8 0 2.9-1.2 2.9-3.2s-1.1-3.2-2.9-3.2zm18 .3c-.1.2-.2.3-.4.3-.3 0-.8-.6-1.8-.6-.9 0-1.4.5-1.4 1.1 0 1.7 4.2.8 4.2 3.8 0 1.6-1.2 3-3.2 3-1.2 0-2.3-.5-3-1.2l.5-.8c.1-.1.2-.2.4-.2.4 0 .9.8 2.2.8 1 0 1.5-.5 1.5-1.3 0-1.9-4.2-.6-4.2-4 0-1.3 1.1-2.6 3-2.6 1.1 0 2 .4 2.6 1l-.4.7z" fill-rule="nonzero"/></g></svg>
