<svg width="249" height="55" viewBox="0 0 249 55" xmlns="http://www.w3.org/2000/svg"><g fill="#fff"><path d="M242.442.085c1.901-.119 3.802-.083 5.708-.069-5.713 11.921-11.214 23.939-16.812 35.915-1.547.023-3.095.019-4.638-.014-2.576-6.029-5.547-11.893-8.229-17.877 1.855-.036 3.711-.055 5.566-.004 1.607 3.687 3.499 7.246 4.973 10.989 4.487-9.644 9.106-19.228 13.432-28.94"/><path d="M98.97 5.201c3.678.037 7.357.028 11.035.005-.055 3.278-.032 6.557-.023 9.836-3.683-.055-7.37-.009-11.053-.028.05-3.269-.01-6.543.041-9.813"/><path d="M49.338 25.493c-2.457 1.176-3.674 3.83-4.211 6.365 4.904-.023 9.809-.019 14.713 0-.317-1.969-.982-4.005-2.498-5.387-2.099-2.025-5.451-2.085-8.004-.978m-5.869-6.236c7.513-4.262 18.424-2.801 23.503 4.546 3.113 4.349 3.995 9.864 3.963 15.104-8.624.073-17.248-.01-25.872.041.395 2.668 1.543 5.474 4.004 6.857 3.49 2.038 9.01 1.459 10.773-2.6 3.536-.115 7.081-.087 10.622.009-1.116 4.078-4.055 7.504-7.793 9.428-4.023 2.195-8.817 2.631-13.285 1.873-4.693-.753-9.097-3.412-11.751-7.388-2.884-4.207-3.679-9.566-2.999-14.553.707-5.469 3.958-10.645 8.835-13.317"/><path d="M160.289 25.516c-3.118 1.088-4.546 4.477-5.001 7.508-.363 3.821-.311 8.119 2.177 11.283 2.65 3.453 8.51 3.357 11.168-.037 2.227-2.764 2.535-6.525 2.324-9.937-.17-2.999-1.189-6.227-3.72-8.05-2.007-1.369-4.689-1.584-6.948-.767m-1.263-8.165c5.924-1.065 12.486.179 17.033 4.298 7.774 6.898 8.105 20.293.895 27.709-5.694 5.943-15.269 7.054-22.589 3.692-5.662-2.553-9.514-8.339-10.176-14.456-.276-3.54-.124-7.223 1.359-10.511 2.214-5.621 7.559-9.74 13.478-10.732"/><path d="M198.413 19.409c3.642-2.875 8.863-3.178 13.074-1.451 3.003 1.286 5.272 3.949 6.296 7.026 1.18 3.155.831 6.571.877 9.864.023 6.305-.046 12.61.036 18.915-3.669.069-7.338-.009-11.007.037l-.009-21.657c-.009-1.878-.693-3.88-2.255-5.019-2.333-1.607-5.781-1.291-7.788.712-1.58 1.602-2.292 3.912-2.255 6.13-.014 6.617.019 13.23-.014 19.847-3.623-.07-7.251 0-10.874-.032 0-11.926.028-23.851-.014-35.777 3.541.037 7.086-.042 10.631.046-.041 1.648-.055 3.292-.087 4.941 1.098-1.226 2.034-2.613 3.389-3.582"/><path d="M0 18.022c3.807-.018 7.609-.018 11.411 0 2.283 7.692 4.753 15.333 6.93 23.053 2.64-7.587 4.679-15.384 7.145-23.035 3.683-.059 7.366-.018 11.049-.027-4.206 11.907-8.335 23.842-12.468 35.773-3.816.023-7.632-.052-11.443.045-4.335-11.89-8.211-23.948-12.624-35.809"/><path d="M73.438 18.017c3.513-.018 7.031.005 10.548-.014-.032 2.007-.009 4.018-.11 6.025.923-1.006 1.561-2.232 2.512-3.219 2.374-2.59 6.231-3.669 9.616-2.774-.032 3.151-.032 6.296 0 9.446-2.714-.316-5.699-.197-8 1.447-2.457 1.727-3.554 4.84-3.522 7.752-.027 5.698-.009 11.402-.005 17.101-3.682.022-7.361-.028-11.039.028.041-11.931.041-23.862 0-35.792"/><path d="M98.929 18.031c3.692-.051 7.384.005 11.076-.028-.064 11.931-.023 23.866-.023 35.801-3.683-.032-7.37-.019-11.053-.009.037-11.922.037-23.843 0-35.764"/><path d="M112.99 17.994c9.965.046 19.93-.009 29.895.032-.101 2.732.003 5.465-.046 8.197-.34.689-.946 1.203-1.428 1.791-5.134 5.676-10.144 11.462-15.316 17.11 5.865.115 11.729.015 17.593.056-.013 2.879.005 5.753-.013 8.633-10.227-.046-20.454-.042-30.68 0-.014-2.765.013-5.534-.014-8.298 5.34-6.007 10.699-12 16.113-17.942.157-.312.809-.611.474-1.01-5.512.161-11.031 0-16.541.087-.06-2.884-.023-5.772-.037-8.656"/></g></svg>