<svg width="214" height="64" viewBox="0 0 214 64" xmlns="http://www.w3.org/2000/svg"><g fill="#fff"><path d="M20 46.741c-11.319-1.69-20-11.452-20-23.241 0-12.979 10.521-23.5 23.5-23.5 1.189 0 2.358.088 3.5.259v39.369c7.432-1.605 13-8.216 13-16.128 0-5.124-2.335-9.702-6-12.729v-8.301c7.708 3.856 13 11.825 13 21.03 0 11.789-8.681 21.551-20 23.241v17.259l-7-8v-9.259zm0-7.113v-32.256c-7.432 1.605-13 8.216-13 16.128 0 7.912 5.568 14.523 13 16.128zM196.741 20h17.259l-8 7h-9.259c-1.69 11.319-11.452 20-23.241 20-9.205 0-17.174-5.292-21.03-13h8.301c3.026 3.665 7.605 6 12.729 6 7.912 0 14.523-5.568 16.128-13h-39.369c-.171-1.142-.259-2.311-.259-3.5 0-12.979 10.521-23.5 23.5-23.5 11.789 0 21.551 8.681 23.241 20zm-7.113 0c-1.605-7.432-8.216-13-16.128-13-7.912 0-14.523 5.568-16.128 13h32.256zM96.741 20h3.518c1.69-11.319 11.452-20 23.241-20 12.979 0 23.5 10.521 23.5 23.5 0 1.189-.088 2.358-.259 3.5h-39.369c1.605 7.432 8.216 13 16.128 13 5.124 0 9.702-2.335 12.729-6h8.301c-3.856 7.708-11.825 13-21.03 13-11.789 0-21.551-8.681-23.241-20h-3.518c-1.69 11.319-11.452 20-23.241 20-9.205 0-17.174-5.292-21.03-13h8.301c3.026 3.665 7.605 6 12.729 6 7.912 0 14.523-5.568 16.128-13h-39.369c-.171-1.142-.259-2.311-.259-3.5 0-12.979 10.521-23.5 23.5-23.5 11.789 0 21.551 8.681 23.241 20zm-7.113 0c-1.605-7.432-8.216-13-16.128-13-7.912 0-14.523 5.568-16.128 13h32.256zm17.744 0h32.256c-1.605-7.432-8.216-13-16.128-13-7.912 0-14.523 5.568-16.128 13z"/></g></svg>
