<?xml version="1.0" encoding="UTF-8" standalone="no"?>
<svg width="179px" height="179px" viewBox="0 0 179 179" version="1.1" xmlns="http://www.w3.org/2000/svg" xmlns:xlink="http://www.w3.org/1999/xlink">
    <!-- Generator: Sketch 3.6.1 (26313) - http://www.bohemiancoding.com/sketch -->
    <title>Icon 1</title>
    <desc>Created with Sketch.</desc>
    <defs>
        <path id="path-1" d="M0,0.08 L178.921233,0.08 L178.921233,179 L0,179"></path>
        <path id="path-3" d="M0,0.08 L178.921233,0.08 L178.921233,179 L0,179 L0,0.08 Z"></path>
    </defs>
    <g id="Welcome" stroke="none" stroke-width="1" fill="none" fill-rule="evenodd">
        <g id="Desktop-HD-Home" transform="translate(-244.000000, -1571.000000)">
            <g id="What-We-Offer" transform="translate(0.000000, 1400.000000)">
                <g id="icons" transform="translate(239.000000, 171.000000)">
                    <g id="Group">
                        <g id="Icon-1" transform="translate(5.000000, 0.000000)">
                            <path d="M89.4593836,174.734863 C42.4830822,174.734863 4.26513699,136.516918 4.26513699,89.5393836 C4.26513699,42.5630822 42.4830822,4.34513699 89.4593836,4.34513699 C136.436918,4.34513699 174.656096,42.5630822 174.656096,89.5393836 C174.656096,136.516918 136.436918,174.734863 89.4593836,174.734863" id="Fill-1" fill="#F1F1F2"></path>
                            <g id="Group-5">
                                <mask id="mask-2" fill="white">
                                    <use xlink:href="#path-1"></use>
                                </mask>
                                <g id="Clip-4"></g>
                                <path d="M89.4593836,0.0806164384 C40.1307534,0.0806164384 -0.000616438356,40.2119863 -0.000616438356,89.5406164 C-0.000616438356,138.868014 40.1307534,179.000616 89.4593836,179.000616 C138.789247,179.000616 178.920616,138.868014 178.920616,89.5406164 C178.920616,40.2119863 138.789247,0.0806164384 89.4593836,0.0806164384 M89.4593836,8.61089041 C134.157329,8.61089041 170.391575,44.8439041 170.391575,89.5406164 C170.391575,134.237329 134.157329,170.470342 89.4593836,170.470342 C44.7626712,170.470342 8.52965753,134.237329 8.52965753,89.5406164 C8.52965753,44.8439041 44.7626712,8.61089041 89.4593836,8.61089041" id="Fill-3" fill="#FFCC67" mask="url(#mask-2)"></path>
                            </g>
                            <path d="M131.419356,60.2796438 L47.501137,60.2796438 C35.5126438,60.2796438 35.5126438,72.268137 35.5126438,72.268137 L35.5126438,120.223342 L143.409082,120.223342 L143.409082,72.268137 C143.409082,72.268137 143.409082,60.2796438 131.419356,60.2796438 M131.419356,66.8890959 C134.303055,66.8890959 135.267164,67.9062192 135.879904,69.0047123 C136.582644,70.2634795 136.779904,71.808274 136.79963,72.3310137 L136.79963,113.61389 L42.1220959,113.61389 L42.1220959,72.268137 C42.1220959,72.2533425 42.2071644,70.6604658 42.9222329,69.2290959 C43.5300411,68.0134795 44.5052466,66.8890959 47.501137,66.8890959 L131.419356,66.8890959" id="Fill-6" fill="#676767"></path>
                            <path d="M35.5126438,126.216233 L71.4781233,126.216233 C71.4781233,126.216233 71.4781233,132.209247 77.471137,132.209247 L101.448123,132.209247 C107.443603,132.209247 107.443603,126.216233 107.443603,126.216233 L143.409082,126.216233 L143.409082,132.209247 C143.409082,132.209247 143.409082,138.205959 137.414836,138.205959 L41.5056575,138.205959 C35.5126438,138.205959 35.5126438,132.209247 35.5126438,132.209247 L35.5126438,126.216233 Z" id="Fill-8" fill="#676767"></path>
                            <path d="M58.671863,78.8943562 C58.671863,80.9766849 56.9828219,82.6669589 54.8992603,82.6669589 C52.8156986,82.6669589 51.1278904,80.9766849 51.1278904,78.8943562 C51.1278904,76.8107945 52.8156986,75.1217534 54.8992603,75.1217534 C56.9828219,75.1217534 58.671863,76.8107945 58.671863,78.8943562" id="Fill-10" fill="#FFCC67"></path>
                            <path d="M58.671863,90.2514932 C58.671863,92.3338219 56.9828219,94.0240959 54.8992603,94.0240959 C52.8156986,94.0240959 51.1278904,92.3338219 51.1278904,90.2514932 C51.1278904,88.1679315 52.8156986,86.4788904 54.8992603,86.4788904 C56.9828219,86.4788904 58.671863,88.1679315 58.671863,90.2514932" id="Fill-12" fill="#FFCC67"></path>
                            <path d="M58.671863,101.608753 C58.671863,103.691082 56.9828219,105.381356 54.8992603,105.381356 C52.8156986,105.381356 51.1278904,103.691082 51.1278904,101.608753 C51.1278904,99.5251918 52.8156986,97.8361507 54.8992603,97.8361507 C56.9828219,97.8361507 58.671863,99.5251918 58.671863,101.608753" id="Fill-14" fill="#FFCC67"></path>
                            <path d="M65.7602877,78.8943562 L86.1841233,78.8943562" id="Stroke-16" stroke="#FFCC67" stroke-width="5.361"></path>
                            <path d="M65.7602877,90.2514932 L86.1841233,90.2514932" id="Stroke-18" stroke="#FFCC67" stroke-width="5.361"></path>
                            <path d="M65.7602877,101.608753 L86.1841233,101.608753" id="Stroke-20" stroke="#FFCC67" stroke-width="5.361"></path>
                            <mask id="mask-4" fill="white">
                                <use xlink:href="#path-3"></use>
                            </mask>
                            <g id="Clip-23"></g>
                            <path d="M127.793836,105.260411 L93.2732877,105.260411 L93.2732877,75.1215068 L127.793836,75.1215068 L127.793836,105.260411 Z" id="Fill-22" fill="#FFCC67" mask="url(#mask-4)"></path>
                            <path d="M102.646603,20.9720822 C98.3734521,20.1522192 93.9683836,19.7071507 89.4597534,19.7071507 C85.1175616,19.7071507 80.8727671,20.1250959 76.7475616,20.8870137 L76.7475616,49.9767397 L63.7998904,49.9767397 L89.6976986,69.3994795 L115.595507,49.9767397 L102.646603,49.9767397 L102.646603,20.9720822 Z" id="Fill-24" fill="#FFCC67" mask="url(#mask-4)"></path>
                        </g>
                    </g>
                </g>
            </g>
        </g>
    </g>
</svg>