<?xml version="1.0" encoding="UTF-8" standalone="no"?>
<svg width="234px" height="36px" viewBox="0 0 234 36" version="1.1" xmlns="http://www.w3.org/2000/svg" xmlns:xlink="http://www.w3.org/1999/xlink">
    <!-- Generator: Sketch 3.6.1 (26313) - http://www.bohemiancoding.com/sketch -->
    <title>Logotype</title>
    <desc>Created with Sketch.</desc>
    <defs>
        <path id="path-1" d="M0,0.0686769231 L233.770436,0.0686769231 L233.770436,36 L0,36 L0,0.0686769231 Z"></path>
        <path id="path-3" d="M0,0.0686769231 L233.770436,0.0686769231 L233.770436,36 L0,36 L0,0.0686769231 Z"></path>
        <path id="path-5" d="M0,0.0686769231 L233.770436,0.0686769231 L233.770436,36 L0,36 L0,0.0686769231 Z"></path>
        <path id="path-7" d="M0,0.0686769231 L233.770436,0.0686769231 L233.770436,36 L0,36 L0,0.0686769231 Z"></path>
    </defs>
    <g id="Welcome" stroke="none" stroke-width="1" fill="none" fill-rule="evenodd">
        <g id="Desktop-HD-Home" transform="translate(-603.000000, -100.000000)">
            <g id="l" transform="translate(173.000000, 100.000000)">
                <g id="Logotype" transform="translate(430.000000, 0.000000)">
                    <mask id="mask-2" fill="white">
                        <use xlink:href="#path-1"></use>
                    </mask>
                    <g id="Clip-2"></g>
                    <path d="M10.4846417,31.2522646 C18.4068171,31.2522646 23.9035991,25.2014954 23.9035991,17.3834031 C23.9035991,9.84389538 17.8456607,4.25891077 10.1114616,4.25891077 L4.47383602,4.25891077 L4.47383602,31.2522646 L10.4846417,31.2522646 Z M0.000110900474,0.0685107692 L11.6502057,0.0685107692 C20.3159687,0.0685107692 28.6584569,7.47066462 28.6584569,17.6160185 C28.6584569,27.7154031 20.5965469,35.4410031 10.5312199,35.4410031 L0.000110900474,35.4410031 L0.000110900474,0.0685107692 Z" id="Fill-1" fill="#666666"></path>
                    <path d="M137.974995,11.1937292 L142.44872,11.1937292 L133.502933,35.4411138 L130.055592,35.4411138 L123.531872,16.4990215 L123.438715,16.4990215 L116.913886,35.4411138 L113.46599,35.4411138 L104.519649,11.1937292 L108.99171,11.1937292 L115.095118,28.7395754 L115.191047,28.7395754 L121.24954,11.1937292 L125.721601,11.1937292 L131.778985,28.7395754 L131.872142,28.7395754 L137.974995,11.1937292 Z" id="Fill-4" fill="#666666"></path>
                    <path d="M162.666597,21.3387508 C162.666597,17.7082892 161.176095,14.5430585 157.027308,14.5430585 C153.114185,14.5430585 150.738142,17.1965354 150.738142,21.8045354 L150.738142,35.4418892 L146.544441,35.4418892 L146.544441,0.0693969231 L150.738142,0.0693969231 L150.738142,14.03352 L150.83019,14.03352 C152.089464,11.8441662 154.791555,10.6345662 157.494754,10.6345662 C162.199706,10.6345662 166.860853,13.1938892 166.860853,19.7569662 L166.860853,35.4418892 L162.666597,35.4418892 L162.666597,21.3387508 Z" id="Fill-6" fill="#666666"></path>
                    <mask id="mask-4" fill="white">
                        <use xlink:href="#path-3"></use>
                    </mask>
                    <g id="Clip-9"></g>
                    <path d="M191.612785,21.4793723 C191.191918,17.4756185 187.93089,14.5441108 183.598563,14.5441108 C178.471634,14.5441108 176.002435,18.1745723 175.583231,21.4793723 L191.612785,21.4793723 Z M195.294127,30.7407877 C192.033098,34.3712492 188.581875,36.0001108 184.343814,36.0001108 C175.722965,36.0001108 171.108397,29.7632492 171.108397,23.2932185 C171.108397,16.4066954 176.047904,10.6345108 183.644032,10.6345108 C191.146449,10.6345108 196.364316,16.3590646 196.364316,24.9231877 L175.583231,24.9231877 C176.236435,29.0642954 179.58951,32.0910646 184.298345,32.0910646 C187.279904,32.0910646 189.935416,30.6953723 192.078567,28.1814646 L195.294127,30.7407877 Z" id="Fill-8" fill="#666666"></path>
                    <mask id="mask-6" fill="white">
                        <use xlink:href="#path-5"></use>
                    </mask>
                    <g id="Clip-12"></g>
                    <path d="M220.962984,21.4793723 C220.544889,17.4756185 217.281643,14.5441108 212.949316,14.5441108 C207.824605,14.5441108 205.353188,18.1745723 204.936202,21.4793723 L220.962984,21.4793723 Z M224.64488,30.7407877 C221.383851,34.3712492 217.934846,36.0001108 213.696785,36.0001108 C205.074827,36.0001108 200.461368,29.7632492 200.461368,23.2932185 C200.461368,16.4066954 205.400875,10.6345108 212.997003,10.6345108 C220.497202,10.6345108 225.717287,16.3590646 225.717287,24.9231877 L204.936202,24.9231877 C205.587188,29.0642954 208.941373,32.0910646 213.649098,32.0910646 C216.630657,32.0910646 219.286169,30.6953723 221.431538,28.1814646 L224.64488,30.7407877 Z" id="Fill-11" fill="#666666"></path>
                    <path d="M35.6619882,23.0392246 C35.6619882,27.73584 38.4223009,32.1776862 43.5342583,32.1776862 C48.8003673,32.1776862 51.5612346,27.9391015 51.5612346,23.0896246 C51.5612346,18.2899938 48.5441872,14.4080862 43.4849076,14.4080862 C38.7289408,14.4080862 35.6619882,18.5464246 35.6619882,23.0392246 L35.6619882,23.0392246 Z M55.4471872,35.4420554 L51.3582867,35.4420554 L51.3582867,31.9760862 L51.2545948,31.9760862 C49.1569123,34.6306708 46.3472488,35.9560246 42.9719929,35.9560246 C35.9165047,35.9560246 31.4699502,29.9827938 31.4699502,23.3449477 C31.4699502,16.5032862 35.8150308,10.6303015 43.0235616,10.6303015 C46.2978981,10.6303015 49.2594953,12.1611323 51.2545948,14.7149169 L51.3582867,14.7149169 L51.3582867,11.1930092 L55.4471872,11.1930092 L55.4471872,35.4420554 Z" id="Fill-14" fill="#666666"></path>
                    <path d="M80.2674896,23.0392246 C80.2674896,27.73584 83.0278024,32.1776862 88.1397597,32.1776862 C93.4058687,32.1776862 96.1661815,27.9391015 96.1661815,23.0896246 C96.1661815,18.2899938 93.1502431,14.4080862 88.0898545,14.4080862 C83.3344422,14.4080862 80.2674896,18.5464246 80.2674896,23.0392246 L80.2674896,23.0392246 Z M100.052134,35.4420554 L95.9637882,35.4420554 L95.9637882,31.9760862 L95.8595417,31.9760862 C93.7618592,34.6306708 90.9527502,35.9560246 87.5774943,35.9560246 C80.5220062,35.9560246 76.0748972,29.9827938 76.0748972,23.3449477 C76.0748972,16.5032862 80.4205322,10.6303015 87.6285085,10.6303015 C90.902845,10.6303015 93.8649967,12.1611323 95.8595417,14.7149169 L95.9637882,14.7149169 L95.9637882,11.1930092 L100.052134,11.1930092 L100.052134,35.4420554 Z" id="Fill-16" fill="#666666"></path>
                    <path d="M68.3992536,35.44128 L64.3336422,35.44128 L64.3336422,14.9506338 L60.0628649,14.9506338 L60.0628649,11.1938954 L64.3336422,11.1938954 L64.3336422,0.0693415385 L68.3992536,0.0693415385 L68.3992536,11.1938954 L72.6700308,11.1938954 L72.6700308,14.9506338 L68.3992536,14.9506338 L68.3992536,35.44128 Z" id="Fill-18" fill="#666666"></path>
                    <mask id="mask-8" fill="white">
                        <use xlink:href="#path-7"></use>
                    </mask>
                    <g id="Clip-21"></g>
                    <path d="M233.770436,35.4411692 L229.704825,35.4411692 L229.704825,0.0686769231 L233.770436,0.0686769231 L233.770436,35.4411692 Z" id="Fill-20" fill="#666666"></path>
                </g>
            </g>
        </g>
    </g>
</svg>