<?xml version="1.0" encoding="utf-8"?>
<!-- Generator: Adobe Illustrator 16.0.0, SVG Export Plug-In . SVG Version: 6.00 Build 0)  -->
<!DOCTYPE svg PUBLIC "-//W3C//DTD SVG 1.1//EN" "http://www.w3.org/Graphics/SVG/1.1/DTD/svg11.dtd">
<svg version="1.1" id="Layer_1" xmlns="http://www.w3.org/2000/svg" xmlns:xlink="http://www.w3.org/1999/xlink" x="0px" y="0px"
	 width="167.667px" height="148.333px" viewBox="-46.666 -53.333 167.667 148.333"
	 enable-background="new -46.666 -53.333 167.667 148.333" xml:space="preserve">
<g>
	<circle fill="#FFFFFF" cx="36.382" cy="35.846" r="30.07"/>
	<g id="Welcome">
		<g id="Desktop-HD-Home" transform="translate(-1036.000000, -3762.000000)">
			<g id="Map" transform="translate(699.000000, 3456.000000)">
				<g id="Page-1" transform="translate(178.000000, 189.000000)">
					<g transform="translate(159.656250, 117.120000)">
						<path id="Fill-1" fill="#CA9831" d="M57.899,54.519l-2.078-2.082c3.89-4.609,6.235-10.563,6.235-17.074
							c0-6.51-2.346-12.467-6.235-17.074l2.078-2.083c4.416,5.143,7.088,11.839,7.088,19.157
							C64.987,42.683,62.315,49.378,57.899,54.519L57.899,54.519z M35.683,64.743c-7.301,0-13.978-2.68-19.109-7.107l2.081-2.084
							c4.593,3.9,10.536,6.252,17.028,6.252c6.49,0,12.434-2.352,17.031-6.252l2.078,2.084
							C49.66,62.064,42.983,64.743,35.683,64.743L35.683,64.743z M13.467,54.519c-4.418-5.141-7.088-11.835-7.088-19.156
							c0-7.318,2.67-14.014,7.088-19.157l2.078,2.083c-3.89,4.606-6.237,10.564-6.237,17.074c0,6.51,2.347,12.465,6.237,17.074
							L13.467,54.519z M54.729,35.363c0-6.277-3.02-11.846-7.684-15.326l1.473-2.555c5.535,4.001,9.142,10.517,9.142,17.881
							c0,7.364-3.606,13.878-9.142,17.882l-1.473-2.557C51.71,47.209,54.729,41.638,54.729,35.363L54.729,35.363z M39.509,49.544
							l-0.337-2.963c5.271-1.641,8.806-6.85,8.155-12.548c-0.648-5.701-5.26-9.979-10.768-10.388l-0.336-2.963
							c7.126,0.256,13.185,5.699,14.016,13.018C51.072,41.014,46.392,47.687,39.509,49.544L39.509,49.544z M16.763,37.566
							c1.091,9.509,9.144,16.894,18.919,16.894c2.686,0,5.239-0.561,7.558-1.568l1.473,2.559c-2.755,1.248-5.81,1.947-9.03,1.947
							c-11.397,0-20.766-8.697-21.868-19.832H16.763z M16.763,33.16h-2.948c1.102-11.135,10.471-19.832,21.868-19.832
							c3.221,0,6.275,0.701,9.03,1.948l-1.473,2.557c-2.318-1.006-4.872-1.566-7.558-1.566
							C25.907,16.266,17.854,23.651,16.763,33.16L16.763,33.16z M24.036,36.695c0.648,5.7,5.262,9.978,10.767,10.385l0.338,2.963
							c-7.125-0.256-13.183-5.7-14.016-13.016c-0.833-7.317,3.847-13.99,10.732-15.847l0.335,2.964
							C26.923,25.785,23.387,30.994,24.036,36.695L24.036,36.695z M35.683,5.983c7.301,0,13.978,2.678,19.109,7.107l-2.078,2.083
							c-4.598-3.899-10.541-6.252-17.031-6.252c-6.493,0-12.435,2.353-17.028,6.252l-2.081-2.083
							C21.705,8.661,28.382,5.983,35.683,5.983L35.683,5.983z M61.104,9.474C47.064-4.602,24.3-4.602,10.26,9.474
							c-14.041,14.077-14.041,36.9,0,50.975L35.683,93.46l25.422-33.012C75.146,46.374,75.146,23.55,61.104,9.474L61.104,9.474z"/>
					</g>
				</g>
			</g>
		</g>
	</g>
</g>
<title>Fill 1</title>
<desc>Created with Sketch.</desc>
<g>
	<defs>
		<rect id="SVGID_1_" x="-692.656" y="-2286.573" width="1440" height="4602"/>
	</defs>
	<clipPath id="SVGID_2_">
		<use xlink:href="#SVGID_1_"  overflow="visible"/>
	</clipPath>
	<g clip-path="url(#SVGID_2_)">
		<text transform="matrix(1 0 0 1 287.1201 1428.667)"><tspan x="0" y="0" fill="#5C5C5C" font-family="'.HelveticaNeueDeskInterface-Regular'" font-size="19.5">1299 </tspan><tspan x="52.994" y="0" fill="#5C5C5C" font-family="'.HelveticaNeueDeskInterface-Regular'" font-size="19.5">Camb</tspan><tspan x="109.407" y="0" fill="#5C5C5C" font-family="'.HelveticaNeueDeskInterface-Regular'" font-size="19.5">r</tspan><tspan x="116.688" y="0" fill="#5C5C5C" font-family="'.HelveticaNeueDeskInterface-Regular'" font-size="19.5">id</tspan><tspan x="134.243" y="0" fill="#5C5C5C" font-family="'.HelveticaNeueDeskInterface-Regular'" font-size="19.5">g</tspan><tspan x="146.3" y="0" fill="#5C5C5C" font-family="'.HelveticaNeueDeskInterface-Regular'" font-size="19.5">e</tspan><tspan x="157.644" y="0" fill="#5C5C5C" font-family="'.HelveticaNeueDeskInterface-Regular'" font-size="19.5"> S</tspan><tspan x="177.359" y="0" fill="#5C5C5C" font-family="'.HelveticaNeueDeskInterface-Regular'" font-size="19.5">t</tspan></text>
	</g>
</g>
<text transform="matrix(1 0 0 1 -48.0391 -21.6802)" fill="#4A4A4A" font-family="'VarelaRound-Regular'" font-size="18.1673">1299 Cambridge St</text>
</svg>
