<?xml version="1.0" encoding="utf-8"?>
<!-- Generator: Adobe Illustrator 16.0.0, SVG Export Plug-In . SVG Version: 6.00 Build 0)  -->
<!DOCTYPE svg PUBLIC "-//W3C//DTD SVG 1.1//EN" "http://www.w3.org/Graphics/SVG/1.1/DTD/svg11.dtd">
<svg version="1.1" id="Layer_1" xmlns="http://www.w3.org/2000/svg" xmlns:xlink="http://www.w3.org/1999/xlink" x="0px" y="0px"
	 width="189.45px" height="141.604px" viewBox="-58.116 -46.604 189.45 141.604"
	 enable-background="new -58.116 -46.604 189.45 141.604" xml:space="preserve">
<circle fill="#FFFFFF" cx="36.5" cy="36.5" r="32.5"/>
<title>Page 1</title>
<desc>Created with Sketch.</desc>
<g id="Welcome">
	<g id="Desktop-HD-Home" transform="translate(-1036.000000, -3762.000000)">
		<g id="Map" transform="translate(699.000000, 3456.000000)">
			<g id="Page-1" transform="translate(178.000000, 189.000000)">
				<g transform="translate(159.656250, 117.120000)">
					<path id="Fill-1" fill="#CA9831" d="M58.17,55.603l-2.078-2.082c3.89-4.609,6.235-10.564,6.235-17.074
						c0-6.51-2.346-12.467-6.235-17.074l2.078-2.083c4.416,5.143,7.088,11.839,7.088,19.157
						C65.258,43.767,62.586,50.461,58.17,55.603L58.17,55.603z M35.954,65.827c-7.301,0-13.979-2.68-19.11-7.107l2.081-2.084
						c4.593,3.9,10.536,6.252,17.029,6.252c6.49,0,12.433-2.352,17.031-6.252l2.078,2.084
						C49.931,63.148,43.254,65.827,35.954,65.827L35.954,65.827z M13.737,55.603c-4.418-5.142-7.088-11.836-7.088-19.156
						c0-7.318,2.67-14.014,7.088-19.157l2.078,2.083c-3.89,4.606-6.237,10.564-6.237,17.074c0,6.51,2.347,12.465,6.237,17.074
						L13.737,55.603z M55,36.446c0-6.277-3.02-11.846-7.684-15.326l1.473-2.555c5.535,4.001,9.142,10.517,9.142,17.881
						c0,7.364-3.606,13.879-9.142,17.882l-1.473-2.556C51.98,48.292,55,42.721,55,36.446L55,36.446z M39.779,50.627l-0.337-2.963
						c5.271-1.641,8.806-6.85,8.155-12.548c-0.648-5.701-5.26-9.979-10.768-10.388l-0.336-2.963
						c7.126,0.256,13.185,5.699,14.016,13.018C51.343,42.097,46.662,48.771,39.779,50.627L39.779,50.627z M17.034,38.65
						c1.091,9.509,9.144,16.895,18.92,16.895c2.685,0,5.239-0.562,7.557-1.568l1.473,2.559c-2.755,1.247-5.81,1.946-9.03,1.946
						c-11.397,0-20.767-8.697-21.868-19.831H17.034z M17.034,34.243h-2.948c1.102-11.135,10.471-19.832,21.868-19.832
						c3.22,0,6.275,0.701,9.03,1.948l-1.473,2.557c-2.318-1.006-4.872-1.566-7.557-1.566C26.177,17.35,18.125,24.734,17.034,34.243
						L17.034,34.243z M24.306,37.779c0.648,5.7,5.262,9.978,10.767,10.385l0.338,2.963c-7.125-0.255-13.183-5.699-14.016-13.015
						c-0.833-7.317,3.847-13.99,10.732-15.847l0.335,2.964C27.194,26.869,23.658,32.078,24.306,37.779L24.306,37.779z M35.954,7.067
						c7.3,0,13.977,2.678,19.109,7.107l-2.078,2.083c-4.598-3.899-10.541-6.252-17.031-6.252c-6.493,0-12.436,2.353-17.029,6.252
						l-2.081-2.083C21.975,9.744,28.652,7.067,35.954,7.067L35.954,7.067z M10.53,10.557c-14.041,14.077-14.041,36.9,0,50.975
						l25.423,33.011l25.421-33.011c14.042-14.075,14.042-36.898,0-50.975C47.335-3.519,24.571-3.519,10.53,10.557z"/>
				</g>
			</g>
		</g>
	</g>
</g>
<g id="Welcome_1_">
	<g id="Desktop-HD-Home_1_" transform="translate(-978.000000, -3701.000000)">
		<g id="Map_1_" transform="translate(699.000000, 3456.000000)">
			<g id="_x31_299-Cambridge-St" transform="translate(178.000000, 189.000000)">
				<path fill="#4A4A4A" d="M50.46,22.314c0.162,0.162,0.244,0.361,0.244,0.595s-0.082,0.429-0.244,0.585
					c-0.163,0.156-0.361,0.234-0.595,0.234H43.84c-0.234,0-0.429-0.078-0.585-0.234c-0.156-0.156-0.234-0.352-0.234-0.585
					s0.078-0.433,0.234-0.595c0.156-0.162,0.351-0.244,0.585-0.244h2.321v-9.886l-1.989,0.975c-0.065,0.026-0.13,0.052-0.195,0.078
					s-0.186,0.039-0.361,0.039s-0.341-0.078-0.497-0.234c-0.156-0.156-0.234-0.387-0.234-0.692c0-0.306,0.169-0.543,0.507-0.712
					l2.652-1.384c0.182-0.091,0.364-0.137,0.546-0.137h0.41c0.26,0,0.481,0.091,0.663,0.273c0.182,0.182,0.273,0.403,0.273,0.663
					V22.07h1.931C50.1,22.07,50.298,22.152,50.46,22.314L50.46,22.314z M63.757,22.314c0.163,0.162,0.244,0.361,0.244,0.595
					s-0.081,0.429-0.244,0.585s-0.361,0.234-0.595,0.234h-7.527c-0.299,0-0.546-0.095-0.741-0.283s-0.292-0.432-0.292-0.73
					c0-0.689,0.192-1.307,0.575-1.854c0.383-0.545,0.865-1.053,1.443-1.521c0.579-0.468,1.206-0.91,1.882-1.326
					c0.676-0.416,1.303-0.832,1.882-1.248s1.06-0.845,1.443-1.287c0.384-0.442,0.575-0.884,0.575-1.326s-0.055-0.809-0.166-1.102
					s-0.283-0.543-0.517-0.751c-0.52-0.468-1.32-0.702-2.399-0.702c-1.157,0-2.268,0.234-3.334,0.702
					c-0.13,0.065-0.279,0.098-0.448,0.098s-0.322-0.072-0.458-0.215c-0.136-0.143-0.205-0.351-0.205-0.624
					c0-0.273,0.143-0.487,0.429-0.643c1.326-0.663,2.769-0.995,4.329-0.995c1.274,0,2.333,0.364,3.179,1.092
					c0.871,0.741,1.307,1.697,1.307,2.867c0,1.183-0.592,2.32-1.774,3.413c-0.521,0.468-1.089,0.91-1.707,1.326
					s-1.212,0.816-1.784,1.199c-0.572,0.384-1.085,0.761-1.541,1.131c-0.455,0.371-0.767,0.744-0.936,1.121h6.786
					C63.396,22.07,63.595,22.152,63.757,22.314L63.757,22.314z M73.105,18.775c-0.416,0.104-0.923,0.156-1.521,0.156
					s-1.17-0.107-1.716-0.322c-0.546-0.214-1.014-0.523-1.404-0.926c-0.832-0.845-1.248-1.957-1.248-3.334
					c0-1.274,0.429-2.32,1.287-3.139c0.91-0.858,2.086-1.287,3.53-1.287c1.482,0,2.658,0.403,3.529,1.209
					c1.027,0.975,1.612,2.418,1.755,4.329c0.039,0.52,0.059,1.082,0.059,1.687s-0.094,1.319-0.283,2.145
					c-0.188,0.825-0.5,1.579-0.936,2.263c-0.436,0.682-1.017,1.248-1.745,1.695c-0.728,0.449-1.563,0.674-2.506,0.674
					s-1.687-0.088-2.233-0.264c-0.546-0.176-1.014-0.367-1.404-0.575c-0.273-0.156-0.41-0.364-0.41-0.624s0.072-0.471,0.215-0.634
					c0.143-0.163,0.305-0.243,0.487-0.243s0.383,0.051,0.604,0.155c0.728,0.312,1.521,0.468,2.379,0.468s1.55-0.179,2.077-0.536
					c0.527-0.357,0.939-0.79,1.238-1.297c0.468-0.845,0.741-1.898,0.819-3.159C75.107,17.969,74.25,18.489,73.105,18.775
					L73.105,18.775z M73.573,11.872c-0.429-0.195-0.913-0.292-1.453-0.292s-0.994,0.075-1.365,0.225
					c-0.371,0.149-0.686,0.354-0.946,0.614c-0.546,0.546-0.819,1.225-0.819,2.038s0.24,1.492,0.721,2.038
					c0.481,0.546,1.209,0.819,2.184,0.819c1.014,0,1.859-0.26,2.535-0.78c0.468-0.351,0.852-0.806,1.15-1.365
					C75.348,13.477,74.679,12.379,73.573,11.872L73.573,11.872z M86.052,18.775c-0.416,0.104-0.923,0.156-1.521,0.156
					c-0.598,0-1.17-0.107-1.716-0.322c-0.546-0.214-1.014-0.523-1.404-0.926c-0.832-0.845-1.248-1.957-1.248-3.334
					c0-1.274,0.429-2.32,1.287-3.139c0.91-0.858,2.086-1.287,3.529-1.287c1.482,0,2.659,0.403,3.529,1.209
					c1.027,0.975,1.612,2.418,1.755,4.329c0.039,0.52,0.059,1.082,0.059,1.687s-0.095,1.319-0.283,2.145
					c-0.188,0.825-0.5,1.579-0.936,2.263c-0.436,0.682-1.018,1.248-1.746,1.695c-0.728,0.449-1.563,0.674-2.506,0.674
					c-0.942,0-1.687-0.088-2.232-0.264c-0.546-0.176-1.014-0.367-1.404-0.575c-0.273-0.156-0.409-0.364-0.409-0.624
					s0.071-0.471,0.214-0.634s0.306-0.243,0.487-0.243c0.182,0,0.384,0.051,0.604,0.155c0.728,0.312,1.521,0.468,2.379,0.468
					c0.858,0,1.55-0.179,2.077-0.536s0.939-0.79,1.238-1.297c0.468-0.845,0.741-1.898,0.819-3.159
					C88.054,17.969,87.195,18.489,86.052,18.775L86.052,18.775z M86.52,11.872c-0.429-0.195-0.913-0.292-1.453-0.292
					s-0.995,0.075-1.365,0.225c-0.371,0.149-0.686,0.354-0.946,0.614c-0.546,0.546-0.819,1.225-0.819,2.038s0.241,1.492,0.722,2.038
					c0.481,0.546,1.209,0.819,2.184,0.819c1.014,0,1.859-0.26,2.535-0.78c0.468-0.351,0.852-0.806,1.15-1.365
					C88.294,13.477,87.625,12.379,86.52,11.872L86.52,11.872z M109.604,21.31c0.104-0.053,0.25-0.078,0.438-0.078
					c0.189,0,0.351,0.074,0.488,0.225c0.136,0.148,0.205,0.321,0.205,0.516c0,0.352-0.143,0.599-0.429,0.742
					c-0.611,0.338-1.265,0.623-1.96,0.857s-1.527,0.352-2.496,0.352c-0.968,0-1.869-0.16-2.701-0.479s-1.553-0.783-2.165-1.395
					c-1.3-1.273-1.95-2.982-1.95-5.128c0-2.145,0.65-3.854,1.95-5.128c1.261-1.248,2.886-1.872,4.875-1.872
					c0.962,0,1.791,0.117,2.486,0.351c0.695,0.234,1.229,0.452,1.599,0.653c0.371,0.201,0.595,0.364,0.673,0.487
					c0.078,0.124,0.117,0.279,0.117,0.468s-0.068,0.358-0.205,0.507c-0.137,0.149-0.299,0.224-0.488,0.224
					c-0.188,0-0.334-0.026-0.438-0.078c-0.52-0.273-1.053-0.494-1.599-0.663c-0.546-0.169-1.225-0.253-2.038-0.253
					s-1.547,0.137-2.204,0.41c-0.656,0.273-1.206,0.65-1.648,1.131c-0.871,0.949-1.306,2.204-1.306,3.764s0.436,2.814,1.306,3.764
					c0.949,1.026,2.256,1.54,3.92,1.54c0.767,0,1.423-0.084,1.969-0.254C108.55,21.804,109.083,21.583,109.604,21.31L109.604,21.31z
					 M114.165,14.29c1.092-0.468,2.223-0.702,3.393-0.702c1.326,0,2.353,0.403,3.081,1.209c0.65,0.702,0.975,1.58,0.975,2.632v5.519
					c0,0.247-0.087,0.455-0.263,0.624c-0.175,0.169-0.387,0.254-0.634,0.254c-0.247,0-0.455-0.085-0.624-0.254
					c-0.169-0.169-0.253-0.377-0.253-0.624v-0.507c-0.351,0.363-0.822,0.701-1.414,1.014s-1.342,0.469-2.252,0.469
					c-0.897,0-1.645-0.261-2.242-0.781c-0.624-0.545-0.936-1.26-0.936-2.145c0-0.962,0.364-1.716,1.092-2.262
					c0.793-0.598,1.924-0.897,3.393-0.897h2.359v-0.156c0-0.871-0.214-1.492-0.644-1.862c-0.429-0.371-1.085-0.556-1.969-0.556
					c-0.754,0-1.619,0.156-2.594,0.468c-0.104,0.026-0.221,0.039-0.351,0.039c-0.13,0-0.266-0.068-0.409-0.205
					c-0.143-0.136-0.214-0.348-0.214-0.634C113.658,14.647,113.827,14.433,114.165,14.29L114.165,14.29z M114.769,20.802
					c0,1.041,0.689,1.561,2.067,1.561c0.611,0,1.18-0.149,1.706-0.448c0.527-0.3,0.959-0.638,1.297-1.015v-1.638h-2.125
					c-0.923,0-1.645,0.117-2.165,0.351C115.029,19.847,114.769,20.244,114.769,20.802L114.769,20.802z M127.091,15.382
					c0.793-1.196,1.898-1.794,3.315-1.794c0.702,0,1.339,0.208,1.911,0.624c0.468,0.325,0.826,0.787,1.073,1.384
					c0.364-0.572,0.721-0.975,1.072-1.209c0.741-0.533,1.58-0.799,2.516-0.799c1.053,0,1.878,0.403,2.477,1.209
					c0.521,0.689,0.78,1.534,0.78,2.535v5.616c0,0.247-0.088,0.455-0.264,0.624s-0.387,0.254-0.634,0.254s-0.455-0.085-0.624-0.254
					s-0.254-0.377-0.254-0.624v-5.265c0-0.819-0.146-1.433-0.438-1.843c-0.292-0.409-0.809-0.614-1.55-0.614
					c-1.144,0-2.08,0.624-2.808,1.872v5.85c0,0.247-0.088,0.455-0.263,0.624c-0.176,0.169-0.387,0.254-0.634,0.254
					s-0.455-0.085-0.624-0.254s-0.253-0.377-0.253-0.624v-5.265c0-0.819-0.146-1.433-0.439-1.843
					c-0.292-0.409-0.809-0.614-1.55-0.614c-1.144,0-2.08,0.624-2.808,1.872v5.85c0,0.247-0.087,0.455-0.263,0.624
					c-0.175,0.169-0.387,0.254-0.634,0.254c-0.247,0-0.455-0.085-0.624-0.254c-0.169-0.169-0.253-0.377-0.253-0.624v-8.365
					c0-0.247,0.084-0.458,0.253-0.634c0.169-0.176,0.377-0.264,0.624-0.264c0.247,0,0.458,0.088,0.634,0.264
					c0.176,0.175,0.263,0.387,0.263,0.634V15.382z M145.711,15.07c0.963-0.988,2.074-1.482,3.335-1.482s2.34,0.448,3.237,1.345
					c0.988,0.988,1.482,2.262,1.482,3.822c0,1.586-0.494,2.866-1.482,3.842c-0.91,0.884-1.992,1.326-3.247,1.326
					s-2.362-0.494-3.325-1.482v0.507c0,0.247-0.084,0.455-0.253,0.624s-0.38,0.254-0.634,0.254s-0.465-0.085-0.634-0.254
					s-0.253-0.377-0.253-0.624V10.292c0-0.26,0.084-0.475,0.253-0.644s0.38-0.253,0.634-0.253s0.465,0.084,0.634,0.253
					s0.253,0.383,0.253,0.644V15.07z M145.711,20.802c0.885,0.976,1.912,1.463,3.082,1.463c1.481,0,2.47-0.663,2.963-1.988
					c0.156-0.442,0.234-0.949,0.234-1.521c0-1.118-0.299-1.996-0.896-2.633c-0.572-0.585-1.34-0.877-2.301-0.877
					c-1.17,0-2.197,0.488-3.082,1.463V20.802z M158.716,15.421c0.91-1.222,1.931-1.833,3.062-1.833h0.098
					c0.247,0,0.451,0.084,0.614,0.253s0.243,0.38,0.243,0.634s-0.084,0.455-0.253,0.604s-0.384,0.224-0.644,0.224h-0.098
					c-0.65,0-1.231,0.159-1.745,0.478c-0.514,0.318-0.938,0.731-1.277,1.238v5.928c0,0.247-0.087,0.455-0.263,0.624
					s-0.387,0.254-0.635,0.254c-0.246,0-0.454-0.085-0.623-0.254c-0.17-0.169-0.254-0.377-0.254-0.624v-8.365
					c0-0.247,0.084-0.458,0.254-0.634c0.169-0.176,0.377-0.264,0.623-0.264c0.248,0,0.459,0.088,0.635,0.264
					c0.176,0.175,0.263,0.387,0.263,0.634V15.421z M165.52,13.939c0.169-0.169,0.381-0.254,0.634-0.254s0.465,0.085,0.634,0.254
					s0.254,0.383,0.254,0.644v8.365c0,0.247-0.085,0.455-0.254,0.624s-0.381,0.254-0.634,0.254s-0.465-0.085-0.634-0.254
					s-0.254-0.377-0.254-0.624v-8.365C165.266,14.322,165.351,14.108,165.52,13.939L165.52,13.939z M167.216,10.76
					c0,0.273-0.097,0.507-0.292,0.702c-0.195,0.195-0.43,0.292-0.702,0.292h-0.117c-0.272,0-0.507-0.098-0.702-0.292
					c-0.195-0.195-0.293-0.429-0.293-0.702v-0.078c0-0.273,0.098-0.507,0.293-0.702c0.195-0.195,0.43-0.292,0.702-0.292h0.117
					c0.272,0,0.507,0.097,0.702,0.292c0.195,0.195,0.292,0.429,0.292,0.702V10.76z M178.349,22.441
					c-0.962,0.988-2.073,1.482-3.335,1.482c-1.248,0-2.326-0.442-3.236-1.326c-0.988-0.976-1.482-2.256-1.482-3.842
					c0-1.56,0.494-2.834,1.482-3.822c0.896-0.897,1.976-1.345,3.236-1.345c1.262,0,2.373,0.494,3.335,1.482v-4.777
					c0-0.26,0.085-0.475,0.253-0.644c0.17-0.169,0.381-0.253,0.635-0.253c0.253,0,0.465,0.084,0.633,0.253
					c0.17,0.169,0.254,0.383,0.254,0.644v12.655c0,0.247-0.084,0.455-0.254,0.624c-0.168,0.169-0.38,0.254-0.633,0.254
					c-0.254,0-0.465-0.085-0.635-0.254c-0.168-0.169-0.253-0.377-0.253-0.624V22.441z M178.349,16.708
					c-0.884-0.975-1.911-1.463-3.081-1.463c-1.482,0-2.463,0.663-2.944,1.989c-0.169,0.442-0.254,0.949-0.254,1.521
					c0,1.118,0.306,1.996,0.917,2.633c0.559,0.584,1.319,0.877,2.281,0.877c1.17,0,2.197-0.487,3.081-1.463V16.708z M191.354,15.07
					v-0.487c0-0.247,0.084-0.458,0.253-0.634c0.169-0.176,0.377-0.264,0.624-0.264s0.459,0.088,0.634,0.264
					c0.175,0.175,0.263,0.387,0.263,0.634v8.716c0,1.651-0.396,2.916-1.189,3.793c-0.793,0.878-1.924,1.316-3.393,1.316
					c-1.561,0-2.951-0.338-4.173-1.014c-0.233-0.143-0.351-0.342-0.351-0.596c0-0.253,0.074-0.464,0.224-0.633
					c0.149-0.17,0.306-0.254,0.468-0.254c0.163,0,0.309,0.026,0.439,0.078c0.988,0.494,2.061,0.741,3.217,0.741
					c1.989,0,2.984-1.06,2.984-3.179v-1.307c-0.924,0.988-2.035,1.482-3.335,1.482c-1.235,0-2.294-0.416-3.179-1.248
					c-1.027-0.949-1.541-2.223-1.541-3.822c0-1.599,0.514-2.873,1.541-3.822c0.885-0.832,1.96-1.248,3.228-1.248
					S190.43,14.082,191.354,15.07L191.354,15.07z M191.354,16.649c-0.365-0.377-0.78-0.712-1.248-1.004
					c-0.469-0.292-0.988-0.438-1.561-0.438s-1.06,0.071-1.463,0.214c-0.402,0.143-0.754,0.351-1.053,0.624
					c-0.637,0.598-0.955,1.469-0.955,2.613c0,1.678,0.67,2.756,2.008,3.237c0.403,0.143,0.891,0.214,1.463,0.214
					c0.949,0,1.885-0.48,2.809-1.442V16.649z M199.111,21.486c0.56,0.52,1.34,0.779,2.341,0.779s1.839-0.169,2.515-0.507
					c0.234-0.117,0.436-0.175,0.605-0.175c0.169,0,0.331,0.07,0.487,0.214c0.155,0.144,0.233,0.306,0.233,0.487
					c0,0.338-0.139,0.582-0.419,0.731c-0.279,0.149-0.529,0.276-0.751,0.38c-0.221,0.104-0.461,0.195-0.721,0.273
					c-0.586,0.169-1.262,0.254-2.028,0.254c-1.599,0-2.841-0.449-3.725-1.346c-0.884-0.897-1.325-2.172-1.325-3.822
					c0-1.43,0.369-2.62,1.111-3.568c0.832-1.066,2.015-1.599,3.549-1.599c1.455,0,2.605,0.494,3.451,1.482
					c0.793,0.923,1.189,2.067,1.189,3.432c0,0.247-0.081,0.455-0.244,0.625c-0.162,0.168-0.38,0.253-0.652,0.253h-6.611
					C198.222,20.263,198.553,20.965,199.111,21.486L199.111,21.486z M200.984,15.089c-1.157,0-2.002,0.514-2.535,1.541
					c-0.195,0.364-0.306,0.799-0.332,1.306h5.753c-0.052-0.923-0.39-1.651-1.015-2.184C202.336,15.31,201.712,15.089,200.984,15.089
					L200.984,15.089z M218.959,22.246c2.275,0,3.412-0.747,3.412-2.242c0-0.624-0.436-1.125-1.307-1.501
					c-0.377-0.156-0.815-0.296-1.316-0.419c-0.5-0.124-1.007-0.257-1.521-0.4c-0.513-0.143-1.021-0.305-1.521-0.487
					c-0.501-0.182-0.946-0.416-1.336-0.702c-0.857-0.65-1.287-1.508-1.287-2.574c0-1.144,0.43-2.08,1.287-2.808
					c0.936-0.793,2.19-1.189,3.764-1.189c1.417,0,2.711,0.214,3.881,0.644c0.363,0.13,0.545,0.39,0.545,0.78
					c0,0.195-0.068,0.38-0.204,0.556c-0.137,0.176-0.286,0.264-0.448,0.264c-0.163,0-0.387-0.052-0.674-0.156
					c-0.844-0.299-1.812-0.449-2.904-0.449c-1.002,0-1.827,0.189-2.477,0.566c-0.664,0.39-0.995,0.942-0.995,1.657
					c0,0.741,0.429,1.3,1.287,1.677c0.39,0.182,0.832,0.332,1.326,0.448c0.493,0.117,1.001,0.241,1.521,0.371
					c0.521,0.13,1.027,0.283,1.521,0.458c0.494,0.176,0.936,0.406,1.326,0.692c0.857,0.624,1.287,1.521,1.287,2.691
					c0,1.117-0.449,2.027-1.346,2.729c-0.924,0.716-2.139,1.073-3.646,1.073c-1.651,0-3.198-0.312-4.641-0.937
					c-0.144-0.065-0.271-0.169-0.381-0.312c-0.11-0.144-0.166-0.316-0.166-0.518s0.072-0.383,0.215-0.546
					c0.143-0.162,0.309-0.243,0.497-0.243s0.423,0.062,0.702,0.186c0.279,0.123,0.738,0.27,1.375,0.438
					C217.373,22.162,218.113,22.246,218.959,22.246L218.959,22.246z M231.154,22.275c0.149-0.059,0.312-0.088,0.487-0.088
					c0.176,0,0.335,0.065,0.478,0.195c0.144,0.13,0.215,0.325,0.215,0.585s-0.13,0.448-0.391,0.565
					c-0.559,0.26-1.036,0.391-1.433,0.391s-0.757-0.02-1.082-0.059s-0.638-0.15-0.937-0.332c-0.715-0.416-1.072-1.145-1.072-2.184
					v-6.045h-1.385c-0.246,0-0.37-0.124-0.37-0.371c0-0.117,0.059-0.228,0.175-0.331l2.652-2.594
					c0.117-0.117,0.229-0.175,0.332-0.175s0.191,0.039,0.264,0.117c0.07,0.078,0.106,0.169,0.106,0.273v1.56h2.204
					c0.221,0,0.402,0.072,0.545,0.214c0.144,0.143,0.215,0.325,0.215,0.546c0,0.221-0.071,0.403-0.215,0.546
					c-0.143,0.143-0.324,0.214-0.545,0.214h-2.204v5.889c0,0.494,0.149,0.832,0.448,1.014c0.17,0.104,0.426,0.156,0.771,0.156
					S231.005,22.333,231.154,22.275L231.154,22.275z"/>
			</g>
		</g>
	</g>
</g>
</svg>
