<?xml version="1.0" encoding="UTF-8" standalone="no"?>
<svg width="179px" height="179px" viewBox="0 0 179 179" version="1.1" xmlns="http://www.w3.org/2000/svg" xmlns:xlink="http://www.w3.org/1999/xlink">
    <!-- Generator: Sketch 3.6.1 (26313) - http://www.bohemiancoding.com/sketch -->
    <title>Icon 3</title>
    <desc>Created with Sketch.</desc>
    <defs>
        <path id="path-1" d="M0,0.08 L178.921233,0.08 L178.921233,179 L0,179"></path>
        <path id="path-3" d="M0,0.08 L178.921233,0.08 L178.921233,179 L0,179"></path>
    </defs>
    <g id="Welcome" stroke="none" stroke-width="1" fill="none" fill-rule="evenodd">
        <g id="Desktop-HD-Home" transform="translate(-758.000000, -1571.000000)">
            <g id="What-We-Offer" transform="translate(0.000000, 1400.000000)">
                <g id="icons" transform="translate(239.000000, 171.000000)">
                    <g id="Group-3" transform="translate(514.000000, 0.000000)">
                        <g id="Icon-3" transform="translate(5.000000, 0.000000)">
                            <path d="M89.4593836,174.734863 C42.4830822,174.734863 4.26390411,136.516918 4.26390411,89.5393836 C4.26390411,42.5630822 42.4830822,4.34513699 89.4593836,4.34513699 C136.436918,4.34513699 174.656096,42.5630822 174.656096,89.5393836 C174.656096,136.516918 136.436918,174.734863 89.4593836,174.734863" id="Fill-1" fill="#F1F1F2"></path>
                            <g id="Group-5">
                                <mask id="mask-2" fill="white">
                                    <use xlink:href="#path-1"></use>
                                </mask>
                                <g id="Clip-4"></g>
                                <path d="M89.4593836,0.0806164384 C40.1307534,0.0806164384 -0.000616438356,40.2119863 -0.000616438356,89.5406164 C-0.000616438356,138.868014 40.1307534,179.000616 89.4593836,179.000616 C138.789247,179.000616 178.920616,138.868014 178.920616,89.5406164 C178.920616,40.2119863 138.789247,0.0806164384 89.4593836,0.0806164384 M89.4593836,8.61089041 C134.157329,8.61089041 170.391575,44.8439041 170.391575,89.5406164 C170.391575,134.237329 134.157329,170.470342 89.4593836,170.470342 C44.7614384,170.470342 8.52965753,134.237329 8.52965753,89.5406164 C8.52965753,44.8439041 44.7614384,8.61089041 89.4593836,8.61089041" id="Fill-3" fill="#FFCC67" mask="url(#mask-2)"></path>
                            </g>
                            <path d="M108.144,156.815493 L108.144,77.9113836 L68.8620822,77.9113836 L68.8620822,156.270562 C75.3753699,158.285082 82.2918082,159.373712 89.4597534,159.373712 C95.9311233,159.373712 102.192904,158.470014 108.144,156.815493" id="Fill-6" fill="#FFCC67"></path>
                            <path d="M108.144,156.815493 L108.144,77.9113836 L68.8620822,77.9113836 L68.8620822,156.270562 C75.3753699,158.285082 82.2918082,159.373712 89.4597534,159.373712 C95.9311233,159.373712 102.192904,158.470014 108.144,156.815493 L108.144,156.815493 Z" id="Stroke-8" stroke="#F1F1F2" stroke-width="1.287" stroke-linecap="round"></path>
                            <path d="M88.503411,26.8360137 L88.5021781,23.873411" id="Stroke-10" stroke="#676767" stroke-width="3" stroke-linecap="round"></path>
                            <path d="M88.5023014,45.0703836 L88.5035342,32.5887397" id="Stroke-12" stroke="#676767" stroke-width="3" stroke-linecap="round"></path>
                            <path d="M56.5003973,59.0142192 L54.7891644,57.3029863" id="Stroke-14" stroke="#676767" stroke-width="3" stroke-linecap="round"></path>
                            <path d="M50.372137,52.8859589 L42.5569315,45.0707534" id="Stroke-16" stroke="#676767" stroke-width="3" stroke-linecap="round"></path>
                            <path d="M51.1065616,133.642466 L46.252726,138.497534" id="Stroke-18" stroke="#676767" stroke-width="3" stroke-linecap="round"></path>
                            <path d="M59.1311096,125.619027 L54.9109726,129.837932" id="Stroke-20" stroke="#676767" stroke-width="3" stroke-linecap="round"></path>
                            <path d="M126.80211,121.922863 L129.890466,125.012452" id="Stroke-22" stroke="#676767" stroke-width="3" stroke-linecap="round"></path>
                            <path d="M133.588973,128.710959 L139.676918,134.798904" id="Stroke-24" stroke="#676767" stroke-width="3" stroke-linecap="round"></path>
                            <path d="M120.919438,56.4352877 L130.294233,47.0604932" id="Stroke-26" stroke="#676767" stroke-width="3" stroke-linecap="round"></path>
                            <path d="M134.785726,42.5702329 L135.982849,41.3731096" id="Stroke-28" stroke="#676767" stroke-width="3" stroke-linecap="round"></path>
                            <path d="M70.5291781,47.0604932 L66.300411,36.8559726" id="Stroke-30" stroke="#676767" stroke-width="3" stroke-linecap="round"></path>
                            <path d="M48.2423425,110.523562 L38.0390548,114.752329" id="Stroke-32" stroke="#676767" stroke-width="3" stroke-linecap="round"></path>
                            <path d="M135.993329,105.693151 L146.197849,109.919452" id="Stroke-34" stroke="#676767" stroke-width="3" stroke-linecap="round"></path>
                            <path d="M106.877466,45.0595342 L111.103767,34.8550137" id="Stroke-36" stroke="#676767" stroke-width="3" stroke-linecap="round"></path>
                            <path d="M68.8617123,67.1976849 L65.2913014,67.1976849 C61.7208904,74.3397397 61.7208904,88.6250822 61.7208904,106.47837 C61.7208904,117.193301 68.8617123,120.762479 68.8617123,120.762479 L76.8963699,122.816452" id="Fill-38" fill="#FFCC67"></path>
                            <path d="M46.3339726,88.6249589 L38.0860274,88.6249589 L33.9632877,81.4816712 L38.0860274,74.3396164 L46.3339726,74.3396164 L50.4567123,81.4816712 L46.3339726,88.6249589 Z M138.628356,74.3396164 L150.997808,74.3396164 C148.527123,70.0713973 143.914932,67.1975616 138.628356,67.1975616 C133.340548,67.1975616 128.730822,70.0713973 126.260137,74.3396164 L54.5782192,74.3396164 C52.1075342,70.0713973 47.4953425,67.1975616 42.2087671,67.1975616 C34.3208219,67.1975616 27.9246575,73.593726 27.9246575,81.4816712 C27.9246575,89.3696164 34.3208219,95.7657808 42.2087671,95.7657808 C47.4953425,95.7657808 52.1075342,92.8931781 54.5782192,88.6249589 L126.260137,88.6249589 C128.730822,92.8931781 133.340548,95.7657808 138.628356,95.7657808 C143.914932,95.7657808 148.527123,92.8931781 150.997808,88.6249589 L138.628356,88.6249589 L138.628356,74.3396164 Z" id="Fill-40" fill="#676767"></path>
                            <path d="M110.603712,88.674274 C110.603712,91.5234521 108.293301,93.8313973 105.445356,93.8313973 L104.157,93.8313973 C101.307822,93.8313973 98.9986438,91.5234521 98.9986438,88.674274 L98.9986438,56.4357808 C98.9986438,53.5866027 101.307822,51.2761918 104.157,51.2761918 L105.445356,51.2761918 C108.293301,51.2761918 110.603712,53.5866027 110.603712,56.4357808 L110.603712,88.674274 Z" id="Fill-42" fill="#FFCC67"></path>
                            <path d="M110.603712,88.674274 C110.603712,91.5234521 108.293301,93.8313973 105.445356,93.8313973 L104.157,93.8313973 C101.307822,93.8313973 98.9986438,91.5234521 98.9986438,88.674274 L98.9986438,56.4357808 C98.9986438,53.5866027 101.307822,51.2761918 104.157,51.2761918 L105.445356,51.2761918 C108.293301,51.2761918 110.603712,53.5866027 110.603712,56.4357808 L110.603712,88.674274 L110.603712,88.674274 Z" id="Stroke-44" stroke="#F1F1F2" stroke-width="2.531"></path>
                            <path d="M98.9985205,88.674274 C98.9985205,91.5234521 96.6881096,93.8313973 93.8389315,93.8313973 L92.5505753,93.8313973 C89.7013973,93.8313973 87.3922192,91.5234521 87.3922192,88.674274 L87.3922192,59.013726 C87.3922192,56.1657808 89.7013973,53.8566027 92.5505753,53.8566027 L93.8389315,53.8566027 C96.6881096,53.8566027 98.9985205,56.1657808 98.9985205,59.013726 L98.9985205,88.674274 Z" id="Fill-46" fill="#FFCC67"></path>
                            <path d="M98.9985205,88.674274 C98.9985205,91.5234521 96.6881096,93.8313973 93.8389315,93.8313973 L92.5505753,93.8313973 C89.7013973,93.8313973 87.3922192,91.5234521 87.3922192,88.674274 L87.3922192,59.013726 C87.3922192,56.1657808 89.7013973,53.8566027 92.5505753,53.8566027 L93.8389315,53.8566027 C96.6881096,53.8566027 98.9985205,56.1657808 98.9985205,59.013726 L98.9985205,88.674274 L98.9985205,88.674274 Z" id="Stroke-48" stroke="#F1F1F2" stroke-width="2.531"></path>
                            <path d="M87.3922192,88.674274 C87.3922192,91.5234521 85.0818082,93.8313973 82.2326301,93.8313973 L80.944274,93.8313973 C78.0950959,93.8313973 75.7859178,91.5234521 75.7859178,88.674274 L75.7859178,61.5929041 C75.7859178,58.7449589 78.0950959,56.4357808 80.944274,56.4357808 L82.2326301,56.4357808 C85.0818082,56.4357808 87.3922192,58.7449589 87.3922192,61.5929041 L87.3922192,88.674274 Z" id="Fill-50" fill="#FFCC67"></path>
                            <path d="M87.3922192,88.674274 C87.3922192,91.5234521 85.0818082,93.8313973 82.2326301,93.8313973 L80.944274,93.8313973 C78.0950959,93.8313973 75.7859178,91.5234521 75.7859178,88.674274 L75.7859178,61.5929041 C75.7859178,58.7449589 78.0950959,56.4357808 80.944274,56.4357808 L82.2326301,56.4357808 C85.0818082,56.4357808 87.3922192,58.7449589 87.3922192,61.5929041 L87.3922192,88.674274 L87.3922192,88.674274 Z" id="Stroke-52" stroke="#F1F1F2" stroke-width="2.531"></path>
                            <path d="M75.7857945,88.674274 C75.7857945,91.5234521 73.4753836,93.8313973 70.6274384,93.8313973 L69.3390822,93.8313973 C66.4899041,93.8313973 64.180726,91.5234521 64.180726,88.674274 L64.180726,64.1733151 C64.180726,61.3229041 66.4899041,59.013726 69.3390822,59.013726 L70.6274384,59.013726 C73.4753836,59.013726 75.7857945,61.3229041 75.7857945,64.1733151 L75.7857945,88.674274 Z" id="Fill-54" fill="#FFCC67"></path>
                            <path d="M75.7857945,88.674274 C75.7857945,91.5234521 73.4753836,93.8313973 70.6274384,93.8313973 L69.3390822,93.8313973 C66.4899041,93.8313973 64.180726,91.5234521 64.180726,88.674274 L64.180726,64.1733151 C64.180726,61.3229041 66.4899041,59.013726 69.3390822,59.013726 L70.6274384,59.013726 C73.4753836,59.013726 75.7857945,61.3229041 75.7857945,64.1733151 L75.7857945,88.674274 L75.7857945,88.674274 Z" id="Stroke-56" stroke="#F1F1F2" stroke-width="2.531"></path>
                            <g id="Group-61" transform="translate(86.000000, 74.000000)">
                                <path d="M22.144,46.7622329 C22.144,46.7622329 36.4293425,43.1930548 36.4293425,28.9101781 L36.4293425,7.48154795 C36.4293425,7.48154795 36.4293425,0.339493151 29.2860548,0.339493151 L0.717835616,0.339493151 C0.717835616,0.339493151 -2.85380822,11.0531918 7.86112329,11.0531918 L18.573589,11.0531918 C18.573589,11.0531918 0.717835616,11.0531918 0.717835616,32.4781233" id="Fill-58" fill="#FFCC67"></path>
                                <path d="M22.144,46.7622329 C22.144,46.7622329 36.4293425,43.1930548 36.4293425,28.9101781 L36.4293425,7.48154795 C36.4293425,7.48154795 36.4293425,0.339493151 29.2860548,0.339493151 L0.717835616,0.339493151 C0.717835616,0.339493151 -2.85380822,11.0531918 7.86112329,11.0531918 L18.573589,11.0531918 C18.573589,11.0531918 0.717835616,11.0531918 0.717835616,32.4781233" id="Stroke-60" stroke="#F1F1F2" stroke-width="2.531" stroke-linecap="round"></path>
                            </g>
                            <g id="Group-64">
                                <mask id="mask-4" fill="white">
                                    <use xlink:href="#path-3"></use>
                                </mask>
                                <g id="Clip-63"></g>
                                <path d="M89.4593836,0.0806164384 C40.1307534,0.0806164384 -0.000616438356,40.2119863 -0.000616438356,89.5406164 C-0.000616438356,138.868014 40.1307534,179.000616 89.4593836,179.000616 C138.789247,179.000616 178.920616,138.868014 178.920616,89.5406164 C178.920616,40.2119863 138.789247,0.0806164384 89.4593836,0.0806164384 M89.4593836,8.61089041 C134.157329,8.61089041 170.391575,44.8439041 170.391575,89.5406164 C170.391575,134.237329 134.157329,170.470342 89.4593836,170.470342 C44.7614384,170.470342 8.52965753,134.237329 8.52965753,89.5406164 C8.52965753,44.8439041 44.7614384,8.61089041 89.4593836,8.61089041" id="Fill-62" fill="#FFCC67" mask="url(#mask-4)"></path>
                            </g>
                        </g>
                    </g>
                </g>
            </g>
        </g>
    </g>
</svg>