<svg><g id="group1" transform="translate(100,100)"><path opacity="1" fill="#3333cc" d="M0,100A100,100 0 1,1 0,-100A100,100 0 1,1 0,100M0,93.33333333333334A93.33333333333334,93.33333333333334 0 1,0 0,-93.33333333333334A93.33333333333334,93.33333333333334 0 1,0 0,93.33333333333334Z"></path><path opacity="1" fill="#3333cc" d="M0,78.33333333333334A78.33333333333334,78.33333333333334 0 1,1 0,-78.33333333333334A78.33333333333334,78.33333333333334 0 1,1 0,78.33333333333334M0,71.66666666666666A71.66666666666666,71.66666666666666 0 1,0 0,-71.66666666666666A71.66666666666666,71.66666666666666 0 1,0 0,71.66666666666666Z"></path><path opacity="1" fill="#3333cc" d="M0,56.666666666666664A56.666666666666664,56.666666666666664 0 1,1 0,-56.666666666666664A56.666666666666664,56.666666666666664 0 1,1 0,56.666666666666664M0,50A50,50 0 1,0 0,-50A50,50 0 1,0 0,50Z"></path><line opacity="1" stroke="white" stroke-width="15" x1="60.693332051845324" x2="76.01397897755383" y1="-60.69333205184535" y2="-76.01397897755388"></line><line opacity="1" stroke="white" stroke-width="15" x1="-60.69333205184535" x2="-76.01397897755388" y1="-60.69333205184533" y2="-76.01397897755385"></line><line opacity="1" stroke="white" stroke-width="15" x1="-60.69333205184533" x2="-76.01397897755385" y1="60.69333205184534" y2="76.01397897755386"></line><line opacity="1" stroke="white" stroke-width="15" x1="60.69333205184534" x2="76.01397897755386" y1="60.69333205184533" y2="76.01397897755385"></line><line opacity="1" stroke="white" stroke-width="15" x1="32.083333333333336" x2="42.91666666666668" y1="-55.56996340950147" y2="-74.33384715816432"></line><line opacity="1" stroke="white" stroke-width="15" x1="-64.16666666666666" x2="-85.83333333333334" y1="7.857890770360252e-15" y2="1.0511204536975406e-14"></line><line opacity="1" stroke="white" stroke-width="15" x1="32.083333333333336" x2="42.91666666666668" y1="55.56996340950147" y2="74.33384715816432"></line><line opacity="1" stroke="white" stroke-width="15" x1="-7.806865505617655e-15" x2="-1.178683615554038e-14" y1="-42.5" y2="-64.16666666666666"></line><line opacity="1" stroke="white" stroke-width="15" x1="2.6022885018725517e-15" x2="3.928945385180126e-15" y1="42.5" y2="64.16666666666666"></line></g></svg>