<svg><g id="group2" transform="translate(100,100)"><path opacity="1" fill="#3333cc" d="M0,100A100,100 0 1,1 0,-100A100,100 0 1,1 0,100M0,90A90,90 0 1,0 0,-90A90,90 0 1,0 0,90Z"></path><path opacity="1" fill="#3333cc" d="M0,80A80,80 0 1,1 0,-80A80,80 0 1,1 0,80M0,70A70,70 0 1,0 0,-70A70,70 0 1,0 0,70Z"></path><path opacity="1" fill="#3333cc" d="M0,60A60,60 0 1,1 0,-60A60,60 0 1,1 0,60M0,50A50,50 0 1,0 0,-50A50,50 0 1,0 0,50Z"></path><line opacity="1" stroke="white" stroke-width="10" x1="60.10407640085653" x2="74.24621202458748" y1="-60.104076400856556" y2="-74.2462120245875"></line><line opacity="1" stroke="white" stroke-width="10" x1="-60.104076400856556" x2="-74.2462120245875" y1="-60.104076400856535" y2="-74.24621202458748"></line><line opacity="1" stroke="white" stroke-width="10" x1="-60.104076400856535" x2="-74.24621202458748" y1="60.10407640085654" y2="74.24621202458749"></line><line opacity="1" stroke="white" stroke-width="10" x1="60.10407640085654" x2="74.24621202458749" y1="60.104076400856535" y2="74.24621202458748"></line><line opacity="1" stroke="white" stroke-width="10" x1="32.50000000000001" x2="42.50000000000001" y1="-56.29165124598851" y2="-73.61215932167728"></line><line opacity="1" stroke="white" stroke-width="10" x1="-65" x2="-85" y1="7.959941299845452e-15" y2="1.0409154007490207e-14"></line><line opacity="1" stroke="white" stroke-width="10" x1="32.50000000000001" x2="42.50000000000001" y1="56.29165124598851" y2="73.61215932167728"></line><line opacity="1" stroke="white" stroke-width="10" x1="-8.266092888301046e-15" x2="-1.1939911949768178e-14" y1="-45" y2="-65"></line><line opacity="1" stroke="white" stroke-width="10" x1="2.755364296100349e-15" x2="3.979970649922726e-15" y1="45" y2="65"></line></g></svg>