<svg><g id="group3" transform="translate(100,100)"><path opacity="1" fill="#3333cc" d="M0,100A100,100 0 1,1 0,-100A100,100 0 1,1 0,100M0,90A90,90 0 1,0 0,-90A90,90 0 1,0 0,90Z"></path><path opacity="1" fill="#3333cc" d="M0,75A75,75 0 1,1 0,-75A75,75 0 1,1 0,75M0,65A65,65 0 1,0 0,-65A65,65 0 1,0 0,65Z"></path><path opacity="1" fill="#3333cc" d="M0,50A50,50 0 1,1 0,-50A50,50 0 1,1 0,50M0,40A40,40 0 1,0 0,-40A40,40 0 1,0 0,40Z"></path><line opacity="1" stroke="white" stroke-width="15" x1="58.33630944789016" x2="76.01397897755383" y1="-58.33630944789019" y2="-76.01397897755388"></line><line opacity="1" stroke="white" stroke-width="15" x1="-58.33630944789019" x2="-76.01397897755388" y1="-58.336309447890166" y2="-76.01397897755385"></line><line opacity="1" stroke="white" stroke-width="15" x1="-58.336309447890166" x2="-76.01397897755385" y1="58.33630944789017" y2="76.01397897755386"></line><line opacity="1" stroke="white" stroke-width="15" x1="58.33630944789017" x2="76.01397897755386" y1="58.336309447890166" y2="76.01397897755385"></line><line opacity="1" stroke="white" stroke-width="15" x1="28.750000000000007" x2="41.25000000000001" y1="-49.79646071760522" y2="-71.44709581221619"></line><line opacity="1" stroke="white" stroke-width="15" x1="-57.5" x2="-82.5" y1="7.041486534478669e-15" y2="1.0103002419034612e-14"></line><line opacity="1" stroke="white" stroke-width="15" x1="28.750000000000007" x2="41.25000000000001" y1="49.79646071760522" y2="71.44709581221619"></line><line opacity="1" stroke="white" stroke-width="15" x1="-5.969955974884089e-15" x2="-1.0562229801718004e-14" y1="-32.5" y2="-57.5"></line><line opacity="1" stroke="white" stroke-width="15" x1="1.989985324961363e-15" x2="3.5207432672393346e-15" y1="32.5" y2="57.5"></line></g></svg>