<svg width="117" height="27" viewBox="0 0 117 27" xmlns="http://www.w3.org/2000/svg"><g fill="none"><path fill="#BA242A" d="M114.042.824l-6.322 13.557-2.39-5.144h-2.583l3.924 8.413h2.087l7.847-16.824v-.002h-2.563"/><path d="M46.85 7.828h5.139v-4.55h-5.139v4.55zm-40.432 18.17h5.369l5.828-16.762h-5.14l-3.274 10.771h-.066l-3.274-10.771h-5.27l5.827 16.762zm18.857-13.585c1.801 0 3.046 1.342 3.242 3.306h-6.843c.393-1.998 1.474-3.306 3.601-3.306zm.262 10.377c-2.258 0-3.633-1.473-3.895-3.732h12.08c.033-3.601-.916-6.482-2.914-8.282-1.407-1.31-3.274-2.03-5.63-2.03-5.042 0-8.546 3.83-8.546 8.839 0 5.042 3.34 8.905 8.873 8.905 2.095 0 3.765-.557 5.139-1.507 1.474-1.014 2.521-2.487 2.816-3.961h-4.911c-.491 1.114-1.506 1.768-3.012 1.768zm9.396 3.208h5.107v-7.693c0-3.502 2.096-5.042 5.303-4.616h.099v-4.419c-.262-.099-.557-.131-1.048-.131-1.996 0-3.339.916-4.485 2.881h-.098v-2.784h-4.878v16.762zm11.917 0h5.139v-16.762h-5.139v16.762zm6.548 0h14.34v-4.027h-8.12v-.097l7.76-8.708v-3.93h-13.98v4.027h7.857v.099l-7.857 8.774v3.862zm23.407-3.24c-2.422 0-3.698-2.03-3.698-5.107 0-3.111 1.276-5.108 3.698-5.108 2.424 0 3.766 1.997 3.766 5.108 0 3.077-1.342 5.107-3.766 5.107zm.034-13.98c-5.337 0-8.905 3.831-8.905 8.873 0 5.008 3.568 8.872 8.905 8.872 5.335 0 8.904-3.864 8.904-8.872 0-5.042-3.569-8.873-8.904-8.873zm10.018 17.22h5.107v-9.33c0-2.128 1.243-3.633 3.076-3.633 1.768 0 2.685 1.243 2.685 3.011v9.952h5.108v-10.934c0-3.699-2.226-6.318-5.827-6.318-2.293 0-3.896.982-5.107 2.783h-.099v-2.293h-4.943v16.762z" fill="#fff"/></g></svg>
