<?xml version="1.0" encoding="UTF-8"?>
<svg width="130px" height="14px" viewBox="0 0 130 14" version="1.1" xmlns="http://www.w3.org/2000/svg" xmlns:xlink="http://www.w3.org/1999/xlink">
    <!-- Generator: Sketch 50.2 (55047) - http://www.bohemiancoding.com/sketch -->
    <title>logo</title>
    <desc>Created with Sketch.</desc>
    <defs></defs>
    <g id="logo" stroke="none" stroke-width="1" fill="none" fill-rule="evenodd">
        <path d="M9.47949219,8.9513672 L9.49609375,9.00117189 C9.51822928,10.3016341 9.12117921,11.3323042 8.30493164,12.0932129 C7.48868407,12.8541217 6.35563876,13.2345703 4.90576172,13.2345703 C3.4503508,13.2345703 2.26888475,12.7669643 1.36132812,11.8317383 C0.453771504,10.8965123 0,9.69291102 0,8.22089845 L0,5.82197267 C0,4.35549398 0.442703906,3.15189274 1.328125,2.21113282 C2.21354609,1.27037291 3.36457625,0.800000012 4.78125,0.800000012 C6.2753981,0.800000012 7.44302965,1.18321558 8.28417969,1.94965822 C9.12532973,2.71610085 9.53483084,3.76060538 9.51269531,5.08320314 L9.49609375,5.13300782 L7.13867188,5.13300782 C7.13867188,4.33612884 6.94775582,3.72602752 6.56591797,3.30268556 C6.18408012,2.8793436 5.58919675,2.66767579 4.78125,2.66767579 C4.05631148,2.66767579 3.4807964,2.96235058 3.0546875,3.551709 C2.6285786,4.14106741 2.41552734,4.8922806 2.41552734,5.80537111 L2.41552734,8.22089845 C2.41552734,9.14505672 2.6396462,9.90180371 3.08789062,10.4911621 C3.53613505,11.0805205 4.14208603,11.3751953 4.90576172,11.3751953 C5.66390353,11.3751953 6.22420066,11.1718282 6.58666992,10.7650879 C6.94913918,10.3583476 7.13037109,9.75378007 7.13037109,8.9513672 L9.47949219,8.9513672 Z M21.3926758,13.0602539 L18.9771484,13.0602539 L14.0962891,4.80097657 L14.0464844,4.80927736 L14.0464844,13.0602539 L11.6226563,13.0602539 L11.6226563,0.974316418 L14.0464844,0.974316418 L18.9273438,9.22529298 L18.9771484,9.2169922 L18.9771484,0.974316418 L21.3926758,0.974316418 L21.3926758,13.0602539 Z M28.2672852,6.54414064 L28.3170899,6.54414064 L30.9567383,0.974316418 L33.6129883,0.974316418 L29.4625977,8.81025392 L29.4625977,13.0602539 L27.0470703,13.0602539 L27.0470703,8.6857422 L22.9713867,0.974316418 L25.6276367,0.974316418 L28.2672852,6.54414064 Z M39.4583008,9.84785157 L39.6077149,10.5036133 L39.6575195,10.5036133 L39.7986328,9.86445314 L42.4299805,0.974316418 L44.9866211,0.974316418 L40.8777344,13.0602539 L38.3875,13.0602539 L34.2869141,0.974316418 L36.8435547,0.974316418 L39.4583008,9.84785157 Z M49.146875,13.0602539 L46.7230469,13.0602539 L46.7230469,0.974316418 L49.146875,0.974316418 L49.146875,13.0602539 Z M60.3129883,2.8419922 L56.8930664,2.8419922 L56.8930664,13.0602539 L54.4692383,13.0602539 L54.4692383,2.8419922 L51.065918,2.8419922 L51.065918,0.974316418 L60.3129883,0.974316418 L60.3129883,2.8419922 Z M67.7188477,10.4538086 L63.4771485,10.4538086 L62.6553711,13.0602539 L60.2066407,13.0602539 L64.3653321,0.974316418 L66.8472657,0.974316418 L70.9893555,13.0602539 L68.540625,13.0602539 L67.7188477,10.4538086 Z M64.0748047,8.5529297 L67.1211914,8.5529297 L65.6270508,3.80488282 L65.5772461,3.80488282 L64.0748047,8.5529297 Z M74.9420899,11.2008789 L80.3209961,11.2008789 L80.3209961,13.0602539 L72.5182618,13.0602539 L72.5182618,0.974316418 L74.9420899,0.974316418 L74.9420899,11.2008789 Z M88.6399415,9.90595704 C88.6399415,9.44111097 88.4753109,9.06757955 88.146045,8.78535157 C87.816779,8.5031236 87.2398805,8.23750126 86.4153321,7.98847657 C84.9765228,7.57343544 83.8891313,7.08092734 83.153125,6.51093751 C82.4171188,5.94094768 82.0491211,5.16068205 82.0491211,4.1701172 C82.0491211,3.17955235 82.4710733,2.37023427 83.3149903,1.74213868 C84.1589073,1.1140431 85.2366146,0.800000012 86.5481446,0.800000012 C87.8762762,0.800000012 88.9581339,1.15277969 89.79375,1.85834962 C90.6293662,2.56391956 91.0333335,3.43410942 91.0056641,4.46894532 L90.9890625,4.51875001 L88.6399415,4.51875001 C88.6399415,3.95982795 88.4531757,3.50743989 88.0796387,3.16157228 C87.7061017,2.81570466 87.1817743,2.64277345 86.5066407,2.64277345 C85.8591765,2.64277345 85.3583677,2.78665222 85.0041993,3.07441407 C84.6500308,3.36217593 84.4729493,3.73017355 84.4729493,4.17841798 C84.4729493,4.58792524 84.6624819,4.92410352 85.0415528,5.1869629 C85.4206237,5.44982229 86.0749954,5.72789568 87.0046875,6.02119142 C88.3383531,6.3919615 89.3482714,6.8817027 90.0344727,7.4904297 C90.7206741,8.0991567 91.0637696,8.89879063 91.0637696,9.88935548 C91.0637696,10.9241914 90.6556519,11.7404267 89.8394043,12.3380859 C89.0231568,12.9357452 87.9454495,13.2345703 86.60625,13.2345703 C85.2891862,13.2345703 84.1409229,12.8956251 83.1614258,12.2177246 C82.1819287,11.5398241 81.706022,10.5893941 81.7336915,9.36640626 L81.750293,9.31660157 L84.1077149,9.31660157 C84.1077149,10.0360062 84.3276834,10.5631006 84.767627,10.8979004 C85.2075706,11.2327003 85.8204388,11.4000977 86.60625,11.4000977 C87.264782,11.4000977 87.7683577,11.2645196 88.1169922,10.9933594 C88.4656268,10.7221992 88.6399415,10.3597354 88.6399415,9.90595704 Z M99.5554688,8.67744142 L99.5554688,13.0602539 L97.1316407,13.0602539 L97.1316407,0.974316418 L101.946094,0.974316418 C103.335098,0.974316418 104.428023,1.32847954 105.224902,2.03681642 C106.021781,2.74515329 106.420215,3.6775984 106.420215,4.8341797 C106.420215,5.990761 106.021781,6.92043921 105.224902,7.6232422 C104.428023,8.32604519 103.335098,8.67744142 101.946094,8.67744142 L99.5554688,8.67744142 Z M99.5554688,6.80976564 L101.946094,6.80976564 C102.621227,6.80976564 103.133104,6.62576683 103.481738,6.25776368 C103.830373,5.88976054 104.004688,5.42077109 104.004688,4.85078126 C104.004688,4.26972367 103.831756,3.78966662 103.485889,3.41059572 C103.140021,3.03152481 102.626761,2.8419922 101.946094,2.8419922 L99.5554688,2.8419922 L99.5554688,6.80976564 Z M110.628711,8.22919923 L110.628711,13.0602539 L108.204883,13.0602539 L108.204883,0.974316418 L112.762012,0.974316418 C114.139948,0.974316418 115.217656,1.2883595 115.995166,1.91645509 C116.772676,2.54455068 117.161426,3.42027434 117.161426,4.54365236 C117.161426,5.168981 116.998179,5.70575949 116.67168,6.15400392 C116.345181,6.60224835 115.866507,6.96471217 115.235645,7.24140626 C115.949515,7.45169377 116.462775,7.80309 116.77544,8.29560548 C117.088104,8.78812096 117.244434,9.39683884 117.244434,10.1217774 L117.244434,11.0099609 C117.244434,11.3475277 117.290087,11.7003074 117.381397,12.0683106 C117.472706,12.4363137 117.629035,12.7088533 117.850391,12.8859375 L117.850391,13.0602539 L115.351856,13.0602539 C115.1305,12.8831697 114.986621,12.5871115 114.920215,12.1720703 C114.853808,11.7570292 114.820606,11.3641295 114.820606,10.9933594 L114.820606,10.1383789 C114.820606,9.5351858 114.655975,9.06619635 114.326709,8.7313965 C113.997443,8.39659665 113.533987,8.22919923 112.936328,8.22919923 L110.628711,8.22919923 Z M110.628711,6.36152345 L112.720508,6.36152345 C113.401175,6.36152345 113.908901,6.21764468 114.243701,5.92988282 C114.578501,5.64212097 114.745898,5.21601846 114.745898,4.65156251 C114.745898,4.09817433 114.578501,3.65823732 114.243701,3.33173829 C113.908901,3.00523926 113.41501,2.8419922 112.762012,2.8419922 L110.628711,2.8419922 L110.628711,6.36152345 Z M129.164356,8.10468751 C129.164356,9.58776784 128.695366,10.8135043 127.757373,11.7819336 C126.81938,12.7503629 125.600561,13.2345703 124.100879,13.2345703 C122.612265,13.2345703 121.40313,12.7503629 120.473438,11.7819336 C119.543745,10.8135043 119.078906,9.58776784 119.078906,8.10468751 L119.078906,5.92988282 C119.078906,4.45233637 119.542362,3.22798338 120.469287,2.25678712 C121.396212,1.28559086 122.603964,0.800000012 124.092578,0.800000012 C125.59226,0.800000012 126.812463,1.28559086 127.753223,2.25678712 C128.693983,3.22798338 129.164356,4.45233637 129.164356,5.92988282 L129.164356,8.10468751 Z M126.740527,5.91328126 C126.740527,4.97252135 126.505341,4.20055641 126.034961,3.59736329 C125.564581,2.99417017 124.917127,2.69257814 124.092578,2.69257814 C123.26803,2.69257814 122.628876,2.99278672 122.175098,3.5932129 C121.721319,4.19363908 121.494434,4.96698747 121.494434,5.91328126 L121.494434,8.10468751 C121.494434,9.06204907 121.724086,9.8423147 122.183398,10.4455078 C122.642711,11.0487009 123.281864,11.350293 124.100879,11.350293 C124.930961,11.350293 125.578416,11.0487009 126.043262,10.4455078 C126.508108,9.8423147 126.740527,9.06204907 126.740527,8.10468751 L126.740527,5.91328126 Z" id="CNYVITALS-PRO" fill="#FFFFFF"></path>
    </g>
</svg>