<?xml version="1.0" encoding="UTF-8" standalone="no"?>
<svg width="190px" height="20px" viewBox="0 0 190 20" version="1.1" xmlns="http://www.w3.org/2000/svg" xmlns:xlink="http://www.w3.org/1999/xlink">
    <!-- Generator: Sketch 3.6.1 (26313) - http://www.bohemiancoding.com/sketch -->
    <title>1299 Cambridge St</title>
    <desc>Created with Sketch.</desc>
    <defs></defs>
    <g id="Welcome" stroke="none" stroke-width="1" fill="none" fill-rule="evenodd">
        <g id="Desktop-HD-Home" transform="translate(-978.000000, -3701.000000)" fill="#4A4A4A">
            <g id="Map" transform="translate(699.000000, 3456.000000)">
                <g transform="translate(178.000000, 189.000000)" id="1299-Cambridge-St">
                    <path d="M108.554001,69.82625 C108.716501,69.9887508 108.797751,70.1869988 108.797751,70.421 C108.797751,70.6550012 108.716501,70.8499992 108.554001,71.006 C108.3915,71.1620008 108.193252,71.24 107.959251,71.24 L101.933751,71.24 C101.699749,71.24 101.504751,71.1620008 101.348751,71.006 C101.19275,70.8499992 101.114751,70.6550012 101.114751,70.421 C101.114751,70.1869988 101.19275,69.9887508 101.348751,69.82625 C101.504751,69.6637492 101.699749,69.5825 101.933751,69.5825 L104.254251,69.5825 L104.254251,59.696 L102.265251,60.671 C102.20025,60.6970001 102.135251,60.7229999 102.070251,60.749 C102.00525,60.7750001 101.885001,60.788 101.709501,60.788 C101.534,60.788 101.368251,60.7100008 101.212251,60.554 C101.05625,60.3979992 100.978251,60.1672515 100.978251,59.86175 C100.978251,59.5562485 101.147249,59.3190008 101.485251,59.15 L104.137251,57.7655 C104.319252,57.6744995 104.50125,57.629 104.683251,57.629 L105.092751,57.629 C105.352752,57.629 105.57375,57.7199991 105.755751,57.902 C105.937752,58.0840009 106.028751,58.3049987 106.028751,58.565 L106.028751,69.5825 L107.959251,69.5825 C108.193252,69.5825 108.3915,69.6637492 108.554001,69.82625 L108.554001,69.82625 Z M121.851001,69.82625 C122.013501,69.9887508 122.094751,70.1869988 122.094751,70.421 C122.094751,70.6550012 122.013501,70.8499992 121.851001,71.006 C121.6885,71.1620008 121.490252,71.24 121.256251,71.24 L113.729251,71.24 C113.430249,71.24 113.183252,71.1457509 112.988251,70.95725 C112.79325,70.7687491 112.695751,70.5250015 112.695751,70.226 C112.695751,69.5369966 112.887499,68.9195027 113.271001,68.3735 C113.654502,67.8274973 114.135498,67.3205023 114.714001,66.8525 C115.292503,66.3844977 115.919747,65.9425021 116.595751,65.5265 C117.271754,65.1104979 117.898998,64.6945021 118.477501,64.2785 C119.056003,63.8624979 119.536999,63.4335022 119.920501,62.9915 C120.304002,62.5494978 120.495751,62.1075022 120.495751,61.6655 C120.495751,61.2234978 120.440501,60.8562515 120.330001,60.56375 C120.2195,60.2712485 120.047252,60.021001 119.813251,59.813 C119.293248,59.3449977 118.493756,59.111 117.414751,59.111 C116.257745,59.111 115.146256,59.3449977 114.080251,59.813 C113.95025,59.8780003 113.800751,59.9105 113.631751,59.9105 C113.46275,59.9105 113.310001,59.8390007 113.173501,59.696 C113.037,59.5529993 112.968751,59.3450014 112.968751,59.072 C112.968751,58.7989986 113.111749,58.5845008 113.397751,58.4285 C114.723757,57.7654967 116.166743,57.434 117.726751,57.434 C119.000757,57.434 120.060246,57.7979964 120.905251,58.526 C121.776255,59.2670037 122.211751,60.2224941 122.211751,61.3925 C122.211751,62.5755059 121.620256,63.7129945 120.437251,64.805 C119.917248,65.2730023 119.348504,65.7149979 118.731001,66.131 C118.113497,66.5470021 117.518753,66.9467481 116.946751,67.33025 C116.374748,67.7137519 115.861253,68.0907481 115.406251,68.46125 C114.951248,68.8317519 114.639251,69.2054981 114.470251,69.5825 L121.256251,69.5825 C121.490252,69.5825 121.6885,69.6637492 121.851001,69.82625 L121.851001,69.82625 Z M131.19925,66.287 C130.783248,66.3910005 130.276253,66.443 129.67825,66.443 C129.080247,66.443 128.508253,66.3357511 127.96225,66.12125 C127.416248,65.9067489 126.948252,65.598002 126.55825,65.195 C125.726246,64.3499958 125.31025,63.2385069 125.31025,61.8605 C125.31025,60.5864936 125.739246,59.5400041 126.59725,58.721 C127.507255,57.8629957 128.683743,57.434 130.12675,57.434 C131.608758,57.434 132.785246,57.836996 133.65625,58.643 C134.683256,59.6180049 135.26825,61.0609904 135.41125,62.972 C135.450251,63.4920026 135.46975,64.054247 135.46975,64.65875 C135.46975,65.263253 135.375501,65.9782459 135.187,66.80375 C134.9985,67.6292541 134.686503,68.3832466 134.251,69.06575 C133.815498,69.7482534 133.233754,70.3137478 132.50575,70.76225 C131.777747,71.2107522 130.942505,71.435 130,71.435 C129.057496,71.435 128.313253,71.3472509 127.76725,71.17175 C127.221248,70.9962491 126.753252,70.804501 126.36325,70.5965 C126.090249,70.4404992 125.95375,70.2325013 125.95375,69.9725 C125.95375,69.7124987 126.02525,69.5012508 126.16825,69.33875 C126.311251,69.1762492 126.47375,69.095 126.65575,69.095 C126.837751,69.095 127.039249,69.1469995 127.26025,69.251 C127.988254,69.5630016 128.781246,69.719 129.63925,69.719 C130.497255,69.719 131.189498,69.5402518 131.716,69.18275 C132.242503,68.8252482 132.655249,68.3930025 132.95425,67.886 C133.422253,67.0409958 133.69525,65.9880063 133.77325,64.727 C133.201248,65.4810038 132.343256,66.0009986 131.19925,66.287 L131.19925,66.287 Z M131.66725,59.384 C131.238248,59.188999 130.754003,59.0915 130.2145,59.0915 C129.674998,59.0915 129.220002,59.1662493 128.8495,59.31575 C128.478999,59.4652507 128.163752,59.6699987 127.90375,59.93 C127.357748,60.4760027 127.08475,61.1552459 127.08475,61.96775 C127.08475,62.7802541 127.325248,63.4594973 127.80625,64.0055 C128.287253,64.5515027 129.015246,64.8245 129.99025,64.8245 C131.004256,64.8245 131.849247,64.5645026 132.52525,64.0445 C132.993253,63.6934982 133.376749,63.2385028 133.67575,62.6795 C133.441749,60.9894915 132.772256,59.8910025 131.66725,59.384 L131.66725,59.384 Z M144.14525,66.287 C143.729248,66.3910005 143.222253,66.443 142.62425,66.443 C142.026247,66.443 141.454253,66.3357511 140.90825,66.12125 C140.362248,65.9067489 139.894252,65.598002 139.50425,65.195 C138.672246,64.3499958 138.25625,63.2385069 138.25625,61.8605 C138.25625,60.5864936 138.685246,59.5400041 139.54325,58.721 C140.453255,57.8629957 141.629743,57.434 143.07275,57.434 C144.554758,57.434 145.731246,57.836996 146.60225,58.643 C147.629256,59.6180049 148.21425,61.0609904 148.35725,62.972 C148.396251,63.4920026 148.41575,64.054247 148.41575,64.65875 C148.41575,65.263253 148.321501,65.9782459 148.133,66.80375 C147.944499,67.6292541 147.632503,68.3832466 147.197,69.06575 C146.761498,69.7482534 146.179754,70.3137478 145.45175,70.76225 C144.723747,71.2107522 143.888505,71.435 142.946,71.435 C142.003496,71.435 141.259253,71.3472509 140.71325,71.17175 C140.167248,70.9962491 139.699252,70.804501 139.30925,70.5965 C139.036249,70.4404992 138.89975,70.2325013 138.89975,69.9725 C138.89975,69.7124987 138.97125,69.5012508 139.11425,69.33875 C139.257251,69.1762492 139.419749,69.095 139.60175,69.095 C139.783751,69.095 139.985249,69.1469995 140.20625,69.251 C140.934254,69.5630016 141.727246,69.719 142.58525,69.719 C143.443255,69.719 144.135498,69.5402518 144.662,69.18275 C145.188503,68.8252482 145.601249,68.3930025 145.90025,67.886 C146.368253,67.0409958 146.64125,65.9880063 146.71925,64.727 C146.147248,65.4810038 145.289256,66.0009986 144.14525,66.287 L144.14525,66.287 Z M144.61325,59.384 C144.184248,59.188999 143.700003,59.0915 143.1605,59.0915 C142.620998,59.0915 142.166002,59.1662493 141.7955,59.31575 C141.424999,59.4652507 141.109752,59.6699987 140.84975,59.93 C140.303748,60.4760027 140.03075,61.1552459 140.03075,61.96775 C140.03075,62.7802541 140.271248,63.4594973 140.75225,64.0055 C141.233253,64.5515027 141.961246,64.8245 142.93625,64.8245 C143.950255,64.8245 144.795247,64.5645026 145.47125,64.0445 C145.939253,63.6934982 146.322749,63.2385028 146.62175,62.6795 C146.387749,60.9894915 145.718256,59.8910025 144.61325,59.384 L144.61325,59.384 Z M167.69725,68.822 C167.801251,68.7699997 167.947499,68.744 168.136,68.744 C168.324501,68.744 168.487,68.8187493 168.6235,68.96825 C168.760001,69.1177507 168.82825,69.289999 168.82825,69.485 C168.82825,69.8360018 168.685252,70.0829993 168.39925,70.226 C167.788247,70.5640017 167.135004,70.8499988 166.4395,71.084 C165.743997,71.3180012 164.912005,71.435 163.9435,71.435 C162.974995,71.435 162.074754,71.2757516 161.24275,70.95725 C160.410746,70.6387484 159.689253,70.1740031 159.07825,69.563 C157.778244,68.2889936 157.12825,66.5795107 157.12825,64.4345 C157.12825,62.2894893 157.778244,60.5800064 159.07825,59.306 C160.339257,58.0579938 161.96424,57.434 163.95325,57.434 C164.915255,57.434 165.743997,57.5509988 166.4395,57.785 C167.135004,58.0190012 167.667998,58.236749 168.0385,58.43825 C168.409002,58.639751 168.63325,58.8022494 168.71125,58.92575 C168.789251,59.0492506 168.82825,59.2052491 168.82825,59.39375 C168.82825,59.5822509 168.760001,59.7512493 168.6235,59.90075 C168.487,60.0502507 168.324501,60.125 168.136,60.125 C167.947499,60.125 167.801251,60.0990003 167.69725,60.047 C167.177248,59.7739986 166.644253,59.5530008 166.09825,59.384 C165.552248,59.2149992 164.873004,59.1305 164.0605,59.1305 C163.247996,59.1305 162.513504,59.2669986 161.857,59.54 C161.200497,59.8130014 160.651252,60.1899976 160.20925,60.671 C159.338246,61.6200047 158.90275,62.8744922 158.90275,64.4345 C158.90275,65.9945078 159.338246,67.2489953 160.20925,68.198 C161.158255,69.2250051 162.464742,69.7385 164.12875,69.7385 C164.895754,69.7385 165.552248,69.6540008 166.09825,69.485 C166.644253,69.3159992 167.177248,69.0950014 167.69725,68.822 L167.69725,68.822 Z M172.25825,61.802 C173.350256,61.3339977 174.481244,61.1 175.65125,61.1 C176.977257,61.1 178.004247,61.502996 178.73225,62.309 C179.382253,63.0110035 179.70725,63.8884947 179.70725,64.9415 L179.70725,70.46 C179.70725,70.7070012 179.619501,70.9149992 179.444,71.084 C179.268499,71.2530008 179.057251,71.3375 178.81025,71.3375 C178.563249,71.3375 178.355251,71.2530008 178.18625,71.084 C178.017249,70.9149992 177.93275,70.7070012 177.93275,70.46 L177.93275,69.953 C177.581748,70.3170018 177.110503,70.6549984 176.519,70.967 C175.927497,71.2790016 175.176755,71.435 174.26675,71.435 C173.369746,71.435 172.622253,71.1750026 172.02425,70.655 C171.400247,70.1089973 171.08825,69.3940044 171.08825,68.51 C171.08825,67.5479952 171.452247,66.7940027 172.18025,66.248 C172.973254,65.649997 174.104243,65.351 175.57325,65.351 L177.93275,65.351 L177.93275,65.195 C177.93275,64.3239956 177.718252,63.7032519 177.28925,63.33275 C176.860248,62.9622481 176.203755,62.777 175.31975,62.777 C174.565746,62.777 173.701255,62.9329984 172.72625,63.245 C172.62225,63.2710001 172.505251,63.284 172.37525,63.284 C172.24525,63.284 172.108751,63.2157507 171.96575,63.07925 C171.822749,62.9427493 171.75125,62.7315014 171.75125,62.4455 C171.75125,62.1594986 171.920248,61.9450007 172.25825,61.802 L172.25825,61.802 Z M172.86275,68.315 C172.86275,69.3550052 173.551743,69.875 174.92975,69.875 C175.540753,69.875 176.109498,69.7255015 176.636,69.4265 C177.162503,69.1274985 177.594748,68.7895019 177.93275,68.4125 L177.93275,66.7745 L175.80725,66.7745 C174.884246,66.7745 174.162753,66.8914988 173.64275,67.1255 C173.122748,67.3595012 172.86275,67.7559972 172.86275,68.315 L172.86275,68.315 Z M185.18475,62.894 C185.977754,61.697994 187.082743,61.1 188.49975,61.1 C189.201754,61.1 189.838747,61.3079979 190.41075,61.724 C190.878752,62.0490016 191.236249,62.510497 191.48325,63.1085 C191.847252,62.5364971 192.204748,62.1335012 192.55575,61.8995 C193.296754,61.3664973 194.135245,61.1 195.07125,61.1 C196.124255,61.1 196.949747,61.502996 197.54775,62.309 C198.067753,62.9980034 198.32775,63.842995 198.32775,64.844 L198.32775,70.46 C198.32775,70.7070012 198.240001,70.9149992 198.0645,71.084 C197.888999,71.2530008 197.677751,71.3375 197.43075,71.3375 C197.183749,71.3375 196.975751,71.2530008 196.80675,71.084 C196.637749,70.9149992 196.55325,70.7070012 196.55325,70.46 L196.55325,65.195 C196.55325,64.3759959 196.407002,63.761752 196.1145,63.35225 C195.821999,62.942748 195.305254,62.738 194.56425,62.738 C193.420244,62.738 192.484254,63.3619938 191.75625,64.61 L191.75625,70.46 C191.75625,70.7070012 191.668501,70.9149992 191.493,71.084 C191.317499,71.2530008 191.106251,71.3375 190.85925,71.3375 C190.612249,71.3375 190.404251,71.2530008 190.23525,71.084 C190.066249,70.9149992 189.98175,70.7070012 189.98175,70.46 L189.98175,65.195 C189.98175,64.3759959 189.835502,63.761752 189.543,63.35225 C189.250499,62.942748 188.733754,62.738 187.99275,62.738 C186.848744,62.738 185.912754,63.3619938 185.18475,64.61 L185.18475,70.46 C185.18475,70.7070012 185.097001,70.9149992 184.9215,71.084 C184.745999,71.2530008 184.534751,71.3375 184.28775,71.3375 C184.040749,71.3375 183.832751,71.2530008 183.66375,71.084 C183.494749,70.9149992 183.41025,70.7070012 183.41025,70.46 L183.41025,62.0945 C183.41025,61.8474988 183.494749,61.6362509 183.66375,61.46075 C183.832751,61.2852491 184.040749,61.1975 184.28775,61.1975 C184.534751,61.1975 184.745999,61.2852491 184.9215,61.46075 C185.097001,61.6362509 185.18475,61.8474988 185.18475,62.0945 L185.18475,62.894 Z M203.80525,62.582 C204.767255,61.5939951 205.878744,61.1 207.13975,61.1 C208.400756,61.1 209.479746,61.5484955 210.37675,62.4455 C211.364755,63.4335049 211.85875,64.7074922 211.85875,66.2675 C211.85875,67.8535079 211.364755,69.1339951 210.37675,70.109 C209.466745,70.9930044 208.384506,71.435 207.13,71.435 C205.875494,71.435 204.767255,70.9410049 203.80525,69.953 L203.80525,70.46 C203.80525,70.7070012 203.720751,70.9149992 203.55175,71.084 C203.382749,71.2530008 203.171501,71.3375 202.918,71.3375 C202.664499,71.3375 202.453251,71.2530008 202.28425,71.084 C202.115249,70.9149992 202.03075,70.7070012 202.03075,70.46 L202.03075,57.8045 C202.03075,57.5444987 202.115249,57.3300008 202.28425,57.161 C202.453251,56.9919992 202.664499,56.9075 202.918,56.9075 C203.171501,56.9075 203.382749,56.9919992 203.55175,57.161 C203.720751,57.3300008 203.80525,57.5444987 203.80525,57.8045 L203.80525,62.582 Z M203.80525,68.315 C204.689254,69.2900049 205.716244,69.7775 206.88625,69.7775 C208.368257,69.7775 209.356248,69.1145066 209.85025,67.7885 C210.006251,67.3464978 210.08425,66.8395029 210.08425,66.2675 C210.08425,65.1494944 209.785253,64.2720032 209.18725,63.635 C208.615247,63.0499971 207.848255,62.7575 206.88625,62.7575 C205.716244,62.7575 204.689254,63.2449951 203.80525,64.22 L203.80525,68.315 Z M216.80975,62.933 C217.719755,61.7109939 218.740244,61.1 219.87125,61.1 L219.96875,61.1 C220.215751,61.1 220.420499,61.1844992 220.583,61.3535 C220.745501,61.5225008 220.82675,61.7337487 220.82675,61.98725 C220.82675,62.2407513 220.742251,62.4422493 220.57325,62.59175 C220.404249,62.7412507 220.189751,62.816 219.92975,62.816 L219.83225,62.816 C219.182247,62.816 218.600503,62.9752484 218.087,63.29375 C217.573497,63.6122516 217.147752,64.0249975 216.80975,64.532 L216.80975,70.46 C216.80975,70.7070012 216.722001,70.9149992 216.5465,71.084 C216.370999,71.2530008 216.159751,71.3375 215.91275,71.3375 C215.665749,71.3375 215.457751,71.2530008 215.28875,71.084 C215.119749,70.9149992 215.03525,70.7070012 215.03525,70.46 L215.03525,62.0945 C215.03525,61.8474988 215.119749,61.6362509 215.28875,61.46075 C215.457751,61.2852491 215.665749,61.1975 215.91275,61.1975 C216.159751,61.1975 216.370999,61.2852491 216.5465,61.46075 C216.722001,61.6362509 216.80975,61.8474988 216.80975,62.0945 L216.80975,62.933 Z M223.61325,61.451 C223.782251,61.2819992 223.993499,61.1975 224.247,61.1975 C224.500501,61.1975 224.711749,61.2819992 224.88075,61.451 C225.049751,61.6200008 225.13425,61.8344987 225.13425,62.0945 L225.13425,70.46 C225.13425,70.7070012 225.049751,70.9149992 224.88075,71.084 C224.711749,71.2530008 224.500501,71.3375 224.247,71.3375 C223.993499,71.3375 223.782251,71.2530008 223.61325,71.084 C223.444249,70.9149992 223.35975,70.7070012 223.35975,70.46 L223.35975,62.0945 C223.35975,61.8344987 223.444249,61.6200008 223.61325,61.451 L223.61325,61.451 Z M225.30975,58.2725 C225.30975,58.5455014 225.212251,58.779499 225.01725,58.9745 C224.822249,59.169501 224.588251,59.267 224.31525,59.267 L224.19825,59.267 C223.925249,59.267 223.691251,59.169501 223.49625,58.9745 C223.301249,58.779499 223.20375,58.5455014 223.20375,58.2725 L223.20375,58.1945 C223.20375,57.9214986 223.301249,57.687501 223.49625,57.4925 C223.691251,57.297499 223.925249,57.2 224.19825,57.2 L224.31525,57.2 C224.588251,57.2 224.822249,57.297499 225.01725,57.4925 C225.212251,57.687501 225.30975,57.9214986 225.30975,58.1945 L225.30975,58.2725 Z M236.44225,69.953 C235.480245,70.9410049 234.368756,71.435 233.10775,71.435 C231.859744,71.435 230.780754,70.9930044 229.87075,70.109 C228.882745,69.1339951 228.38875,67.8535079 228.38875,66.2675 C228.38875,64.7074922 228.882745,63.4335049 229.87075,62.4455 C230.767754,61.5484955 231.846744,61.1 233.10775,61.1 C234.368756,61.1 235.480245,61.5939951 236.44225,62.582 L236.44225,57.8045 C236.44225,57.5444987 236.526749,57.3300008 236.69575,57.161 C236.864751,56.9919992 237.075999,56.9075 237.3295,56.9075 C237.583001,56.9075 237.794249,56.9919992 237.96325,57.161 C238.132251,57.3300008 238.21675,57.5444987 238.21675,57.8045 L238.21675,70.46 C238.21675,70.7070012 238.132251,70.9149992 237.96325,71.084 C237.794249,71.2530008 237.583001,71.3375 237.3295,71.3375 C237.075999,71.3375 236.864751,71.2530008 236.69575,71.084 C236.526749,70.9149992 236.44225,70.7070012 236.44225,70.46 L236.44225,69.953 Z M236.44225,64.22 C235.558245,63.2449951 234.531256,62.7575 233.36125,62.7575 C231.879242,62.7575 230.897752,63.4204934 230.41675,64.7465 C230.247749,65.1885022 230.16325,65.6954971 230.16325,66.2675 C230.16325,67.3855056 230.468747,68.2629968 231.07975,68.9 C231.638753,69.4850029 232.399245,69.7775 233.36125,69.7775 C234.531256,69.7775 235.558245,69.2900049 236.44225,68.315 L236.44225,64.22 Z M249.44675,62.582 L249.44675,62.0945 C249.44675,61.8474988 249.531249,61.6362509 249.70025,61.46075 C249.869251,61.2852491 250.077249,61.1975 250.32425,61.1975 C250.571251,61.1975 250.782499,61.2852491 250.958,61.46075 C251.133501,61.6362509 251.22125,61.8474988 251.22125,62.0945 L251.22125,70.811 C251.22125,72.4620083 250.824754,73.7262456 250.03175,74.60375 C249.238746,75.4812544 248.107757,75.92 246.63875,75.92 C245.078742,75.92 243.687756,75.5820034 242.46575,74.906 C242.231749,74.7629993 242.11475,74.5647513 242.11475,74.31125 C242.11475,74.0577487 242.189499,73.8465008 242.339,73.6775 C242.4885,73.5084992 242.644499,73.424 242.807,73.424 C242.969501,73.424 243.115749,73.4499997 243.24575,73.502 C244.233755,73.9960025 245.306244,74.243 246.46325,74.243 C248.45226,74.243 249.44675,73.1835106 249.44675,71.0645 L249.44675,69.758 C248.523745,70.7460049 247.412256,71.24 246.11225,71.24 C244.877244,71.24 243.817754,70.8240042 242.93375,69.992 C241.906745,69.0429953 241.39325,67.769008 241.39325,66.17 C241.39325,64.570992 241.906745,63.2970047 242.93375,62.348 C243.817754,61.5159958 244.893493,61.1 246.161,61.1 C247.428506,61.1 248.523745,61.5939951 249.44675,62.582 L249.44675,62.582 Z M249.44675,64.1615 C249.082748,63.7844981 248.666752,63.4497515 248.19875,63.15725 C247.730747,62.8647485 247.210753,62.7185 246.63875,62.7185 C246.066747,62.7185 245.579252,62.7899993 245.17625,62.933 C244.773248,63.0760007 244.422251,63.2839986 244.12325,63.557 C243.486247,64.155003 243.16775,65.0259943 243.16775,66.17 C243.16775,67.8470084 243.837243,68.9259976 245.17625,69.407 C245.579252,69.5500007 246.066747,69.6215 246.63875,69.6215 C247.587754,69.6215 248.523745,69.1405048 249.44675,68.1785 L249.44675,64.1615 Z M257.20575,68.9975 C257.764752,69.5175026 258.544745,69.7775 259.54575,69.7775 C260.546755,69.7775 261.385246,69.6085017 262.06125,69.2705 C262.295251,69.1534994 262.496749,69.095 262.66575,69.095 C262.834751,69.095 262.997249,69.1664993 263.15325,69.3095 C263.30925,69.4525007 263.38725,69.6149991 263.38725,69.797 C263.38725,70.1350017 263.247501,70.3787493 262.968,70.52825 C262.688498,70.6777507 262.438251,70.8044995 262.21725,70.9085 C261.996249,71.0125005 261.755751,71.1034996 261.49575,71.1815 C260.910747,71.3505008 260.234754,71.435 259.46775,71.435 C257.868742,71.435 256.627254,70.9865045 255.74325,70.0895 C254.859245,69.1924955 254.41725,67.9185083 254.41725,66.2675 C254.41725,64.8374928 254.787746,63.6480047 255.52875,62.699 C256.360754,61.6329947 257.543742,61.1 259.07775,61.1 C260.533757,61.1 261.684245,61.5939951 262.52925,62.582 C263.322254,63.5050046 263.71875,64.6489932 263.71875,66.014 C263.71875,66.2610012 263.6375,66.4689992 263.475,66.638 C263.312499,66.8070008 263.094751,66.8915 262.82175,66.8915 L256.21125,66.8915 C256.31525,67.7755044 256.646747,68.4774974 257.20575,68.9975 L257.20575,68.9975 Z M259.07775,62.6015 C257.920744,62.6015 257.075752,63.1149949 256.54275,64.142 C256.347749,64.5060018 256.23725,64.9414975 256.21125,65.4485 L261.96375,65.4485 C261.911749,64.5254954 261.573753,63.7975027 260.94975,63.2645 C260.429747,62.8224978 259.805753,62.6015 259.07775,62.6015 L259.07775,62.6015 Z M277.05275,69.758 C279.327761,69.758 280.46525,69.0105075 280.46525,67.5155 C280.46525,66.8914969 280.029754,66.3910019 279.15875,66.014 C278.781748,65.8579992 278.343002,65.7182506 277.8425,65.59475 C277.341997,65.4712494 276.835002,65.3380007 276.3215,65.195 C275.807997,65.0519993 275.301002,64.8895009 274.8005,64.7075 C274.299997,64.5254991 273.854751,64.2915014 273.46475,64.0055 C272.606745,63.3554967 272.17775,62.4975053 272.17775,61.4315 C272.17775,60.2874943 272.606745,59.3515036 273.46475,58.6235 C274.400754,57.830496 275.655242,57.434 277.22825,57.434 C278.645257,57.434 279.938744,57.6484979 281.10875,58.0775 C281.472751,58.2075006 281.65475,58.467498 281.65475,58.8575 C281.65475,59.052501 281.5865,59.2377491 281.45,59.41325 C281.313499,59.5887509 281.164,59.6765 281.0015,59.6765 C280.838999,59.6765 280.614751,59.6245005 280.32875,59.5205 C279.483745,59.2214985 278.515255,59.072 277.42325,59.072 C276.422245,59.072 275.596753,59.2604981 274.94675,59.6375 C274.283746,60.0275019 273.95225,60.5799964 273.95225,61.295 C273.95225,62.0360037 274.381245,62.5949981 275.23925,62.972 C275.629251,63.1540009 276.071247,63.3034994 276.56525,63.4205 C277.059252,63.5375006 277.566247,63.6609993 278.08625,63.791 C278.606252,63.9210006 279.113247,64.0737491 279.60725,64.24925 C280.101252,64.4247509 280.543248,64.6554986 280.93325,64.9415 C281.791254,65.5655031 282.22025,66.4624941 282.22025,67.6325 C282.22025,68.7505056 281.771754,69.6604965 280.87475,70.3625 C279.951745,71.0775036 278.736257,71.435 277.22825,71.435 C275.577241,71.435 274.030257,71.1230031 272.58725,70.499 C272.444249,70.4339997 272.3175,70.3300007 272.207,70.187 C272.096499,70.0439993 272.04125,69.871751 272.04125,69.67025 C272.04125,69.468749 272.112749,69.2867508 272.25575,69.12425 C272.39875,68.9617492 272.564499,68.8805 272.753,68.8805 C272.9415,68.8805 273.175498,68.9422494 273.455,69.06575 C273.734501,69.1892506 274.192746,69.3354992 274.82975,69.5045 C275.466753,69.6735008 276.207745,69.758 277.05275,69.758 L277.05275,69.758 Z M289.247999,69.78725 C289.3975,69.7287497 289.559999,69.6995 289.735499,69.6995 C289.911,69.6995 290.070249,69.7644993 290.213249,69.8945 C290.35625,70.0245006 290.427749,70.2194987 290.427749,70.4795 C290.427749,70.7395013 290.297751,70.9279994 290.037749,71.045 C289.478747,71.3050013 289.001001,71.435 288.604499,71.435 C288.207997,71.435 287.847251,71.4155002 287.522249,71.3765 C287.197248,71.3374998 286.885251,71.2270009 286.586249,71.045 C285.871246,70.6289979 285.513749,69.9010052 285.513749,68.861 L285.513749,62.816 L284.129249,62.816 C283.882248,62.816 283.758749,62.6925012 283.758749,62.4455 C283.758749,62.3284994 283.817249,62.2180005 283.934249,62.114 L286.586249,59.5205 C286.70325,59.4034994 286.813749,59.345 286.917749,59.345 C287.02175,59.345 287.109499,59.3839996 287.180999,59.462 C287.2525,59.5400004 287.288249,59.6309995 287.288249,59.735 L287.288249,61.295 L289.491749,61.295 C289.712751,61.295 289.894749,61.3664993 290.037749,61.5095 C290.18075,61.6525007 290.252249,61.8344989 290.252249,62.0555 C290.252249,62.2765011 290.18075,62.4584993 290.037749,62.6015 C289.894749,62.7445007 289.712751,62.816 289.491749,62.816 L287.288249,62.816 L287.288249,68.705 C287.288249,69.1990025 287.437748,69.5369991 287.736749,69.719 C287.90575,69.8230005 288.162498,69.875 288.506999,69.875 C288.851501,69.875 289.098499,69.8457503 289.247999,69.78725 L289.247999,69.78725 Z"></path>
                </g>
            </g>
        </g>
    </g>
</svg>