<?xml version="1.0" encoding="UTF-8" standalone="no"?>
<svg width="132px" height="132px" viewBox="0 0 132 132" version="1.1" xmlns="http://www.w3.org/2000/svg" xmlns:xlink="http://www.w3.org/1999/xlink">
    <!-- Generator: Sketch 3.6.1 (26313) - http://www.bohemiancoding.com/sketch -->
    <title>icon</title>
    <desc>Created with Sketch.</desc>
    <defs></defs>
    <g id="Welcome" stroke="none" stroke-width="1" fill="none" fill-rule="evenodd">
        <g id="Desktop-HD-Home" transform="translate(-657.000000, -4430.000000)">
            <g id="Footer" transform="translate(0.000000, 4302.000000)">
                <g id="icon">
                    <g transform="translate(657.000000, 128.000000)">
                        <path d="M131.287,65.643 C131.287,101.897 101.897,131.286 65.642,131.286 C29.389,131.286 0,101.897 0,65.643 C0,29.389 29.389,0 65.642,0 C101.897,0 131.287,29.389 131.287,65.643" id="Fill-1" fill="#F1F1F2"></path>
                        <path d="M92.3876,38.4018 L65.6436,38.4018 L38.9006,38.4018 L25.5286,60.9688 L65.6436,107.6838 L105.7586,60.9688 L92.3876,38.4018 Z" id="Fill-3" fill="#F1F1F2"></path>
                        <path d="M25.5282,60.9692 L38.9002,38.4022 L52.2712,60.9692 L25.5282,60.9692 L25.5282,60.9692 Z" id="Stroke-5" stroke="#FFCC67" stroke-width="5.361" stroke-linecap="round" stroke-linejoin="round"></path>
                        <path d="M52.2714,60.9692 L65.6434,38.4022 L79.0154,60.9692 L52.2714,60.9692 L52.2714,60.9692 Z" id="Stroke-7" stroke="#FFCC67" stroke-width="5.361" stroke-linecap="round" stroke-linejoin="round"></path>
                        <path d="M79.0155,60.9692 L92.3875,38.4022 L105.7585,60.9692 L79.0155,60.9692 L79.0155,60.9692 Z" id="Stroke-9" stroke="#FFCC67" stroke-width="5.361" stroke-linecap="round" stroke-linejoin="round"></path>
                        <path d="M38.9003,38.4018 L52.2713,60.9688 L65.6433,38.4018 L38.9003,38.4018 L38.9003,38.4018 Z" id="Stroke-11" stroke="#FFCC67" stroke-width="5.361" stroke-linecap="round" stroke-linejoin="round"></path>
                        <path d="M65.6435,38.4018 L79.0155,60.9688 L92.3875,38.4018 L65.6435,38.4018 L65.6435,38.4018 Z" id="Stroke-13" stroke="#FFCC67" stroke-width="5.361" stroke-linecap="round" stroke-linejoin="round"></path>
                        <path d="M25.5282,60.9692 L65.6432,107.6842 L52.2712,60.9692 L25.5282,60.9692 L25.5282,60.9692 Z" id="Stroke-15" stroke="#FFCC67" stroke-width="5.361" stroke-linecap="round" stroke-linejoin="round"></path>
                        <path d="M65.6435,107.684 L105.7585,60.969 L79.0155,60.969 L65.6435,107.684 L65.6435,107.684 Z" id="Stroke-17" stroke="#FFCC67" stroke-width="5.361" stroke-linecap="round" stroke-linejoin="round"></path>
                        <path d="M52.2714,60.9692 L79.0154,60.9692 L65.6434,107.6842 L52.2714,60.9692 L52.2714,60.9692 Z" id="Stroke-19" stroke="#FFCC67" stroke-width="5.361" stroke-linecap="round" stroke-linejoin="round"></path>
                        <path d="M89.4716,98.8676 C93.8246,98.8676 93.8246,94.5136 93.8246,94.5136 C93.8246,94.5136 93.8246,98.8676 98.1786,98.8676 C98.1786,98.8676 93.8246,98.8676 93.8246,103.2216 C93.8246,103.2216 93.8246,98.8676 89.4716,98.8676" id="Fill-21" fill="#676767"></path>
                        <path d="M89.4716,98.8676 C93.8246,98.8676 93.8246,94.5136 93.8246,94.5136 C93.8246,94.5136 93.8246,98.8676 98.1786,98.8676 C98.1786,98.8676 93.8246,98.8676 93.8246,103.2216 C93.8246,103.2216 93.8246,98.8676 89.4716,98.8676 L89.4716,98.8676 Z" id="Stroke-23" stroke="#676767" stroke-width="2.701" stroke-linejoin="round"></path>
                        <path d="M26.6244,38.8818 C38.1754,38.8818 38.1754,27.3288 38.1754,27.3288 C38.1754,27.3288 38.1754,38.8818 49.7284,38.8818 C49.7284,38.8818 38.1754,38.8818 38.1754,50.4338 C38.1754,50.4338 38.1754,38.8818 26.6244,38.8818" id="Fill-25" fill="#676767"></path>
                        <path d="M26.6244,38.8818 C38.1754,38.8818 38.1754,27.3288 38.1754,27.3288 C38.1754,27.3288 38.1754,38.8818 49.7284,38.8818 C49.7284,38.8818 38.1754,38.8818 38.1754,50.4338 C38.1754,50.4338 38.1754,38.8818 26.6244,38.8818 L26.6244,38.8818 Z" id="Stroke-27" stroke="#676767" stroke-width="2.701" stroke-linejoin="round"></path>
                    </g>
                </g>
            </g>
        </g>
    </g>
</svg>