<?xml version="1.0" encoding="utf-8"?>
<!-- Generator: Adobe Illustrator 16.0.4, SVG Export Plug-In . SVG Version: 6.00 Build 0)  -->
<!DOCTYPE svg PUBLIC "-//W3C//DTD SVG 1.1//EN" "http://www.w3.org/Graphics/SVG/1.1/DTD/svg11.dtd">
<svg version="1.1" id="Layer_1" xmlns="http://www.w3.org/2000/svg" xmlns:xlink="http://www.w3.org/1999/xlink" x="0px" y="0px"
	 width="228.225px" height="156.801px" viewBox="0 0 228.225 156.801" enable-background="new 0 0 228.225 156.801"
	 xml:space="preserve">
<circle fill="#FFFFFF" cx="113.454" cy="95.46" r="32.5"/>
<title>Page 1</title>
<desc>Created with Sketch.</desc>
<g id="Welcome">
	<g id="Desktop-HD-Home" transform="translate(-1036.000000, -3762.000000)">
		<g id="Map" transform="translate(699.000000, 3456.000000)">
			<g id="Page-1" transform="translate(178.000000, 189.000000)">
				<g transform="translate(159.656250, 117.120000)">
					<path id="Fill-1" fill="#CA9831" d="M135.124,114.563l-2.078-2.082c3.891-4.608,6.234-10.563,6.234-17.074
						c0-6.51-2.347-12.467-6.234-17.074l2.078-2.082c4.416,5.143,7.088,11.838,7.088,19.156
						C142.211,102.727,139.54,109.42,135.124,114.563L135.124,114.563z M112.908,124.787c-7.303,0-13.979-2.682-19.11-7.107
						l2.081-2.084c4.593,3.9,10.536,6.252,17.029,6.252c6.488,0,12.433-2.352,17.029-6.252l2.078,2.084
						C126.885,122.108,120.208,124.787,112.908,124.787L112.908,124.787z M90.69,114.563c-4.418-5.144-7.088-11.836-7.088-19.156
						c0-7.317,2.67-14.014,7.088-19.156l2.078,2.082c-3.89,4.605-6.236,10.564-6.236,17.074c0,6.511,2.347,12.466,6.236,17.074
						L90.69,114.563z M131.954,95.405c0-6.274-3.021-11.846-7.685-15.323l1.474-2.558c5.534,4.002,9.143,10.519,9.143,17.881
						c0,7.365-3.606,13.879-9.143,17.884l-1.474-2.558C128.934,107.252,131.954,101.679,131.954,95.405L131.954,95.405z
						 M116.733,109.586l-0.338-2.963c5.271-1.641,8.808-6.85,8.156-12.549c-0.648-5.699-5.261-9.979-10.769-10.387l-0.337-2.963
						c7.126,0.256,13.186,5.699,14.017,13.018C128.296,101.056,123.616,107.731,116.733,109.586L116.733,109.586z M93.988,97.61
						c1.092,9.508,9.145,16.896,18.921,16.896c2.685,0,5.238-0.562,7.558-1.568l1.473,2.561c-2.756,1.246-5.811,1.945-9.029,1.945
						c-11.397,0-20.768-8.697-21.868-19.832L93.988,97.61L93.988,97.61z M93.988,93.203H91.04
						c1.102-11.136,10.471-19.831,21.868-19.831c3.22,0,6.273,0.699,9.029,1.947l-1.473,2.557c-2.318-1.006-4.873-1.566-7.558-1.566
						C103.13,76.309,95.079,83.694,93.988,93.203L93.988,93.203z M101.26,96.739c0.647,5.699,5.262,9.979,10.767,10.386l0.339,2.963
						c-7.125-0.254-13.184-5.699-14.018-13.017c-0.832-7.315,3.848-13.987,10.732-15.847l0.335,2.964
						C104.147,85.828,100.612,91.037,101.26,96.739L101.26,96.739z M112.908,66.026c7.3,0,13.978,2.679,19.107,7.107l-2.078,2.084
						c-4.598-3.9-10.541-6.252-17.029-6.252c-6.493,0-12.438,2.352-17.029,6.252l-2.081-2.084
						C98.928,68.704,105.606,66.026,112.908,66.026L112.908,66.026z M87.483,69.516c-14.041,14.078-14.041,36.9,0,50.974
						l25.424,33.012l25.421-33.012c14.042-14.074,14.042-36.896,0-50.974C124.289,55.44,101.524,55.44,87.483,69.516z"/>
				</g>
			</g>
		</g>
	</g>
</g>
<g>
	<path fill="#666666" d="M7.984,13.615c0.171,0.171,0.258,0.38,0.258,0.627s-0.087,0.452-0.258,0.617
		c-0.172,0.165-0.38,0.247-0.627,0.247h-6.35c-0.247,0-0.453-0.082-0.616-0.247c-0.165-0.165-0.247-0.37-0.247-0.617
		s0.082-0.456,0.247-0.627c0.164-0.17,0.37-0.257,0.616-0.257h2.445V2.939L1.356,3.967C1.288,3.994,1.219,4.021,1.15,4.049
		c-0.067,0.027-0.193,0.04-0.38,0.04c-0.185,0-0.358-0.082-0.522-0.247C0.082,3.678,0,3.435,0,3.114c0-0.321,0.177-0.572,0.534-0.75
		l2.795-1.459C3.521,0.809,3.713,0.76,3.904,0.76h0.433c0.273,0,0.506,0.096,0.699,0.288c0.19,0.192,0.286,0.425,0.286,0.699v11.611
		h2.035C7.604,13.358,7.812,13.444,7.984,13.615z"/>
	<path fill="#666666" d="M21.26,13.615c0.171,0.171,0.256,0.38,0.256,0.627s-0.085,0.452-0.256,0.617s-0.381,0.247-0.627,0.247H12.7
		c-0.315,0-0.575-0.1-0.781-0.298c-0.206-0.199-0.31-0.456-0.31-0.771c0-0.726,0.202-1.377,0.606-1.953
		c0.405-0.575,0.912-1.109,1.521-1.603c0.61-0.492,1.271-0.958,1.983-1.397c0.712-0.438,1.373-0.876,1.983-1.315
		c0.608-0.438,1.115-0.89,1.521-1.356c0.404-0.465,0.606-0.932,0.606-1.397c0-0.466-0.06-0.853-0.176-1.161
		c-0.115-0.309-0.298-0.572-0.544-0.792c-0.549-0.493-1.391-0.739-2.527-0.739c-1.221,0-2.392,0.247-3.516,0.739
		c-0.137,0.069-0.294,0.103-0.473,0.103c-0.178,0-0.338-0.075-0.482-0.226c-0.144-0.15-0.216-0.37-0.216-0.657
		c0-0.287,0.151-0.514,0.452-0.678c1.397-0.699,2.918-1.049,4.562-1.049c1.343,0,2.459,0.384,3.35,1.151
		c0.917,0.781,1.377,1.789,1.377,3.021c0,1.247-0.624,2.446-1.871,3.597c-0.548,0.493-1.146,0.959-1.798,1.397
		c-0.651,0.439-1.278,0.859-1.881,1.264c-0.604,0.404-1.145,0.801-1.623,1.191c-0.48,0.391-0.81,0.785-0.986,1.182h7.151
		C20.879,13.358,21.088,13.444,21.26,13.615z"/>
	<path fill="#666666" d="M30.374,9.885c-0.439,0.109-0.974,0.164-1.604,0.164s-1.232-0.113-1.809-0.339
		c-0.575-0.227-1.068-0.552-1.479-0.977c-0.877-0.89-1.314-2.062-1.314-3.514c0-1.343,0.452-2.446,1.355-3.309
		c0.958-0.904,2.198-1.356,3.72-1.356c1.562,0,2.801,0.425,3.719,1.274c1.082,1.028,1.699,2.548,1.85,4.562
		c0.041,0.548,0.062,1.141,0.062,1.778c0,0.636-0.101,1.391-0.298,2.26c-0.198,0.871-0.528,1.665-0.986,2.384
		c-0.459,0.719-1.072,1.315-1.84,1.788c-0.769,0.472-1.647,0.709-2.642,0.709c-0.993,0-1.777-0.093-2.353-0.278
		c-0.575-0.185-1.069-0.387-1.479-0.606c-0.288-0.165-0.431-0.384-0.431-0.657c0-0.274,0.075-0.497,0.226-0.668
		c0.151-0.171,0.322-0.256,0.515-0.256c0.191,0,0.404,0.054,0.637,0.164c0.769,0.329,1.604,0.494,2.507,0.494
		c0.904,0,1.633-0.188,2.188-0.565c0.555-0.376,0.989-0.832,1.305-1.366c0.493-0.891,0.781-2,0.864-3.329
		C32.483,9.035,31.579,9.584,30.374,9.885z M30.867,2.61c-0.452-0.206-0.963-0.309-1.53-0.309c-0.569,0-1.048,0.08-1.439,0.237
		c-0.391,0.157-0.723,0.373-0.998,0.647c-0.574,0.575-0.862,1.291-0.862,2.147s0.253,1.572,0.76,2.147s1.273,0.863,2.302,0.863
		c1.069,0,1.959-0.273,2.672-0.822c0.493-0.37,0.897-0.849,1.212-1.438C32.737,4.302,32.032,3.144,30.867,2.61z"/>
	<path fill="#666666" d="M43.28,9.885c-0.438,0.109-0.974,0.164-1.603,0.164c-0.631,0-1.233-0.113-1.809-0.339
		c-0.576-0.227-1.069-0.552-1.479-0.977c-0.877-0.89-1.314-2.062-1.314-3.514c0-1.343,0.451-2.446,1.355-3.309
		c0.958-0.904,2.198-1.356,3.719-1.356c1.562,0,2.802,0.425,3.721,1.274c1.082,1.028,1.698,2.548,1.85,4.562
		c0.041,0.548,0.062,1.141,0.062,1.778c0,0.636-0.1,1.391-0.299,2.26c-0.197,0.871-0.526,1.665-0.985,2.384
		s-1.072,1.315-1.839,1.788c-0.769,0.472-1.647,0.709-2.642,0.709c-0.993,0-1.778-0.093-2.353-0.278
		c-0.575-0.185-1.068-0.387-1.479-0.606c-0.288-0.165-0.432-0.384-0.432-0.657c0-0.274,0.075-0.497,0.226-0.668
		c0.151-0.171,0.322-0.256,0.515-0.256c0.191,0,0.403,0.054,0.637,0.164c0.768,0.329,1.603,0.494,2.508,0.494
		c0.904,0,1.633-0.188,2.188-0.565c0.554-0.376,0.988-0.832,1.304-1.366c0.494-0.891,0.781-2,0.864-3.329
		C45.389,9.035,44.485,9.584,43.28,9.885z M43.772,2.61c-0.451-0.206-0.962-0.309-1.529-0.309c-0.569,0-1.049,0.08-1.439,0.237
		c-0.391,0.157-0.723,0.373-0.997,0.647c-0.575,0.575-0.863,1.291-0.863,2.147s0.253,1.572,0.761,2.147
		c0.507,0.575,1.273,0.863,2.302,0.863c1.068,0,1.959-0.273,2.671-0.822c0.494-0.37,0.897-0.849,1.213-1.438
		C45.643,4.302,44.938,3.144,43.772,2.61z"/>
	<path fill="#666666" d="M66.625,12.557c0.109-0.055,0.265-0.083,0.462-0.083c0.199,0,0.371,0.08,0.515,0.237
		c0.145,0.157,0.215,0.338,0.215,0.544c0,0.371-0.15,0.631-0.451,0.781c-0.645,0.356-1.332,0.657-2.065,0.904
		c-0.732,0.247-1.61,0.371-2.63,0.371c-1.021,0-1.97-0.168-2.846-0.503c-0.878-0.336-1.639-0.825-2.281-1.47
		c-1.371-1.342-2.057-3.144-2.057-5.404c0-2.26,0.686-4.062,2.057-5.405c1.329-1.314,3.041-1.973,5.138-1.973
		c1.013,0,1.887,0.124,2.62,0.371c0.733,0.246,1.295,0.476,1.686,0.688c0.391,0.213,0.626,0.384,0.708,0.514
		c0.083,0.13,0.124,0.295,0.124,0.493c0,0.199-0.071,0.377-0.215,0.535c-0.144,0.158-0.314,0.236-0.515,0.236
		c-0.198,0-0.354-0.027-0.462-0.083c-0.547-0.288-1.109-0.52-1.686-0.698c-0.575-0.178-1.292-0.268-2.146-0.268
		c-0.856,0-1.631,0.144-2.322,0.432C59.778,3.062,59.2,3.46,58.734,3.967c-0.918,1-1.376,2.322-1.376,3.966s0.458,2.966,1.376,3.966
		c1,1.083,2.377,1.624,4.132,1.624c0.809,0,1.5-0.089,2.075-0.268C65.516,13.077,66.078,12.844,66.625,12.557z"/>
	<path fill="#666666" d="M70.694,5.158c1.151-0.493,2.344-0.74,3.576-0.74c1.397,0,2.479,0.426,3.247,1.274
		c0.686,0.74,1.027,1.665,1.027,2.774v5.816c0,0.26-0.092,0.48-0.277,0.657c-0.185,0.178-0.408,0.268-0.668,0.268
		s-0.479-0.089-0.657-0.268c-0.179-0.177-0.268-0.397-0.268-0.657v-0.534c-0.37,0.384-0.867,0.74-1.49,1.069
		s-1.415,0.493-2.373,0.493c-0.945,0-1.732-0.274-2.362-0.822c-0.658-0.575-0.987-1.329-0.987-2.261c0-1.014,0.383-1.808,1.15-2.383
		c0.835-0.63,2.028-0.946,3.576-0.946h2.487V8.734c0-0.917-0.226-1.572-0.678-1.962c-0.453-0.391-1.145-0.585-2.076-0.585
		c-0.795,0-1.706,0.165-2.733,0.493c-0.108,0.028-0.232,0.041-0.37,0.041c-0.137,0-0.28-0.072-0.432-0.216s-0.227-0.366-0.227-0.668
		C70.16,5.535,70.338,5.309,70.694,5.158z M71.332,12.022c0,1.096,0.727,1.644,2.178,1.644c0.644,0,1.243-0.157,1.798-0.473
		c0.555-0.314,1.01-0.671,1.367-1.069v-1.726h-2.24c-0.973,0-1.732,0.124-2.281,0.37C71.605,11.015,71.332,11.433,71.332,12.022z"/>
	<path fill="#666666" d="M83.58,6.308c0.835-1.26,2-1.891,3.494-1.891c0.739,0,1.41,0.22,2.014,0.658
		c0.493,0.343,0.87,0.829,1.13,1.459c0.383-0.603,0.76-1.028,1.13-1.274c0.781-0.562,1.664-0.843,2.651-0.843
		c1.109,0,1.979,0.426,2.609,1.274c0.549,0.727,0.821,1.617,0.821,2.672v5.918c0,0.26-0.092,0.479-0.277,0.657
		c-0.185,0.178-0.405,0.268-0.667,0.268c-0.261,0-0.479-0.089-0.657-0.268c-0.179-0.177-0.268-0.397-0.268-0.657V8.734
		c0-0.863-0.153-1.51-0.462-1.942c-0.309-0.431-0.853-0.647-1.634-0.647c-1.206,0-2.192,0.657-2.959,1.973v6.165
		c0,0.26-0.093,0.48-0.277,0.657c-0.185,0.178-0.407,0.268-0.667,0.268c-0.261,0-0.479-0.089-0.658-0.268
		c-0.178-0.177-0.267-0.397-0.267-0.657V8.734c0-0.863-0.155-1.51-0.462-1.942c-0.309-0.431-0.854-0.647-1.634-0.647
		c-1.206,0-2.193,0.657-2.959,1.973v6.165c0,0.26-0.094,0.48-0.278,0.657c-0.185,0.178-0.408,0.268-0.668,0.268
		s-0.479-0.089-0.657-0.268c-0.178-0.177-0.267-0.397-0.267-0.657V5.467c0-0.26,0.088-0.483,0.267-0.668
		c0.179-0.185,0.397-0.278,0.657-0.278s0.483,0.093,0.668,0.278c0.185,0.185,0.278,0.408,0.278,0.668v0.841H83.58z"/>
	<path fill="#666666" d="M102.465,5.98c1.014-1.042,2.186-1.562,3.514-1.562c1.329,0,2.467,0.474,3.412,1.418
		c1.041,1.042,1.562,2.384,1.562,4.028c0,1.672-0.521,3.021-1.562,4.049c-0.959,0.932-2.1,1.397-3.422,1.397
		s-2.49-0.521-3.504-1.562v0.534c0,0.26-0.09,0.48-0.269,0.657c-0.178,0.178-0.399,0.268-0.667,0.268s-0.489-0.089-0.668-0.268
		c-0.179-0.177-0.267-0.397-0.267-0.657V0.945c0-0.273,0.088-0.5,0.267-0.678C101.04,0.089,101.262,0,101.53,0
		s0.489,0.089,0.667,0.267c0.179,0.178,0.269,0.405,0.269,0.678V5.98z M102.465,12.022c0.932,1.027,2.014,1.541,3.247,1.541
		c1.562,0,2.604-0.699,3.124-2.096c0.164-0.466,0.246-1,0.246-1.603c0-1.178-0.315-2.104-0.945-2.774
		c-0.603-0.616-1.411-0.925-2.425-0.925c-1.233,0-2.315,0.514-3.247,1.542V12.022z"/>
	<path fill="#666666" d="M115.432,6.35c0.959-1.288,2.035-1.933,3.228-1.933h0.104c0.26,0,0.475,0.09,0.646,0.268
		c0.172,0.178,0.258,0.401,0.258,0.668s-0.09,0.479-0.269,0.637c-0.178,0.157-0.403,0.236-0.678,0.236h-0.104
		c-0.687,0-1.299,0.168-1.84,0.503c-0.542,0.336-0.989,0.771-1.347,1.305v6.247c0,0.26-0.092,0.479-0.277,0.657
		c-0.185,0.178-0.407,0.268-0.668,0.268c-0.26,0-0.479-0.089-0.656-0.268c-0.18-0.177-0.268-0.397-0.268-0.657V5.467
		c0-0.26,0.088-0.483,0.268-0.668c0.179-0.185,0.396-0.278,0.656-0.278c0.261,0,0.483,0.093,0.668,0.278
		c0.187,0.185,0.277,0.408,0.277,0.668L115.432,6.35L115.432,6.35z"/>
	<path fill="#666666" d="M123.653,1.439c0,0.288-0.103,0.534-0.309,0.74c-0.205,0.205-0.451,0.308-0.74,0.308h-0.122
		c-0.288,0-0.533-0.103-0.739-0.308c-0.206-0.206-0.31-0.452-0.31-0.74V1.357c0-0.288,0.104-0.535,0.31-0.74
		s0.451-0.309,0.739-0.309h0.122c0.289,0,0.535,0.103,0.74,0.309c0.206,0.206,0.309,0.453,0.309,0.74V1.439z M121.865,4.788
		c0.179-0.178,0.4-0.268,0.668-0.268s0.489,0.089,0.668,0.268c0.178,0.179,0.267,0.404,0.267,0.678v8.816
		c0,0.26-0.089,0.48-0.267,0.657c-0.179,0.178-0.4,0.268-0.668,0.268s-0.489-0.089-0.668-0.268c-0.18-0.177-0.268-0.397-0.268-0.657
		V5.467C121.598,5.192,121.686,4.967,121.865,4.788z"/>
	<path fill="#666666" d="M134.647,13.748c-1.014,1.041-2.186,1.562-3.514,1.562c-1.315,0-2.453-0.466-3.412-1.397
		c-1.041-1.027-1.561-2.377-1.561-4.049c0-1.645,0.52-2.986,1.561-4.028c0.945-0.945,2.083-1.418,3.412-1.418
		c1.328,0,2.5,0.521,3.514,1.562V0.945c0-0.273,0.09-0.5,0.269-0.678C135.093,0.089,135.315,0,135.583,0
		c0.267,0,0.488,0.089,0.668,0.267c0.178,0.178,0.268,0.405,0.268,0.678v13.337c0,0.26-0.09,0.48-0.268,0.657
		c-0.18,0.178-0.401,0.268-0.668,0.268c-0.269,0-0.49-0.089-0.668-0.268c-0.179-0.177-0.269-0.397-0.269-0.657V13.748z
		 M134.647,7.707c-0.932-1.028-2.014-1.542-3.246-1.542c-1.562,0-2.597,0.699-3.104,2.096c-0.179,0.466-0.269,1-0.269,1.604
		c0,1.178,0.322,2.103,0.967,2.774c0.589,0.616,1.391,0.925,2.404,0.925c1.232,0,2.314-0.514,3.246-1.541L134.647,7.707
		L134.647,7.707z"/>
	<path fill="#666666" d="M147.615,5.98V5.467c0-0.26,0.089-0.483,0.267-0.668c0.178-0.185,0.396-0.278,0.657-0.278
		s0.482,0.093,0.668,0.278c0.185,0.185,0.277,0.408,0.277,0.668v9.186c0,1.74-0.418,3.072-1.254,3.997
		c-0.836,0.925-2.026,1.387-3.576,1.387c-1.644,0-3.109-0.356-4.397-1.068c-0.246-0.151-0.369-0.36-0.369-0.626
		c0-0.268,0.078-0.49,0.236-0.668c0.158-0.178,0.32-0.267,0.493-0.267c0.171,0,0.324,0.027,0.462,0.082
		c1.041,0.52,2.172,0.781,3.391,0.781c2.097,0,3.146-1.117,3.146-3.35v-1.377c-0.975,1.042-2.146,1.562-3.516,1.562
		c-1.302,0-2.418-0.438-3.35-1.315c-1.082-1-1.623-2.343-1.623-4.028s0.541-3.027,1.623-4.028c0.932-0.876,2.064-1.315,3.399-1.315
		C145.487,4.418,146.641,4.939,147.615,5.98z M147.615,7.645c-0.385-0.397-0.823-0.75-1.315-1.059
		c-0.493-0.308-1.042-0.462-1.646-0.462s-1.116,0.076-1.541,0.227c-0.426,0.15-0.795,0.37-1.108,0.657
		c-0.672,0.63-1.008,1.549-1.008,2.754c0,1.768,0.706,2.905,2.117,3.412c0.424,0.15,0.938,0.226,1.54,0.226
		c1,0,1.986-0.507,2.961-1.52V7.645L147.615,7.645z"/>
	<path fill="#666666" d="M155.053,12.741c0.589,0.548,1.411,0.822,2.466,0.822c1.056,0,1.938-0.178,2.651-0.534
		c0.246-0.124,0.459-0.185,0.637-0.185c0.179,0,0.351,0.075,0.514,0.226c0.165,0.15,0.247,0.322,0.247,0.514
		c0,0.357-0.146,0.614-0.441,0.771c-0.295,0.158-0.56,0.291-0.791,0.401c-0.232,0.11-0.486,0.206-0.761,0.288
		c-0.616,0.178-1.328,0.268-2.138,0.268c-1.686,0-2.994-0.473-3.926-1.418s-1.397-2.288-1.397-4.028c0-1.507,0.392-2.76,1.173-3.76
		c0.877-1.124,2.123-1.686,3.739-1.686c1.535,0,2.747,0.521,3.639,1.562c0.835,0.973,1.254,2.178,1.254,3.617
		c0,0.26-0.087,0.479-0.257,0.657c-0.173,0.178-0.4,0.268-0.689,0.268h-6.967C154.115,11.454,154.464,12.194,155.053,12.741z
		 M157.026,6.001c-1.22,0-2.108,0.541-2.672,1.623c-0.205,0.384-0.32,0.843-0.35,1.377h6.062c-0.055-0.973-0.41-1.74-1.067-2.302
		C158.451,6.234,157.792,6.001,157.026,6.001z"/>
	<path fill="#666666" d="M174.493,13.543c2.397,0,3.598-0.788,3.598-2.363c0-0.657-0.459-1.185-1.377-1.582
		c-0.398-0.165-0.861-0.312-1.387-0.442c-0.529-0.13-1.062-0.271-1.604-0.421c-0.543-0.15-1.076-0.321-1.604-0.514
		c-0.527-0.191-0.996-0.438-1.407-0.74c-0.904-0.685-1.356-1.589-1.356-2.713c0-1.205,0.452-2.191,1.356-2.959
		c0.984-0.835,2.308-1.254,3.966-1.254c1.492,0,2.857,0.227,4.09,0.678c0.383,0.137,0.574,0.412,0.574,0.822
		c0,0.206-0.07,0.4-0.215,0.586c-0.146,0.185-0.301,0.277-0.474,0.277c-0.172,0-0.407-0.054-0.709-0.164
		c-0.891-0.315-1.909-0.472-3.062-0.472c-1.055,0-1.924,0.198-2.609,0.595c-0.698,0.412-1.048,0.994-1.048,1.747
		c0,0.781,0.452,1.37,1.356,1.768c0.41,0.191,0.877,0.35,1.396,0.473c0.521,0.123,1.056,0.253,1.604,0.39
		c0.547,0.137,1.082,0.298,1.604,0.483c0.521,0.185,0.986,0.428,1.396,0.729c0.903,0.658,1.356,1.604,1.356,2.836
		c0,1.179-0.473,2.137-1.418,2.877c-0.973,0.753-2.254,1.13-3.844,1.13c-1.74,0-3.37-0.329-4.89-0.987
		c-0.151-0.068-0.285-0.178-0.401-0.329c-0.116-0.151-0.175-0.332-0.175-0.544c0-0.212,0.075-0.404,0.227-0.575
		c0.15-0.171,0.325-0.257,0.523-0.257s0.445,0.065,0.739,0.195c0.295,0.131,0.777,0.285,1.448,0.462
		C172.821,13.454,173.602,13.543,174.493,13.543z"/>
	<path fill="#666666" d="M185.829,13.666c0.36,0,0.623-0.031,0.778-0.093c0.158-0.062,0.33-0.093,0.515-0.093
		c0.186,0,0.354,0.069,0.504,0.206c0.149,0.137,0.227,0.343,0.227,0.617c0,0.273-0.137,0.473-0.412,0.595
		c-0.588,0.274-1.092,0.412-1.51,0.412s-0.799-0.021-1.141-0.062s-0.672-0.157-0.986-0.35c-0.754-0.438-1.129-1.205-1.129-2.301
		v-6.37h-1.459c-0.262,0-0.391-0.13-0.391-0.391c0-0.123,0.061-0.239,0.184-0.35l2.795-2.733c0.123-0.124,0.24-0.185,0.35-0.185
		c0.11,0,0.203,0.041,0.277,0.123c0.076,0.082,0.113,0.178,0.113,0.288v1.644h2.322c0.231,0,0.424,0.075,0.573,0.227
		c0.15,0.15,0.228,0.342,0.228,0.575c0,0.232-0.076,0.425-0.228,0.575c-0.15,0.15-0.342,0.226-0.573,0.226h-2.322v6.206
		c0,0.521,0.156,0.877,0.473,1.069C185.194,13.611,185.465,13.666,185.829,13.666z"/>
	<path fill="#666666" d="M191.756,6.35c0.959-1.288,2.035-1.933,3.227-1.933h0.103c0.262,0,0.477,0.09,0.647,0.268
		c0.172,0.178,0.259,0.401,0.259,0.668s-0.091,0.479-0.269,0.637c-0.18,0.157-0.404,0.236-0.68,0.236h-0.103
		c-0.686,0-1.299,0.168-1.84,0.503c-0.541,0.336-0.99,0.771-1.346,1.305v6.247c0,0.26-0.092,0.479-0.277,0.657
		c-0.186,0.178-0.408,0.268-0.668,0.268s-0.479-0.089-0.658-0.268c-0.178-0.177-0.266-0.397-0.266-0.657V5.467
		c0-0.26,0.088-0.483,0.266-0.668c0.179-0.185,0.398-0.278,0.658-0.278s0.482,0.093,0.668,0.278
		c0.187,0.185,0.277,0.408,0.277,0.668L191.756,6.35L191.756,6.35z"/>
	<path fill="#666666" d="M200.163,12.741c0.588,0.548,1.41,0.822,2.465,0.822s1.938-0.178,2.649-0.534
		c0.248-0.124,0.459-0.185,0.64-0.185c0.178,0,0.35,0.075,0.514,0.226c0.164,0.151,0.246,0.322,0.246,0.514
		c0,0.357-0.148,0.614-0.441,0.771c-0.295,0.158-0.559,0.291-0.791,0.401c-0.233,0.11-0.485,0.206-0.762,0.288
		c-0.615,0.178-1.328,0.268-2.137,0.268c-1.687,0-2.994-0.473-3.926-1.418c-0.933-0.945-1.396-2.288-1.396-4.028
		c0-1.507,0.392-2.76,1.172-3.76c0.875-1.124,2.123-1.686,3.74-1.686c1.533,0,2.746,0.521,3.637,1.562
		c0.836,0.973,1.254,2.178,1.254,3.617c0,0.26-0.086,0.479-0.258,0.657c-0.17,0.178-0.399,0.268-0.688,0.268h-6.967
		C199.223,11.454,199.573,12.194,200.163,12.741z M202.135,6.001c-1.221,0-2.111,0.541-2.672,1.623
		c-0.207,0.384-0.322,0.843-0.351,1.377h6.062c-0.057-0.973-0.41-1.74-1.068-2.302C203.559,6.234,202.901,6.001,202.135,6.001z"/>
	<path fill="#666666" d="M211.875,12.741c0.588,0.548,1.41,0.822,2.467,0.822c1.055,0,1.938-0.178,2.65-0.534
		c0.245-0.124,0.457-0.185,0.637-0.185c0.178,0,0.35,0.075,0.514,0.226c0.164,0.151,0.248,0.322,0.248,0.514
		c0,0.357-0.149,0.614-0.442,0.771c-0.296,0.158-0.558,0.291-0.791,0.401c-0.232,0.11-0.488,0.206-0.761,0.288
		c-0.617,0.178-1.33,0.268-2.137,0.268c-1.688,0-2.996-0.473-3.928-1.418c-0.931-0.945-1.396-2.288-1.396-4.028
		c0-1.507,0.392-2.76,1.172-3.76c0.877-1.124,2.123-1.686,3.74-1.686c1.533,0,2.746,0.521,3.637,1.562
		c0.836,0.973,1.255,2.178,1.255,3.617c0,0.26-0.087,0.479-0.257,0.657c-0.174,0.178-0.401,0.268-0.688,0.268h-6.967
		C210.936,11.454,211.286,12.194,211.875,12.741z M213.848,6.001c-1.221,0-2.108,0.541-2.672,1.623
		c-0.205,0.384-0.322,0.843-0.35,1.377h6.062c-0.055-0.973-0.41-1.74-1.068-2.302C215.272,6.234,214.614,6.001,213.848,6.001z"/>
	<path fill="#666666" d="M225.098,13.666c0.363,0,0.623-0.031,0.781-0.093c0.156-0.062,0.33-0.093,0.516-0.093
		c0.185,0,0.351,0.069,0.502,0.206c0.15,0.137,0.228,0.343,0.228,0.617c0,0.273-0.138,0.473-0.412,0.595
		c-0.588,0.274-1.092,0.412-1.51,0.412s-0.797-0.021-1.142-0.062c-0.342-0.041-0.672-0.157-0.985-0.35
		c-0.755-0.438-1.132-1.205-1.132-2.301v-6.37h-1.459c-0.26,0-0.391-0.13-0.391-0.391c0-0.123,0.062-0.239,0.187-0.35l2.795-2.733
		c0.123-0.124,0.237-0.185,0.35-0.185c0.109,0,0.203,0.041,0.277,0.123c0.075,0.082,0.11,0.178,0.11,0.288v1.644h2.324
		c0.232,0,0.424,0.075,0.574,0.227c0.149,0.15,0.227,0.342,0.227,0.575c0,0.232-0.076,0.425-0.227,0.575
		c-0.151,0.15-0.342,0.226-0.574,0.226h-2.324v6.206c0,0.521,0.16,0.877,0.476,1.069C224.465,13.611,224.735,13.666,225.098,13.666z
		"/>
	<path fill="#666666" d="M13.131,37.217c0.109-0.055,0.264-0.083,0.462-0.083c0.199,0,0.371,0.079,0.514,0.236
		c0.145,0.157,0.217,0.339,0.217,0.544c0,0.371-0.151,0.63-0.452,0.781c-0.645,0.356-1.332,0.657-2.065,0.904
		c-0.732,0.247-1.61,0.37-2.63,0.37c-1.021,0-1.97-0.168-2.847-0.503c-0.877-0.336-1.638-0.826-2.281-1.47
		c-1.37-1.342-2.055-3.144-2.055-5.404c0-2.26,0.685-4.062,2.055-5.405c1.329-1.314,3.042-1.973,5.138-1.973
		c1.015,0,1.888,0.124,2.62,0.371c0.733,0.246,1.295,0.476,1.687,0.688c0.39,0.212,0.626,0.384,0.708,0.514
		c0.083,0.13,0.124,0.295,0.124,0.493c0,0.199-0.072,0.377-0.217,0.534c-0.144,0.158-0.314,0.237-0.514,0.237
		c-0.198,0-0.353-0.028-0.462-0.083c-0.548-0.288-1.11-0.52-1.686-0.698c-0.574-0.178-1.291-0.268-2.146-0.268
		c-0.856,0-1.63,0.144-2.322,0.432c-0.691,0.288-1.271,0.686-1.736,1.192c-0.918,1-1.376,2.322-1.376,3.966
		c0,1.644,0.458,2.966,1.376,3.966c1,1.083,2.377,1.624,4.131,1.624c0.809,0,1.5-0.089,2.074-0.268
		C12.022,37.735,12.583,37.505,13.131,37.217z"/>
	<path fill="#666666" d="M17.2,29.818c1.15-0.493,2.343-0.74,3.576-0.74c1.397,0,2.479,0.426,3.247,1.274
		c0.686,0.74,1.027,1.665,1.027,2.774v5.816c0,0.26-0.092,0.48-0.277,0.657c-0.185,0.178-0.407,0.268-0.668,0.268
		c-0.26,0-0.479-0.089-0.656-0.268c-0.18-0.177-0.269-0.397-0.269-0.657v-0.534c-0.37,0.384-0.866,0.74-1.49,1.068
		c-0.623,0.329-1.415,0.493-2.374,0.493c-0.944,0-1.732-0.274-2.362-0.822c-0.658-0.575-0.987-1.329-0.987-2.261
		c0-1.013,0.383-1.808,1.15-2.383c0.835-0.631,2.027-0.946,3.575-0.946h2.487v-0.165c0-0.917-0.226-1.572-0.678-1.962
		c-0.452-0.391-1.145-0.585-2.075-0.585c-0.795,0-1.706,0.165-2.733,0.494c-0.109,0.027-0.232,0.041-0.369,0.041
		c-0.138,0-0.281-0.072-0.433-0.216c-0.15-0.144-0.227-0.366-0.227-0.668C16.666,30.196,16.844,29.969,17.2,29.818z M17.837,36.683
		c0,1.096,0.727,1.644,2.178,1.644c0.645,0,1.244-0.157,1.799-0.474c0.555-0.314,1.011-0.67,1.366-1.068v-1.726h-2.24
		c-0.972,0-1.732,0.124-2.28,0.37C18.111,35.675,17.837,36.094,17.837,36.683z"/>
	<path fill="#666666" d="M30.085,30.969c0.835-1.26,2-1.891,3.494-1.891c0.739,0,1.411,0.22,2.014,0.658
		c0.493,0.343,0.87,0.829,1.13,1.459c0.383-0.603,0.76-1.028,1.13-1.274c0.781-0.562,1.664-0.843,2.651-0.843
		c1.109,0,1.979,0.426,2.609,1.274c0.549,0.727,0.822,1.617,0.822,2.671v5.919c0,0.26-0.092,0.48-0.276,0.657
		c-0.186,0.178-0.407,0.268-0.667,0.268c-0.262,0-0.48-0.089-0.658-0.268c-0.179-0.177-0.268-0.397-0.268-0.657v-5.549
		c0-0.863-0.154-1.51-0.462-1.941c-0.309-0.432-0.853-0.647-1.634-0.647c-1.206,0-2.193,0.657-2.959,1.973v6.166
		c0,0.26-0.093,0.48-0.278,0.657c-0.185,0.178-0.406,0.268-0.667,0.268s-0.479-0.089-0.657-0.268
		c-0.179-0.177-0.268-0.397-0.268-0.657v-5.549c0-0.863-0.155-1.51-0.462-1.941c-0.309-0.432-0.853-0.647-1.634-0.647
		c-1.206,0-2.192,0.657-2.959,1.973v6.166c0,0.26-0.093,0.48-0.278,0.657c-0.185,0.178-0.408,0.268-0.668,0.268
		s-0.479-0.089-0.657-0.268c-0.178-0.177-0.267-0.397-0.267-0.657V30.13c0-0.26,0.088-0.483,0.267-0.668s0.397-0.277,0.657-0.277
		s0.483,0.093,0.668,0.277c0.186,0.185,0.278,0.408,0.278,0.668v0.839H30.085z"/>
	<path fill="#666666" d="M48.97,30.64c1.014-1.041,2.185-1.562,3.514-1.562s2.468,0.473,3.412,1.418
		c1.041,1.042,1.562,2.384,1.562,4.028c0,1.671-0.521,3.021-1.562,4.049c-0.959,0.932-2.1,1.396-3.422,1.396
		s-2.49-0.521-3.504-1.562v0.534c0,0.26-0.089,0.48-0.268,0.657c-0.179,0.178-0.4,0.268-0.667,0.268
		c-0.269,0-0.49-0.089-0.668-0.268c-0.179-0.177-0.268-0.397-0.268-0.657V25.606c0-0.273,0.089-0.5,0.268-0.678
		c0.178-0.178,0.399-0.267,0.668-0.267c0.267,0,0.488,0.088,0.667,0.267c0.178,0.178,0.268,0.405,0.268,0.678V30.64z M48.97,36.683
		c0.932,1.027,2.014,1.541,3.247,1.541c1.562,0,2.603-0.699,3.124-2.096c0.165-0.466,0.247-1,0.247-1.603
		c0-1.178-0.315-2.103-0.945-2.775c-0.603-0.616-1.412-0.925-2.425-0.925c-1.233,0-2.315,0.515-3.247,1.542L48.97,36.683
		L48.97,36.683z"/>
	<path fill="#666666" d="M61.938,31.011c0.959-1.288,2.035-1.933,3.227-1.933h0.103c0.26,0,0.477,0.089,0.647,0.268
		c0.171,0.179,0.257,0.4,0.257,0.668c0,0.267-0.089,0.479-0.269,0.637c-0.178,0.157-0.403,0.236-0.678,0.236h-0.103
		c-0.686,0-1.298,0.168-1.839,0.503c-0.542,0.336-0.99,0.771-1.347,1.305v6.248c0,0.26-0.093,0.48-0.277,0.657
		c-0.186,0.178-0.408,0.268-0.668,0.268c-0.261,0-0.479-0.089-0.657-0.268c-0.178-0.177-0.268-0.397-0.268-0.657v-8.816
		c0-0.26,0.088-0.483,0.268-0.668c0.178-0.185,0.396-0.277,0.657-0.277c0.26,0,0.482,0.093,0.668,0.277
		c0.185,0.185,0.277,0.408,0.277,0.668L61.938,31.011L61.938,31.011z"/>
	<path fill="#666666" d="M70.157,26.099c0,0.288-0.103,0.535-0.309,0.74s-0.453,0.308-0.74,0.308h-0.123
		c-0.287,0-0.534-0.103-0.739-0.308c-0.206-0.206-0.31-0.453-0.31-0.74v-0.082c0-0.288,0.104-0.534,0.31-0.74
		s0.452-0.309,0.739-0.309h0.123c0.288,0,0.535,0.103,0.74,0.309c0.206,0.206,0.309,0.452,0.309,0.74V26.099z M68.37,29.449
		c0.178-0.178,0.4-0.268,0.668-0.268s0.489,0.089,0.668,0.268c0.177,0.178,0.267,0.404,0.267,0.678v8.816
		c0,0.26-0.09,0.48-0.267,0.657c-0.179,0.178-0.4,0.268-0.668,0.268s-0.49-0.089-0.668-0.268c-0.179-0.177-0.268-0.397-0.268-0.657
		v-8.816C68.103,29.853,68.191,29.627,68.37,29.449z"/>
	<path fill="#666666" d="M81.152,38.409c-1.014,1.041-2.186,1.562-3.514,1.562c-1.314,0-2.453-0.465-3.412-1.397
		c-1.041-1.028-1.561-2.377-1.561-4.049c0-1.644,0.52-2.986,1.561-4.028c0.946-0.945,2.083-1.418,3.412-1.418s2.5,0.521,3.514,1.562
		v-5.035c0-0.273,0.09-0.5,0.268-0.678c0.178-0.178,0.399-0.267,0.668-0.267c0.267,0,0.489,0.088,0.667,0.267
		c0.178,0.178,0.268,0.405,0.268,0.678v13.337c0,0.26-0.09,0.48-0.268,0.657c-0.178,0.178-0.401,0.268-0.667,0.268
		c-0.269,0-0.49-0.089-0.668-0.268c-0.178-0.177-0.268-0.397-0.268-0.657V38.409z M81.152,32.367
		c-0.932-1.027-2.014-1.542-3.247-1.542c-1.562,0-2.597,0.699-3.104,2.097c-0.179,0.466-0.268,1-0.268,1.603
		c0,1.178,0.321,2.103,0.966,2.774c0.589,0.616,1.391,0.925,2.404,0.925c1.232,0,2.314-0.514,3.247-1.541L81.152,32.367
		L81.152,32.367z"/>
	<path fill="#666666" d="M94.12,30.64v-0.514c0-0.26,0.088-0.483,0.267-0.668c0.178-0.185,0.397-0.277,0.657-0.277
		s0.482,0.093,0.668,0.277c0.186,0.185,0.276,0.408,0.276,0.668v9.186c0,1.74-0.418,3.072-1.253,3.997
		c-0.836,0.925-2.027,1.387-3.575,1.387c-1.645,0-3.111-0.356-4.398-1.069c-0.247-0.15-0.37-0.359-0.37-0.626
		c0-0.268,0.079-0.49,0.237-0.668c0.157-0.178,0.321-0.267,0.492-0.267c0.172,0,0.325,0.027,0.463,0.082
		c1.041,0.52,2.171,0.781,3.391,0.781c2.096,0,3.146-1.117,3.146-3.35v-1.377c-0.975,1.042-2.146,1.562-3.516,1.562
		c-1.302,0-2.418-0.438-3.35-1.315c-1.082-1-1.623-2.343-1.623-4.028s0.541-3.027,1.623-4.028c0.932-0.876,2.064-1.315,3.4-1.315
		C91.992,29.078,93.146,29.599,94.12,30.64z M94.12,32.305c-0.385-0.397-0.823-0.75-1.315-1.059
		c-0.494-0.308-1.042-0.463-1.644-0.463c-0.604,0-1.117,0.076-1.542,0.227c-0.426,0.15-0.794,0.37-1.109,0.657
		c-0.672,0.63-1.007,1.548-1.007,2.753c0,1.768,0.706,2.905,2.116,3.412c0.425,0.151,0.938,0.226,1.542,0.226
		c1,0,1.985-0.507,2.959-1.521V32.305z"/>
	<path fill="#666666" d="M101.558,37.402c0.589,0.547,1.411,0.822,2.466,0.822c1.056,0,1.938-0.178,2.651-0.534
		c0.247-0.124,0.459-0.185,0.637-0.185c0.18,0,0.351,0.075,0.515,0.226c0.165,0.15,0.247,0.322,0.247,0.513
		c0,0.357-0.147,0.614-0.441,0.771c-0.296,0.158-0.559,0.291-0.791,0.4c-0.234,0.11-0.487,0.206-0.762,0.288
		c-0.616,0.178-1.328,0.268-2.138,0.268c-1.686,0-2.993-0.472-3.926-1.418c-0.932-0.945-1.396-2.288-1.396-4.028
		c0-1.507,0.391-2.76,1.171-3.761c0.876-1.124,2.123-1.686,3.739-1.686c1.534,0,2.747,0.521,3.639,1.562
		c0.836,0.973,1.254,2.178,1.254,3.617c0,0.26-0.086,0.479-0.258,0.657c-0.171,0.178-0.4,0.268-0.688,0.268h-6.966
		C100.62,36.114,100.969,36.854,101.558,37.402z M103.531,30.661c-1.22,0-2.108,0.541-2.671,1.623
		c-0.206,0.384-0.321,0.843-0.35,1.377h6.062c-0.056-0.972-0.41-1.74-1.068-2.302C104.956,30.895,104.297,30.661,103.531,30.661z"/>
	<path fill="#666666" d="M112.913,37.74c0.226,0.227,0.338,0.497,0.338,0.812v1.212c0,0.726-0.186,1.37-0.556,1.932
		c-0.26,0.412-0.637,0.768-1.13,1.069c-0.067,0.068-0.188,0.103-0.358,0.103s-0.312-0.062-0.421-0.185
		c-0.11-0.124-0.166-0.281-0.166-0.473s0.104-0.35,0.309-0.473c0.302-0.178,0.552-0.4,0.75-0.667
		c0.199-0.268,0.299-0.682,0.299-1.243h-0.082c-0.314,0-0.586-0.113-0.812-0.339c-0.227-0.226-0.338-0.496-0.338-0.812v-0.123
		c0-0.315,0.111-0.585,0.338-0.812c0.227-0.226,0.497-0.338,0.812-0.338h0.205C112.415,37.402,112.686,37.515,112.913,37.74z"/>
	<path fill="#666666" d="M137.481,25.719c0.261,0.268,0.392,0.586,0.392,0.956v12.269c0,0.26-0.09,0.48-0.269,0.657
		c-0.179,0.178-0.396,0.268-0.658,0.268c-0.26,0-0.481-0.089-0.668-0.268c-0.185-0.177-0.276-0.397-0.276-0.657V27.27l-4.747,11.734
		c-0.109,0.26-0.28,0.469-0.513,0.626c-0.234,0.157-0.502,0.237-0.804,0.237c-0.301,0-0.567-0.08-0.801-0.237
		c-0.233-0.157-0.404-0.366-0.514-0.626l-4.748-11.734v11.673c0,0.26-0.092,0.48-0.276,0.657c-0.187,0.178-0.408,0.268-0.669,0.268
		c-0.26,0-0.479-0.089-0.657-0.268c-0.179-0.177-0.267-0.397-0.267-0.657V26.674c0-0.37,0.129-0.688,0.391-0.956
		c0.261-0.267,0.574-0.4,0.944-0.4h0.679c0.273,0,0.523,0.082,0.75,0.247c0.228,0.165,0.395,0.37,0.503,0.616l4.665,11.631
		l4.666-11.631c0.109-0.247,0.277-0.452,0.503-0.616c0.227-0.164,0.477-0.247,0.75-0.247h0.68
		C136.905,25.318,137.219,25.452,137.481,25.719z"/>
	<path fill="#666666" d="M153.571,38.531c0.068,0.165,0.104,0.339,0.104,0.524s-0.081,0.367-0.246,0.544
		c-0.164,0.178-0.425,0.268-0.781,0.268c-0.355,0-0.616-0.191-0.78-0.575l-1.336-3.206h-6.986l-1.335,3.206
		c-0.166,0.384-0.426,0.575-0.781,0.575c-0.356,0-0.617-0.089-0.781-0.268c-0.165-0.177-0.246-0.359-0.246-0.544
		s0.033-0.359,0.103-0.524l5.241-12.371c0.246-0.562,0.644-0.843,1.19-0.843h0.206c0.547,0,0.945,0.281,1.191,0.843L153.571,38.531z
		 M149.811,34.381l-2.774-6.679l-2.773,6.679H149.811z"/>
	<path fill="#666666" d="M165.984,25.215c0.917,0,1.727,0.178,2.426,0.534c0.697,0.356,1.28,0.863,1.745,1.521
		c0.933,1.288,1.396,3.062,1.396,5.323c0,2.274-0.465,4.056-1.396,5.343c-0.985,1.356-2.377,2.034-4.171,2.034
		c-1.796,0-3.186-0.678-4.172-2.034c-0.932-1.288-1.396-3.069-1.396-5.343c0-2.26,0.466-4.035,1.396-5.323
		C162.784,25.901,164.174,25.215,165.984,25.215z M165.984,38.244c1.204,0,2.123-0.507,2.753-1.52c0.631-1,0.946-2.377,0.946-4.131
		c0-1.74-0.315-3.11-0.946-4.11c-0.63-1.015-1.551-1.521-2.764-1.521c-1.212,0-2.13,0.507-2.754,1.521
		c-0.623,1.013-0.936,2.384-0.936,4.11c0,1.753,0.314,3.13,0.945,4.131C163.86,37.737,164.778,38.244,165.984,38.244z"/>
	<path fill="#666666" d="M183.42,38.275c0.172,0.171,0.256,0.38,0.256,0.627c0,0.247-0.084,0.452-0.256,0.616
		s-0.381,0.247-0.627,0.247h-7.933c-0.315,0-0.575-0.1-0.78-0.297c-0.207-0.199-0.31-0.456-0.31-0.771
		c0-0.726,0.201-1.377,0.605-1.953c0.403-0.576,0.912-1.11,1.521-1.603c0.609-0.493,1.271-0.958,1.982-1.397
		c0.713-0.438,1.373-0.876,1.983-1.315c0.609-0.438,1.115-0.89,1.521-1.356c0.404-0.465,0.606-0.932,0.606-1.397
		c0-0.465-0.059-0.853-0.176-1.161c-0.115-0.309-0.297-0.572-0.543-0.792c-0.549-0.493-1.391-0.739-2.528-0.739
		c-1.22,0-2.392,0.247-3.515,0.739c-0.137,0.069-0.295,0.103-0.473,0.103s-0.338-0.075-0.482-0.226s-0.217-0.37-0.217-0.658
		s0.15-0.514,0.453-0.678c1.396-0.699,2.918-1.048,4.562-1.048c1.343,0,2.459,0.384,3.351,1.151
		c0.916,0.781,1.377,1.789,1.377,3.021c0,1.247-0.625,2.446-1.871,3.596c-0.547,0.494-1.146,0.959-1.797,1.397
		c-0.652,0.439-1.279,0.86-1.881,1.265c-0.604,0.404-1.146,0.801-1.623,1.191c-0.48,0.391-0.81,0.784-0.988,1.182h7.152
		C183.04,38.018,183.249,38.104,183.42,38.275z"/>
	<path fill="#666666" d="M195.958,38.275c0.17,0.171,0.256,0.38,0.256,0.627c0,0.247-0.086,0.452-0.256,0.616
		c-0.174,0.165-0.381,0.247-0.629,0.247h-6.351c-0.246,0-0.451-0.082-0.615-0.247c-0.166-0.165-0.247-0.37-0.247-0.616
		c0-0.246,0.081-0.456,0.247-0.627c0.164-0.171,0.369-0.257,0.615-0.257h2.445V27.599l-2.096,1.027
		c-0.068,0.028-0.138,0.055-0.205,0.082c-0.068,0.027-0.195,0.041-0.381,0.041c-0.187,0-0.359-0.082-0.523-0.247
		c-0.164-0.164-0.246-0.407-0.246-0.729c0-0.322,0.176-0.572,0.533-0.75l2.795-1.459c0.191-0.095,0.385-0.144,0.576-0.144h0.432
		c0.273,0,0.506,0.096,0.699,0.288c0.191,0.192,0.287,0.425,0.287,0.699v11.611h2.033C195.577,38.018,195.784,38.104,195.958,38.275
		z"/>
	<path fill="#666666" d="M209.098,28.914c0,1.658-0.828,2.802-2.486,3.432c1.302,0.315,2.199,1,2.691,2.055
		c0.207,0.438,0.309,0.979,0.309,1.623s-0.137,1.212-0.409,1.706c-0.275,0.493-0.65,0.904-1.132,1.233
		c-0.973,0.67-2.231,1.006-3.78,1.006c-1.508,0-2.939-0.274-4.295-0.822c-0.355-0.165-0.535-0.425-0.535-0.781
		c0-0.219,0.076-0.418,0.227-0.597c0.15-0.178,0.318-0.267,0.504-0.267c0.187,0,0.414,0.055,0.689,0.164
		c0.848,0.343,1.869,0.514,3.061,0.514c1.713,0,2.871-0.391,3.474-1.171c0.221-0.288,0.33-0.658,0.33-1.11
		c0-1.727-1.515-2.589-4.543-2.589h-0.328c-0.232,0-0.437-0.085-0.605-0.257c-0.172-0.171-0.258-0.373-0.258-0.605
		c0-0.232,0.086-0.435,0.258-0.606c0.17-0.171,0.373-0.257,0.605-0.257h0.123c2.821,0,4.233-0.829,4.233-2.487
		c0-0.644-0.264-1.161-0.791-1.551c-0.526-0.39-1.346-0.586-2.457-0.586c-1.123,0-2.186,0.226-3.186,0.678
		c-0.109,0.055-0.25,0.082-0.42,0.082c-0.172,0-0.334-0.068-0.484-0.205c-0.149-0.137-0.225-0.343-0.225-0.617
		c0-0.273,0.137-0.486,0.41-0.637c1.286-0.699,2.686-1.048,4.192-1.048c1.506,0,2.688,0.322,3.545,0.966
		C208.67,26.825,209.098,27.736,209.098,28.914z"/>
	<path fill="#666666" d="M218.346,34.546c-0.438,0.109-0.973,0.164-1.604,0.164c-0.632,0-1.232-0.113-1.808-0.338
		c-0.576-0.227-1.07-0.552-1.479-0.977c-0.877-0.89-1.314-2.061-1.314-3.514c0-1.343,0.451-2.446,1.355-3.309
		c0.959-0.904,2.198-1.356,3.719-1.356c1.562,0,2.803,0.425,3.721,1.274c1.082,1.028,1.699,2.548,1.851,4.562
		c0.041,0.548,0.062,1.141,0.062,1.778c0,0.637-0.102,1.391-0.299,2.26c-0.199,0.871-0.527,1.665-0.986,2.384
		c-0.461,0.719-1.071,1.315-1.84,1.788c-0.768,0.473-1.646,0.709-2.641,0.709s-1.777-0.093-2.354-0.277
		c-0.574-0.185-1.067-0.387-1.479-0.606c-0.287-0.165-0.433-0.384-0.433-0.657c0-0.274,0.074-0.497,0.228-0.668
		c0.149-0.171,0.319-0.257,0.512-0.257c0.193,0,0.404,0.055,0.639,0.164c0.767,0.329,1.603,0.493,2.509,0.493
		c0.901,0,1.633-0.188,2.188-0.565c0.555-0.376,0.99-0.832,1.305-1.367c0.494-0.891,0.781-2,0.863-3.329
		C220.456,33.696,219.553,34.244,218.346,34.546z M218.84,27.27c-0.453-0.206-0.963-0.309-1.531-0.309
		c-0.57,0-1.047,0.08-1.438,0.237c-0.39,0.157-0.724,0.373-0.996,0.646c-0.576,0.575-0.863,1.291-0.863,2.147
		c0,0.856,0.252,1.572,0.762,2.147c0.506,0.575,1.273,0.863,2.302,0.863c1.067,0,1.959-0.273,2.67-0.822
		c0.493-0.37,0.897-0.849,1.213-1.438C220.709,28.962,220.004,27.805,218.84,27.27z"/>
</g>
</svg>
