<?xml version="1.0" encoding="UTF-8" standalone="no"?>
<svg width="179px" height="179px" viewBox="0 0 179 179" version="1.1" xmlns="http://www.w3.org/2000/svg" xmlns:xlink="http://www.w3.org/1999/xlink">
    <!-- Generator: Sketch 3.6.1 (26313) - http://www.bohemiancoding.com/sketch -->
    <title>Icon 4</title>
    <desc>Created with Sketch.</desc>
    <defs>
        <path id="path-1" d="M0,0.08 L178.921233,0.08 L178.921233,179 L0,179"></path>
        <path id="path-3" d="M0,0.08 L178.921233,0.08 L178.921233,179 L0,179 L0,0.08 Z"></path>
    </defs>
    <g id="Welcome" stroke="none" stroke-width="1" fill="none" fill-rule="evenodd">
        <g id="Desktop-HD-Home" transform="translate(-1015.000000, -1571.000000)">
            <g id="What-We-Offer" transform="translate(0.000000, 1400.000000)">
                <g id="icons" transform="translate(239.000000, 171.000000)">
                    <g id="Group-4" transform="translate(771.000000, 0.000000)">
                        <g id="Icon-4" transform="translate(5.000000, 0.000000)">
                            <path d="M89.4593836,174.734863 C42.4830822,174.734863 4.26390411,136.516918 4.26390411,89.5393836 C4.26390411,42.5630822 42.4830822,4.34513699 89.4593836,4.34513699 C136.436918,4.34513699 174.656096,42.5630822 174.656096,89.5393836 C174.656096,136.516918 136.436918,174.734863 89.4593836,174.734863" id="Fill-1" fill="#F1F1F2"></path>
                            <g id="Group-5">
                                <mask id="mask-2" fill="white">
                                    <use xlink:href="#path-1"></use>
                                </mask>
                                <g id="Clip-4"></g>
                                <path d="M89.4593836,0.0806164384 C40.1307534,0.0806164384 -0.000616438356,40.2119863 -0.000616438356,89.5406164 C-0.000616438356,138.868014 40.1307534,179.000616 89.4593836,179.000616 C138.789247,179.000616 178.920616,138.868014 178.920616,89.5406164 C178.920616,40.2119863 138.789247,0.0806164384 89.4593836,0.0806164384 M89.4593836,8.61089041 C134.158562,8.61089041 170.391575,44.8439041 170.391575,89.5406164 C170.391575,134.237329 134.158562,170.470342 89.4593836,170.470342 C44.7626712,170.470342 8.52965753,134.237329 8.52965753,89.5406164 C8.52965753,44.8439041 44.7626712,8.61089041 89.4593836,8.61089041" id="Fill-3" fill="#FFCC67" mask="url(#mask-2)"></path>
                            </g>
                            <path d="M138.126699,89.5412329 C138.126699,116.419178 116.339301,138.206575 89.4613562,138.206575 C62.5846438,138.206575 40.7947808,116.419178 40.7947808,89.5412329 C40.7947808,62.6632877 62.5846438,40.8746575 89.4613562,40.8746575 C116.339301,40.8746575 138.126699,62.6632877 138.126699,89.5412329" id="Fill-6" fill="#FFCC67"></path>
                            <path d="M50.1542877,60.8478767 L50.1542877,129.635 C50.1542877,129.635 50.1542877,139.459795 59.9815479,139.459795 L118.942644,139.459795 C128.769904,139.459795 128.769904,129.635 128.769904,129.635 L128.769904,60.8478767 L104.201137,60.8478767 L104.201137,70.675137 C104.201137,70.675137 104.201137,75.5881507 99.2893562,75.5881507 L79.6348356,75.5881507 C74.7230548,75.5881507 74.7230548,70.675137 74.7230548,70.675137 L74.7230548,60.8478767 L50.1542877,60.8478767 Z" id="Fill-8" fill="#676767"></path>
                            <path d="M89.4618493,90.3009315 C80.745411,90.3009315 73.6773288,97.3665479 73.6773288,106.085452 C73.6773288,112.810795 77.8888356,118.552301 83.8177397,120.824493 L87.5903425,110.968877 C85.6263699,110.215589 84.2319863,108.31326 84.2319863,106.082986 C84.2319863,103.195589 86.5719863,100.855589 89.4618493,100.855589 C92.3492466,100.855589 94.6917123,103.195589 94.6917123,106.082986 C94.6917123,108.31326 93.294863,110.215589 91.3333562,110.968877 L95.1059589,120.824493 C101.034863,118.552301 105.243904,112.810795 105.243904,106.085452 C105.243904,97.3665479 98.1782877,90.3009315 89.4618493,90.3009315" id="Fill-10" fill="#F1F1F2"></path>
                            <mask id="mask-4" fill="white">
                                <use xlink:href="#path-3"></use>
                            </mask>
                            <g id="Clip-13"></g>
                            <path d="M66.5938356,131.343151 L58.2743836,131.343151 L58.2743836,123.023699 L66.5938356,123.023699 L66.5938356,131.343151 Z" id="Fill-12" fill="#FFCC67" mask="url(#mask-4)"></path>
                            <path d="M100.692616,38.3864658 L89.4623425,23.1998904 L78.2308356,38.3864658 L67.0005616,32.7707123 L67.0005616,49.6167397 L89.4623425,49.6167397 L111.92289,49.6167397 L111.92289,32.7707123 L100.692616,38.3864658 Z" id="Fill-14" fill="#676767" mask="url(#mask-4)"></path>
                            <path d="M131.686644,81.4817945 L114.099658,81.4817945" id="Stroke-15" stroke="#FFCC67" stroke-width="5.361" mask="url(#mask-4)"></path>
                            <path d="M131.686644,92.3001644 L114.099658,92.3001644" id="Stroke-16" stroke="#FFCC67" stroke-width="5.361" mask="url(#mask-4)"></path>
                        </g>
                    </g>
                </g>
            </g>
        </g>
    </g>
</svg>