<?xml version="1.0" encoding="UTF-8" standalone="no"?>
<svg width="179px" height="179px" viewBox="0 0 179 179" version="1.1" xmlns="http://www.w3.org/2000/svg" xmlns:xlink="http://www.w3.org/1999/xlink">
    <!-- Generator: Sketch 3.6.1 (26313) - http://www.bohemiancoding.com/sketch -->
    <title>Icon 2</title>
    <desc>Created with Sketch.</desc>
    <defs>
        <path id="path-1" d="M0,0.08 L178.921233,0.08 L178.921233,179 L0,179"></path>
        <path id="path-3" d="M0,0.08 L178.921233,0.08 L178.921233,179 L0,179 L0,0.08 Z"></path>
    </defs>
    <g id="Welcome" stroke="none" stroke-width="1" fill="none" fill-rule="evenodd">
        <g id="Desktop-HD-Home" transform="translate(-501.000000, -1571.000000)">
            <g id="What-We-Offer" transform="translate(0.000000, 1400.000000)">
                <g id="icons" transform="translate(239.000000, 171.000000)">
                    <g id="Group-2" transform="translate(257.000000, 0.000000)">
                        <g id="Icon-2" transform="translate(5.000000, 0.000000)">
                            <path d="M89.4581507,174.734863 C42.4818493,174.734863 4.26513699,136.516918 4.26513699,89.5393836 C4.26513699,42.5630822 42.4818493,4.34513699 89.4581507,4.34513699 C136.435685,4.34513699 174.656096,42.5630822 174.656096,89.5393836 C174.656096,136.516918 136.435685,174.734863 89.4581507,174.734863" id="Fill-1" fill="#F1F1F2"></path>
                            <g id="Group-5">
                                <mask id="mask-2" fill="white">
                                    <use xlink:href="#path-1"></use>
                                </mask>
                                <g id="Clip-4"></g>
                                <path d="M89.4581507,0.0806164384 C40.1307534,0.0806164384 -0.000616438356,40.2119863 -0.000616438356,89.5406164 C-0.000616438356,138.868014 40.1307534,179.000616 89.4581507,179.000616 C138.788014,179.000616 178.920616,138.868014 178.920616,89.5406164 C178.920616,40.2119863 138.788014,0.0806164384 89.4581507,0.0806164384 M89.4581507,8.61089041 C134.156096,8.61089041 170.391575,44.8439041 170.391575,89.5406164 C170.391575,134.237329 134.156096,170.470342 89.4581507,170.470342 C44.7614384,170.470342 8.52965753,134.237329 8.52965753,89.5406164 C8.52965753,44.8439041 44.7614384,8.61089041 89.4581507,8.61089041" id="Fill-3" fill="#FFCC67" mask="url(#mask-2)"></path>
                            </g>
                            <mask id="mask-4" fill="white">
                                <use xlink:href="#path-3"></use>
                            </mask>
                            <g id="Clip-7"></g>
                            <path d="M100.098493,99.9405479 L78.820274,99.9405479 L78.820274,78.6635616 L100.098493,78.6635616 L100.098493,99.9405479 Z" id="Fill-6" fill="#676767" mask="url(#mask-4)"></path>
                            <path d="M142.653699,99.9405479 L78.8215068,99.9405479 L78.8215068,46.7468493 L142.653699,46.7468493 L142.653699,99.9405479 Z" id="Stroke-8" stroke="#FFCC67" stroke-width="5.361" mask="url(#mask-4)"></path>
                            <path d="M100.098493,131.858493 L36.2650685,131.858493 L36.2650685,78.6635616 L100.098493,78.6635616 L100.098493,131.858493 Z" id="Stroke-9" stroke="#FFCC67" stroke-width="5.361" mask="url(#mask-4)"></path>
                            <path d="M57.4383699,35.353589 C65.4828904,35.353589 65.4828904,27.3103014 65.4828904,27.3103014 C65.4828904,27.3103014 65.4828904,35.353589 73.5261781,35.353589 C73.5261781,35.353589 65.4828904,35.353589 65.4828904,43.3981096 C65.4828904,43.3981096 65.4828904,35.353589 57.4383699,35.353589" id="Fill-10" fill="#676767" mask="url(#mask-4)"></path>
                            <path d="M57.4383699,35.353589 C65.4828904,35.353589 65.4828904,27.3103014 65.4828904,27.3103014 C65.4828904,27.3103014 65.4828904,35.353589 73.5261781,35.353589 C73.5261781,35.353589 65.4828904,35.353589 65.4828904,43.3981096 C65.4828904,43.3981096 65.4828904,35.353589 57.4383699,35.353589 L57.4383699,35.353589 Z" id="Stroke-11" stroke="#676767" stroke-width="2.701" stroke-linejoin="round" mask="url(#mask-4)"></path>
                            <path d="M116.728397,129.589877 C129.747575,129.589877 129.747575,116.569466 129.747575,116.569466 C129.747575,116.569466 129.747575,129.589877 142.766753,129.589877 C142.766753,129.589877 129.747575,129.589877 129.747575,142.610288 C129.747575,142.610288 129.747575,129.589877 116.728397,129.589877" id="Fill-12" fill="#676767" mask="url(#mask-4)"></path>
                            <path d="M116.728397,129.589877 C129.747575,129.589877 129.747575,116.569466 129.747575,116.569466 C129.747575,116.569466 129.747575,129.589877 142.766753,129.589877 C142.766753,129.589877 129.747575,129.589877 129.747575,142.610288 C129.747575,142.610288 129.747575,129.589877 116.728397,129.589877 L116.728397,129.589877 Z" id="Stroke-13" stroke="#676767" stroke-width="2.701" stroke-linejoin="round" mask="url(#mask-4)"></path>
                            <path d="M33.913726,61.5557945 C39.2804384,61.5557945 39.2804384,56.1878493 39.2804384,56.1878493 C39.2804384,56.1878493 39.2804384,61.5557945 44.6483836,61.5557945 C44.6483836,61.5557945 39.2804384,61.5557945 39.2804384,66.9237397 C39.2804384,66.9237397 39.2804384,61.5557945 33.913726,61.5557945" id="Fill-14" fill="#676767" mask="url(#mask-4)"></path>
                            <path d="M33.913726,61.5557945 C39.2804384,61.5557945 39.2804384,56.1878493 39.2804384,56.1878493 C39.2804384,56.1878493 39.2804384,61.5557945 44.6483836,61.5557945 C44.6483836,61.5557945 39.2804384,61.5557945 39.2804384,66.9237397 C39.2804384,66.9237397 39.2804384,61.5557945 33.913726,61.5557945 L33.913726,61.5557945 Z" id="Stroke-15" stroke="#676767" stroke-width="2.701" stroke-linejoin="round" mask="url(#mask-4)"></path>
                        </g>
                    </g>
                </g>
            </g>
        </g>
    </g>
</svg>