<svg><g id="group0" transform="translate(100,100)"><path opacity="1" fill="#3333cc" d="M0,100A100,100 0 1,1 0,-100A100,100 0 1,1 0,100M0,86.66666666666667A86.66666666666667,86.66666666666667 0 1,0 0,-86.66666666666667A86.66666666666667,86.66666666666667 0 1,0 0,86.66666666666667Z"></path><path opacity="1" fill="#3333cc" d="M0,76.66666666666667A76.66666666666667,76.66666666666667 0 1,1 0,-76.66666666666667A76.66666666666667,76.66666666666667 0 1,1 0,76.66666666666667M0,63.333333333333336A63.333333333333336,63.333333333333336 0 1,0 0,-63.333333333333336A63.333333333333336,63.333333333333336 0 1,0 0,63.333333333333336Z"></path><path opacity="1" fill="#3333cc" d="M0,53.333333333333336A53.333333333333336,53.333333333333336 0 1,1 0,-53.333333333333336A53.333333333333336,53.333333333333336 0 1,1 0,53.333333333333336M0,40A40,40 0 1,0 0,-40A40,40 0 1,0 0,40Z"></path><line opacity="1" stroke="white" stroke-width="10" x1="57.74705379690137" x2="74.24621202458748" y1="-57.7470537969014" y2="-74.2462120245875"></line><line opacity="1" stroke="white" stroke-width="10" x1="-57.7470537969014" x2="-74.2462120245875" y1="-57.747053796901376" y2="-74.24621202458748"></line><line opacity="1" stroke="white" stroke-width="10" x1="-57.747053796901376" x2="-74.24621202458748" y1="57.74705379690139" y2="74.24621202458749"></line><line opacity="1" stroke="white" stroke-width="10" x1="57.74705379690139" x2="74.24621202458749" y1="57.747053796901376" y2="74.24621202458748"></line><line opacity="1" stroke="white" stroke-width="10" x1="29.166666666666675" x2="40.83333333333334" y1="-50.51814855409226" y2="-70.72540797572915"></line><line opacity="1" stroke="white" stroke-width="10" x1="-58.333333333333336" x2="-81.66666666666667" y1="7.143537063963867e-15" y2="1.0000951889549414e-14"></line><line opacity="1" stroke="white" stroke-width="10" x1="29.166666666666675" x2="40.83333333333334" y1="50.51814855409226" y2="70.72540797572915"></line><line opacity="1" stroke="white" stroke-width="10" x1="-6.429183357567481e-15" x2="-1.0715305595945801e-14" y1="-35" y2="-58.333333333333336"></line><line opacity="1" stroke="white" stroke-width="10" x1="2.1430611191891602e-15" x2="3.571768531981934e-15" y1="35" y2="58.333333333333336"></line></g></svg>