<svg width="50" height="49" viewBox="0 0 50 49" xmlns="http://www.w3.org/2000/svg"><title>Shape</title><desc>Created with Sketch.</desc><path d="M24.999 0c-13.806 0-24.999 11.194-24.999 25.001 0 11.046 7.162 20.416 17.097 23.72 1.251.231 1.706-.538 1.706-1.203 0-.592-.022-2.163-.033-4.252-6.954 1.512-8.422-3.352-8.422-3.352-1.137-2.888-2.776-3.656-2.776-3.656-2.27-1.55.172-1.52.172-1.52 2.509.178 3.829 2.576 3.829 2.576 2.229 3.821 5.852 2.715 7.276 2.079.226-1.619.874-2.718 1.587-3.344-5.551-.631-11.387-2.776-11.387-12.355 0-2.73.974-4.962 2.572-6.71-.256-.629-1.115-3.171.246-6.615 0 0 2.099-.672 6.876 2.565 1.993-.557 4.132-.835 6.258-.844 2.123.009 4.263.287 6.258.844 4.774-3.237 6.869-2.565 6.869-2.565 1.364 3.444.505 5.985.249 6.615 1.603 1.748 2.569 3.98 2.569 6.71 0 9.602-5.844 11.717-11.413 12.334.896.772 1.696 2.301 1.696 4.634 0 3.34-.03 6.036-.03 6.856 0 .67.449 1.449 1.719 1.201 9.924-3.311 17.081-12.674 17.081-23.717 0-13.808-11.193-25.001-25.001-25.001z" fill="#666"/></svg>