<?xml version="1.0" encoding="UTF-8" standalone="no"?>
<svg width="50px" height="49px" viewBox="0 0 50 49" version="1.1" xmlns="http://www.w3.org/2000/svg" xmlns:xlink="http://www.w3.org/1999/xlink">
    <!-- Generator: Sketch 3.6.1 (26313) - http://www.bohemiancoding.com/sketch -->
    <title>Shape</title>
    <desc>Created with Sketch.</desc>
    <defs></defs>
    <g id="Welcome" stroke="none" stroke-width="1" fill="none" fill-rule="evenodd">
        <g id="Desktop-HD-Home" transform="translate(-1072.000000, -4477.000000)" fill="#666666">
            <g id="Footer" transform="translate(0.000000, 4302.000000)">
                <g id="Social-icons">
                    <g transform="translate(1072.000000, 175.000000)">
                        <path d="M24.9987179,0 C11.1929487,0 0,11.1935897 0,25.0012821 C0,36.0467949 7.16153846,45.4173077 17.0967949,48.7211538 C18.3480769,48.9525641 18.8032051,48.1826923 18.8032051,47.5179487 C18.8032051,46.925641 18.7814103,45.3544872 18.7705128,43.2660256 C11.8160256,44.7782051 10.3487179,39.9141026 10.3487179,39.9141026 C9.21153846,37.0262821 7.5724359,36.2583333 7.5724359,36.2583333 C5.3025641,34.7083333 7.74487179,34.7384615 7.74487179,34.7384615 C10.2538462,34.9160256 11.574359,37.3141026 11.574359,37.3141026 C13.8038462,41.1346154 17.4262821,40.0288462 18.85,39.3929487 C19.0762821,37.774359 19.7237179,36.675 20.4371795,36.0487179 C14.8865385,35.4179487 9.05064103,33.2730769 9.05064103,23.6935897 C9.05064103,20.9634615 10.024359,18.7314103 11.6230769,16.9833333 C11.3673077,16.3538462 10.5076923,13.8121795 11.8685897,10.3685897 C11.8685897,10.3685897 13.9673077,9.69679487 18.7442308,12.9333333 C20.7371795,12.3762821 22.8762821,12.0980769 25.0025641,12.0897436 C27.125641,12.0987179 29.2653846,12.3762821 31.2608974,12.9333333 C36.0346154,9.69679487 38.1301282,10.3685897 38.1301282,10.3685897 C39.4942308,13.8121795 38.6352564,16.3538462 38.3788462,16.9833333 C39.9814103,18.7314103 40.9480769,20.9634615 40.9480769,23.6935897 C40.9480769,33.2955128 35.1038462,35.4108974 29.5346154,36.0275641 C30.4307692,36.8 31.2307692,38.3288462 31.2307692,40.6615385 C31.2307692,44.0019231 31.200641,46.6974359 31.200641,47.5173077 C31.200641,48.1871795 31.65,48.9660256 32.9192308,48.7179487 C42.8435897,45.4070513 50,36.0435897 50,25.0012821 C50,11.1935897 38.8070513,0 24.9987179,0 L24.9987179,0 Z" id="Shape"></path>
                    </g>
                </g>
            </g>
        </g>
    </g>
</svg>