<svg width="50" height="41" viewBox="0 0 50 41" xmlns="http://www.w3.org/2000/svg"><title>Shape</title><desc>Created with Sketch.</desc><path d="M50 4.81c-1.84.816-3.816 1.367-5.891 1.614 2.117-1.269 3.745-3.28 4.51-5.674-1.982 1.175-4.178 2.03-6.513 2.488-1.871-1.992-4.537-3.239-7.487-3.239-5.665 0-10.258 4.592-10.258 10.258 0 .803.091 1.587.266 2.338-8.526-.428-16.084-4.512-21.143-10.719-.883 1.516-1.389 3.278-1.389 5.158 0 3.559 1.811 6.698 4.563 8.538-1.681-.054-3.263-.516-4.646-1.283l-.001.129c0 4.969 3.536 9.115 8.228 10.058-.86.233-1.766.359-2.702.359-.662 0-1.304-.064-1.93-.184 1.305 4.075 5.093 7.041 9.582 7.124-3.511 2.751-7.933 4.391-12.74 4.391-.828 0-1.644-.048-2.447-.144 4.539 2.91 9.931 4.608 15.724 4.608 18.868 0 29.186-15.63 29.186-29.184 0-.444-.01-.888-.03-1.329 2.006-1.445 3.745-3.252 5.12-5.31z" fill="#fff"/></svg>