<?xml version="1.0" encoding="UTF-8" standalone="no"?>
<svg width="50px" height="41px" viewBox="0 0 50 41" version="1.1" xmlns="http://www.w3.org/2000/svg" xmlns:xlink="http://www.w3.org/1999/xlink">
    <!-- Generator: Sketch 3.6.1 (26313) - http://www.bohemiancoding.com/sketch -->
    <title>Shape</title>
    <desc>Created with Sketch.</desc>
    <defs></defs>
    <g id="Welcome" stroke="none" stroke-width="1" fill="none" fill-rule="evenodd">
        <g id="Desktop-HD-Home" transform="translate(-1154.000000, -4481.000000)" fill="#CB9F2C">
            <g id="Footer" transform="translate(0.000000, 4302.000000)">
                <g id="Social-icons">
                    <g transform="translate(1072.000000, 175.000000)">
                        <path d="M132,8.8102022 C130.160461,9.62575484 128.183915,10.1770321 126.108671,10.424425 C128.226121,9.15499396 129.85333,7.14468267 130.618236,4.75062011 C128.636495,5.92589899 126.440476,6.78041115 124.104853,7.23883485 C122.234147,5.24670467 119.568017,4 116.617482,4 C110.952768,4 106.359441,8.59202888 106.359441,14.2580419 C106.359441,15.0612574 106.450346,15.8449931 106.625664,16.5962625 C98.1000221,16.1683571 90.541875,12.0841006 85.4823319,5.87719959 C84.5992494,7.39272496 84.0934249,9.15564329 84.0934249,11.0347909 C84.0934249,14.5937431 85.9043933,17.7325818 88.6568835,19.5727699 C86.9757802,19.5188759 85.3940236,19.0572056 84.0109606,18.289703 C84.009662,18.3325585 84.009662,18.3747646 84.009662,18.4189187 C84.009662,23.3875563 87.5452385,27.5334987 92.2372635,28.4769684 C91.3769074,28.7100762 90.4710985,28.8360453 89.5354207,28.8360453 C88.8737582,28.8360453 88.2315754,28.7724115 87.6049764,28.6522863 C88.9101204,32.7268029 92.6982845,35.6935704 97.1870706,35.776684 C93.6761685,38.5272262 89.2536135,40.1680714 84.4473072,40.1680714 C83.6194174,40.1680714 82.8032155,40.1200213 82,40.0245705 C86.5394335,42.9348467 91.9314312,44.6321832 97.7240627,44.6321832 C116.592159,44.6321832 126.909939,29.0022726 126.909939,15.4482553 C126.909939,15.0041167 126.899549,14.5606275 126.88007,14.1197356 C128.885836,12.6743374 130.625378,10.8672649 132,8.8102022 L132,8.8102022 Z" id="Shape"></path>
                    </g>
                </g>
            </g>
        </g>
    </g>
</svg>
